<?xml version="1.0" encoding="utf-8"?>
<!-- Generator: Adobe Illustrator 24.0.3, SVG Export Plug-In . SVG Version: 6.00 Build 0)  -->
<!DOCTYPE svg PUBLIC "-//W3C//DTD SVG 1.1//EN" "http://www.w3.org/Graphics/SVG/1.1/DTD/svg11.dtd" [
	<!ENTITY ns_extend "http://ns.adobe.com/Extensibility/1.0/">
	<!ENTITY ns_ai "http://ns.adobe.com/AdobeIllustrator/10.0/">
	<!ENTITY ns_graphs "http://ns.adobe.com/Graphs/1.0/">
	<!ENTITY ns_vars "http://ns.adobe.com/Variables/1.0/">
	<!ENTITY ns_imrep "http://ns.adobe.com/ImageReplacement/1.0/">
	<!ENTITY ns_sfw "http://ns.adobe.com/SaveForWeb/1.0/">
	<!ENTITY ns_custom "http://ns.adobe.com/GenericCustomNamespace/1.0/">
	<!ENTITY ns_adobe_xpath "http://ns.adobe.com/XPath/1.0/">
]>
<svg version="1.1" id="general_1_" xmlns:x="&ns_extend;" xmlns:i="&ns_ai;" xmlns:graph="&ns_graphs;"
	 xmlns="http://www.w3.org/2000/svg" xmlns:xlink="http://www.w3.org/1999/xlink" x="0px" y="0px" viewBox="0 0 600 600"
	 style="enable-background:new 0 0 600 600;" xml:space="preserve">
<style type="text/css">
	.st0{fill:#66CC66;}
	.st1{fill:#6666CC;}
</style>
<metadata>
	<sfw  xmlns="&ns_sfw;">
		<slices></slices>
		<sliceSourceBounds  bottomLeftOrigin="true" height="591.3" width="570.5" x="22.2" y="-595.7"></sliceSourceBounds>
	</sfw>
</metadata>
<g id="general">
	<path class="st0" d="M71.6,569.6c0,0,7-50.2,9.8-72.1c2.7-21.9,9.6-68.6,9.6-68.6s-3.1-6.9-19.4-45.2s-46.5-75.4-49.2-116.5
		c-2.7-41.1,23.3-91.9,55.3-142.8C108.8,74.8,154.8-3.8,191.1,5c11.3,2.7,19.9,19.7,36.4,53.6c29,59.3,39.9,108.1,43.4,124.7
		c10,47.8,14.9,71.7,9.8,91.1c-10.9,40.9-44.5,66.8-89.6,101.6c-49.5,38.2-71,32-75.6,59.6c-2.9,17.5-10.2,73.7-11.6,97.9
		c-1.5,24.3-5.8,62.1-5.8,62.1L71.6,569.6z"/>
	<path class="st1" d="M218.8,558.9c11.6-19.7,20.8-36.6,27.5-49.2c20.8-39.5,27.4-57.2,31.3-68.9c4.9-14.9,7.4-22.3,8.3-32.6
		c2.8-30.5-10.4-41.7-11.7-61c-3.6-54.9,93.6-105.1,122.5-120c23.7-12.2,42.2-18.5,57.9-23.8c47.6-15.9,126.8-33.9,136.8-13.3
		c0.6,1.3,1.7,3.2,1.2,7.1c-2.4,19.1-4.9,34.3-6.9,39c-12.5,29.3-7.3,42.3-33,103.2c-26.3,62.1-39.4,93.2-59.7,107.5
		c-32.5,23-86,40.4-126.8,22.2c-23-10.2-40.3-30.7-56.4-23.5c-2.3,1-5.2,2.9-14.6,19.8c-13.4,24-14.3,32.4-27.3,58.7
		c-4.9,9.9-6.6,12.3-16.4,31.8c-4.4,8.8-8,16.1-10.3,20.9C233.7,570.9,226.2,564.9,218.8,558.9z"/>
</g>
</svg>
