<?xml version="1.0" encoding="utf-8"?>
<!-- Generator: Adobe Illustrator 24.0.3, SVG Export Plug-In . SVG Version: 6.00 Build 0)  -->
<!DOCTYPE svg PUBLIC "-//W3C//DTD SVG 1.1//EN" "http://www.w3.org/Graphics/SVG/1.1/DTD/svg11.dtd" [
	<!ENTITY ns_extend "http://ns.adobe.com/Extensibility/1.0/">
	<!ENTITY ns_ai "http://ns.adobe.com/AdobeIllustrator/10.0/">
	<!ENTITY ns_graphs "http://ns.adobe.com/Graphs/1.0/">
	<!ENTITY ns_vars "http://ns.adobe.com/Variables/1.0/">
	<!ENTITY ns_imrep "http://ns.adobe.com/ImageReplacement/1.0/">
	<!ENTITY ns_sfw "http://ns.adobe.com/SaveForWeb/1.0/">
	<!ENTITY ns_custom "http://ns.adobe.com/GenericCustomNamespace/1.0/">
	<!ENTITY ns_adobe_xpath "http://ns.adobe.com/XPath/1.0/">
]>
<svg version="1.1" id="general_1_" xmlns:x="&ns_extend;" xmlns:i="&ns_ai;" xmlns:graph="&ns_graphs;"
	 xmlns="http://www.w3.org/2000/svg" xmlns:xlink="http://www.w3.org/1999/xlink" x="0px" y="0px" viewBox="0 0 600 600"
	 style="enable-background:new 0 0 600 600;" xml:space="preserve">
<style type="text/css">
	.st0{fill:#006699;}
	.st1{fill:#9933CC;}
	.st2{fill:#339966;}
</style>
<metadata>
	<sfw  xmlns="&ns_sfw;">
		<slices></slices>
		<sliceSourceBounds  bottomLeftOrigin="true" height="586.6" width="514.6" x="43.3" y="-593.9"></sliceSourceBounds>
	</sfw>
</metadata>
<g id="general">
	<path class="st0" d="M183.4,593.5c0,0-17.5-19.6-51-55.9s-50.1-35-56.6-81.4c-6.5-46.4-8.3-51.4,20-97.4s29.8-72.5,12.2-107.9
		S62.4,211,49.7,150.7S44.6,47.4,59,22.2S82,6.4,76,31.4c-5.9,25,59.4,153.6,91.9,167.9c32.5,14.4,50.6,30.7,56.2,70.9
		c5.7,40.2-27,70-40,119.2C171.1,438.6,131.3,462,152,497S189.6,600,183.4,593.5z"/>
	<path class="st1" d="M245,586.7c-5,0.5-21.9-42.8-11.3-87.4c1.9-8,8.6-34.8,30.1-55.9c4.8-4.7,5-3.9,11.5-10.1
		c13-12.3,28-26.5,34.1-47.8c6.3-22,0.4-41.8-2.2-50.1c-3.6-11.8-6.5-13.4-13.8-31.1c0,0-10-17.2-13.2-41.1
		c-9.4-71.2,15.9-183.9,27-182.2c1.2,0.2,2,1.8,2.5,2.9c14.5,34.4-12.7,107.7,5.6,156.4c15.9,42.2,53.5,32.8,71.1,84.5
		c2.5,7.3,12.6,39.6,0.7,74.6c-3.2,9.5-8.1,19.3-50.1,62.4c-53.4,54.9-82.4,77-88.5,112.3C247.4,579.9,246.9,586.5,245,586.7z"/>
	<path class="st2" d="M340.9,582c-3.6-2.4,2.5-21.7,12.5-38.1c26.3-42.8,61.5-35.6,96.9-80.2c8.6-10.9,23.5-30.1,22.3-54.6
		c-0.5-9.6-3.1-12.9-13.4-36.8c-18.4-42.7-16.3-46.8-30.2-75.2c-15.1-31-17.5-26.2-25.9-45.9c-5.8-13.5-22.3-52.2-11.4-99.3
		c2.7-11.8,20.2-61.1,55.3-83.3c23.2-14.6,44.6-3.1,71-33.8c20.6-24,32.8-29.6,37.1-26.2c3,2.4-4.9,17.9-11.3,28.3
		c-16.9,27.4-33.8,36.2-61.9,65.7c-16,16.8-24,25.2-26,30.3c-19.5,50.1,45.8,127.1,57.5,140.9c7.4,8.8,17.8,19.9,27.5,38.9
		c5.4,10.5,14.7,29.2,16.6,55.2c0.6,8.4,1.7,35.2-12.3,65.3c-4.6,10-20,39.7-53,58.7c-5.4,3.1-5.2,2.4-23.7,10.4
		c-45.7,19.7-68.5,29.6-88.7,45.1C355.3,566.4,344.7,584.4,340.9,582z"/>
</g>
</svg>
