<?xml version="1.0" encoding="utf-8"?>
<!-- Generator: Adobe Illustrator 24.0.3, SVG Export Plug-In . SVG Version: 6.00 Build 0)  -->
<!DOCTYPE svg PUBLIC "-//W3C//DTD SVG 1.1//EN" "http://www.w3.org/Graphics/SVG/1.1/DTD/svg11.dtd" [
	<!ENTITY ns_extend "http://ns.adobe.com/Extensibility/1.0/">
	<!ENTITY ns_ai "http://ns.adobe.com/AdobeIllustrator/10.0/">
	<!ENTITY ns_graphs "http://ns.adobe.com/Graphs/1.0/">
	<!ENTITY ns_vars "http://ns.adobe.com/Variables/1.0/">
	<!ENTITY ns_imrep "http://ns.adobe.com/ImageReplacement/1.0/">
	<!ENTITY ns_sfw "http://ns.adobe.com/SaveForWeb/1.0/">
	<!ENTITY ns_custom "http://ns.adobe.com/GenericCustomNamespace/1.0/">
	<!ENTITY ns_adobe_xpath "http://ns.adobe.com/XPath/1.0/">
]>
<svg version="1.1" id="general_1_" xmlns:x="&ns_extend;" xmlns:i="&ns_ai;" xmlns:graph="&ns_graphs;"
	 xmlns="http://www.w3.org/2000/svg" xmlns:xlink="http://www.w3.org/1999/xlink" x="0px" y="0px" viewBox="0 0 600 600"
	 style="enable-background:new 0 0 600 600;" xml:space="preserve">
<style type="text/css">
	.st0{fill:#00613A;}
</style>
<metadata>
	<sfw  xmlns="&ns_sfw;">
		<slices></slices>
		<sliceSourceBounds  bottomLeftOrigin="true" height="533.8" width="585.5" x="7.2" y="-585.9"></sliceSourceBounds>
	</sfw>
</metadata>
<path id="general" class="st0" d="M588.1,285.3c-4.7-31.7-9.2-62.2-31.4-87.2c-22-24.7-48.4-29.5-55.5-30.6
	c-0.8-0.1-18.9-2.6-37.9,3.1c-10.3,3.1-22.1,9-33.8,17.6c-17.3-17.7-33.4-28.4-33.4-28.4c-10.7-7.2-20.4-12.1-27.4-15.3l2.5-20.6
	c0,0,28,0.8,35.4,0c7.4-0.8,4.9-45.2,0-55.1c-4.9-9.9-100.4-2.5-128.3-2.5c-28,0-195-16.5-200.7-14c-5.8,2.5-4.9,6.6-8.2,14
	S58.7,85.3,58.7,95.2c0,9.9,28.6,10.3,28.6,10.3h42c-1.6,12.4-3.1,24.7-4.7,37.1c-21.6,4.3-48.6,13.5-71,34.6
	C-54.2,278.8,50,556.6,123.8,567.1c4.4,0.6,9.9,0.5,33.8,2.6c36.9,3.3,54.4,6.4,78.5,9.3c55.3,6.5,83,9.8,99.4,3.5
	c22.6-8.6,36.8-26.2,65.3-61.4c16.9-20.9,33.2-41.1,46.8-66.8c9.5,4.3,19.2,6.7,28.5,6.8c33.3,0.6,67.1-27.2,72.1-31.4
	c10.3-8.4,21.1-17.4,30.2-33.6C599.1,359.3,592.7,316.1,588.1,285.3z M514.2,395.2c-13,10.8-31,16.2-48,14.3
	c17.6-56.9,17.9-120.8-0.8-168.1c8.9-2.1,23.9-4.2,37.9,2.7C545.7,265.2,557,359.6,514.2,395.2z"/>
</svg>
