<?xml version="1.0" encoding="utf-8"?>
<!-- Generator: Adobe Illustrator 24.0.3, SVG Export Plug-In . SVG Version: 6.00 Build 0)  -->
<!DOCTYPE svg PUBLIC "-//W3C//DTD SVG 1.1//EN" "http://www.w3.org/Graphics/SVG/1.1/DTD/svg11.dtd" [
	<!ENTITY ns_extend "http://ns.adobe.com/Extensibility/1.0/">
	<!ENTITY ns_ai "http://ns.adobe.com/AdobeIllustrator/10.0/">
	<!ENTITY ns_graphs "http://ns.adobe.com/Graphs/1.0/">
	<!ENTITY ns_vars "http://ns.adobe.com/Variables/1.0/">
	<!ENTITY ns_imrep "http://ns.adobe.com/ImageReplacement/1.0/">
	<!ENTITY ns_sfw "http://ns.adobe.com/SaveForWeb/1.0/">
	<!ENTITY ns_custom "http://ns.adobe.com/GenericCustomNamespace/1.0/">
	<!ENTITY ns_adobe_xpath "http://ns.adobe.com/XPath/1.0/">
]>
<svg version="1.1" id="general_1_" xmlns:x="&ns_extend;" xmlns:i="&ns_ai;" xmlns:graph="&ns_graphs;"
	 xmlns="http://www.w3.org/2000/svg" xmlns:xlink="http://www.w3.org/1999/xlink" x="0px" y="0px" viewBox="0 0 600 600"
	 style="enable-background:new 0 0 600 600;" xml:space="preserve">
<style type="text/css">
	.st0{fill:#500D59;}
</style>
<metadata>
	<sfw  xmlns="&ns_sfw;">
		<slices></slices>
		<sliceSourceBounds  bottomLeftOrigin="true" height="592.4" width="507.5" x="51.4" y="-596.2"></sliceSourceBounds>
	</sfw>
</metadata>
<path id="general" class="st0" d="M552.9,7.2c-8-6.1-20.4-2.9-32.4,1.2c-49.7,17-101.3,34.6-118.4,86.5c-2.9,8.7-6.7,24.4-4.6,45.5
	c-10.5,8.1-22.3,20-34.1,32.7c2-20.4-0.1-44.4-14.3-63.7c-7.2-9.8-15.5-15.6-32.2-27.3c-12.3-8.6-37.2-24.4-72.7-33.6
	c-20.9-5.4-42.8-11.1-50.6-1.3c-5.7,7.2-1.3,19.4,3.8,32.1c26.3,66.1,39.4,99.1,67.7,116.8c10.2,6.4,30.1,16.6,60.1,18.8
	c-27.7,29.5-60,73.7-94,116.3c1.5-21.9-1.2-50.2-19.5-71.9c-9.8-11.5-21.1-17.7-36.4-26.2c-32.7-18-60.6-20.8-79-22.5
	c-21.2-1.9-35.2-3-41.5,5.4c-5.7,7.6-2.9,19.5,4.5,37.6c20.5,50.4,35.3,86.7,76.2,104.6c10.7,4.7,32.7,12.2,63.9,8.2l3.2-0.4
	c-4.3,5-8.5,9.9-12.8,14.6c-23.8,26.4-38.8,60.1-63.5,85.6c-7.5,7.7-23.6,23.6-19.7,38c1.6,6.1,5.5,6.8,18.5,19.7
	c18.6,18.4,20.5,26.6,28.3,27.1c12,0.8,22.2-17.6,25.1-22.8c10.6-18.8,22.4-36.7,34.8-54.3l0,0.6c0.4,14,3.5,52.3,32.1,83
	c26.8,28.7,58.3,31.9,117,37.9c13.7,1.4,25.7,1.7,32-5.7c8.2-9.7,2-27-6.7-50.2c-13.2-35.3-21-56.3-43.4-73.1
	c-18.2-13.7-36.4-17.3-53-20.6c-21.3-4.2-40.5-4-56-2.3c16.4-22.2,33-44.3,48.1-67.4c14.2-21.5,27.1-37.7,38.9-51.5
	c0.7,3.1,1.5,6.3,2.2,9.4c8.9,30,24.8,46.9,33.3,54.6c32.6,29.5,70.7,27.4,130.6,24.1c11.6-0.6,24.4-2,30.5-11.1
	c3.2-4.7,5.9-13.5-5.4-41.5c-13.5-33.7-25.2-63-54.8-76.6c-13.7-6.3-25.6-6.3-48.9-6.1c-13.3,0.1-30.6,1.1-50.8,4.6
	c4.6-5.8,9-11.9,13.2-18.5c21.8-34.3,43.6-57.2,60.1-75c21.3,1,50.2-2.1,75.8-20c12.5-8.7,20.6-18.5,24.6-23.7
	c17.1-22.6,19.8-44.4,24.6-87.1C561.6,17,556.8,10.2,552.9,7.2z"/>
</svg>
