<?xml version="1.0" encoding="utf-8"?>
<!-- Generator: Adobe Illustrator 24.0.3, SVG Export Plug-In . SVG Version: 6.00 Build 0)  -->
<!DOCTYPE svg PUBLIC "-//W3C//DTD SVG 1.1//EN" "http://www.w3.org/Graphics/SVG/1.1/DTD/svg11.dtd" [
	<!ENTITY ns_extend "http://ns.adobe.com/Extensibility/1.0/">
	<!ENTITY ns_ai "http://ns.adobe.com/AdobeIllustrator/10.0/">
	<!ENTITY ns_graphs "http://ns.adobe.com/Graphs/1.0/">
	<!ENTITY ns_vars "http://ns.adobe.com/Variables/1.0/">
	<!ENTITY ns_imrep "http://ns.adobe.com/ImageReplacement/1.0/">
	<!ENTITY ns_sfw "http://ns.adobe.com/SaveForWeb/1.0/">
	<!ENTITY ns_custom "http://ns.adobe.com/GenericCustomNamespace/1.0/">
	<!ENTITY ns_adobe_xpath "http://ns.adobe.com/XPath/1.0/">
]>
<svg version="1.1" id="general_1_" xmlns:x="&ns_extend;" xmlns:i="&ns_ai;" xmlns:graph="&ns_graphs;"
	 xmlns="http://www.w3.org/2000/svg" xmlns:xlink="http://www.w3.org/1999/xlink" x="0px" y="0px" viewBox="0 0 600 600"
	 style="enable-background:new 0 0 600 600;" xml:space="preserve">
<style type="text/css">
	.st0{fill:#6666CC;}
</style>
<metadata>
	<sfw  xmlns="&ns_sfw;">
		<slices></slices>
		<sliceSourceBounds  bottomLeftOrigin="true" height="522.6" width="581.3" x="9.3" y="-594.4"></sliceSourceBounds>
	</sfw>
</metadata>
<path id="general" class="st0" d="M76.1,594.4c0,0,14.4-9.6,44.6-42.4c30.2-32.7,51.8-53.4,84.5-66.9
	c32.7-13.5,88.3-92.4,135.8-124.2c75.1-50.3,75.4-60.4,133.2-112.6c52.2-47.1,91.6-88.5,116.4-115.5c-4.9-35.4-30-60.2-56-61
	c-14.6-0.5-29.5,6.7-39,17.2c-12.4,13.9-13.2,30.9-13.9,51c-1.2,35.5,8.9,58.3,4.8,60c-4.4,1.8-11.8-27-40.1-49.2
	c-12.3-9.7-33.1-23.6-62.9-27.3c-11.4-1.4-24.8,0.3-41.9,7.7c-53.3,23.2-62.4,43.8-62.4,75.1s61.2,94.6,61.2,94.6
	s-87.1-83.5-127.5-75.3c-9.3,1.9-26.7-2.3-44,7.4c-14.4,8-21.7,19.8-25.1,25.2c-23.8,38.9-10.1,89.6-3.9,112.3
	c5.4,19.9,17.3,53.2,45.5,88.2c-37.1-53.5-93.6-73.9-131.6-56.3c-29,13.4-40.7,50.5-42,55.5c-8.4,33.1,5.8,60.6,15.7,79.9
	C42.2,566.1,62.3,584.1,76.1,594.4z"/>
</svg>
