<?xml version="1.0" encoding="utf-8"?>
<!-- Generator: Adobe Illustrator 24.0.3, SVG Export Plug-In . SVG Version: 6.00 Build 0)  -->
<!DOCTYPE svg PUBLIC "-//W3C//DTD SVG 1.1//EN" "http://www.w3.org/Graphics/SVG/1.1/DTD/svg11.dtd" [
	<!ENTITY ns_extend "http://ns.adobe.com/Extensibility/1.0/">
	<!ENTITY ns_ai "http://ns.adobe.com/AdobeIllustrator/10.0/">
	<!ENTITY ns_graphs "http://ns.adobe.com/Graphs/1.0/">
	<!ENTITY ns_vars "http://ns.adobe.com/Variables/1.0/">
	<!ENTITY ns_imrep "http://ns.adobe.com/ImageReplacement/1.0/">
	<!ENTITY ns_sfw "http://ns.adobe.com/SaveForWeb/1.0/">
	<!ENTITY ns_custom "http://ns.adobe.com/GenericCustomNamespace/1.0/">
	<!ENTITY ns_adobe_xpath "http://ns.adobe.com/XPath/1.0/">
]>
<svg version="1.1" id="general_1_" xmlns:x="&ns_extend;" xmlns:i="&ns_ai;" xmlns:graph="&ns_graphs;"
	 xmlns="http://www.w3.org/2000/svg" xmlns:xlink="http://www.w3.org/1999/xlink" x="0px" y="0px" viewBox="0 0 600 600"
	 style="enable-background:new 0 0 600 600;" xml:space="preserve">
<style type="text/css">
	.st0{fill:#339966;}
</style>
<metadata>
	<sfw  xmlns="&ns_sfw;">
		<slices></slices>
		<sliceSourceBounds  bottomLeftOrigin="true" height="567" width="582.8" x="5.9" y="-576.4"></sliceSourceBounds>
	</sfw>
</metadata>
<path id="general" class="st0" d="M5.9,549.6c15-52.8,33.9-93.7,48.5-121.5c27.1-51.6,44.4-83.3,79.5-96.6
	c12.6-4.8,9.8-0.5,66.5-6.8c68.7-7.7,86.2-15.6,92.9-18.8c2.3-1.1,31.4-15.6,53-42.9c50.7-64,8.7-133.1,38.6-187.4
	c18.3-33.3,67.1-67.4,203.8-66.1c-1.6,15.7-3.2,31.5-4.8,47.2c-36.2-2.4-66.1,0.5-87.5,3.9c-37.1,5.9-66.2,11-83.2,34.4
	c-7.5,10.3-10.8,20.4-11.9,30.2c-5.5,52.3,16.5,93.6-13.8,154.2c-21.1,42.2-43.5,67-70,80c-3.9,1.9-11.8,5.4-37.4,10.8
	c-83.2,17.8-98.5,1.7-128.4,17.6c-36.1,19.2-49.9,61.9-64.9,108.2c-10.6,32.8-13.8,61.3-14.8,80.3C50.2,567.5,28,558.5,5.9,549.6z"
	/>
</svg>
