<?xml version="1.0" encoding="utf-8"?>
<!-- Generator: Adobe Illustrator 24.0.3, SVG Export Plug-In . SVG Version: 6.00 Build 0)  -->
<!DOCTYPE svg PUBLIC "-//W3C//DTD SVG 1.1//EN" "http://www.w3.org/Graphics/SVG/1.1/DTD/svg11.dtd" [
	<!ENTITY ns_extend "http://ns.adobe.com/Extensibility/1.0/">
	<!ENTITY ns_ai "http://ns.adobe.com/AdobeIllustrator/10.0/">
	<!ENTITY ns_graphs "http://ns.adobe.com/Graphs/1.0/">
	<!ENTITY ns_vars "http://ns.adobe.com/Variables/1.0/">
	<!ENTITY ns_imrep "http://ns.adobe.com/ImageReplacement/1.0/">
	<!ENTITY ns_sfw "http://ns.adobe.com/SaveForWeb/1.0/">
	<!ENTITY ns_custom "http://ns.adobe.com/GenericCustomNamespace/1.0/">
	<!ENTITY ns_adobe_xpath "http://ns.adobe.com/XPath/1.0/">
]>
<svg version="1.1" id="general_1_" xmlns:x="&ns_extend;" xmlns:i="&ns_ai;" xmlns:graph="&ns_graphs;"
	 xmlns="http://www.w3.org/2000/svg" xmlns:xlink="http://www.w3.org/1999/xlink" x="0px" y="0px" viewBox="0 0 600 600"
	 style="enable-background:new 0 0 600 600;" xml:space="preserve">
<style type="text/css">
	.st0{fill:#F4A019;}
</style>
<metadata>
	<sfw  xmlns="&ns_sfw;">
		<slices></slices>
		<sliceSourceBounds  bottomLeftOrigin="true" height="495.9" width="592" x="2.9" y="-548.9"></sliceSourceBounds>
	</sfw>
</metadata>
<path id="general" class="st0" d="M550.8,528.7c-10.1,10.1-27.8,20.3-76.3,20.3c-84.8-0.1-113.1-31.7-225.5-54.5
	c-21.1-4.3-51.3-10.4-92.5-13.9c-74.6-6.4-97.6,9.5-122.3-8.5c-33.9-24.8-32-82.2-30.9-116.4c2.5-77,35.8-80.2,31.3-147.6
	c-1.8-27.2-9-54-2-97.8c5-31.5,12.4-40.5,17.3-45c18.8-17.4,49.3-13.4,89.7-5c59.9,12.4,89.8,18.6,132.5,35.9
	c163.5,66.2,287.1,5.9,316.8,68.3c10.2,21.5,5.5,49.6-0.8,86.2c-8,47.2-21.3,49.5-24.8,86.9c-4.3,46.1,14.9,52.8,13.1,107.1
	C575.5,471.3,573.9,505.8,550.8,528.7z"/>
</svg>
