<?xml version="1.0" encoding="utf-8"?>
<!-- Generator: Adobe Illustrator 24.0.3, SVG Export Plug-In . SVG Version: 6.00 Build 0)  -->
<!DOCTYPE svg PUBLIC "-//W3C//DTD SVG 1.1//EN" "http://www.w3.org/Graphics/SVG/1.1/DTD/svg11.dtd" [
	<!ENTITY ns_extend "http://ns.adobe.com/Extensibility/1.0/">
	<!ENTITY ns_ai "http://ns.adobe.com/AdobeIllustrator/10.0/">
	<!ENTITY ns_graphs "http://ns.adobe.com/Graphs/1.0/">
	<!ENTITY ns_vars "http://ns.adobe.com/Variables/1.0/">
	<!ENTITY ns_imrep "http://ns.adobe.com/ImageReplacement/1.0/">
	<!ENTITY ns_sfw "http://ns.adobe.com/SaveForWeb/1.0/">
	<!ENTITY ns_custom "http://ns.adobe.com/GenericCustomNamespace/1.0/">
	<!ENTITY ns_adobe_xpath "http://ns.adobe.com/XPath/1.0/">
]>
<svg version="1.1" id="general_1_" xmlns:x="&ns_extend;" xmlns:i="&ns_ai;" xmlns:graph="&ns_graphs;"
	 xmlns="http://www.w3.org/2000/svg" xmlns:xlink="http://www.w3.org/1999/xlink" x="0px" y="0px" viewBox="0 0 600 600"
	 style="enable-background:new 0 0 600 600;" xml:space="preserve">
<style type="text/css">
	.st0{fill:#C10065;}
</style>
<metadata>
	<sfw  xmlns="&ns_sfw;">
		<slices></slices>
		<sliceSourceBounds  bottomLeftOrigin="true" height="488.5" width="593.2" x="3.4" y="-559.8"></sliceSourceBounds>
	</sfw>
</metadata>
<path id="general" class="st0" d="M9.3,517.7c-15.2-21.6-1.4-46.9,44.5-168.5C106.3,210,123.2,150.3,137.6,153
	c5.8,1.1,8.3,11.6,14,52.2c16.5,116.6,15.6,169.4,25.1,170.8c10.5,1.5,30.6-61,42-110.9c0,0,37.4-163.9,64.4-191.9
	c0.6-0.7,1.9-1.8,3.5-1.8c12.2,0,20,66,32.2,136.2c15.8,90.7,28.2,161.7,44.9,162.1c15.3,0.4,45.4-145,59.7-193.5
	c16.2-55.1,24.9-56.2,27.2-56c5.9,0.4,9.6,11.8,10.8,15.6c26.6,81.3,65.7,158.4,88.1,240.9c36.1,132.8,57.8,150.7,41.5,170.7
	c-22,27.1-68.3,2.6-219.1-7.5c-62.7-4.2-125-4.7-173.4-5.1C58.5,533.7,26,541.4,9.3,517.7z"/>
</svg>
