<?xml version="1.0" encoding="utf-8"?>
<!-- Generator: Adobe Illustrator 24.0.3, SVG Export Plug-In . SVG Version: 6.00 Build 0)  -->
<!DOCTYPE svg PUBLIC "-//W3C//DTD SVG 1.1//EN" "http://www.w3.org/Graphics/SVG/1.1/DTD/svg11.dtd" [
	<!ENTITY ns_extend "http://ns.adobe.com/Extensibility/1.0/">
	<!ENTITY ns_ai "http://ns.adobe.com/AdobeIllustrator/10.0/">
	<!ENTITY ns_graphs "http://ns.adobe.com/Graphs/1.0/">
	<!ENTITY ns_vars "http://ns.adobe.com/Variables/1.0/">
	<!ENTITY ns_imrep "http://ns.adobe.com/ImageReplacement/1.0/">
	<!ENTITY ns_sfw "http://ns.adobe.com/SaveForWeb/1.0/">
	<!ENTITY ns_custom "http://ns.adobe.com/GenericCustomNamespace/1.0/">
	<!ENTITY ns_adobe_xpath "http://ns.adobe.com/XPath/1.0/">
]>
<svg version="1.1" id="general_1_" xmlns:x="&ns_extend;" xmlns:i="&ns_ai;" xmlns:graph="&ns_graphs;"
	 xmlns="http://www.w3.org/2000/svg" xmlns:xlink="http://www.w3.org/1999/xlink" x="0px" y="0px" viewBox="0 0 600 600"
	 style="enable-background:new 0 0 600 600;" xml:space="preserve">
<style type="text/css">
	.st0{fill:#996699;}
</style>
<metadata>
	<sfw  xmlns="&ns_sfw;">
		<slices></slices>
		<sliceSourceBounds  bottomLeftOrigin="true" height="469.1" width="581.8" x="9.1" y="-522.4"></sliceSourceBounds>
	</sfw>
</metadata>
<path id="general" class="st0" d="M76.8,521.1c0,0-4.6-20-18.5-66.2S9.1,297.7,9.1,297.7s12.3-2.7,18.5-8.2
	c6.2-5.4,24.6-8.5,24.6-8.5l49.3,170.8c0,0-16.9-195.5-23.1-229.3c-6.2-33.9-12.3-93.9-12.3-93.9h29.2c0,0,18.5,130.8,24.6,147.8
	c6.2,16.9,27.7,163.1,27.7,163.1s4.6-229.3,7.7-269.3c3.1-40,0-117,0-117h41.6c0,0,9.2,67.7,10.8,113.9s10.8,206.2,15.4,233.9
	c0,0,26.2-223.2,33.9-255.5c7.7-32.3,9.2-92.3,9.2-92.3l28.7,6.2c0,0-4.1,61.6-7.2,101.6c-3.1,40-6.2,230.9-6.2,230.9
	s29.2-120.1,41.6-167.8s33.9-150.6,33.9-150.6L400,85.6c0,0-10.8,80-15.4,104.7c-4.6,24.6-26.2,146.2-29.2,164.7
	c-3.1,18.5-4.6,43.1-4.6,43.1l97-279.1l27.7,9.7c0,0-20,64.6-26.2,89.3c-6.2,24.6-27.7,97-30.8,113.9c-3.1,16.9-16.9,83.1-16.9,83.1
	s84.7-184.7,98.5-224.7c13.9-40,13.9-40,13.9-40l18.5,4.6c0,0-12.3,72.3-32.3,117c-20,44.6-56.9,158.5-56.9,158.5
	s97-143.1,104.7-163.1c7.7-20,29.2-56.9,29.2-56.9l13.9,18.5c0,0-47.7,123.1-60,150.8c-12.3,27.7-72.3,141.6-72.3,141.6
	c-142.5,2.1-192.8,1.2-204.5-0.7c-1.5-0.2-13.6-2.3-30.5-3.8c0,0-6.1-0.6-12.4-1C195.5,514.7,145.1,516.3,76.8,521.1z"/>
</svg>
