<?xml version="1.0" encoding="utf-8"?>
<!-- Generator: Adobe Illustrator 24.0.3, SVG Export Plug-In . SVG Version: 6.00 Build 0)  -->
<!DOCTYPE svg PUBLIC "-//W3C//DTD SVG 1.1//EN" "http://www.w3.org/Graphics/SVG/1.1/DTD/svg11.dtd" [
	<!ENTITY ns_extend "http://ns.adobe.com/Extensibility/1.0/">
	<!ENTITY ns_ai "http://ns.adobe.com/AdobeIllustrator/10.0/">
	<!ENTITY ns_graphs "http://ns.adobe.com/Graphs/1.0/">
	<!ENTITY ns_vars "http://ns.adobe.com/Variables/1.0/">
	<!ENTITY ns_imrep "http://ns.adobe.com/ImageReplacement/1.0/">
	<!ENTITY ns_sfw "http://ns.adobe.com/SaveForWeb/1.0/">
	<!ENTITY ns_custom "http://ns.adobe.com/GenericCustomNamespace/1.0/">
	<!ENTITY ns_adobe_xpath "http://ns.adobe.com/XPath/1.0/">
]>
<svg version="1.1" id="general_1_" xmlns:x="&ns_extend;" xmlns:i="&ns_ai;" xmlns:graph="&ns_graphs;"
	 xmlns="http://www.w3.org/2000/svg" xmlns:xlink="http://www.w3.org/1999/xlink" x="0px" y="0px" viewBox="0 0 600 600"
	 style="enable-background:new 0 0 600 600;" xml:space="preserve">
<style type="text/css">
	.st0{fill:#66CC66;}
	.st1{fill:#6666CC;}
</style>
<metadata>
	<sfw  xmlns="&ns_sfw;">
		<slices></slices>
		<sliceSourceBounds  bottomLeftOrigin="true" height="558.6" width="584.5" x="7.7" y="-579.3"></sliceSourceBounds>
	</sfw>
</metadata>
<g id="general">
	<path class="st0" d="M218,138.1c14.5,64.5-39.3,115.4-44.2,119.8c-6.7,6.1-57.5,52.6-106.7,34.8C9.4,271.7,8,181.4,7.8,167.7
		c-0.3-20.8-0.9-59,26.4-85.1C54.8,62.9,81,60.2,96.5,58.5c14.5-1.5,50.8-5.4,83,18.8C207.8,98.7,215.9,129.1,218,138.1z"/>
	<path class="st0" d="M336,518.5c-12.3,44.6-78.5,65-118.5,42.8c-23-12.8-30.4-36-31.5-39.6c-12.6-41.9,17.4-95.1,58-102.2
		c25.2-4.4,46.1,10.2,53.3,15.3C320.7,451.1,345.2,485.2,336,518.5z"/>
	<path class="st1" d="M495.5,55c8.6,22.4-3.6,51.3-24.3,63.9c-16.6,10-34.1,6.7-50,3.6c-29.2-5.7-73.8-25.6-75.7-56.7
		c-0.7-11.2,4.4-19.7,5.8-21.9c17.5-28.3,65.6-23.1,76.4-21.9C450.1,24.3,485.2,28.1,495.5,55z"/>
	<path class="st0" d="M562,151.1c4.6,22.4-11.3,49.6-33.8,51.1c-22.6,1.5-43.8-23.4-40.3-47.5c2.9-20.2,22.8-37.8,43.4-34.8
		C547.8,122.3,559.2,137.2,562,151.1z"/>
	<path class="st1" d="M302.8,76.6c12.3,14.8,1.4,48.9-19.3,52.8c-12.6,2.4-28.7-6.5-33-21.2c-5-17.3,8.7-34.6,24.4-38.6
		C283.9,67.4,296.2,68.7,302.8,76.6z"/>
	<path class="st1" d="M578.3,268.1c15.1,30.8,1,74.8-19.8,79.9c-13.2,3.2-27.1-9.5-30.6-12.7c-14.4-13.2-16.6-30.6-17.7-40.2
		c-1.6-14.5-2-51.9,17.7-59.3C544.7,229.5,568.6,248.3,578.3,268.1z"/>
	<path class="st0" d="M587.1,491.3c-1.8,6.2-15.1,50.4-59.7,73.3c-35.1,18-93.6,24.8-125-10.7c-27.4-30.8-17.8-74.8-16.5-80.4
		c7.6-32.7,30.3-50.7,56.1-71.1c29-22.9,52.7-41.8,82.6-36.7c36.5,6.2,55,43.2,57.7,48.7C599.3,448.3,590,480.9,587.1,491.3z"/>
	<path class="st1" d="M476.8,254.5c7.1,77.3-55.5,155.6-120.9,156.7c-60,1-104.7-63.3-111.1-72.3c-7-10.1-17.9-26-23.3-49.7
		c-1.8-8-14.8-69.4,28.7-117.9c31.6-35.3,80.1-49.3,123.4-39.8C434.7,145,472,202.3,476.8,254.5z"/>
	<path class="st1" d="M180.6,357.8c15.5,67.5-20.4,160.5-81,173.5c-5.3,1.1-21.9,4.5-39-3.3c-44-20-64.7-100.9-33.4-155.1
		c29.3-50.7,102.9-75.5,134.8-51.8C174,330.1,177.4,343.9,180.6,357.8z"/>
</g>
</svg>
