<?xml version="1.0" encoding="utf-8"?>
<!-- Generator: Adobe Illustrator 24.0.3, SVG Export Plug-In . SVG Version: 6.00 Build 0)  -->
<!DOCTYPE svg PUBLIC "-//W3C//DTD SVG 1.1//EN" "http://www.w3.org/Graphics/SVG/1.1/DTD/svg11.dtd" [
	<!ENTITY ns_extend "http://ns.adobe.com/Extensibility/1.0/">
	<!ENTITY ns_ai "http://ns.adobe.com/AdobeIllustrator/10.0/">
	<!ENTITY ns_graphs "http://ns.adobe.com/Graphs/1.0/">
	<!ENTITY ns_vars "http://ns.adobe.com/Variables/1.0/">
	<!ENTITY ns_imrep "http://ns.adobe.com/ImageReplacement/1.0/">
	<!ENTITY ns_sfw "http://ns.adobe.com/SaveForWeb/1.0/">
	<!ENTITY ns_custom "http://ns.adobe.com/GenericCustomNamespace/1.0/">
	<!ENTITY ns_adobe_xpath "http://ns.adobe.com/XPath/1.0/">
]>
<svg version="1.1" id="general_1_" xmlns:x="&ns_extend;" xmlns:i="&ns_ai;" xmlns:graph="&ns_graphs;"
	 xmlns="http://www.w3.org/2000/svg" xmlns:xlink="http://www.w3.org/1999/xlink" x="0px" y="0px" viewBox="0 0 600 600"
	 style="enable-background:new 0 0 600 600;" xml:space="preserve">
<style type="text/css">
	.st0{fill:#E26B13;}
	.st1{fill:#00613A;}
	.st2{fill:#F4A019;}
	.st3{fill:#4B190D;}
</style>
<metadata>
	<sfw  xmlns="&ns_sfw;">
		<slices></slices>
		<sliceSourceBounds  bottomLeftOrigin="true" height="585.9" width="580.7" x="9.7" y="-592.9"></sliceSourceBounds>
	</sfw>
</metadata>
<g id="general">
	<path class="st0" d="M67.4,383c14.7,5.3,27.6-15.6,72.3-49c40.9-30.5,43-22.6,93.4-59.4c34.2-24.9,35.9-30.5,56.5-39.8
		c23.5-10.6,43.5-13.2,45.6-24.8c1.6-8.9-8.2-17.6-13.7-22.3c-60.2-51.9-86.2-65.9-86.2-65.9C117.5,58.8,58.7,27.2,45,17.6
		C40,14.2,25.1,3.5,17.7,8.3c-5.7,3.7-4.3,15.3-3.8,19.2C27.7,140.1,34.6,196,32.6,180.3c-5.3-40.8,2.6,48.6,14.9,145.9
		C51.5,357.9,54.6,378.4,67.4,383z"/>
	<path class="st1" d="M14.1,550.3C-5,518,43.4,457.3,50.6,448.4c30.8-38.6,50.6-37.6,114.5-87.1c67-51.9,74.8-75.9,94.6-71.2
		c30.5,7.3,12.8,64.5,56.6,183.9c8.7,23.8,28.1,72.5,6.1,99.9c-1.9,2.4-3.6,4-4.7,4.9c-33.6,30.9-103.4,3.2-209.4-8.7
		C45.8,563.1,24.3,567.6,14.1,550.3z"/>
	<path class="st2" d="M585.4,287.4c3.1-32.2,5.2-53.8-6.7-62c-26-18-73.2,59.4-157.8,63.5c-64,3.1-100.8-38.1-119.4-20.2
		c-8.8,8.5-3.1,21.2,20,110.7c13.4,51.8,5.8,18.3,48.3,150.8c11.4,35.6,15.6,50.1,27.7,53.5c21,5.9,47-26.6,78.7-66.3
		c39.4-49.4,61.5-92,69.7-108.6C579,341.8,584,301.3,585.4,287.4z"/>
	<path class="st3" d="M417.3,247c-28.6-2.9-36.8-31.3-71.9-71.9C274.5,92.9,196,78.8,201.6,57.5c1.6-6.3,11.8-17.8,94.7-16.7
		c101,1.3,289.8,21,294,72.7c0.8,9.3-28.6,33.4-87.4,81.4C446.5,240.9,433.7,248.6,417.3,247z"/>
</g>
</svg>
