<?xml version="1.0" encoding="utf-8"?>
<!-- Generator: Adobe Illustrator 24.0.3, SVG Export Plug-In . SVG Version: 6.00 Build 0)  -->
<!DOCTYPE svg PUBLIC "-//W3C//DTD SVG 1.1//EN" "http://www.w3.org/Graphics/SVG/1.1/DTD/svg11.dtd" [
	<!ENTITY ns_extend "http://ns.adobe.com/Extensibility/1.0/">
	<!ENTITY ns_ai "http://ns.adobe.com/AdobeIllustrator/10.0/">
	<!ENTITY ns_graphs "http://ns.adobe.com/Graphs/1.0/">
	<!ENTITY ns_vars "http://ns.adobe.com/Variables/1.0/">
	<!ENTITY ns_imrep "http://ns.adobe.com/ImageReplacement/1.0/">
	<!ENTITY ns_sfw "http://ns.adobe.com/SaveForWeb/1.0/">
	<!ENTITY ns_custom "http://ns.adobe.com/GenericCustomNamespace/1.0/">
	<!ENTITY ns_adobe_xpath "http://ns.adobe.com/XPath/1.0/">
]>
<svg version="1.1" id="general_1_" xmlns:x="&ns_extend;" xmlns:i="&ns_ai;" xmlns:graph="&ns_graphs;"
	 xmlns="http://www.w3.org/2000/svg" xmlns:xlink="http://www.w3.org/1999/xlink" x="0px" y="0px" viewBox="0 0 600 600"
	 style="enable-background:new 0 0 600 600;" xml:space="preserve">
<style type="text/css">
	.st0{fill:#C10065;}
	.st1{fill:#500D59;}
	.st2{fill:#E59AE0;}
</style>
<metadata>
	<sfw  xmlns="&ns_sfw;">
		<slices></slices>
		<sliceSourceBounds  bottomLeftOrigin="true" height="558.8" width="572.9" x="13.6" y="-579.4"></sliceSourceBounds>
	</sfw>
</metadata>
<g id="general">
	<path class="st0" d="M406.9,245.2c0,0-5.6-37.5-17.6-64s-23.4-47.3-54.3-49.6s-64.4,23.2-74.1,57.2c-9.7,33.9,3.9,115.1,23.3,163.4
		c19.3,48.2,49.3,112.3,55.5,127c6.1,14.7,26.1,72.7,26.1,72.7s77.7-130.6,98.4-166.8c20.7-36.2,60.3-121.3,88-171.1
		c27.7-49.8,48.4-98.3,22.5-122.4c-25.9-24-114.1-50.1-144.4,15.3C399.9,172.2,406.9,245.2,406.9,245.2z"/>
	<path class="st1" d="M172.8,579.4c0,0-49.4-19.4-119.2-118.6S22,325.4,43.5,315.8s59.2,29.4,67.9,47.7c0,0,3.4-61.1,33.7-84.7
		c30.2-23.6,70.9-27.1,81,12.8c10.2,39.8-28.9,190.8-33.1,212.7C188.9,526.3,172.8,579.4,172.8,579.4z"/>
	<path class="st2" d="M137.8,94.1c-13.1-26.3-36.3-38.3-52.1-32.7C74.6,65.3,67.5,77.8,66,88.9c-2.8,19.9,12.2,36.6,40.2,66.8
		c16.8,18.2,31.4,30.5,36.4,34.6c28.8,24,61.9,44.1,61.9,44.1l0,0c1.3-13.5,2.7-32.5,2.8-55.3c0.2-25.8,0.2-53.2-7.1-86.4
		c-7.1-32.4-13.6-60.2-35.1-69.2c-1-0.4-16.7-6.8-27.6,0.6C124,33.5,121.9,62.1,137.8,94.1z"/>
</g>
</svg>
