<?xml version="1.0" encoding="utf-8"?>
<!-- Generator: Adobe Illustrator 24.0.3, SVG Export Plug-In . SVG Version: 6.00 Build 0)  -->
<!DOCTYPE svg PUBLIC "-//W3C//DTD SVG 1.1//EN" "http://www.w3.org/Graphics/SVG/1.1/DTD/svg11.dtd" [
	<!ENTITY ns_extend "http://ns.adobe.com/Extensibility/1.0/">
	<!ENTITY ns_ai "http://ns.adobe.com/AdobeIllustrator/10.0/">
	<!ENTITY ns_graphs "http://ns.adobe.com/Graphs/1.0/">
	<!ENTITY ns_vars "http://ns.adobe.com/Variables/1.0/">
	<!ENTITY ns_imrep "http://ns.adobe.com/ImageReplacement/1.0/">
	<!ENTITY ns_sfw "http://ns.adobe.com/SaveForWeb/1.0/">
	<!ENTITY ns_custom "http://ns.adobe.com/GenericCustomNamespace/1.0/">
	<!ENTITY ns_adobe_xpath "http://ns.adobe.com/XPath/1.0/">
]>
<svg version="1.1" id="general_1_" xmlns:x="&ns_extend;" xmlns:i="&ns_ai;" xmlns:graph="&ns_graphs;"
	 xmlns="http://www.w3.org/2000/svg" xmlns:xlink="http://www.w3.org/1999/xlink" x="0px" y="0px" viewBox="0 0 600 600"
	 style="enable-background:new 0 0 600 600;" xml:space="preserve">
<style type="text/css">
	.st0{fill:#FFFF66;}
</style>
<metadata>
	<sfw  xmlns="&ns_sfw;">
		<slices></slices>
		<sliceSourceBounds  bottomLeftOrigin="true" height="453.9" width="591.1" x="4.5" y="-526.9"></sliceSourceBounds>
	</sfw>
</metadata>
<path id="general" class="st0" d="M211.5,197.2c0,0,13.6-54.6-14.8-87.6s-39.8-39.8-70.5-35.3s-64.8,11.4-84.2,37.5
	S-1.2,200.5,5.7,277.3s13.6,122.3,55.7,153s160.4,80.7,205.8,85.3c45.5,4.5,75.1,19.3,122.8,5.7c47.8-13.6,114.9-81.9,147.8-138.7
	s66-170.6,55.7-211.5c-10.2-40.9-17.1-50-53.5-59.1S454.9,114.1,431,138c-23.9,23.9-44.4,62.6-44.4,62.6S427.6,121,365,90.3
	S226.3,119.8,211.5,197.2z"/>
</svg>
