<?xml version="1.0" encoding="utf-8"?>
<!-- Generator: Adobe Illustrator 24.0.3, SVG Export Plug-In . SVG Version: 6.00 Build 0)  -->
<!DOCTYPE svg PUBLIC "-//W3C//DTD SVG 1.1//EN" "http://www.w3.org/Graphics/SVG/1.1/DTD/svg11.dtd" [
	<!ENTITY ns_extend "http://ns.adobe.com/Extensibility/1.0/">
	<!ENTITY ns_ai "http://ns.adobe.com/AdobeIllustrator/10.0/">
	<!ENTITY ns_graphs "http://ns.adobe.com/Graphs/1.0/">
	<!ENTITY ns_vars "http://ns.adobe.com/Variables/1.0/">
	<!ENTITY ns_imrep "http://ns.adobe.com/ImageReplacement/1.0/">
	<!ENTITY ns_sfw "http://ns.adobe.com/SaveForWeb/1.0/">
	<!ENTITY ns_custom "http://ns.adobe.com/GenericCustomNamespace/1.0/">
	<!ENTITY ns_adobe_xpath "http://ns.adobe.com/XPath/1.0/">
]>
<svg version="1.1" id="general_1_" xmlns:x="&ns_extend;" xmlns:i="&ns_ai;" xmlns:graph="&ns_graphs;"
	 xmlns="http://www.w3.org/2000/svg" xmlns:xlink="http://www.w3.org/1999/xlink" x="0px" y="0px" viewBox="0 0 600 600"
	 style="enable-background:new 0 0 600 600;" xml:space="preserve">
<style type="text/css">
	.st0{fill:#66CC66;}
</style>
<metadata>
	<sfw  xmlns="&ns_sfw;">
		<slices></slices>
		<sliceSourceBounds  bottomLeftOrigin="true" height="581.1" width="494" x="53" y="-590.5"></sliceSourceBounds>
	</sfw>
</metadata>
<path id="general" class="st0" d="M530.7,340.9c-13-60.6-74.8-93.4-105.7-118.5c-7.9-6.4-21.9-10.2-39.4-12
	c24.3-10.5,45.7-23.6,52.6-38c16.3-34,26-71.7,29.3-100.3c3.3-28.7,0-62.7,0-62.7l-245.6,43L126,72.1c0,0,6.5,48.4,21.1,86
	c14.6,37.6,16.3,47.1,40.7,58.5c10.2,4.7,27.1,9.1,45.2,12.4c-5.9,2-11.4,4.2-16.1,6.4c-50.4,23.7-99.2,64.1-122,105.6
	c-22.8,41.5-32.5,66-39,123.3c-6.5,57.3,0,126.3,0,126.3s320.4-33.1,372.4-36.7c52-3.6,118.7-3.6,118.7-3.6s0-34,0-67
	S543.8,401.6,530.7,340.9z"/>
</svg>
