<?xml version="1.0" encoding="utf-8"?>
<!-- Generator: Adobe Illustrator 24.0.3, SVG Export Plug-In . SVG Version: 6.00 Build 0)  -->
<!DOCTYPE svg PUBLIC "-//W3C//DTD SVG 1.1//EN" "http://www.w3.org/Graphics/SVG/1.1/DTD/svg11.dtd" [
	<!ENTITY ns_extend "http://ns.adobe.com/Extensibility/1.0/">
	<!ENTITY ns_ai "http://ns.adobe.com/AdobeIllustrator/10.0/">
	<!ENTITY ns_graphs "http://ns.adobe.com/Graphs/1.0/">
	<!ENTITY ns_vars "http://ns.adobe.com/Variables/1.0/">
	<!ENTITY ns_imrep "http://ns.adobe.com/ImageReplacement/1.0/">
	<!ENTITY ns_sfw "http://ns.adobe.com/SaveForWeb/1.0/">
	<!ENTITY ns_custom "http://ns.adobe.com/GenericCustomNamespace/1.0/">
	<!ENTITY ns_adobe_xpath "http://ns.adobe.com/XPath/1.0/">
]>
<svg version="1.1" id="general_1_" xmlns:x="&ns_extend;" xmlns:i="&ns_ai;" xmlns:graph="&ns_graphs;"
	 xmlns="http://www.w3.org/2000/svg" xmlns:xlink="http://www.w3.org/1999/xlink" x="0px" y="0px" viewBox="0 0 600 600"
	 style="enable-background:new 0 0 600 600;" xml:space="preserve">
<style type="text/css">
	.st0{fill:#006699;}
	.st1{fill:#9933CC;}
</style>
<metadata>
	<sfw  xmlns="&ns_sfw;">
		<slices></slices>
		<sliceSourceBounds  bottomLeftOrigin="true" height="574" width="550.2" x="25.3" y="-587.3"></sliceSourceBounds>
	</sfw>
</metadata>
<g id="general">
	<path class="st0" d="M312.2,454c0.5,18,7.2,83.7,7.2,83.7l-50.5,9.1c-1.2-13.4-2.6-28.9-2.8-35.5c-0.4-12.6-7.3-100.9-13.2-153.7
		c-5.9-52.7-25.6-77.7-40.7-91.1c-15.2-13.4-80.6-16.2-107.1,9.2c-26.5,25.4-33.6,41.4-37.9,88.7c-4.3,47.3,2.9,115.3,7.2,173.8
		c1.4,19.5,2.6,33.3,3.4,43.1l-32.2,5.8c0,0-1.9-10.9-8.1-94.7S21,311.4,27.2,243.7s16.3-90.7,54.3-127.1s131.7-32.4,153.4-13.2
		s49.9,54.9,58.4,130.5C301.8,309.4,311.7,436,312.2,454z"/>
	<path class="st1" d="M552.4,362.7l-31.3-0.3c3.3-26.6,6.5-55.6,7.9-78.7c3.3-52.5,7.9-55.8,4.5-117.7
		c-3.4-61.9-55.6-74.7-89.4-50.7s-45.5,69.7-54.2,96.6c-8.3,25.4-18.2,102.9-23.6,149l-33.2-0.3c0,0,3.1-26.8,8.5-73.5
		s16.7-136,28-163.9c11.3-27.9,25.8-75.5,72.9-99.3s121.7-8.1,129.3,57.2s1.1,68.6-1.2,123.7C568.3,259.9,554.2,346.8,552.4,362.7z"
		/>
</g>
</svg>
