<?xml version="1.0" encoding="utf-8"?>
<!-- Generator: Adobe Illustrator 24.0.3, SVG Export Plug-In . SVG Version: 6.00 Build 0)  -->
<!DOCTYPE svg PUBLIC "-//W3C//DTD SVG 1.1//EN" "http://www.w3.org/Graphics/SVG/1.1/DTD/svg11.dtd" [
	<!ENTITY ns_extend "http://ns.adobe.com/Extensibility/1.0/">
	<!ENTITY ns_ai "http://ns.adobe.com/AdobeIllustrator/10.0/">
	<!ENTITY ns_graphs "http://ns.adobe.com/Graphs/1.0/">
	<!ENTITY ns_vars "http://ns.adobe.com/Variables/1.0/">
	<!ENTITY ns_imrep "http://ns.adobe.com/ImageReplacement/1.0/">
	<!ENTITY ns_sfw "http://ns.adobe.com/SaveForWeb/1.0/">
	<!ENTITY ns_custom "http://ns.adobe.com/GenericCustomNamespace/1.0/">
	<!ENTITY ns_adobe_xpath "http://ns.adobe.com/XPath/1.0/">
]>
<svg version="1.1" id="general_1_" xmlns:x="&ns_extend;" xmlns:i="&ns_ai;" xmlns:graph="&ns_graphs;"
	 xmlns="http://www.w3.org/2000/svg" xmlns:xlink="http://www.w3.org/1999/xlink" x="0px" y="0px" viewBox="0 0 600 600"
	 style="enable-background:new 0 0 600 600;" xml:space="preserve">
<style type="text/css">
	.st0{fill:#E26B13;}
</style>
<metadata>
	<sfw  xmlns="&ns_sfw;">
		<slices></slices>
		<sliceSourceBounds  bottomLeftOrigin="true" height="370.6" width="588.3" x="5.7" y="-484.9"></sliceSourceBounds>
	</sfw>
</metadata>
<path id="general" class="st0" d="M5.7,460.8c0,0,13.6-21,25.2-39.9s37.8-64,37.8-64s37.8,19.9,49.3,25.2s54.5,27.3,54.5,27.3
	s12.6-68.2,17.8-86s12.6-72.4,12.6-72.4s78.7,32.5,96.5,35.7s69.2,28.3,69.2,28.3s-4.2-93.3,0-112.2c4.2-18.9,0-78.7,0-78.7
	s102.8-5.2,124.8-8.4s100.7,0,100.7,0v21l-12.6,37.8c0,0-51.4,3.1-64-2.1c-12.6-5.2-103.8-6.3-103.8-6.3s2.1,65,3.1,90.2
	c1,25.2-3.1,119.6-3.1,119.6S315,335,299.3,330.8c-15.7-4.2-56.6-16.8-56.6-16.8s-11.5,55.6-19.9,82.9
	c-8.4,27.3-26.2,73.4-26.2,73.4s-79.7-44-90.2-47.2C95.8,419.9,78,405.2,78,405.2S63.3,444,60.2,456.6c-3.1,12.6-8.4,28.3-8.4,28.3
	L5.7,460.8z"/>
</svg>
