<?xml version="1.0" encoding="utf-8"?>
<!-- Generator: Adobe Illustrator 24.0.3, SVG Export Plug-In . SVG Version: 6.00 Build 0)  -->
<!DOCTYPE svg PUBLIC "-//W3C//DTD SVG 1.1//EN" "http://www.w3.org/Graphics/SVG/1.1/DTD/svg11.dtd" [
	<!ENTITY ns_extend "http://ns.adobe.com/Extensibility/1.0/">
	<!ENTITY ns_ai "http://ns.adobe.com/AdobeIllustrator/10.0/">
	<!ENTITY ns_graphs "http://ns.adobe.com/Graphs/1.0/">
	<!ENTITY ns_vars "http://ns.adobe.com/Variables/1.0/">
	<!ENTITY ns_imrep "http://ns.adobe.com/ImageReplacement/1.0/">
	<!ENTITY ns_sfw "http://ns.adobe.com/SaveForWeb/1.0/">
	<!ENTITY ns_custom "http://ns.adobe.com/GenericCustomNamespace/1.0/">
	<!ENTITY ns_adobe_xpath "http://ns.adobe.com/XPath/1.0/">
]>
<svg version="1.1" id="general_1_" xmlns:x="&ns_extend;" xmlns:i="&ns_ai;" xmlns:graph="&ns_graphs;"
	 xmlns="http://www.w3.org/2000/svg" xmlns:xlink="http://www.w3.org/1999/xlink" x="0px" y="0px" viewBox="0 0 600 600"
	 style="enable-background:new 0 0 600 600;" xml:space="preserve">
<style type="text/css">
	.st0{fill:#500D59;}
</style>
<metadata>
	<sfw  xmlns="&ns_sfw;">
		<slices></slices>
		<sliceSourceBounds  bottomLeftOrigin="true" height="591.6" width="574" x="12.9" y="-595.3"></sliceSourceBounds>
	</sfw>
</metadata>
<path id="general" class="st0" d="M288.5,3.8c-4.6,0.5-7.3,6.5-23.9,70.6c-9,34.6-17.3,67.7-18.1,67.6c0,0-0.1-0.1-0.1-0.4
	c0-4.6-12.5-13.7-51.2-41s-50.1-46.7-52.4-41s20.5,59.2,28.5,82s27.3,72.8,27.3,72.8s-47.8,4.6-74,11.4S9.6,240.5,13,254.2
	c3.4,13.7,77.4,45.5,103.6,61.5s63.7,26.2,63.7,26.2s-50.1,48.9-70.6,76.3c-20.5,27.3-55.8,80.8-43.3,76.3s182.1-70.6,222-92.2
	c0,0,11.4,107,17.1,143.4c5.7,36.4,6.8,62.6,22.8,43.3s44.4-122.9,54.6-144.6c10.2-21.6,30.7-80.8,30.7-80.8s52.4,27.3,85.4,41
	s83.1,51.2,87.6,41c4.6-10.2-64.9-103.6-80.8-129.8c-15.9-26.2-58-86.5-58-86.5s82-117.2,94.5-154.8c0.9-2.7,1.9-6.7-0.2-9.3
	c-7.8-10.1-49.8,12.8-123.9,44.6c-25.7,11-46.4,19.3-58,23.9c-7.2-13.6-18.5-35.4-31.9-62.6C303.8,21.1,296.9,2.8,288.5,3.8z"/>
</svg>
