<?xml version="1.0" encoding="utf-8"?>
<!-- Generator: Adobe Illustrator 24.0.3, SVG Export Plug-In . SVG Version: 6.00 Build 0)  -->
<!DOCTYPE svg PUBLIC "-//W3C//DTD SVG 1.1//EN" "http://www.w3.org/Graphics/SVG/1.1/DTD/svg11.dtd" [
	<!ENTITY ns_extend "http://ns.adobe.com/Extensibility/1.0/">
	<!ENTITY ns_ai "http://ns.adobe.com/AdobeIllustrator/10.0/">
	<!ENTITY ns_graphs "http://ns.adobe.com/Graphs/1.0/">
	<!ENTITY ns_vars "http://ns.adobe.com/Variables/1.0/">
	<!ENTITY ns_imrep "http://ns.adobe.com/ImageReplacement/1.0/">
	<!ENTITY ns_sfw "http://ns.adobe.com/SaveForWeb/1.0/">
	<!ENTITY ns_custom "http://ns.adobe.com/GenericCustomNamespace/1.0/">
	<!ENTITY ns_adobe_xpath "http://ns.adobe.com/XPath/1.0/">
]>
<svg version="1.1" id="general_1_" xmlns:x="&ns_extend;" xmlns:i="&ns_ai;" xmlns:graph="&ns_graphs;"
	 xmlns="http://www.w3.org/2000/svg" xmlns:xlink="http://www.w3.org/1999/xlink" x="0px" y="0px" viewBox="0 0 600 600"
	 style="enable-background:new 0 0 600 600;" xml:space="preserve">
<style type="text/css">
	.st0{fill:#006666;}
	.st1{fill:#FFFF66;}
	.st2{fill:#996699;}
</style>
<metadata>
	<sfw  xmlns="&ns_sfw;">
		<slices></slices>
		<sliceSourceBounds  bottomLeftOrigin="true" height="537.7" width="587.8" x="6.1" y="-559.6"></sliceSourceBounds>
	</sfw>
</metadata>
<g id="general">
	<path class="st0" d="M192.8,310.6c26.3,35.7,130.2-9,154.5,26.9c14.7,21.6,15.4,47,15.4,47s0.1,4.4-0.2,9
		c-1.6,21-15.5,56.6-37.8,80.7c-49,52.9-133.6,44.5-145.9,43.3c-23-2.3-90.4-13-134.9-70.4c-5.2-6.7-19.9-26.8-29.2-57.4
		C-7.8,314.9,14,214.2,76.2,182.3c6.1-3.2,36.9-19,71.5-8.1c5.5,1.7,29.2,9.2,42.5,30.5C214.8,244.5,173.9,284.9,192.8,310.6z"/>
	<path class="st1" d="M406.2,133.9c19.1-15.4-10.8-62.8,17.3-94c10.2-11.3,23.3-15.3,25.6-16c18.6-5.4,34.7,1.1,46,5.8
		c11.1,4.5,45.7,20.9,55.6,55.6c2.4,8.3,2.6,15.2,2.6,20.5c-0.5,112.5-74.8,162.4-74.8,162.4c-4.9,3.3-29,19-64.6,24.9
		c-11.7,1.9-69.6,11.5-119.5-24.9c-10.6-7.7-39.4-28.8-47.6-66.1c-2-9.1-7.8-35.4,7.3-58c11.7-17.5,29.9-23.7,35.8-25.6
		C342.8,101.4,385.5,150.6,406.2,133.9z"/>
	<path class="st2" d="M424.6,555.7c-24.6-8.8-35.6-30.6-38.5-36.4c-16.1-31.8-5.5-64.7,0.6-83.3c8.1-24.9,20.7-41.3,26.9-49.1
		c8.8-11.2,24.1-30.7,48.4-42.2c49.8-23.7,118.5-5.4,129.4,23.7c1.5,4.1,3.7,13.3,2.2,23.9c0,0-2.2,15.1-13,27.7
		c-25.5,29.6-76.6,11.6-85.1,31.4c-5.1,11.8,12.3,20.6,12.3,50.5c0,7.3,0,19.9-7.1,31.5C486.7,556.1,451.9,565.6,424.6,555.7z"/>
</g>
</svg>
