<?xml version="1.0" encoding="utf-8"?>
<!-- Generator: Adobe Illustrator 24.0.3, SVG Export Plug-In . SVG Version: 6.00 Build 0)  -->
<!DOCTYPE svg PUBLIC "-//W3C//DTD SVG 1.1//EN" "http://www.w3.org/Graphics/SVG/1.1/DTD/svg11.dtd" [
	<!ENTITY ns_extend "http://ns.adobe.com/Extensibility/1.0/">
	<!ENTITY ns_ai "http://ns.adobe.com/AdobeIllustrator/10.0/">
	<!ENTITY ns_graphs "http://ns.adobe.com/Graphs/1.0/">
	<!ENTITY ns_vars "http://ns.adobe.com/Variables/1.0/">
	<!ENTITY ns_imrep "http://ns.adobe.com/ImageReplacement/1.0/">
	<!ENTITY ns_sfw "http://ns.adobe.com/SaveForWeb/1.0/">
	<!ENTITY ns_custom "http://ns.adobe.com/GenericCustomNamespace/1.0/">
	<!ENTITY ns_adobe_xpath "http://ns.adobe.com/XPath/1.0/">
]>
<svg version="1.1" id="general_1_" xmlns:x="&ns_extend;" xmlns:i="&ns_ai;" xmlns:graph="&ns_graphs;"
	 xmlns="http://www.w3.org/2000/svg" xmlns:xlink="http://www.w3.org/1999/xlink" x="0px" y="0px" viewBox="0 0 600 600"
	 style="enable-background:new 0 0 600 600;" xml:space="preserve">
<style type="text/css">
	.st0{fill:#FA0018;}
	.st1{fill:#4E02C6;}
	.st2{fill:#04B25F;}
	.st3{fill:#FFF200;}
	.st4{fill:#FFFFFF;}
</style>
<metadata>
	<sfw  xmlns="&ns_sfw;">
		<slices></slices>
		<sliceSourceBounds  bottomLeftOrigin="true" height="589.1" width="568.9" x="7.2" y="-594.5"></sliceSourceBounds>
	</sfw>
</metadata>
<g id="general">
	<path class="st0" d="M255.5,56.2c-14.7,4.7-30.4,10.3-43.1,16c-1.8,0.8-5.8,2.8-10.3,6.2c-3,2.3-4.8,4.2-5.4,4.8c0,0-3.4,3.6-6,8.2
		c0,0,0,0,0,0c-0.5,0.7-1.1,1.4-1.6,2.2c-25.6,38,3.9,94,51.2,267.5c5.9,21.5,11,41.1,15.6,59c-15,7.2-28.5,12.6-36.1,15.6
		c-9.5,3.8-87.8,34.5-99.5,16.1c-4.4-7,2.3-18.7,11.8-35.4c21.4-37.3,45.2-48.8,41.2-59.7c-0.9-2.4-3.5-5.7-38.1-11.5
		c-27.1-4.5-35.3-4.1-51.7-7.1c-10.5-1.9-56.5-10-56.9-21.7c-0.4-12.5,51.4-23.8,55.5-24.7c39.3-8.4,64.6-3.1,66.1-9.3
		c1.3-5.7-19.4-11.8-56.9-34.8c-19.6-12-36.8-24.4-53.2-39.7c-17.4-16.3-34.3-32-30.4-40.2c2.1-4.4,10-5.7,77.4,1.4
		c54.8,5.7,68.3,3.4,72-3.9c2.6-5.2-1.1-10.4-12.8-30.5c-4.8-8.2-27.9-47.9-42.6-85.3c-8.4-21.2-12.5-31.9-8.1-37.8
		c10.9-15.1,57.3,1.2,88.7,12.2C202.6,30.9,227.7,41.1,255.5,56.2z"/>
	<path class="st1" d="M435.6,15c-12.7-6.3-19.8-4.3-134.8,27.9c0,0-21.2,5.5-45.2,13.3c-14.7,4.7-30.4,10.3-43.1,16
		c-1.8,0.8-5.8,2.8-10.3,6.2c-3,2.3-4.8,4.2-5.4,4.8c0,0-3.4,3.6-6,8.2c6.1-7.6,15.8-10.7,77.7-28c4-1.1,8.2-2.3,12.6-3.5
		c98-27.4,117.7-32.9,129.2-30c1.6,0.4,3.2,1.1,5.6,2.2c40.9,18,39.9,64.2,75,177.3c7.6,24.4,10.3,30.8,20.2,63.6
		c6.4,21.3,13,44,22.3,78.6c33.3,123.4,36.3,154.1,17.7,178.3c-2.4,3.1-4.3,5.4-6.3,7c-0.8,0.6-1.7,1.2-2.6,1.8
		c13.2-5.9,21.5-15.8,21.5-15.8c1-1.2,5.3-6.3,8.4-13.7c6-13.9,4.8-27.9-2.6-68.3c-4.1-22.2-5.1-26.2-5.1-26.2
		c-14.8-62.7-22.1-94-41.4-165.5C483.9,103.7,482.6,38.3,435.6,15z"/>
	<path class="st2" d="M415.9,32c-2.4-1.1-4-1.8-5.6-2.2C398.7,27,379,32.5,281,59.9c-4.4,1.2-8.6,2.4-12.6,3.5
		c-61.9,17.3-71.6,20.4-77.7,28c0,0,0,0,0,0c-0.5,0.7-1.1,1.4-1.6,2.2c-25.6,38,3.9,94,51.2,267.5c5.9,21.5,11,41.1,15.6,59
		c28.8,112.3,35.9,155.8,68.5,171.4c17.2,8.2,23.7,0.1,105.9-22.9c76.5-21.5,99.8-22.6,111.9-29.8c0,0,0,0,0,0
		c0.9-0.6,1.8-1.1,2.6-1.8c2-1.6,3.8-3.9,6.3-7c18.7-24.2,15.6-54.9-17.7-178.3c-9.4-34.7-15.9-57.4-22.3-78.6
		c-10-32.9-12.7-39.3-20.2-63.6C455.8,96.2,456.8,50,415.9,32z"/>
	<path class="st3" d="M347.4,214.1c-5.2,19.4-29,14.6-85.8,33.5c-4.6,1.5-15,5.1-22.6-0.8c-6.4-4.9-7.9-13.6-8.5-17.1
		c-7.8-48-32.2-94.9-17.6-104.8c1.2-0.8,10.2-3.5,28.3-8.8c0.7-0.2,1.1-0.3,1.7-0.5c4.6-1.4,14.1-4,32.8-8.5
		c20-4.8,30.1-7.2,32.4-6.2c11.8,5.1,11.9,20.7,29.7,75.9C347.1,205.4,349.1,207.7,347.4,214.1z"/>
	<path class="st1" d="M340.4,210.2c-4.6,17.4-26,13.1-76.9,30c-4.2,1.4-13.4,4.5-20.3-0.7c-5.7-4.4-7.1-12.2-7.6-15.4
		c-7-43-28.9-85.1-15.8-93.9c1.1-0.7,9.2-3.1,25.4-7.9c0.6-0.2,1-0.3,1.5-0.5c4.2-1.2,12.6-3.6,29.4-7.6c17.9-4.3,27-6.4,29-5.5
		c10.6,4.6,10.6,18.5,26.6,68C340.1,202.4,342,204.5,340.4,210.2z"/>
	<path class="st4" d="M272.9,148.8c2,12.6-7,28.5-20.4,29.5c-8.2,0.6-15.8-4.5-20-10.8c-4.7-7-6.3-16.9-2.1-25.1
		c4.5-9,13.4-11.2,15.9-11.7c1.7-0.3,11.1-2.2,18.9,4.4C265.9,135.6,271.6,140.6,272.9,148.8z"/>
	<path class="st4" d="M284.5,219.5c-7.3,10-24.7,14-34.9,4.5c-6.2-5.8-8.1-14.9-6.8-22.4c1.5-8.3,7.2-16.1,15.8-18.6
		c9.4-2.6,17.3,2.5,19.4,4.1c1.5,1.1,9.4,6.8,10.4,17.2C288.6,205.3,289.2,212.9,284.5,219.5z"/>
	<path class="st3" d="M274.1,221.4c-8,4.2-21,1-25-8.7c-2.4-5.9-0.9-12.6,2.3-17c3.5-5,9.8-8.3,16.4-7c7.2,1.4,10.9,7.5,11.9,9.2
		c0.7,1.2,4.3,7.7,1.8,14.9C281.2,213.4,279.2,218.7,274.1,221.4z"/>
	<path class="st3" d="M266.5,162.5c-4.6,8-17.2,12.2-25.4,6c-5-3.8-7-10.4-6.6-16c0.5-6.2,4.2-12.5,10.4-15
		c6.7-2.7,12.9,0.6,14.6,1.5c1.2,0.7,7.4,4.3,8.9,12C268.5,151.7,269.5,157.3,266.5,162.5z"/>
	<path class="st4" d="M306,179.4c-6.3,1.1-14.6-4-15.4-11.4c-0.5-4.5,1.9-8.7,5-11c3.4-2.6,8.4-3.4,12.7-1.1c4.7,2.5,6,7.5,6.3,8.9
		c0.2,1,1.4,6.1-1.8,10.5C312.5,175.6,310.1,178.7,306,179.4z"/>
	<path class="st0" d="M364.1,330.9c-1.3,0.4-2.6-5.5-7.8-9.7c-7.2-5.8-16.7-4-17.2-3.9c-1.3,0.3-10.3,2.2-14.4,10.2
		c-3,6-1.7,12-0.7,16.1c4.4,17.9,19.9,28.2,23.9,30.8c3.2,2.1,1.1,0.2,18.4,8.8c7.2,3.6,9.9,5.1,13.7,4.4c3.7-0.6,6.1-2.9,11.6-9.2
		c9.2-10.5,13.8-15.7,15.5-19c6.1-11.8,6.1-22.6,6.1-27.5c0-9.8-2.3-14.5-4-17.1c-0.6-1-2.2-3.2-4.7-5.5c-1.5-1.3-12-10-24.4-5.8
		c-8.3,2.8-13.8,10.4-15.2,17.2C363.9,325.8,365.3,330.5,364.1,330.9z"/>
</g>
</svg>
