<?xml version="1.0" encoding="utf-8"?>
<!-- Generator: Adobe Illustrator 24.0.3, SVG Export Plug-In . SVG Version: 6.00 Build 0)  -->
<!DOCTYPE svg PUBLIC "-//W3C//DTD SVG 1.1//EN" "http://www.w3.org/Graphics/SVG/1.1/DTD/svg11.dtd" [
	<!ENTITY ns_extend "http://ns.adobe.com/Extensibility/1.0/">
	<!ENTITY ns_ai "http://ns.adobe.com/AdobeIllustrator/10.0/">
	<!ENTITY ns_graphs "http://ns.adobe.com/Graphs/1.0/">
	<!ENTITY ns_vars "http://ns.adobe.com/Variables/1.0/">
	<!ENTITY ns_imrep "http://ns.adobe.com/ImageReplacement/1.0/">
	<!ENTITY ns_sfw "http://ns.adobe.com/SaveForWeb/1.0/">
	<!ENTITY ns_custom "http://ns.adobe.com/GenericCustomNamespace/1.0/">
	<!ENTITY ns_adobe_xpath "http://ns.adobe.com/XPath/1.0/">
]>
<svg version="1.1" id="general_1_" xmlns:x="&ns_extend;" xmlns:i="&ns_ai;" xmlns:graph="&ns_graphs;"
	 xmlns="http://www.w3.org/2000/svg" xmlns:xlink="http://www.w3.org/1999/xlink" x="0px" y="0px" viewBox="0 0 600 600"
	 style="enable-background:new 0 0 600 600;" xml:space="preserve">
<style type="text/css">
	.st0{fill:#4E02C6;}
	.st1{fill:#ECD3EF;}
	.st2{fill:#FA0018;}
</style>
<metadata>
	<sfw  xmlns="&ns_sfw;">
		<slices></slices>
		<sliceSourceBounds  bottomLeftOrigin="true" height="588.7" width="356.1" x="136.8" y="-594.3"></sliceSourceBounds>
	</sfw>
</metadata>
<g id="general">
	<path class="st0" d="M326.6,577.1c-3.2,2.9-6.5,5.6-6.5,5.6s-6.5,5.3-12.2,8.9c-11.7,7.4-41.1-2.7-41.3-2.8
		c-67.4-23.3-57.1-18.1-76.6-26.6c-47.7-20.5-50.5-25.8-51.8-29.7c-5.5-17,7.8-44.8,16.1-64.8c0,0,32.4-72.9,51.4-121.6
		c21.6-55.2,16.4-67.4,11-73.7c-3.7-4.3-6.4-3.9-27-12.6c-27.7-11.6-41.6-17.4-46.1-25.2c-5.3-9.3,0.3-25.4,11.5-57
		c6.3-17.5,12.6-32.3,25.2-61.1C195.3,82,192.9,88,195.6,81.8c27.2-60.6,28-63.4,34.4-67.3c0.8-0.5,2.3-1.2,4-2c0,0,19-8.7,43-6.6
		c-8-0.1-12.2,1.7-15.6,3.7c-6.4,3.8-7.2,6.7-34.4,67.3c-8.1,18-20.1,44.5-36.7,86.1C171.7,209.8,169,221,175,229.8
		c5.1,7.4,11.5,6.2,47.3,23c15.1,7.1,22.8,10.8,25.8,14.8c10.3,13.4,4.2,34.6-11,73.7c-19,48.7-51.4,121.6-51.4,121.6
		c-17.1,38.5-22.5,51.9-16.1,64.8c5.8,11.5,17.4,15.2,55.2,28.1c74.2,25.4,71,30.6,81.9,29.7C314.2,584.9,320.7,582,326.6,577.1z"/>
	<path class="st1" d="M435.6,294.2c42.3-107.7,74.1-158.7,47.6-199.3c-8.1-12.4-35-25.1-88.9-49.1C324.4,14.5,293.1,6.3,277.1,6
		c-8-0.1-12.2,1.7-15.6,3.7c-6.4,3.8-7.2,6.7-34.4,67.3c-8.1,18-20.1,44.5-36.7,86.1C171.7,209.8,169,221,175,229.8
		c5.1,7.4,11.5,6.2,47.3,23c15.1,7.1,22.8,10.8,25.8,14.8c10.3,13.4,4.2,34.6-11,73.7c-19,48.7-51.4,121.6-51.4,121.6
		c-17.1,38.5-22.5,51.9-16.1,64.8c5.8,11.5,17.4,15.2,55.2,28.1c74.2,25.4,71,30.6,81.9,29.7c7.5-0.6,13.9-3.4,19.8-8.4c0,0,0,0,0,0
		C360.3,548.7,374.2,450.4,435.6,294.2z"/>
	<path class="st2" d="M430.7,164.1c-3.3-5.4-9.2-8.6-20.9-14.9c-11.4-6.2-31.4-17-37.9-10.6c-2.4,2.4-2.9,7-1.4,10.4
		c3.4,8,15.8,5.1,34.9,14c9,4.2,14.2,6.7,16.9,12.1c5.9,12.3-4.3,33.1-19,39.7c-13.4,6-27.8-1.1-42.4-7.9
		c-20.2-9.4-49.2-21.9-87.4-35.9c14.6-7.7,26.2-12.1,34.9-14.8c5.1-1.6,15.7-4.7,16.3-10.4c0.2-2.2-1-4.5-2.7-5.9
		c-5.2-4.2-15.3,0.4-34.5,9.8c-35.3,17.4-36.8,19.3-37.7,22c-1.3,3.7-0.6,5.8,20.7,45.9c6.2,11.7,10.8,20.1,17.5,20.2
		c3,0,6.5-1.6,7.8-4.3c2.7-5.5-4.6-13.5-11.2-22.4c-4.4-5.9-9.8-14.2-15.3-25.1c28.6,11.2,51.7,20.6,67.6,27.2
		c39,16.1,59.4,25.4,75.1,15.7c8.3-5.1,12.3-13.8,15.7-21.1C430.4,202.1,440.6,180.3,430.7,164.1z"/>
</g>
</svg>
