<?xml version="1.0" encoding="utf-8"?>
<!-- Generator: Adobe Illustrator 24.0.3, SVG Export Plug-In . SVG Version: 6.00 Build 0)  -->
<!DOCTYPE svg PUBLIC "-//W3C//DTD SVG 1.1//EN" "http://www.w3.org/Graphics/SVG/1.1/DTD/svg11.dtd" [
	<!ENTITY ns_extend "http://ns.adobe.com/Extensibility/1.0/">
	<!ENTITY ns_ai "http://ns.adobe.com/AdobeIllustrator/10.0/">
	<!ENTITY ns_graphs "http://ns.adobe.com/Graphs/1.0/">
	<!ENTITY ns_vars "http://ns.adobe.com/Variables/1.0/">
	<!ENTITY ns_imrep "http://ns.adobe.com/ImageReplacement/1.0/">
	<!ENTITY ns_sfw "http://ns.adobe.com/SaveForWeb/1.0/">
	<!ENTITY ns_custom "http://ns.adobe.com/GenericCustomNamespace/1.0/">
	<!ENTITY ns_adobe_xpath "http://ns.adobe.com/XPath/1.0/">
]>
<svg version="1.1" id="general_1_" xmlns:x="&ns_extend;" xmlns:i="&ns_ai;" xmlns:graph="&ns_graphs;"
	 xmlns="http://www.w3.org/2000/svg" xmlns:xlink="http://www.w3.org/1999/xlink" x="0px" y="0px" viewBox="0 0 600 600"
	 style="enable-background:new 0 0 600 600;" xml:space="preserve">
<style type="text/css">
	.st0{fill:#4E02C6;}
	.st1{fill:#FA0018;}
	.st2{fill:#ECD3EF;}
</style>
<metadata>
	<sfw  xmlns="&ns_sfw;">
		<slices></slices>
		<sliceSourceBounds  bottomLeftOrigin="true" height="414.4" width="584.2" x="7.9" y="-507.2"></sliceSourceBounds>
	</sfw>
</metadata>
<g id="general">
	<path class="st0" d="M579,198.6c-2.2-3.1-4.8-5.8-7.9-8.3c-18.3-15.4-39.4-15.4-92.6-16.2c-210.7-3.2-171.5-7.5-308.7-2.1
		C64,176,53.6,178.1,40.7,188.2c-21.2,16.7-23.2,35-22.3,242c0.1,14.5,0.6,40.5,19.8,58.3c-9.6-7.4-14-18.8-17.9-27.4
		C7.1,432.5,7.8,405.9,8,396.9c1.7-88.8,1.1-177.7,4.8-266.5c0.1-3.6,0.5-14,7.8-20.9c4.8-4.5,10.6-5.6,13.1-6.1
		c68.2-11.7,146.4-10.3,146.4-10.3c73.4,1.4,96.1-6.2,119.9,14.3c11.4,9.9,17.7,21.6,21.3,30c30.8,0.9,73.8,2.2,146.9,3.3
		c53.2,0.8,74.3,0.8,92.6,16.2C570.9,165.6,576.3,175.6,579,198.6z"/>
	<path class="st1" d="M555.1,169.4c-0.9,3.5-1.9,7-2.8,10.5c-15.8-5.1-37.2-5.3-73.8-5.8c-210.7-3.2-171.5-7.5-308.7-2.1
		C64,176,53.6,178.1,40.7,188.2c-0.2,0.1-0.3,0.3-0.5,0.4c0.8-15.7,1.5-31.4,2.3-47.1c44.7,1.6,89.5,3.1,134.2,4.7
		c80.6,2.1,163.8,6.1,249.6,12.3C470,161.7,513,165.3,555.1,169.4z"/>
	<path class="st2" d="M579,198.6c-2.2-3.1-4.8-5.8-7.9-8.3c-5.7-4.8-11.7-8.1-18.8-10.4c-15.8-5.1-37.2-5.3-73.8-5.8
		c-210.7-3.2-171.5-7.5-308.7-2.1C64,176,53.6,178.1,40.7,188.2c-0.2,0.1-0.3,0.3-0.5,0.4c-20.7,16.6-22.8,36.2-21.8,241.6
		c0.1,14.5,0.6,40.5,19.8,58.3c19.8,18.3,49.3,18.6,64.6,18.6c269.4-0.2,253-4.6,332.4-7.2c88.5-3,117.1,2.2,140.1-20.8
		c15.1-15.1,16.3-30.9,16.8-135C592.4,246.8,591.5,216,579,198.6z"/>
</g>
</svg>
