<?xml version="1.0" encoding="utf-8"?>
<!-- Generator: Adobe Illustrator 24.0.3, SVG Export Plug-In . SVG Version: 6.00 Build 0)  -->
<!DOCTYPE svg PUBLIC "-//W3C//DTD SVG 1.1//EN" "http://www.w3.org/Graphics/SVG/1.1/DTD/svg11.dtd" [
	<!ENTITY ns_extend "http://ns.adobe.com/Extensibility/1.0/">
	<!ENTITY ns_ai "http://ns.adobe.com/AdobeIllustrator/10.0/">
	<!ENTITY ns_graphs "http://ns.adobe.com/Graphs/1.0/">
	<!ENTITY ns_vars "http://ns.adobe.com/Variables/1.0/">
	<!ENTITY ns_imrep "http://ns.adobe.com/ImageReplacement/1.0/">
	<!ENTITY ns_sfw "http://ns.adobe.com/SaveForWeb/1.0/">
	<!ENTITY ns_custom "http://ns.adobe.com/GenericCustomNamespace/1.0/">
	<!ENTITY ns_adobe_xpath "http://ns.adobe.com/XPath/1.0/">
]>
<svg version="1.1" id="general_1_" xmlns:x="&ns_extend;" xmlns:i="&ns_ai;" xmlns:graph="&ns_graphs;"
	 xmlns="http://www.w3.org/2000/svg" xmlns:xlink="http://www.w3.org/1999/xlink" x="0px" y="0px" viewBox="0 0 600 600"
	 style="enable-background:new 0 0 600 600;" xml:space="preserve">
<style type="text/css">
	.st0{fill:#DD00C1;}
	.st1{fill:#04B25F;}
	.st2{fill:#ECD3EF;}
	.st3{fill:#FC5832;}
</style>
<metadata>
	<sfw  xmlns="&ns_sfw;">
		<slices></slices>
		<sliceSourceBounds  bottomLeftOrigin="true" height="489.3" width="589.3" x="3.6" y="-570.6"></sliceSourceBounds>
	</sfw>
</metadata>
<g id="general">
	<path class="st0" d="M109.1,211.7c-16.2,9-25.5,15.2-30.9,18.9c-34.1,23.4-52.5,36.3-62.9,54.6c-3.5-5.3-6.3-11.9-6.1-19.2
		c0.5-16.9,16.4-27.6,40.7-43.8c22.9-15.3,36.7-24.5,49.3-18.9C103.4,205,106.6,208.1,109.1,211.7z"/>
	<path class="st0" d="M457.1,113.9c-30.2-8.8-58.7-6.7-78.1-5.3c-13.3,1-24.9,2.9-41.6,7.8c-0.6-5.1-0.1-10.3,2.6-14.9
		c2.6-4.5,7.6-9.2,27.2-13.5c27.7-6.1,65.1-14.3,82.3,7.1C451.7,97.9,455.6,103.8,457.1,113.9z"/>
	<path class="st1" d="M572.8,416.2c-3.9,4.6-16.4,19.4-36.3,23c-37,6.8-72.2-29.7-98.1-56.5c-34.2-35.4-44.5-60.5-57.8-74.3
		c0.2-1.7,0.4-3.4,0.4-5.2c-0.2-18.8-16-34.3-34.5-34.1c-17.2,0.2-31.4,14-33.2,30.2c-0.4,3.3-0.2,6.5,0.4,9.7
		c-8.4,4-17.9,8.9-29.1,14.6c-15.1,7.7-27.4,14-37.4,19.5c-6.5-7.7-15.9-12.8-25.5-13.1c-18.8-0.6-30.4,17.3-30.9,18.2
		c-1.6,2.6-7.8,12.9-5.2,25.7c1.9,9.6,8.3,18.6,17.2,23.9c-2.1,19,0.3,45.1-10.7,100.3c-6,29.9-11.7,47-27,59
		c-12.6,9.8-31,15.7-47.7,12.9c-35.2-6-53-49.2-78.8-114.2C8.7,380.2-8.1,333.4,13,289.4c0.7-1.5,1.4-2.9,2.2-4.3
		c10.4-18.3,28.8-31.2,62.9-54.6c5.4-3.7,14.7-9.9,30.9-18.9c4.1-2.3,8.6-4.7,13.6-7.3c6,18.3,15.2,41,25.6,46.6
		c18.2,9.7,66.5-8.5,92-20.6c25.4-12.1,84.3-21.6,89.5-67.8c1.9-16.9,0-31.3-3.2-42.8c3.8-1.2,7.4-2.4,10.8-3.3
		c16.6-4.9,28.3-6.8,41.6-7.8c19.4-1.4,48-3.5,78.1,5.3c8.2,2.4,16.6,5.6,24.9,9.9c54.6,27.9,73.8,83.6,89.7,129.6
		C584,289.2,611.9,370,572.8,416.2z"/>
	<path class="st2" d="M169.9,352.2c0.9,22.5-11.5,38.8-15.3,43.6c-1.5,1.9-28.3,34.8-66.1,27.9c-34.1-6.2-53.5-40.5-54.9-68.4
		c-0.2-5-0.9-23.4,11.3-40.9c13.8-20,38.2-30.3,61.2-28.4C140.8,289,168.6,320.1,169.9,352.2z"/>
	<path class="st2" d="M506.2,205c3.6,27.6-12,47.9-14.3,50.8c-16.4,20.6-44,30.6-70,24.8c-34.4-7.8-53.5-40.7-54.9-68.4
		c-0.2-5-0.9-23.4,11.3-40.9c14.3-20.6,39.2-29.9,61.2-28.4C472.8,145.2,501.9,172.4,506.2,205z"/>
	<path class="st3" d="M329.8,162.6c-5.3,46.2-64.1,55.7-89.5,67.8c-25.4,12.1-73.8,30.2-92,20.6c-10.4-5.6-19.6-28.3-25.6-46.6
		c30.3-15.7,78.5-37.9,155.3-67c20.4-7.8,35.9-13.4,48.6-17.5C329.8,131.3,331.7,145.7,329.8,162.6z"/>
	<path class="st3" d="M441.7,178.7c1.4,7.1-2.6,12.8-3.3,13.8c-3.8,5.5-10.5,9-17.4,8.6c-8.7-0.5-17.4-6.9-18.6-16.1
		c-1.5-10.8,8-20.8,18.6-21.6C430.7,162.8,440,169.8,441.7,178.7z"/>
	<path class="st3" d="M420.3,236.3c-0.7,2.4-2.6,9.7-9.1,12.7c-3,1.4-5.7,1.3-9.1,1.2c-4-0.1-8.3-0.3-12.2-3.1
		c-6.7-4.9-6.7-14.1-6.7-15.7c0-2.4,0-9.1,5.3-14.2c5.2-4.9,11.8-4.7,13.6-4.7c6.9,0.2,15.4,4,18.3,11.6
		C422.3,229.1,421.1,233.6,420.3,236.3z"/>
	<path class="st3" d="M472.7,242.4c-0.4,8.7-7.4,19.4-18.3,19.9c-9.2,0.4-16.1-6.8-18.8-13.3c-0.3-0.7-4.9-12.1,1.7-19.4
		c4.9-5.5,12.6-5,16.9-4.7c3.6,0.2,11.1,0.7,15.5,6.6C473,236,472.8,241,472.7,242.4z"/>
	<path class="st3" d="M490.3,193.7c-0.5,9.2-8.8,15.9-17,16.6c-11.2,0.9-21.1-9.6-20.6-18.2c0.4-5.6,5.2-9.8,7.3-11.7
		c2-1.8,6.1-5.3,11.5-5.6C480.1,174.5,491,182.6,490.3,193.7z"/>
	<path class="st3" d="M155.2,337.4c0.5-3.9-2.2-7.5-7-13.7c-4.9-6.4-8.6-11.2-14.3-11.9c-8-0.9-14.5,6.9-19.4,12.8
		c-3.6,4.4-8.7,10.5-7.3,17.4c0.1,0.4,1,4.6,4.4,7.6C122.8,359.6,153.6,349.4,155.2,337.4z"/>
	<path class="st3" d="M80.6,299.1c-4-0.6-7.4,2.1-13.7,7c-6.4,4.9-11.2,8.6-11.9,14.3c-0.9,8,6.9,14.5,12.8,19.4
		c4.9,4.1,10.4,8.4,17.4,7.3c0.4-0.1,7.3-1.3,10.6-7.2c2.9-5.1,1.3-10.5-1.3-18.6C91.4,311.1,87.9,300.2,80.6,299.1z"/>
	<path class="st3" d="M46.9,375.7c-0.7,3.4,1.9,6.9,7.1,13.6c7.7,9.9,11.5,14.8,16.7,14.8c5.9,0,10.1-6,17-16c5-7.3,8-11.7,7.1-17.5
		c-0.7-4.2-3.4-9.2-8-11.3c-1.6-0.7-5.1-1.9-22,5.2C48.1,371.4,47.1,374.4,46.9,375.7z"/>
	<path class="st3" d="M126.3,408.5c4-0.1,6.8-2.8,11.3-7.1c5-4.8,10-9.5,9.9-15.8c-0.1-8.1-8.7-13.5-15.2-17.6
		c-5.4-3.4-11.7-7.3-18.2-4.9c-5.7,2-8.1,7.5-8.4,8.3c-2.8,6.6,0.2,13.1,2.7,18.7C110.5,394.7,117,408.8,126.3,408.5z"/>
	<path class="st0" d="M247,343.1c-6.5-7.7-15.9-12.8-25.5-13.1c-18.8-0.6-30.4,17.3-30.9,18.2c-1.6,2.6-7.8,12.9-5.2,25.7
		c1.9,9.6,8.3,18.6,17.2,23.9c5,3,10.7,4.8,16.9,4.9c18.8,0.3,34.5-15,36.1-33C256.6,359.7,253.1,350.3,247,343.1z"/>
	<path class="st0" d="M346.4,269.2c-17.2,0.2-31.4,14-33.2,30.2c-0.4,3.3-0.2,6.5,0.4,9.7c3,16,17.6,29.4,34.7,28.8
		c16-0.6,29.9-13.3,32.3-29.4c0.2-1.7,0.4-3.4,0.4-5.2C380.7,284.5,364.9,268.9,346.4,269.2z"/>
</g>
</svg>
