<?xml version="1.0" encoding="utf-8"?>
<!-- Generator: Adobe Illustrator 24.0.3, SVG Export Plug-In . SVG Version: 6.00 Build 0)  -->
<!DOCTYPE svg PUBLIC "-//W3C//DTD SVG 1.1//EN" "http://www.w3.org/Graphics/SVG/1.1/DTD/svg11.dtd" [
	<!ENTITY ns_extend "http://ns.adobe.com/Extensibility/1.0/">
	<!ENTITY ns_ai "http://ns.adobe.com/AdobeIllustrator/10.0/">
	<!ENTITY ns_graphs "http://ns.adobe.com/Graphs/1.0/">
	<!ENTITY ns_vars "http://ns.adobe.com/Variables/1.0/">
	<!ENTITY ns_imrep "http://ns.adobe.com/ImageReplacement/1.0/">
	<!ENTITY ns_sfw "http://ns.adobe.com/SaveForWeb/1.0/">
	<!ENTITY ns_custom "http://ns.adobe.com/GenericCustomNamespace/1.0/">
	<!ENTITY ns_adobe_xpath "http://ns.adobe.com/XPath/1.0/">
]>
<svg version="1.1" id="general_1_" xmlns:x="&ns_extend;" xmlns:i="&ns_ai;" xmlns:graph="&ns_graphs;"
	 xmlns="http://www.w3.org/2000/svg" xmlns:xlink="http://www.w3.org/1999/xlink" x="0px" y="0px" viewBox="0 0 600 600"
	 style="enable-background:new 0 0 600 600;" xml:space="preserve">
<style type="text/css">
	.st0{fill:#262B2C;}
	.st1{fill:#ECD3EF;}
	.st2{fill:#F4F4F4;}
	.st3{fill:#FA0018;}
	.st4{fill:#4E02C6;}
</style>
<metadata>
	<sfw  xmlns="&ns_sfw;">
		<slices></slices>
		<sliceSourceBounds  bottomLeftOrigin="true" height="385" width="589.4" x="5.7" y="-498.4"></sliceSourceBounds>
	</sfw>
</metadata>
<g id="general">
	<path class="st0" d="M586.2,482.4c-9.3,12.5-25.8,20.1-173.1,13.5c-80.1-3.6-88.1-6.4-134.4-5.5c-48.5,1-53.1,4.3-104.3,4.1
		c-16.2-0.1-0.8-0.1-97.4,0c-47.4,0-51.9,0.2-58-4.5c-22.9-17.5-5.8-54.8-6.7-142.4c-0.6-54.7-7.5-59-6.6-119.2
		c0.1-6.1,0.2-11.8,0.3-17.3c18.9-1.9,41.9-3.3,68-3.1c29.4,0.2,51,2.3,58.7,3c75.8,7,163.2,1.8,229.7-0.2
		c55.6-1.6,132.8-2,229.9,3.2c-0.3,8-0.7,16.7-1.2,26.1c-1.4,28.1-4.8,37.1-4.6,69.2c0.2,31.1,3.6,40.4,5.6,70.8
		C596,437.9,597.9,466.8,586.2,482.4z"/>
	<path class="st1" d="M592.2,214c-97.2-5.2-174.3-4.8-229.9-3.2c-66.5,1.9-153.9,7.1-229.7,0.2c-7.6-0.7-29.2-2.8-58.7-3
		c-26.1-0.2-49.1,1.3-68,3.1c0.8-47.8,2.4-73,15.3-85.8c15.9-15.9,35.1-13.2,165.5-7.6c41.9,1.8,63.2,2.7,81.2,3
		c54.3,0.9,78-1.2,145.5-2.9c142-3.7,156.2,2.6,165.6,14.2C592.6,148.7,593.8,173.1,592.2,214z"/>
	<path class="st2" d="M542.6,436.2c-39.7,2.8-81.8,4.5-126,4.8c-33.9,0.2-66.4-0.5-97.6-1.9c-3.5-24.5-6.2-52.1-7-82.4
		c-0.8-32.9,0.8-62.8,3.6-89.1c11.6-0.3,28.9-0.8,49.9-2.4c25.4-1.9,43.9-4.2,48.7-4.8c24.5-2.9,64.8-4.2,134.3,2.4
		c-0.4,29.9-1.1,60.4-2.2,91.5C545.3,382,544.1,409.4,542.6,436.2z"/>
	<path class="st1" d="M270.6,300.3c-30,3.6-62.6,6.3-97.6,7.2c-49.6,1.4-95-1-135.3-5.1c0.4-10.7,0.9-21.4,1.3-32
		c44.6,1.1,80.4,0.6,105.3,0c19.8-0.5,41-1.4,71-0.2c23.4,1,42.5,2.8,55.3,4.3C270.6,283,270.6,291.7,270.6,300.3z"/>
	<path class="st1" d="M270.6,357.6c-35.8,0.6-68.1,1.8-96.1,3.3c-20,1.1-27.4,1.7-41.1,2.2c-35.6,1.2-67.8-0.5-95.8-3.4
		c0.4-10.7,0.9-21.4,1.3-32c39-0.9,72-1.2,97.4-1.3c40.7-0.2,58.7,0.1,78.9,1.1c23,1.2,42.1,2.9,55.3,4.3
		C270.6,340.4,270.6,349,270.6,357.6z"/>
	<path class="st1" d="M39,383.3c25.8-0.6,49-0.9,69.1-1.1v36.9c-25.6-0.1-49.2-1.5-70.4-3.7C38.1,404.7,38.5,394,39,383.3z"/>
	<path class="st1" d="M270.6,387.4v25.8c-35.8,0.6-68.1,1.8-96.1,3.3c-8.6,0.5-14.9,0.8-20.4,1.2v-35.8c28.7-0.1,44.2,0.3,61.1,1.2
		C238.3,384.3,257.4,386,270.6,387.4z"/>
	<path class="st3" d="M433.2,321.5c-6.8-8.7-13.5-17.4-20.3-26.1c-6.1-7.1-12.3-14.2-18.4-21.3c3.7,12.6,7.4,25.1,11.1,37.7
		c2.3,6.5,4.6,13,6.9,19.4c-8.9-0.3-17.7-0.7-26.6-1c-9.4,0.5-18.9,1.1-28.3,1.6c9.2,3.8,18.3,7.6,27.5,11.5
		c7.2,3.3,14.5,6.6,21.7,9.8c-7.2,5.1-14.4,10.2-21.6,15.4c-5.9,5.5-11.9,11-17.8,16.5c17.5-5.1,35-10.3,52.5-15.4
		c5.1,18.4,10.2,36.8,15.4,55.2c2.1-12.4,4.1-24.8,6.2-37.1l3-21c11.1,4,22.1,8,33.2,12c8.3,3.6,16.7,7.1,25,10.7
		c-14.6-17.5-29.3-35-43.9-52.5c5.2-5.4,10.4-10.9,15.7-16.3c6.6-8.6,13.1-17.2,19.7-25.8C473.8,303.6,453.5,312.6,433.2,321.5z"/>
	<path class="st3" d="M91.7,169.2C89,177,80.9,188.4,67.9,188c-11.8-0.4-22-10.3-22.9-22.1c-1.1-14,11.2-24.9,23.3-26
		c8.6-0.8,19.1,3.3,23.3,12.2C95,159.6,92.5,166.9,91.7,169.2z"/>
	<path class="st2" d="M154.4,165.2c-0.9,10.1-9.8,15.9-12.8,17.9c-3,1.9-7.8,5.1-14,4.7c-10.5-0.6-20-11-21.1-22.3
		c-0.1-1.5-0.9-11,6.1-18.3c7-7.3,18.1-8.6,26.7-5C148.2,146,155.3,155.3,154.4,165.2z"/>
	<path class="st4" d="M216.1,165.2c0.1,10.1-8.1,16.9-8.8,17.5c-1.3,1-5.1,4-10.3,4.8c-11.4,1.7-28.2-7.5-28.2-22.4
		c0-12.4,11.7-23.2,24.6-22.7C206,143,216,154.1,216.1,165.2z"/>
</g>
</svg>
