<?xml version="1.0" encoding="utf-8"?>
<!-- Generator: Adobe Illustrator 24.0.3, SVG Export Plug-In . SVG Version: 6.00 Build 0)  -->
<!DOCTYPE svg PUBLIC "-//W3C//DTD SVG 1.1//EN" "http://www.w3.org/Graphics/SVG/1.1/DTD/svg11.dtd" [
	<!ENTITY ns_extend "http://ns.adobe.com/Extensibility/1.0/">
	<!ENTITY ns_ai "http://ns.adobe.com/AdobeIllustrator/10.0/">
	<!ENTITY ns_graphs "http://ns.adobe.com/Graphs/1.0/">
	<!ENTITY ns_vars "http://ns.adobe.com/Variables/1.0/">
	<!ENTITY ns_imrep "http://ns.adobe.com/ImageReplacement/1.0/">
	<!ENTITY ns_sfw "http://ns.adobe.com/SaveForWeb/1.0/">
	<!ENTITY ns_custom "http://ns.adobe.com/GenericCustomNamespace/1.0/">
	<!ENTITY ns_adobe_xpath "http://ns.adobe.com/XPath/1.0/">
]>
<svg version="1.1" id="general_1_" xmlns:x="&ns_extend;" xmlns:i="&ns_ai;" xmlns:graph="&ns_graphs;"
	 xmlns="http://www.w3.org/2000/svg" xmlns:xlink="http://www.w3.org/1999/xlink" x="0px" y="0px" viewBox="0 0 600 600"
	 style="enable-background:new 0 0 600 600;" xml:space="preserve">
<style type="text/css">
	.st0{fill:#FF7300;}
	.st1{fill:#FFF200;}
	.st2{fill:#FFFFFF;}
</style>
<metadata>
	<sfw  xmlns="&ns_sfw;">
		<slices></slices>
		<sliceSourceBounds  bottomLeftOrigin="true" height="472.6" width="585.1" x="6.9" y="-541.7"></sliceSourceBounds>
	</sfw>
</metadata>
<g id="general">
	<path class="st0" d="M587.6,246.4c-18.1,56-80.6,53.9-167.2,108.1c-52.7,33-139.2,102.5-190.8,156.1c-6.9,7.1-21.2,22.5-44.4,28.5
		c-34.4,9-67-8-91.1-20.5c-23.4-12.1-47.1-24.5-65.3-51.6c-28.8-43-21.9-91-19.3-105.3c-1.2,17.4,0.5,37.1,8.9,57.8
		c14.4,35.4,40.8,54,48.6,59.2c33.4,22.1,69.3,23.4,88.2,21.3c70.3-8,84.2-83.5,155.1-149.8c120.2-112.3,265.1-68,279.5-133.9
		c1-4.5,1.3-9.2,0.9-13.9C592.3,213,593.2,229,587.6,246.4z"/>
	<path class="st1" d="M590.7,202.5c-3.4-44.1-62.6-93.2-108.2-114.7C425.6,60.9,373.3,69,327.4,76.1
		c-127.6,19.7-206.6,97-233.8,124.3c-59.6,60-73.4,108.5-76.5,120.1c-2.9,10.9-6.5,25-7.6,41.3c0,0,0,0,0,0
		c-1.2,17.4,0.5,37.1,8.9,57.8c14.4,35.4,40.8,54,48.6,59.2c33.4,22.1,69.3,23.4,88.2,21.3c70.3-8,84.2-83.5,155.1-149.8
		c120.2-112.3,265.1-68,279.5-133.9C590.8,211.8,591.1,207.2,590.7,202.5z"/>
	<path class="st2" d="M140.7,352.2c1,3.4,3.5,14.1-1.1,26.1c-5.2,13.3-17.6,24-32.9,26.1c-2.5,0.3-17.9,2.2-30.9-8.7
		c-1.4-1.2-11.4-9.7-13.5-23.2c-3.6-22.3,15-52.6,40.6-52.2C121.1,320.6,136.2,336.3,140.7,352.2z"/>
</g>
</svg>
