<?xml version="1.0" encoding="utf-8"?>
<!-- Generator: Adobe Illustrator 24.0.3, SVG Export Plug-In . SVG Version: 6.00 Build 0)  -->
<!DOCTYPE svg PUBLIC "-//W3C//DTD SVG 1.1//EN" "http://www.w3.org/Graphics/SVG/1.1/DTD/svg11.dtd" [
	<!ENTITY ns_extend "http://ns.adobe.com/Extensibility/1.0/">
	<!ENTITY ns_ai "http://ns.adobe.com/AdobeIllustrator/10.0/">
	<!ENTITY ns_graphs "http://ns.adobe.com/Graphs/1.0/">
	<!ENTITY ns_vars "http://ns.adobe.com/Variables/1.0/">
	<!ENTITY ns_imrep "http://ns.adobe.com/ImageReplacement/1.0/">
	<!ENTITY ns_sfw "http://ns.adobe.com/SaveForWeb/1.0/">
	<!ENTITY ns_custom "http://ns.adobe.com/GenericCustomNamespace/1.0/">
	<!ENTITY ns_adobe_xpath "http://ns.adobe.com/XPath/1.0/">
]>
<svg version="1.1" id="general_1_" xmlns:x="&ns_extend;" xmlns:i="&ns_ai;" xmlns:graph="&ns_graphs;"
	 xmlns="http://www.w3.org/2000/svg" xmlns:xlink="http://www.w3.org/1999/xlink" x="0px" y="0px" viewBox="0 0 600 600"
	 style="enable-background:new 0 0 600 600;" xml:space="preserve">
<style type="text/css">
	.st0{fill:#FA0018;}
	.st1{fill:#4E02C6;}
	.st2{fill:#FFF200;}
	.st3{fill:#04B25F;}
</style>
<metadata>
	<sfw  xmlns="&ns_sfw;">
		<slices></slices>
		<sliceSourceBounds  bottomLeftOrigin="true" height="591.2" width="567" x="12.1" y="-592"></sliceSourceBounds>
	</sfw>
</metadata>
<g id="general">
	<path class="st0" d="M394.5,444.5c0.1,8.6-0.5,35.8-17,62.7c-20.2,33-61.8,61.9-110.2,57.5c-52-4.8-100-46.8-104.1-100
		c-4.6-60.4,50.3-97.9,54.6-100.7c32-21.1,65.3-20.5,80.7-18.9c12,1.3,55.1,5.8,79.7,41.3C394,409.2,394.3,433.5,394.5,444.5z"/>
	<path class="st1" d="M289,309.6c-18.8,22.6-45.3,54.4-84.6,51.7c-35.4-2.4-65.8-31.7-74.3-63.4c-14.2-53.3,33.8-113,88.4-123
		c40.5-7.4,93.5,11,105,47.8C333.8,255.8,306.1,289,289,309.6z"/>
	<path class="st2" d="M472.3,320.6c-6.2,33.2-76.3,68.5-123.1,39.5c-26.4-16.4-45.2-53.1-34.1-86.7c15-45.5,76.5-59.7,108.3-42.4
		c17.9,9.7,27.4,29.9,37.5,51.5C469.8,301.3,474.2,310.6,472.3,320.6z"/>
	<path class="st3" d="M358.4,1.4C301.6,2.6,274.6,5.1,212,6.5C126.4,8.4,57,6.6,12.1,4.7c7,26.6,14,53.2,21,79.8
		c9.7-0.6,19.1-1.2,28.2-1.7l27.3,141.5l7.5,38.8v0l24.7,128.5l6.4,33.1L159.4,592h243.4h40.5h11.4l14.8-102.2l3.3-22.5l17.7-122.1
		l3.3-22.5l22.8-157.8l3.3-22.7l9.1-62.6c11.3,0.1,23.2,0.3,35.6,0.6c4.9-24.8,9.8-49.5,14.7-74.3C486,0.2,410.4,0.3,358.4,1.4z
		 M435.6,489.9c-15,22.9-29.9,45.9-44.9,68.8c0,0,0,0,0,0c-0.8,0-1.6,0-2.4,0c-31.7-19.2-63.5-38.4-95.2-57.7
		c0.9-1.4,1.7-2.9,2.6-4.3c16.6-27.3,33.2-54.6,49.8-81.8c32.8,19.8,65.6,39.6,98.4,59.4C441.2,479.5,438.4,484.7,435.6,489.9z
		 M271.5,488c-22.7-13.7-45.3-27.4-68-41.2c-15.3-10.2-30.6-20.4-45.9-30.6l22.1-37.5c9.1-16,18.2-32,27.4-48
		c33.6,20.4,67.1,40.9,100.6,61.4c6.6,4,13.2,8,19.8,12c0,0,0,0,0,0C308.8,432,290.1,460,271.5,488C271.5,488,271.5,488,271.5,488z
		 M136.8,343.4c-2.8-20.1-5.9-40.5-9.2-61.1c10,6.1,20.1,12.2,30.1,18.3c10.6,6.4,21.1,12.8,31.6,19.3
		c-7.4,14.1-15.7,28.6-24.8,43.6c-5.8,9.4-11.6,18.5-17.4,27.1C143.6,374.8,140.2,359.1,136.8,343.4z M338.6,386
		c-27.8-16.8-55.6-33.7-83.4-50.5c-12.3-8.2-24.7-16.4-37-24.7c9.1-14.6,18.2-29.8,27.3-45.7c10-17.5,19.3-34.6,27.9-51.3
		c9.1,5.6,18.2,11.2,27.3,16.7c32.2,19.4,64.4,38.9,96.6,58.3c-10,14.5-20.2,30-30.3,46.7C356.5,353,347.1,369.9,338.6,386z
		 M408.3,270.9c-41.5-25.1-82.9-50.2-124.4-75.3c0,0,0,0,0,0c21.2-37.2,42.4-74.4,63.5-111.6c0,0,0,0,0,0
		c12.8-0.5,22.6-1.2,28.9-1.5c1.5-0.1,3-0.2,4.5-0.3h0c33.1,20.2,66.2,40.3,99.2,60.5c1.4,0.9,2.8,1.7,4.3,2.6c0,0,0,0,0,0
		C459,187.2,433.6,229.1,408.3,270.9z M273.6,85.1c14.1,0.2,27.1,0.1,38.9-0.1c0,0,0,0,0,0c-8.3,13.1-16.8,27.4-25.1,42.9
		c-10.1,18.9-18.7,37.1-25.9,54.1c-4.4-2.6-8.9-5.1-13.2-8c-24.1-16-48.1-32.1-72.2-48.1L203,82.4c0.6,0,1.1,0.1,1.7,0.1
		C219.3,83.3,241.4,84.7,273.6,85.1z M111.3,190.7c-5.7-29.4-11.7-58.3-18-86.5c17.3,10.5,34.5,21,51.8,31.4c0,0,0,0,0,0l-0.4,0.6
		L111.3,190.7z M181.7,81.5l-22.4,33.2c0,0,0,0,0,0c-16.8-11.2-33.5-22.4-50.3-33.5C137,80.6,161.2,80.9,181.7,81.5z M117.5,223.6
		l24.2-41.1l21.9-35.6c29.5,17.9,58.9,35.9,88.4,53.8c-17.2,32.7-34.4,65.5-51.6,98.2c0,0,0,0,0,0c-26.3-17.5-52.5-35-78.8-52.5
		C120.2,238.8,118.8,231.2,117.5,223.6z M158.7,444c32.4,19.7,64.8,39.5,97.2,59.3c1.3,0.8,2.6,1.5,3.8,2.3
		c-12.5,18.8-25,37.5-37.5,56.3c0,0,0,0,0,0c-12.8-0.8-25.6-1.7-38.3-2.5C175.5,520.9,167.1,482.4,158.7,444z M319.2,560.7
		c-18.6,1-36.6,2.3-54.1,4c-3.4-0.2-6.8-0.4-10.2-0.7c9.1-15,18.2-29.9,27.2-44.9c22.2,13.4,44.5,26.9,66.7,40.3
		C339.1,559.7,329.2,560.2,319.2,560.7z M436.7,559.3c-6.9-0.2-13.9-0.4-21-0.5c0,0,0,0,0,0c2.1-3.6,4.3-7.3,6.4-10.9
		c7.1-11.5,14.1-23,21.2-34.6C441.1,528.7,438.9,544,436.7,559.3z M451.8,454.6c-31.8-19.2-63.5-38.5-95.3-57.7
		c10.2-16.7,20.4-33.4,30.6-50.1c9.5-15.7,18.9-31.3,28.4-47c0,0,0,0,0,0c18,10.9,36,21.7,54,32.6
		C463.6,373.2,457.7,413.9,451.8,454.6z M426.3,281.9c19.6-32.5,39.2-64.9,58.8-97.4c0,0,0,0,0,0c-4.6,39.9-8.3,78.7-11.2,116.3
		c-0.4,3-0.9,6.1-1.3,9.1C457.2,300.6,441.8,291.2,426.3,281.9z M492.5,125.6c-21.6-13.1-43.2-26.2-64.8-39.3
		c-2.9-1.9-5.7-3.8-8.6-5.7c22.6-0.8,49.1-1.3,80-1.2C496.8,94.6,494.6,110,492.5,125.6z"/>
</g>
</svg>
