<?xml version="1.0" encoding="utf-8"?>
<!-- Generator: Adobe Illustrator 24.0.3, SVG Export Plug-In . SVG Version: 6.00 Build 0)  -->
<!DOCTYPE svg PUBLIC "-//W3C//DTD SVG 1.1//EN" "http://www.w3.org/Graphics/SVG/1.1/DTD/svg11.dtd" [
	<!ENTITY ns_extend "http://ns.adobe.com/Extensibility/1.0/">
	<!ENTITY ns_ai "http://ns.adobe.com/AdobeIllustrator/10.0/">
	<!ENTITY ns_graphs "http://ns.adobe.com/Graphs/1.0/">
	<!ENTITY ns_vars "http://ns.adobe.com/Variables/1.0/">
	<!ENTITY ns_imrep "http://ns.adobe.com/ImageReplacement/1.0/">
	<!ENTITY ns_sfw "http://ns.adobe.com/SaveForWeb/1.0/">
	<!ENTITY ns_custom "http://ns.adobe.com/GenericCustomNamespace/1.0/">
	<!ENTITY ns_adobe_xpath "http://ns.adobe.com/XPath/1.0/">
]>
<svg version="1.1" id="general_1_" xmlns:x="&ns_extend;" xmlns:i="&ns_ai;" xmlns:graph="&ns_graphs;"
	 xmlns="http://www.w3.org/2000/svg" xmlns:xlink="http://www.w3.org/1999/xlink" x="0px" y="0px" viewBox="0 0 600 600"
	 style="enable-background:new 0 0 600 600;" xml:space="preserve">
<style type="text/css">
	.st0{fill:#DD00C1;}
	.st1{fill:#ECD3EF;}
	.st2{fill:#FC5832;}
	.st3{fill:#04B25F;}
</style>
<metadata>
	<sfw  xmlns="&ns_sfw;">
		<slices></slices>
		<sliceSourceBounds  bottomLeftOrigin="true" height="570.6" width="588.6" x="5.4" y="-582.6"></sliceSourceBounds>
	</sfw>
</metadata>
<g id="general">
	<path class="st0" d="M495.1,334.6c-0.4,3.4-1,8-2,13.5c-1.5,8.4-3.8,19-7.7,30.7c-6.1,18.6-16.1,40.2-32.5,61.2
		c-2.8,3.5-5.7,7.1-8.9,10.5c-1.4,1.6-2.9,3.2-4.5,4.8c-13.5,14-28,24.8-42.6,33.2c-3.3,1.9-6.7,3.7-10,5.4
		c-22.2,11.1-44,16.9-62.3,19.8c-5.3,0.9-10.3,1.5-14.9,1.9c-14.9,1.4-25.8,1-29.9,0.8c-3-0.2-7.2-0.4-12.2-1
		c-6.5-0.7-14.5-1.9-23.5-3.9c-6-1.3-12.3-3-19-5.1c-9-2.8-18.5-6.5-28.2-11.2c-6.7-3.2-13.5-7-20.2-11.3c-3.5-2.3-7.1-4.7-10.6-7.3
		c-10.1-7.5-20-16.4-29.3-26.9c-6-6.8-11.3-13.8-15.8-20.7c-2.4-3.6-4.6-7.2-6.6-10.8c-13.1-23.1-19.4-45.8-22.8-63.8
		c-2-10.6-2.9-19.7-3.5-26.4c-0.3-3.4-0.8-8.3-1.1-14.4c-0.7-11.8-0.8-28.1,1.4-46.5c1-8,2.4-16.4,4.5-25c1.7-7,3.8-14.1,6.4-21.2
		c1.6-4.5,3.5-9,5.5-13.5c7.9-17.1,18.9-34,34.5-49c1.3-1.3,2.6-2.5,3.9-3.6c0,0,0,0,0.1-0.1c2.9-2.7,5.9-5.2,9-7.5
		c17.4-13.5,36.2-22.1,54.7-27.7c4.4-1.3,8.8-2.5,13.2-3.5c23.3-5.4,45.7-6.7,64-7.7c2.9-0.2,5.8-0.3,8.8-0.5
		c10.6-0.6,21.8-1,33.5-0.6c15.9,0.5,32.7,2.3,49.5,7.2c8.7,2.5,17.5,5.9,26.2,10.2c2.7,1.4,5.4,2.8,8.1,4.4c2.3,1.3,4.7,2.8,7,4.3
		c1.8,1.2,3.5,2.4,5.2,3.6c18.9,13.6,33.6,30.8,44.8,49.8c2.1,3.5,4,7.2,5.9,10.8c7.7,15.3,13.2,31.5,17,47.8
		c3.1,13.3,5.1,26.7,6,39.7C497.5,302.5,497,319.4,495.1,334.6z"/>
	<path class="st1" d="M455.3,306.8c13.4-9.6,25.9-18.6,37.2-27c1.2,1.7,2.5,3.4,3.7,5.1c-0.9-13-2.9-26.4-6-39.7
		c-5.2-7.3-10.5-14.7-15.8-22.1c-4.3-6-8.6-11.9-12.9-17.8c3.9-2.6,7.7-5.2,11.6-7.9c-1.8-3.7-3.8-7.3-5.9-10.8
		c-4.4,2.7-8.9,5.5-13.3,8.2c-13-17.9-26-35.6-39-53.1l7.5-4.9c-1.7-1.2-3.4-2.4-5.2-3.6c-2.3-1.5-4.6-3-7-4.3
		c-1.1,0.7-2.2,1.3-3.3,2c-1.6-2.1-3.2-4.3-4.8-6.4c-8.7-4.4-17.5-7.7-26.2-10.2c4,5.9,8,11.7,12.1,17.6c0,0,0,0,0,0
		c1.7,2.5,3.4,4.9,5.1,7.4c-12.7,7.7-26.8,16.2-41.3,25.1c-10.8-14.3-21.5-28.3-32.2-42.2c-1.7-2.2-3.4-4.4-5.2-6.7
		c4-2.8,8.1-5.6,12.1-8.5c-11.7-0.3-23,0.1-33.5,0.6c0.9,1.3,1.8,2.6,2.7,3.9c-6.1,3.8-12.2,7.6-18.4,11.4
		c-11.8,7.4-23.7,14.8-35.5,22.3c-3.3-4.2-6.6-8.6-9.9-13.1c-1-1.4-2.1-2.9-3.1-4.3c-3-4.1-5.8-8.1-8.6-12.1
		c-4.4,1-8.8,2.2-13.2,3.5c2.9,3.7,5.9,7.6,8.8,11.5c2.3,3.1,4.6,6.3,6.8,9.6c2.8,4,5.4,8,8,11.9c-15,9.5-30.1,19.2-45.2,28.9
		c-1,0.7-2.1,1.3-3.1,2c-1.9-2.3-3.7-4.6-5.5-6.8v0c-4.6-5.6-8.9-10.8-12.9-15.6c-4.2-5-8.1-9.6-11.6-13.9c-3,2.3-6,4.8-9,7.5
		c0,0,0,0-0.1,0.1c0.7,1.1,1.5,2.2,2.2,3.3c7.6,11.6,15,23.2,22.4,34.7c-16.5,10.7-33,21.6-49.6,32.5c-4.4-6-8.9-12-13.3-18
		c-2.1,4.5-3.9,9-5.5,13.5c2.6,3.9,5.3,7.8,7.9,11.7c-4.8,3.2-9.5,6.3-14.3,9.5c-2.1,8.6-3.5,17-4.5,25c9.8-6.3,19.5-12.6,29.3-19
		c10.8,15.8,21.7,31.7,32.8,47.7c-17.9,12.9-35.6,25.8-50.2,36.4L87,313.7c0.3,6.1,0.8,11,1.1,14.4c0.6,6.7,1.6,15.7,3.5,26.4
		l2.5-1.7c13.6,20.5,26.5,39.7,36.4,54.3c-5.4,3.8-10.8,7.5-16.2,11.3c2,3.6,4.2,7.2,6.6,10.8c5.7-3.6,11.5-7.3,17.2-10.9
		c2.9,4.2,5.3,7.6,7.1,10.1c6.2,8.5,18.1,24,32,41.9c-3.6,2.2-7.3,4.4-11.1,6.7c3.5,2.6,7,5,10.6,7.3c2.6-1.6,5.2-3.1,7.8-4.6
		c4.1,5.2,8.3,10.6,12.5,15.9c9.7,4.7,19.2,8.3,28.2,11.2l-25.8-36c19.9-11.9,37.6-22.7,52.9-32.1c11.1,15.1,22.1,30,33.2,44.9
		c-13.9,9.4-27.7,18.9-41.3,28.3c9,2,17,3.2,23.5,3.9c9.4-6,18.9-12,28.4-18.1c4.6,6.1,9.2,12.2,13.8,18.3c4.6-0.4,9.6-1.1,14.9-1.9
		c-5.6-8-11.1-16-16.7-24c17.7-11.4,35.5-22.9,53.4-34.6c8.3,12.2,16.8,25.2,25.6,38.8c3.3-1.7,6.7-3.5,10-5.4
		c-9.1-14.2-17.8-27.5-25.8-39.8c11.4-7.5,22.9-15,34.3-22.6c4.4-3,8.9-5.9,13.3-8.8c8.4,11.2,16.9,22.3,25.3,33.3
		c3.1-3.5,6.1-7,8.9-10.5c-7.1-10.4-14.2-20.8-21.4-31.3c17-11.4,33.9-22.8,50.7-34.2c1.1,1.4,2.1,2.9,3.2,4.3
		c3.9-11.8,6.2-22.3,7.7-30.7c-2.1,1.3-4.3,2.7-6.4,4C476.4,337.1,465.9,322,455.3,306.8z M478.7,260.8c1,1.4,2.1,2.9,3.1,4.3
		c-11.9,7.3-24.9,15.4-38.7,24.4c-10-14.2-20.1-28.4-30.5-42.6c-1.4-1.9-2.7-3.7-4.1-5.6c12.6-8.5,25.3-17,37.9-25.6
		C457,230.6,467.8,245.7,478.7,260.8z M239.5,257.2l43.1-28.3c11.9,17.2,24,34.4,36.2,51.7c-14.1,9.2-28.3,18.4-42.4,27.8
		C264.6,291.5,252.5,274.7,239.5,257.2z M260.6,318.9c-16.8,11.2-33.5,22.3-50,33.4c-12.4-17.2-24.8-34.4-37.2-51.5l48.2-31.7
		C237.8,290.6,251.1,307.2,260.6,318.9z M328.7,294.5c11.7,16.4,23.5,32.8,35.6,49.3c-9.7,7.1-17.6,13-23.6,17.5
		c-5.8,4.3-12.1,8.9-18.7,13.7c-12.3-18.3-24-35.5-35.8-52.5C300.4,313.2,314.6,303.8,328.7,294.5z M344,284.3
		c16.4-10.9,32.7-21.8,49-32.7c10.5,14.7,21,29.5,31.7,44.3c0.9,1.3,1.8,2.5,2.7,3.8c-18.9,12.5-35.1,23.8-48.6,33.5
		C367.4,317,355.8,300.7,344,284.3z M401.1,151c3.7,5.4,7.5,10.8,11.3,16.3c8.6,12.4,17.3,24.8,26.1,37.2
		c-12.9,8.1-25.9,16.2-38.9,24.4c-9.2-12.6-18.4-25.1-27.6-37.4c-3.6-4.8-7.1-9.6-10.7-14.3L401.1,151z M354.7,197.2
		c9.7,13.8,19.4,27.7,29.2,41.6c-16.5,10.5-33.1,21.1-49.8,31.9c-0.9-1.3-1.8-2.6-2.8-3.8c-11.5-15.9-23-31.7-34.5-47.3l27.6-18.2h0
		l22.6-14.9C349.7,190,352.2,193.6,354.7,197.2z M303.5,123.2c11.3,16.5,22.7,33.1,34.3,49.8c-16,9.8-32.2,19.6-47,28.7
		c-1.6,1-3.2,2-4.8,3c-0.7-1-1.5-2-2.2-3c-10.7-14.4-21.3-28.7-31.9-42.9C269.2,146.9,286.5,135.1,303.5,123.2z M240.1,166.8
		c7.7,11.5,15.6,23,23.5,34.5c2.7,4,5.5,8,8.3,12c-19.3,11.9-34.7,21.5-42.3,26.6c-0.6,0.4-1.3,0.9-2,1.3
		c-3.3-4.4-6.7-8.8-10.2-13.3c-8.2-10.7-16.1-20.7-23.5-30c4-2.7,8-5.4,12-8C217.4,182.2,228.8,174.5,240.1,166.8z M129.4,240.7
		c8.4-5.5,16.9-11,25.3-16.6c7.9-5.2,15.7-10.4,23.5-15.6c8,11.7,16.8,24.4,26.5,37.7c1.8,2.5,3.6,4.9,5.3,7.3
		c-13.1,9.2-29.6,21-46.8,33.4C152,271.4,140.7,256,129.4,240.7z M108.3,343.5l51.7-34c12.1,17.3,24.3,34.7,36.7,52.1
		c-17,11.6-33.9,23.1-50.6,34.6L108.3,343.5z M192.4,460.8l-38-53c17.2-11,34.5-22.1,51.6-33.2c4.8,6.7,9.6,13.4,14.4,20.1
		c8,11.1,16.1,22.2,24.1,33.2C228.6,438.3,211.2,449.3,192.4,460.8z M256.4,416.4c-12-17-24.1-33.9-36.3-50.9
		c7.4-4.8,14.9-9.6,22.3-14.5c9.7-6.3,19.3-12.6,28.9-18.9c11.5,14.3,24.6,31.2,39.2,50.9C295.2,394,277.8,406,258.2,419
		C257.6,418.1,257,417.3,256.4,416.4z M320.9,459.5c-7.8,5.2-15.5,10.4-23.2,15.6c-10.5-15-21.1-30-31.7-45c0.2-0.1,0.3-0.2,0.5-0.3
		c18.9-11.6,36.6-22.6,53.8-33.3c9.6,13.2,19.8,27.6,30.5,43.2C340.8,446.2,330.9,452.8,320.9,459.5z M360.7,433
		c-9.6-14.6-18.3-27.5-25.7-38.7c-1.1-1.7-2.3-3.4-3.4-5.1c15.2-9.5,30-19,44.9-28.8c10.4,14.1,20.7,28.1,31.1,41.9
		C392,412.5,376.4,422.7,360.7,433z M421.1,393.7c-9.8-14.2-19.8-28.6-29.9-42.9c15.9-10.6,32.1-21.6,49.1-33.5
		c10.7,14.7,21.3,29.3,32,43.8C455.3,371.9,438.2,382.7,421.1,393.7z"/>
	<path class="st2" d="M418.7,153.3c1.9,16.4-34.6,33.7-51.5,40c-23.1,8.6-42.1,8.5-77.1,8.4c-28.3-0.1-45.2-0.3-66.9-6.3
		c-5.9-1.6-60-16.7-59.4-34.9c0.6-17.8,53.4-32.1,85.8-35.8c11.6-1.3,23.7-1.6,42.1-2c25.3-0.6,38.5-0.9,52.3,0.6
		C365.3,125.5,416.5,134.7,418.7,153.3z"/>
	<path class="st3" d="M165.1,42.1l-32.6-22.5L116.3,12L67.1,116.4c0,0-8.7-47-37.2-31.9c-16.4,8.7-25.3,21.6-24.4,34.4
		c1.1,16.7,17.1,25.5,18.7,26.4c18,9.7,37.6,0.1,40.4-1.3c8.5-4.3,17.2-11.9,37.4-56.5c8.5-18.8,14.8-34.8,19.2-46.4
		c8.1,7.1,16.1,14.2,24.2,21.2C151.9,55.6,158.5,48.9,165.1,42.1z"/>
	<path class="st3" d="M574.1,405.4c-7.8,2.3-15.6,4.7-23.4,7c-10.3,3.9-20.6,7.8-30.9,11.7l49.5,104.2c-1.6-0.9-22.4-11.9-38.9-1.5
		c-6,3.8-8.7,8.8-9.4,10c-6.7,12.9-1.8,31.9,11.1,40.7c13.2,9.1,29,3.5,32.3,2.3c17.3-6.1,28.3-23.3,29.5-39
		c0.8-11.2-3.5-18.6-13.8-37.1c-7-12.6-17.9-32.4-31.6-58c12.2-5.8,24.4-11.7,36.7-17.5C581.5,420.6,577.8,413,574.1,405.4z"/>
</g>
</svg>
