<?xml version="1.0" encoding="utf-8"?>
<!-- Generator: Adobe Illustrator 24.0.3, SVG Export Plug-In . SVG Version: 6.00 Build 0)  -->
<!DOCTYPE svg PUBLIC "-//W3C//DTD SVG 1.1//EN" "http://www.w3.org/Graphics/SVG/1.1/DTD/svg11.dtd" [
	<!ENTITY ns_extend "http://ns.adobe.com/Extensibility/1.0/">
	<!ENTITY ns_ai "http://ns.adobe.com/AdobeIllustrator/10.0/">
	<!ENTITY ns_graphs "http://ns.adobe.com/Graphs/1.0/">
	<!ENTITY ns_vars "http://ns.adobe.com/Variables/1.0/">
	<!ENTITY ns_imrep "http://ns.adobe.com/ImageReplacement/1.0/">
	<!ENTITY ns_sfw "http://ns.adobe.com/SaveForWeb/1.0/">
	<!ENTITY ns_custom "http://ns.adobe.com/GenericCustomNamespace/1.0/">
	<!ENTITY ns_adobe_xpath "http://ns.adobe.com/XPath/1.0/">
]>
<svg version="1.1" id="general_1_" xmlns:x="&ns_extend;" xmlns:i="&ns_ai;" xmlns:graph="&ns_graphs;"
	 xmlns="http://www.w3.org/2000/svg" xmlns:xlink="http://www.w3.org/1999/xlink" x="0px" y="0px" viewBox="0 0 600 600"
	 style="enable-background:new 0 0 600 600;" xml:space="preserve">
<style type="text/css">
	.st0{fill:#04B25F;}
	.st1{fill:#4E02C6;}
	.st2{fill:#FFF200;}
	.st3{fill:#FA0018;}
	.st4{fill:#FFFFFF;}
</style>
<metadata>
	<sfw  xmlns="&ns_sfw;">
		<slices></slices>
		<sliceSourceBounds  bottomLeftOrigin="true" height="474.3" width="580.5" x="12.4" y="-545.8"></sliceSourceBounds>
	</sfw>
</metadata>
<g id="general">
	<path class="st0" d="M592.2,239.4c-1.2,23.9-3.8,55.2-7.8,101.4c-0.2,1.9-0.3,3.9-0.5,6c-0.2,2.9-0.5,5.8-0.8,8.8
		c-0.8,9-1.5,17.6-2.3,25.5c-0.5,5-0.9,9.8-1.3,14.3c-1.5,15.8-14.1,28.2-29.9,29.4c-28,2.1-62.7,4.5-102.2,7
		c-74.9,4.8-113,7.2-144,6.9c-51.4-0.5-66.7-4.3-149.6-9.7c-41-2.7-76.5-4.3-104.4-5.3c-16.5-0.6-29.9-13.5-31.2-29.9
		c-0.5-5.9-0.9-11.9-1.3-18.2c-0.7-10-1.3-20.6-1.9-31.6c-0.1-2.5-0.3-5-0.4-7.5c-0.7-13.6-1.1-25.9-1.4-36.5
		c-0.4-13.7-0.6-24.5-0.7-31.6c-0.6-50.6,1-88.7,1.4-97c0.1-2.5,0.2-5.1,0.4-7.7c0.8-17.2,2.1-36.6,3.9-57.8
		c1.3-15.7,13.7-28.2,29.4-29.6c17.8-1.6,39.1-3,63.3-3.3c36-0.5,56.5,1.6,87.3,2.8c58.3,2.2,96.2-1.1,131.6-2.8
		c48.9-2.3,120.6-2.9,222.9,4.3c14.7,1,26.9,11.8,29.6,26.3c8.5,44.3,10.5,81,10.7,107.9C593,219.8,592.8,228.9,592.2,239.4z"/>
	<path class="st1" d="M503,382.7c-126.2,1.3-222.9-3.4-349.5-5.9c-58.1-1.2-47.8-0.4-83.9-1.3c-8.5-0.2-20.4-0.5-36.6-0.3
		c-5.2,0.1-10.6,0.2-16.2,0.4c0.4,6.3,0.9,12.3,1.3,18.2c1.3,16.4,14.7,29.3,31.2,29.9c27.9,1,63.5,2.7,104.4,5.3
		c47.8,3.1,73.1,5.7,95.9,7.4c-1,5.3-1.8,10-2.5,14c-2.6,16-3,23.7-5.9,40.4c-1.3,7.8-2.7,14.8-4,20.8c-6.3,0.3-13.7,1.1-21.6,3
		c-8.4,2-14.9,4.6-18.8,6.2c1,8.3,2,16.6,3,24.9c68.9,0,137.9,0,206.8,0c0.6-9.4,1.2-18.8,1.8-28.2c-4.1-1.2-11.6-3.3-21.1-5.3
		c-8.4-1.7-15.9-2.8-22.9-3.4c-0.7-3-1.5-6.2-2.2-9.7c-3.1-14.5-4.4-24.3-7.3-44.9c-0.6-4.6-1.4-10.2-2.4-16.7
		c23.9-1.1,53.8-3,94.9-5.7c39.6-2.5,74.2-5,102.2-7c15.8-1.2,28.5-13.6,29.9-29.4c0.4-4.5,0.9-9.3,1.3-14.3
		C547.8,382.1,521.1,382.5,503,382.7z"/>
	<path class="st2" d="M317.4,407.6c0.6,7.3-6.7,14.2-14.5,14.4c-6.9,0.2-13.8-4.8-14.9-11.7c-0.7-4.2,1-8.7,4.2-11.7
		c5.4-5,12.7-3,13.8-2.7C310.7,397.3,316.9,401.3,317.4,407.6z"/>
	<path class="st3" d="M91.6,317.8c-24.7-0.5-53.8-6.5-78.4-17.8c-0.4-13.7-0.6-24.5-0.7-31.6c-0.6-50.6,1-88.7,1.4-97
		c0.1-2.5,0.2-5.1,0.4-7.7c26,6.6,41,50.5,73.9,53.2c39.8,3.3,54.2-58.3,98.5-58c31.4,0.3,65.2,31.5,66.7,60.4
		C255.7,267.3,169.1,319.3,91.6,317.8z"/>
	<path class="st3" d="M592.2,239.4c-1.2,23.9-3.8,55.2-7.8,101.4c-43.6,1.1-90.9-11-107.2-43.7c-7.5-15.1-12.2-42.2-0.2-66
		c3.9-7.7,10.1-19.8,22.4-24.9C530.2,193.7,556.4,242.7,592.2,239.4z"/>
	<path class="st4" d="M442.2,170.1c-5.8,29.2-42,52.2-74.3,49.3c-46.7-4.1-80.5-61.8-68.6-93.2c4.3-11.4,16.1-23.3,28.6-23.5
		c17.9-0.2,19.9,24,43.9,32.7c26.8,9.7,47.1-12.3,62.3,0C446.7,145.6,442.5,168.7,442.2,170.1z"/>
</g>
</svg>
