<?xml version="1.0" encoding="utf-8"?>
<!-- Generator: Adobe Illustrator 24.0.3, SVG Export Plug-In . SVG Version: 6.00 Build 0)  -->
<!DOCTYPE svg PUBLIC "-//W3C//DTD SVG 1.1//EN" "http://www.w3.org/Graphics/SVG/1.1/DTD/svg11.dtd" [
	<!ENTITY ns_extend "http://ns.adobe.com/Extensibility/1.0/">
	<!ENTITY ns_ai "http://ns.adobe.com/AdobeIllustrator/10.0/">
	<!ENTITY ns_graphs "http://ns.adobe.com/Graphs/1.0/">
	<!ENTITY ns_vars "http://ns.adobe.com/Variables/1.0/">
	<!ENTITY ns_imrep "http://ns.adobe.com/ImageReplacement/1.0/">
	<!ENTITY ns_sfw "http://ns.adobe.com/SaveForWeb/1.0/">
	<!ENTITY ns_custom "http://ns.adobe.com/GenericCustomNamespace/1.0/">
	<!ENTITY ns_adobe_xpath "http://ns.adobe.com/XPath/1.0/">
]>
<svg version="1.1" id="general_1_" xmlns:x="&ns_extend;" xmlns:i="&ns_ai;" xmlns:graph="&ns_graphs;"
	 xmlns="http://www.w3.org/2000/svg" xmlns:xlink="http://www.w3.org/1999/xlink" x="0px" y="0px" viewBox="0 0 600 600"
	 style="enable-background:new 0 0 600 600;" xml:space="preserve">
<style type="text/css">
	.st0{fill:#262B2C;}
	.st1{fill:#ECD3EF;}
	.st2{fill:#4E02C6;}
	.st3{fill:#F4F4F4;}
	.st4{fill:#FA0018;}
</style>
<metadata>
	<sfw  xmlns="&ns_sfw;">
		<slices></slices>
		<sliceSourceBounds  bottomLeftOrigin="true" height="586" width="501.9" x="47.6" y="-592.8"></sliceSourceBounds>
	</sfw>
</metadata>
<g id="general">
	<path class="st0" d="M545.2,305.1c-3.6,38.4-9.2,91-41.7,149C491.2,476,427.8,583,330.4,592.3c-11.7,1.1-24.6,0.1-50.5-1.8
		c-29-2.2-52.2-4.4-71.4-7.7c-22.3-3.8-39.2-9.1-53.5-17.6c-25-14.9-36-46.6-40.5-78c6.6,1.3,13.9,2.7,21.9,4.2
		c29.8,5.6,50,8.4,77.9,8.7c7.7,0.1,15.1-0.2,22.4-1c7,0.6,13.9,1,20.6,1c14.6,0.2,28.4-1.1,41.1-4.5c-1.3,10.2-0.7,20.8,3.5,30.6
		c0.9,2.1,1.9,4.1,3.2,6.1c13.2,21.5,41,28.8,59,28.6c74.6-0.8,149-131.5,165.9-249.5C545.6,203,519.2,61.2,456.8,46.3
		c-20.1-4.8-44.2,3.6-65.4,18.2c-14.3,9.9-27.3,22.6-36.9,36.1c-10.3,14.5-16.2,29.2-19.5,41.9c-11.8-6-25.1-10.2-39.1-13.5
		c-18.1-4.2-37.4-6.9-56.7-9.5c-35.7-4.9-61-8.3-82.9-2.7c8-22.2,22.6-49.6,49.3-71.7c41.8-34.6,89.6-36.7,129.3-37.8
		c1.1,0,2.2-0.1,3.3-0.1c42.9-1.1,95-2.5,138.5,28.3C564.8,97.8,550.8,245.3,545.2,305.1z"/>
	<path class="st1" d="M530,311.4c-17,118-91.3,248.7-165.9,249.5c-18,0.2-45.8-7.1-59-28.6c-1.2-2-2.3-4-3.2-6.1
		c34.9-22.8,65.3-45.4,70.9-58.2c14.5-32.8,46.1-94.7,60-165.8c13.9-71.1,2.5-128.4-13.9-188.3c-4.5-16.3-14.8-33.3-27.5-49.4
		c21.2-14.6,45.2-23,65.4-18.2C519.2,61.2,545.6,203,530,311.4z"/>
	<path class="st2" d="M369.1,170.9c-8.9-12.4-20.6-21.5-34.1-28.3c-11.8-6-25.1-10.2-39.1-13.5c-18.1-4.2-37.4-6.9-56.7-9.5
		c-35.7-4.9-61-8.3-82.9-2.7c-1.5,0.4-3,0.8-4.5,1.3c1.3,0,2.7-0.1,4.1-0.1c13-0.1,26.6,0.7,40.4,1.5c14.3,0.8,33.4,2.1,56.7,9.5
		c15.9,5.1,52.9,16.8,73.1,41.8c0,0,0,0.1,0.1,0.1c25.2,31.1-1.4,50.8-2.3,169.9c-0.1,16-1,67.9-15.2,105.8
		c-3.8,10.1-8.5,19.3-14.4,26.5c-1.7,2-3.4,3.6-5.2,5.2c-14.5,12.5-32.4,18.6-52.3,20.9c7,0.6,13.9,1,20.6,1
		c14.6,0.2,28.4-1.1,41.1-4.5c12.4-3.4,23.7-8.9,33.5-17.4c12.1-10.4,19.8-23.6,34.8-137.5C385.2,201.2,378.4,183.9,369.1,170.9z"/>
	<path class="st1" d="M326.1,170.9C326.1,170.8,326.1,170.8,326.1,170.9c-20.4-25.1-57.3-36.8-73.2-41.9
		c-23.3-7.4-42.3-8.6-56.7-9.5c-13.8-0.8-27.5-1.6-40.4-1.5c-1.4,0-2.7,0-4.1,0.1c-19.1,0.5-36.6,3.3-50.7,11.4
		c-16,9.2-31.1,27.4-46.8,181.6c-12.3,120.9-6.9,147.2,11.6,161.9c6.7,5.4,21.5,8.9,48.7,14.3c6.6,1.3,13.9,2.7,21.9,4.2
		c29.8,5.6,50,8.4,77.9,8.7c7.7,0.1,15.1-0.2,22.4-1c19.9-2.2,37.8-8.3,52.3-20.9c1.8-1.6,3.5-3.2,5.2-5.2
		c5.9-7.2,10.6-16.3,14.4-26.5c14.2-37.9,15.1-89.8,15.2-105.8C324.7,221.6,351.3,202,326.1,170.9z"/>
	<path class="st0" d="M371.4,289.8c-3.3,1-7.8,1.7-12.3,0.1c-14.5-4.8-16.2-26.6-16.3-29.2c-1-16.1,7.4-35.9,22.2-40
		c1.6-0.4,6.7-1.8,11.8,0.3c-14.3,4.6-22.3,24-21.3,39.7C355.6,263.3,357.2,284.7,371.4,289.8z"/>
	<path class="st1" d="M389.9,221.2c-5.3-2.4-10.7-0.9-12.3-0.5c-0.3,0.1-0.6,0.2-0.9,0.3c-14.3,4.6-22.3,24-21.3,39.7
		c0.2,2.6,1.8,24,16,29.1c0.1,0,0.2,0.1,0.4,0.1c9,3,17.5-2.4,18.2-2.8c8.9-5.8,10.3-16.4,11.4-24.9
		C401.7,260.2,405.6,228.3,389.9,221.2z"/>
	<path class="st2" d="M172.1,302.3l32.2-68.6l29.4-63.4l12.6,4.2c0,0-44.6,86.8-45.9,90.4s-22,42.1-22,42.1L172.1,302.3z"/>
	<path class="st3" d="M168.7,298.9c0,0-34.8-10.8-39.9-11.4c-5.1-0.6-47.7-10.7-47.7-10.7l-4.5,29c0,0,62.3,4.7,68.5,5.8
		c6.2,1.1,27,0,27,0L168.7,298.9z"/>
	<path class="st4" d="M175.1,290c-1.1,0-6.4,0.4-10.2,4.6c-4,4.4-3.7,10-3.5,12.4c0.6,8,3.6,12.6,7.5,14.3
		c6.1,2.5,12.7-2.9,13.6-3.6c5.4-4.5,10.1-13.9,5.8-21C185.5,292.1,180,289.8,175.1,290z"/>
	<polygon class="st4" points="174.1,308.7 236.5,386.6 278.1,437.7 282.8,432.3 242,381.9 176.3,304.6 	"/>
</g>
</svg>
