<?xml version="1.0" encoding="utf-8"?>
<!-- Generator: Adobe Illustrator 24.0.3, SVG Export Plug-In . SVG Version: 6.00 Build 0)  -->
<!DOCTYPE svg PUBLIC "-//W3C//DTD SVG 1.1//EN" "http://www.w3.org/Graphics/SVG/1.1/DTD/svg11.dtd" [
	<!ENTITY ns_extend "http://ns.adobe.com/Extensibility/1.0/">
	<!ENTITY ns_ai "http://ns.adobe.com/AdobeIllustrator/10.0/">
	<!ENTITY ns_graphs "http://ns.adobe.com/Graphs/1.0/">
	<!ENTITY ns_vars "http://ns.adobe.com/Variables/1.0/">
	<!ENTITY ns_imrep "http://ns.adobe.com/ImageReplacement/1.0/">
	<!ENTITY ns_sfw "http://ns.adobe.com/SaveForWeb/1.0/">
	<!ENTITY ns_custom "http://ns.adobe.com/GenericCustomNamespace/1.0/">
	<!ENTITY ns_adobe_xpath "http://ns.adobe.com/XPath/1.0/">
]>
<svg version="1.1" id="general_1_" xmlns:x="&ns_extend;" xmlns:i="&ns_ai;" xmlns:graph="&ns_graphs;"
	 xmlns="http://www.w3.org/2000/svg" xmlns:xlink="http://www.w3.org/1999/xlink" x="0px" y="0px" viewBox="0 0 600 600"
	 style="enable-background:new 0 0 600 600;" xml:space="preserve">
<style type="text/css">
	.st0{fill:#04B25F;}
	.st1{fill:#ECD3EF;}
	.st2{fill:#FC5832;}
	.st3{fill:#DD00C1;}
</style>
<metadata>
	<sfw  xmlns="&ns_sfw;">
		<slices></slices>
		<sliceSourceBounds  bottomLeftOrigin="true" height="584" width="514.1" x="63.9" y="-591.3"></sliceSourceBounds>
		<optimizationSettings>
			<targetSettings  fileFormat="PNG24Format" targetSettingsID="0">
				<PNG24Format  filtered="false" interlaced="false" matteColor="#FFFFFF" noMatteColor="false" transparency="false">
					</PNG24Format>
			</targetSettings>
		</optimizationSettings>
	</sfw>
</metadata>
<g id="general">
	<path class="st0" d="M544.2,157.9c-0.5,0.6-11.6,16.4-22.7,32.5c-4.7,6.7-8.9,12.9-12.6,18.3c-0.2-2.3-0.7-4.5-1.5-6.8
		c-0.9-2.6-2-5-3.4-7.3c0,0,0,0,0,0c-2.9-4.7-6.9-9-12.2-13.3c7.4-10.8,18-26.1,34.2-48c27.7-37.5,41-52.7,35.5-67.9
		c-0.3-0.8-0.6-1.6-1-2.4c2.5,3.5,5.9,10.1,9.4,17c4.3,8.3,6.4,12.5,7.3,15.3C581,107.3,571.7,118.9,544.2,157.9z"/>
	<path class="st1" d="M561.5,65.4c-0.3-0.8-0.6-1.6-1-2.4c-0.1-0.3-0.3-0.5-0.4-0.7c-0.8-1.3-1.8-2.5-3.1-3.7
		c-4.3-4-12.2-8.1-27.9-16.1c-70.6-35.9-76.5-36-82.4-34.6c-14.4,3.4-19.9,13.7-50.2,58.2c-15.8,23.2-29.4,42.6-39.5,56.8
		c9,1.5,18.7,4,29.8,6.8c2.8,0.7,7.7,2,14.2,4.1c10,3.3,23.7,8.6,39.4,16.7c1.4,0.7,2.7,1.4,4.1,2.2c1.3,0.7,2.6,1.4,3.9,2.1
		c19.4,10.6,33.7,18.5,43.6,26.6c7.4-10.8,18-26.1,34.2-48C553.7,95.7,566.9,80.6,561.5,65.4z"/>
	<path class="st2" d="M422.7,63.7c-0.5,0.2-7.2,2.2-9.8,8.2c-0.5,1.1-1.3,3-0.8,5.3c0.4,2.2,2,4.2,8.1,7.7c8.8,5,14,8.1,18.6,5.9
		c2-1,3.3-2.6,4.8-4.6c1.7-2.2,3.7-4.7,3.8-7.7c0.2-5.3-5.8-9.1-8.6-10.9C435.9,65.6,429.8,61.7,422.7,63.7z"/>
	<path class="st2" d="M487.7,95c-0.5,0.2-7.2,2.2-9.8,8.2c-0.5,1.1-1.3,3-0.8,5.3c0.4,2.2,2,4.2,8.1,7.7c8.8,5,14,8.1,18.6,5.9
		c2-1,3.3-2.6,4.8-4.6c1.7-2.2,3.7-4.7,3.8-7.7c0.2-5.3-5.8-9.1-8.6-10.9C500.9,96.9,494.8,93,487.7,95z"/>
	<path class="st0" d="M452.8,373c-24.1,34.7-56.2,82.9-80,120.5c-45.5,71.7-47.5,82.6-67.4,91.9c-30.9,14.3-66.3,1.6-136.8-23.4
		c0,0-51.7-18.3-87.3-55.1c-6.9-7.1-10.9-13.9-13.4-20.2c-1.3-3.2-5.3-14.4-3.6-29.1c0.8-6.7,1.8-14.6,4.7-20.4
		c-0.8,2.8-1,5.6-0.5,8.8c4.4,29.9,41.9,46.6,86.5,66.5c47.8,21.3,95.4,42.6,136.8,23.4c19.9-9.2,21.9-20.2,67.4-91.9
		c23.8-37.6,55.9-85.9,80-120.5c55.2-79.3,76.2-97.5,68.1-121.5c-0.9-2.6-2-5-3.4-7.3c9.8,12.5,16.8,35.5,16.9,56.9
		C521.1,286,502.9,301,452.8,373z"/>
	<path class="st3" d="M508.9,208.7c-0.2-2.3-0.7-4.5-1.5-6.8c-0.9-2.6-2-5-3.4-7.3c0,0,0,0,0,0c-2.9-4.7-6.9-9-12.2-13.3
		c-10.6-8.6-26.1-17.1-47.5-28.7c-27.7-15.1-50.1-21.1-57.7-23.1c-11.1-2.8-20.9-5.3-29.8-6.8c-13-2.2-24.4-2.5-36.3,1
		c-21.3,6.2-31,20.7-62.5,63c-13.2,17.7-34.5,46-62.4,81.7c0,0-34.9,30.3-64.3,80.3c-34.8,59-57.8,73-62.3,88.3
		c-0.8,2.8-1,5.6-0.5,8.8c4.4,29.9,41.9,46.6,86.5,66.5c47.8,21.3,95.4,42.6,136.8,23.4c19.9-9.2,21.9-20.2,67.4-91.9
		c23.8-37.6,55.9-85.9,80-120.5C489.2,251.7,511.2,229.9,508.9,208.7z"/>
	<path class="st1" d="M473.4,214.5c-5.2-15.4-21.7-24.4-52.9-41.3c-23.2-12.6-42-17.7-48.3-19.3c-22.9-5.8-38.7-9.8-55.4-4.9
		c-15.1,4.4-27.7,20.6-52.4,52.8c-46.9,61.3-42.8,56.7-52.3,68.5c-26.3,32.7-34.5,39.2-53.9,67.3c-10.8,15.5-9.1,16.4-23.7,35.8
		c-19.9,26.4-30.8,32.9-28.9,45.6c3.7,25,35.1,39.1,72.5,55.8c40.1,17.9,80,35.7,114.7,19.6c16.7-7.7,18.3-16.9,56.5-77
		c20-31.5,46.8-72,67.1-101C462.5,249.9,480.2,234.5,473.4,214.5z M391.6,317.5c-3.6,4.3-6.5,7.2-7.4,8
		c-13.7,13.4-24.6,42.3-44.5,74.4c-12.6,20.4-12.5,15.7-20.1,29.6c-5,9.2-9.7,19.8-21.3,27.8c0,0-3,2.2-6.4,3.8
		c-28,13-60.2-1.4-92.5-15.8c-30.2-13.5-55.5-24.8-58.5-45c-1.5-10.3,7.3-15.5,23.3-36.8c11.8-15.7,10.4-16.3,19.1-28.8
		c15.7-22.6,22.3-27.9,43.5-54.3c1.2-1.4,1.9-2.5,3.6-4.5c8.5-10.6,15-18.1,16.6-20.1c9.3-10.9,12.8-18.2,21.9-30.7
		c18.4-25.2,27.4-38.3,42.3-42.6c13.5-4,26.3-0.7,44.7,3.9c5.1,1.3,20.3,5.4,39,15.6c26.6,14.5,40.1,21.5,42.6,33.3
		c4.3,19.4-20,36.8-34.8,65C401.7,302.5,398.1,309.5,391.6,317.5z"/>
	<path class="st0" d="M226.1,329.3c-2.3,0.5-4.8,2.2-9.4,11.7c-4.2,8.8-7.5,15.5-8,25.3c-0.3,4.8,0.5,2.7,1,14.8
		c0.5,12.4-0.3,16.3,2.9,20.5c2.7,3.6,6.9,5.4,8.6,6.1c4.3,1.8,5.6,0.9,11,2.6c5.9,1.8,6.3,3.5,10.9,5.1c4.4,1.5,7.9,1.2,14.9,0.5
		c7.2-0.6,14-1.2,21-5.1c2.2-1.2,3.4-2.2,10.5-8.9c16.7-15.8,19.4-19.1,21.8-22.4c5.1-7,9.5-13.2,7.3-18.2c-0.7-1.5-3-3.3-7.7-6.8
		c-5.3-4-7.9-6-9.9-6c-2.6,0-4.6,2-11.3,11.6c-7.7,11-6.4,10.5-8.7,12.9c-0.6,0.6-11.7,12.1-25.8,9.5c-2.1-0.4-7.8-1.5-12.2-6.4
		c-4.7-5.3-6.4-13.5-4.2-19.9c1.6-4.6,4.3-5.4,8.6-14.5c2.2-4.8,2.2-6,1.7-7c-1.3-2.6-5.2-1.7-15.5-4
		C228.6,329.5,228,328.8,226.1,329.3z"/>
</g>
</svg>
