<?xml version="1.0" encoding="utf-8"?>
<!-- Generator: Adobe Illustrator 24.0.3, SVG Export Plug-In . SVG Version: 6.00 Build 0)  -->
<!DOCTYPE svg PUBLIC "-//W3C//DTD SVG 1.1//EN" "http://www.w3.org/Graphics/SVG/1.1/DTD/svg11.dtd" [
	<!ENTITY ns_extend "http://ns.adobe.com/Extensibility/1.0/">
	<!ENTITY ns_ai "http://ns.adobe.com/AdobeIllustrator/10.0/">
	<!ENTITY ns_graphs "http://ns.adobe.com/Graphs/1.0/">
	<!ENTITY ns_vars "http://ns.adobe.com/Variables/1.0/">
	<!ENTITY ns_imrep "http://ns.adobe.com/ImageReplacement/1.0/">
	<!ENTITY ns_sfw "http://ns.adobe.com/SaveForWeb/1.0/">
	<!ENTITY ns_custom "http://ns.adobe.com/GenericCustomNamespace/1.0/">
	<!ENTITY ns_adobe_xpath "http://ns.adobe.com/XPath/1.0/">
]>
<svg version="1.1" id="general_1_" xmlns:x="&ns_extend;" xmlns:i="&ns_ai;" xmlns:graph="&ns_graphs;"
	 xmlns="http://www.w3.org/2000/svg" xmlns:xlink="http://www.w3.org/1999/xlink" x="0px" y="0px" viewBox="0 0 600 600"
	 style="enable-background:new 0 0 600 600;" xml:space="preserve">
<style type="text/css">
	.st0{fill:#FF7300;}
	.st1{fill:#FFF200;}
	.st2{fill:#FFFFFF;}
</style>
<metadata>
	<sfw  xmlns="&ns_sfw;">
		<slices></slices>
		<sliceSourceBounds  bottomLeftOrigin="true" height="581.9" width="581.2" x="309.4" y="-890.9"></sliceSourceBounds>
	</sfw>
</metadata>
<g id="general">
	<path class="st0" d="M590,496c-0.6,1.8-1.4,3.5-2,4.8c-0.7,1.2-1.2,2-1.2,2c-2.9,5-4.8,8.1-7.5,9.8c0.5-0.5,0.9-1.1,1.2-1.6
		c5.1-8.5-2.7-21.9-18.5-48.2c-13.5-22.4-26.6-39.7-36.1-51.3c7.8-12.3,17.7-30.4,25.1-53.7c1.1-3.4,19.4-64.3,2-131.9
		c-20-77.7-82.2-145.5-159.6-175.8C287.1,8.3,168.6,43.5,94.6,116.7c-3.2,3.2-13.1,13.2-25,29c18.2-29.2,36.2-47.5,40.8-52
		c74-73.2,192.5-108.4,298.6-66.9c5.5,2.1,125.5,51.5,159.6,175.8c21.2,77.4-1.3,145.5-4.6,155c-6.7,19.3-14.6,34.6-21,45.4
		c13.4,21.4,23.8,37.4,30.6,47.9C573.8,450.9,594.3,482.2,590,496z"/>
	<path class="st1" d="M561.9,462.6c-13.5-22.4-26.6-39.7-36.1-51.3c7.8-12.3,17.7-30.4,25.1-53.7c1.1-3.4,19.4-64.3,2-131.9
		c-20-77.7-82.2-145.5-159.6-175.8C287.1,8.3,168.6,43.5,94.6,116.7c-3.2,3.2-13.1,13.2-25,29c-29.1,38.6-70.5,112-58,206.1
		C26.9,465.3,113.3,555.5,213,581.9c25.7,6.8,105.8,23.6,184.5-19.2c33-17.9,55.1-40.6,68.3-56.4c11.8,2.8,29.7,6.5,52,9
		c32.4,3.5,53.9,5.8,61.5-2.7c0,0,0,0,0,0c0.5-0.5,0.9-1.1,1.2-1.6C585.5,502.3,577.7,489,561.9,462.6z"/>
	<path class="st2" d="M95.1,350.3c-1.1,25.1,18.9,46.3,42.1,48.9c21,2.4,38.8-11,47.2-25.3c2.2-3.7,9.6-16.9,6-32.9
		c-4.5-20-24-35.2-44.9-35.9C121.4,304.3,96.3,323.2,95.1,350.3z"/>
	<path class="st2" d="M219.5,350.3c-1.1,25.1,18.9,46.3,42.1,48.9c21,2.4,38.8-11,47.2-25.3c2.2-3.7,9.6-16.9,6-32.9
		c-4.5-20-24-35.2-44.9-35.9C245.7,304.3,220.7,323.2,219.5,350.3z"/>
	<path class="st2" d="M343.9,350.3c-1.1,25.1,18.9,46.3,42.1,48.9c21,2.4,38.8-11,47.2-25.3c2.2-3.7,9.6-16.9,6-32.9
		c-4.5-20-24-35.2-44.9-35.9C370.1,304.3,345,323.2,343.9,350.3z"/>
</g>
</svg>
