<?xml version="1.0" encoding="utf-8"?>
<!-- Generator: Adobe Illustrator 24.0.3, SVG Export Plug-In . SVG Version: 6.00 Build 0)  -->
<!DOCTYPE svg PUBLIC "-//W3C//DTD SVG 1.1//EN" "http://www.w3.org/Graphics/SVG/1.1/DTD/svg11.dtd" [
	<!ENTITY ns_extend "http://ns.adobe.com/Extensibility/1.0/">
	<!ENTITY ns_ai "http://ns.adobe.com/AdobeIllustrator/10.0/">
	<!ENTITY ns_graphs "http://ns.adobe.com/Graphs/1.0/">
	<!ENTITY ns_vars "http://ns.adobe.com/Variables/1.0/">
	<!ENTITY ns_imrep "http://ns.adobe.com/ImageReplacement/1.0/">
	<!ENTITY ns_sfw "http://ns.adobe.com/SaveForWeb/1.0/">
	<!ENTITY ns_custom "http://ns.adobe.com/GenericCustomNamespace/1.0/">
	<!ENTITY ns_adobe_xpath "http://ns.adobe.com/XPath/1.0/">
]>
<svg version="1.1" id="general_1_" xmlns:x="&ns_extend;" xmlns:i="&ns_ai;" xmlns:graph="&ns_graphs;"
	 xmlns="http://www.w3.org/2000/svg" xmlns:xlink="http://www.w3.org/1999/xlink" x="0px" y="0px" viewBox="0 0 600 600"
	 style="enable-background:new 0 0 600 600;" xml:space="preserve">
<style type="text/css">
	.st0{fill:#262B2C;}
	.st1{fill:#ECD3EF;}
	.st2{fill:#4E02C6;}
	.st3{fill:#FA0018;}
	.st4{fill:#F4F4F4;}
</style>
<metadata>
	<sfw  xmlns="&ns_sfw;">
		<slices></slices>
		<sliceSourceBounds  bottomLeftOrigin="true" height="420.1" width="585.2" x="8.4" y="-500.4"></sliceSourceBounds>
		<optimizationSettings>
			<targetSettings  fileFormat="PNG24Format" targetSettingsID="0">
				<PNG24Format  filtered="false" interlaced="false" matteColor="#FFFFFF" noMatteColor="false" transparency="false">
					</PNG24Format>
			</targetSettings>
		</optimizationSettings>
	</sfw>
</metadata>
<g id="general">
	<path class="st0" d="M583.9,471.9c-5.2,10.8-21.8,29.9-196.6,28.4c-70.8-0.6-60.9-3.7-116.8-3.1c-55.9,0.5-111.9-1.3-167.8,0.3
		c-40.7,1.2-57,2.6-71-9.8c-16.5-14.6-18.7-42.1-22.1-96.8c-0.9-13.9-1.4-28.9-1.2-87.1c0.2-46.7,0.2-70.1,0.9-86.8
		c3-70.5,4.4-105.7,17.9-119.9c16.9-17.7,55-17.6,130.7-16.5c59.6,0.8,63.4,5.1,121,5.3c44.8,0.1,43.7-2.7,103.1-3.2
		c16.4-0.1,45.7,1,104.1,3.2c63.9,2.4,75.4,3.3,86.3,13.7c3.8,3.6,13.5,14.1,18.9,76.8c2.2,25.5,2.4,44.7,2.1,89.4
		c-0.4,54.3-1.2,85.1-1.8,103.6c-0.1,4.6-0.2,6.9-0.3,10C589.3,435,588.2,462.9,583.9,471.9z"/>
	<path class="st1" d="M96.3,161.7c18.8-0.2,37.6-2.6,56.4-2.5c1.7,0,27.9,0.1,47.3,0c26.1-0.2,28.6-0.7,48.1-0.8
		c34.1-0.3,41.9,1.1,83.8,1.7c29,0.4,43.5,0.6,57.2,0c36.5-1.6,73,2.7,109.5,2.5c2.5,0,9.5-0.1,12.2,4.1c1.1,1.7,1,3.3,0.2,13.3
		c-0.8,10.4-0.9,11.2-1.7,12.4c-4,6.2-15.4,5.5-18.3,5.4c-54.1-2.8-108.5,2.6-162.6-0.4c-63.4-3.5-136.5-0.9-164.3,0.8
		c-10.2,0.6-20.5,0.5-30.7,0.8c-38.2,1.4-59.4,3.5-63.9-5.8c-1.8-3.8-1.7-11.1-1.7-13.3c0.1-3.8,0.2-7.9,1.7-10.8
		C73.6,161.8,87.3,161.8,96.3,161.7z"/>
	<path class="st1" d="M93.9,266.8c28-1.2,51-0.4,58.7-0.2c2.6,0.1,0.8,0,45.9-0.8c29.7-0.5,44.5-0.8,48.1-0.8
		c34.7-0.2,43,1.1,83.8,1.7c29,0.4,43.5,0.6,57.2,0c36.5-1.6,73,2.7,109.5,2.5c2.5,0,9.5-0.1,12.2,4.1c0.2,0.3,0.3,0.4,0.4,0.8
		c2.3,4.6,2.1,9.5,1.9,12.5c-0.5,7.9-0.8,11.9-2.1,13.8c-4.4,6.6-16.2,6-19.5,5.9c-55.2-2.4-110.5,3.7-165.7,1
		c-49.3-2.4-120.2-2.3-160.7,0.1c-12,0.7-24.1,0.2-36.1,0.3c-34,0.5-56,1.1-59.5-7.9c-0.6-1.6-0.6-5-0.4-11.9
		c0.1-6.9,0.2-10.4,1.3-12.7C72.7,267.8,85.9,267.1,93.9,266.8z"/>
	<path class="st1" d="M95.3,374.3c15.1-1.3,24.6-1.3,24.6-1.3c18.2,0,31.5,0.2,36.1,0.2c18.7,0.2,20.7-0.5,45-0.9
		c13.3-0.2,24.8-0.1,47.1,0.2c33.7,0.4,62.1,1.1,83.8,1.7c62.1,1.7,54.3,2.5,61.7,2c0,0,56.9-3.3,101.9-1.5
		c2.8,0.1,12.1,0.6,15.4,6.1c0.2,0.3,0.3,0.5,0.4,0.8c2.3,4.6,2.1,9.5,1.9,12.5c-0.5,7.7-0.8,11.6-2.1,13.8
		c-4.4,7.6-16.9,8-21.4,8.1c-135.4,3.2-167.6,1.1-167.6,1.1c-56.1-3.6-123-3.6-156.9-2.2c-12,0.5-24.1-0.1-36.1,0.3
		c-34.7,1.3-54.1,4.8-59.5-4.6c-2.3-3.9-1.9-9.8-1.6-15.2c0.4-6.1,0.7-10.8,3.7-14.6C74.7,377.2,79.1,375.8,95.3,374.3z"/>
	<path class="st2" d="M181.6,180c0.1,5.9-1.7,10.2-2.2,11.5c-4.1,9.3-12.4,13.2-14.5,14.1c-5.6,2.5-10.5,2.6-13,2.6
		c-3.1,0-8.1,0-13.5-2.9c-5.2-2.8-7.9-6.7-9.4-8.9c-1.7-2.5-5.7-8.6-5.5-17.1c0.3-11.7,8.5-18.9,9.7-20c7.6-6.5,16.3-6.7,19.5-6.7
		c3,0,10.9,0.1,18.1,5.7c5.9,4.6,8.2,10.4,8.9,12.2C181.4,174.7,181.6,178.4,181.6,180z"/>
	<path class="st3" d="M404.4,287.9c0,0.6-0.3,5.2-2.4,10c-4,8.7-13.7,16.7-25.7,17.5c-10.7,0.7-18.4-4.6-20.7-6.3
		c-2.2-1.7-6.2-4.7-8.5-10.3c-2-4.7-1.7-8.9-1.5-11.8c0.2-3.5,0.8-12,7-18.8c9.2-10.3,23.6-8.8,27-8.5c3.7,0.4,11,1.1,16.7,6.7
		c3.6,3.5,5.2,7.7,6.1,10C403.1,278.6,404.6,282.5,404.4,287.9z"/>
	<path class="st4" d="M319.5,394.9c-0.3,6.9-3.2,11.9-4.3,13.8c-1.3,2.1-3.6,5.9-8.1,8.9c-6.2,4.1-12.6,4.1-17.2,4.1
		c-3.4,0-9.2-0.1-15.6-3.3c-2.8-1.4-9.7-4.7-13.3-12.5c-2.1-4.6-2.1-8.8-2.2-11.4c0-2.4,0-7.1,2.4-12.5c0.5-1.1,2.8-5.8,7.9-10
		c9-7.4,19.8-7,22.5-6.8c3.4,0.2,12.2,1,19.5,8.2C312,374.5,320,382.7,319.5,394.9z"/>
</g>
</svg>
