<?xml version="1.0" encoding="utf-8"?>
<!-- Generator: Adobe Illustrator 24.0.3, SVG Export Plug-In . SVG Version: 6.00 Build 0)  -->
<!DOCTYPE svg PUBLIC "-//W3C//DTD SVG 1.1//EN" "http://www.w3.org/Graphics/SVG/1.1/DTD/svg11.dtd" [
	<!ENTITY ns_extend "http://ns.adobe.com/Extensibility/1.0/">
	<!ENTITY ns_ai "http://ns.adobe.com/AdobeIllustrator/10.0/">
	<!ENTITY ns_graphs "http://ns.adobe.com/Graphs/1.0/">
	<!ENTITY ns_vars "http://ns.adobe.com/Variables/1.0/">
	<!ENTITY ns_imrep "http://ns.adobe.com/ImageReplacement/1.0/">
	<!ENTITY ns_sfw "http://ns.adobe.com/SaveForWeb/1.0/">
	<!ENTITY ns_custom "http://ns.adobe.com/GenericCustomNamespace/1.0/">
	<!ENTITY ns_adobe_xpath "http://ns.adobe.com/XPath/1.0/">
]>
<svg version="1.1" id="general_1_" xmlns:x="&ns_extend;" xmlns:i="&ns_ai;" xmlns:graph="&ns_graphs;"
	 xmlns="http://www.w3.org/2000/svg" xmlns:xlink="http://www.w3.org/1999/xlink" x="0px" y="0px" viewBox="0 0 600 600"
	 style="enable-background:new 0 0 600 600;" xml:space="preserve">
<style type="text/css">
	.st0{fill:#FFF200;}
	.st1{fill:#FF7300;}
	.st2{fill:#FFFFFF;}
	.st3{fill:#4E02C6;}
</style>
<metadata>
	<sfw  xmlns="&ns_sfw;">
		<slices></slices>
		<sliceSourceBounds  bottomLeftOrigin="true" height="416.8" width="588" x="5.6" y="-493.4"></sliceSourceBounds>
		<optimizationSettings>
			<targetSettings  fileFormat="PNG24Format" targetSettingsID="0">
				<PNG24Format  filtered="false" interlaced="false" matteColor="#FFFFFF" noMatteColor="false" transparency="false">
					</PNG24Format>
			</targetSettings>
		</optimizationSettings>
	</sfw>
</metadata>
<g id="general">
	<path class="st0" d="M588.8,415.3c-19.3,43.1-99,38.4-196.2,46.3C134.4,482.7,32.4,517,6.8,469.1c-2.7-5-0.4-27.8,4.3-73.3
		c1.1-10.3,2-19.4,3.2-29.7c1.7-14.4,3.8-32.5,7.5-55.1c3-18.2,3.8-19.6,5.5-32.7c2-15,2.8-26.7,3.2-34.5c3.7-63.6-1-93,11.2-109.2
		c1.4-1.9,3.1-3.6,5-5.1c5-4,9.8-5.4,18.3-7.5c71.6-17.6,135.8-16.5,232.8-26.9c0,0,0.5-0.1,0.5-0.1c7.4-0.8,74.9-8,167.6-15
		c56.6-4.3,72.1-4.8,81.8-0.8c2,0.8,3.4,1.7,5.5,2.9c2.7,1.7,5.2,3.7,7.5,6c11.7,12.2,18.3,35.8,24.8,97.4
		c2.8,26.5,4.4,48.4,5.4,65.8c1.7,29.9,2.1,52.6,2.2,59.3C593.9,372.2,594.3,403,588.8,415.3z"/>
	<path class="st1" d="M560.8,88.2c-42,46.1-86.5,93.7-133.6,142.7c-29.9,31.1-70.7,72.4-119.6,67.9c-17.5-1.6-28.1-8.4-61.4-29.1
		c-128-79.5-109.1-65-134.7-83c-20.7-14.5-44.1-31.8-69.6-52c1.4-1.9,3.1-3.6,5-5.1c5-4,9.8-5.4,18.3-7.5
		c71.6-17.6,135.8-16.5,232.8-26.9c0,0,0.5-0.1,0.5-0.1c7.4-0.8,74.9-8,167.6-15c56.6-4.3,72.1-4.8,81.8-0.8c2,0.8,3.4,1.7,5.5,2.9
		C556,83.9,558.5,85.8,560.8,88.2z"/>
	<path class="st2" d="M469.4,343.5c-0.2,0-0.4,0-0.7,0c-3.4,0-11.2-0.2-19-4.9c-0.7-0.4-1.4-0.9-2-1.3c-1,0.5-2.4,1.2-4.2,1.8
		c0,0-1,0.3-2.5,0.7c0,0-2.8,0.6-5.5,0.7c-3.7,0.1-18.7-2.1-19.8-9.3c-0.7-4.5,4.2-10,7.4-9.6c1.9,0.2,1.7,2.4,5.5,5.6
		c1.5,1.2,5.4,4.5,10.2,4c1-0.1,1.8-0.3,2.3-0.5c-3.1-3.2-7.9-9.3-9.6-18c-0.3-1.6-3.9-20.4,7.7-29c6.2-4.6,13.5-4,14.1-3.9
		c1.5,0.2,7.2,0.9,11.6,5.3c7.2,7.1,5.5,18.2,4.9,22.3c-2,13.4-11.9,22-14.1,23.9c-0.2,0.2-0.3,0.3-0.4,0.4
		c3.1,2.1,8.2,4.7,14.8,5.4c17.5,1.6,29.6-12.8,30.9-14.4c-2.3-2.1-5.9-5.9-8-11.7c-4.9-13.7,1.6-30.7,13-37.2
		c2.1-1.2,6.9-3.7,11.9-2.4c7.9,2.2,10.1,11.4,9.6,18.5c-0.9,11.4-5.7,22.7-13.6,32c6,3.7,10.9,4.4,14.6,3.9
		c7.3-0.9,11.4-6.1,15-4.1c2.1,1.2,3.1,4.4,2.5,6.7c-0.9,3.3-5,4.5-7.6,5.3c-4.1,1.2-7.8,1-11.8,0.4c-4.5-0.7-11.2-2.2-18.8-5.9
		C496.7,338,482.8,343.5,469.4,343.5z M453.3,287.3c-3.9,0-6.5,2.5-7.4,3.3c-4.2,3.9-5.7,11.1-4.2,20.4c0.5,3.1,2.1,9.7,6.6,15.1
		c0.4-0.3,0.9-0.7,1.5-1.3c1.3-1.2,7.8-7.4,10.5-18.9c1.4-6.1,2.9-12.5-0.7-16C457.2,287.3,453.6,287.3,453.3,287.3z M514,281
		c-0.5-0.2-3.7-1.4-6.6,0c-6.5,3.1-7.2,16.8-4.5,26.4c1.2,4.2,2.9,7.4,4,9.2c5.2-4.1,8.2-8.4,9.8-11.2c2.6-4.5,5.5-9.6,4.1-15.5
		C520.4,288.1,518.8,282.8,514,281z"/>
	<path class="st3" d="M411.8,386.6c-2.5-2.6-2.4-7.8-0.3-11.1c2.5-3.8,7.5-4.4,17.8-5.1c18.5-1.2,29.9-1.1,42.4-2.2
		c2.7-0.2,6.7-0.7,14.6-1.7c43.3-5.5,57.8-9.3,62.3-2.5c1.4,2.1,1.9,5.3,0.7,7.5c-2.3,4.3-10.4,4-13.2,3.9c-11.6-0.3-29,2.4-64,7.6
		c-16.8,2.5-34,1.7-50.6,5C419.8,388.3,414.5,389.4,411.8,386.6z"/>
	<path class="st3" d="M442.3,408.2c-1.2-1.7-1.3-4.3-0.3-6.1c1.7-3.3,6.2-4,8.5-4.4c15-2.3,34.7-3.8,40.7-4.4
		c9.2-0.8,14.1-1.3,21.1-2.5c12.2-2.2,19-4.6,23-0.8c1.7,1.6,3,4.6,2.2,6.9c-1.5,4.3-9.6,4.4-25,5.9c-4.5,0.5-14.4,1.5-24.2,3
		c-5.6,0.9-15.5,2.1-35.5,4.4C449.7,410.5,444.5,411.1,442.3,408.2z"/>
</g>
</svg>
