<?xml version="1.0" encoding="utf-8"?>
<!-- Generator: Adobe Illustrator 24.0.3, SVG Export Plug-In . SVG Version: 6.00 Build 0)  -->
<!DOCTYPE svg PUBLIC "-//W3C//DTD SVG 1.1//EN" "http://www.w3.org/Graphics/SVG/1.1/DTD/svg11.dtd" [
	<!ENTITY ns_extend "http://ns.adobe.com/Extensibility/1.0/">
	<!ENTITY ns_ai "http://ns.adobe.com/AdobeIllustrator/10.0/">
	<!ENTITY ns_graphs "http://ns.adobe.com/Graphs/1.0/">
	<!ENTITY ns_vars "http://ns.adobe.com/Variables/1.0/">
	<!ENTITY ns_imrep "http://ns.adobe.com/ImageReplacement/1.0/">
	<!ENTITY ns_sfw "http://ns.adobe.com/SaveForWeb/1.0/">
	<!ENTITY ns_custom "http://ns.adobe.com/GenericCustomNamespace/1.0/">
	<!ENTITY ns_adobe_xpath "http://ns.adobe.com/XPath/1.0/">
]>
<svg version="1.1" id="general_1_" xmlns:x="&ns_extend;" xmlns:i="&ns_ai;" xmlns:graph="&ns_graphs;"
	 xmlns="http://www.w3.org/2000/svg" xmlns:xlink="http://www.w3.org/1999/xlink" x="0px" y="0px" viewBox="0 0 600 600"
	 style="enable-background:new 0 0 600 600;" xml:space="preserve">
<style type="text/css">
	.st0{fill:#04B25F;}
	.st1{fill:#FFF200;}
	.st2{fill:#FA0018;}
	.st3{fill:#FFFFFF;}
</style>
<metadata>
	<sfw  xmlns="&ns_sfw;">
		<slices></slices>
		<sliceSourceBounds  bottomLeftOrigin="true" height="446.8" width="586.4" x="7.5" y="-543.6"></sliceSourceBounds>
	</sfw>
</metadata>
<g id="general">
	<path class="st0" d="M211.2,205.3c-32.2,0-160.6-3.3-198.9-4.2c0.9-55.2,2.2-77,20.8-92c16.1-13,35.1-12.4,60.4-12.3
		c101.9,0.2,152.9,0.3,228,2.9c157.9,5.4,176.3,5.7,176.3,5.7c38.2,0,59-5.5,75.5,9.2c15.1,13.3,16.4,32.6,17.5,95.8
		c-35.3-1-121.3-3.5-150.2-4.9C403.9,203.6,248.9,205.3,211.2,205.3z"/>
	<path class="st0" d="M593.8,339.3c-0.3,104.9-0.5,157.3-14.5,175.8c-16.5,21.8-34.2,27.6-236.1,27.6c0,0-77.3,3.2-233.5-2.9
		c-22.7-0.9-51.9,5.3-73.9-12.7c-15.5-12.7-24.5-33.7-27.6-117c-2.2-58.4,1.1-77.4,3-147.8c0.5-18,0.7-33.9,0.9-47.8
		c22.7,0.2,61.7,0.4,77.2-0.2c22.4-0.9,219.6,4.5,235.7,3.6c16.1-0.9,109.3,3.6,127.3,1.8c17.9-1.8,88.7,1.8,104.9,2.7
		c9,0.5,23.2,2.1,34,3.4c0.1,7.9,0.3,16.3,0.4,25.4C593,326.4,593.9,307.2,593.8,339.3z"/>
	<path class="st1" d="M591.1,225.8c-10.8-1.3-25-2.9-34-3.4c-16.1-0.9-86.9-4.5-104.9-2.7c-17.9,1.8-111.1-2.7-127.3-1.8
		c-16.1,0.9-213.3-4.5-235.7-3.6c-15.5,0.6-54.5,0.4-77.2,0.2c0.1-4.7,0.1-9.1,0.2-13.4c38.3,1,166.7,4.2,198.9,4.2
		c37.6,0,192.7-1.8,229.4,0c28.9,1.4,114.9,3.9,150.2,4.9C591,215.2,591.1,220.4,591.1,225.8z"/>
	<path class="st2" d="M108.4,152.7c-1.6,14.5-17.1,29.4-33,26.4c-9.7-1.8-16.9-9.7-19.8-17.9c-3.3-9.1-2-20.5,5.4-28.4
		c8.1-8.5,19.1-8.4,22.2-8.2c2.1,0.1,13.6,0.8,20.6,10.5C104.4,136.1,109.4,143.3,108.4,152.7z"/>
	<path class="st1" d="M194.4,152.1c0.1,7.5-3.3,16.3-10.6,21.2c-5.6,3.7-11.5,3.8-14.5,3.9c-3.4,0.1-9.5,0.2-15-3.5
		c-9.4-6.3-9.9-18.5-10.1-21.6c-0.2-3.9-0.6-12.7,5.8-19.6c8.6-9.4,21.8-7.1,22.5-7C185,127.8,194.3,139.8,194.4,152.1z"/>
	<path class="st3" d="M279.2,151.3c-1,11-9.6,19.2-19,21.9c-9.7,2.8-22.3,0.3-28.4-9.4c-6.9-11.1-0.9-24.9,6.5-32
		c2.1-2,10.3-9.1,20.9-7.3C271,126.5,280.4,138.6,279.2,151.3z"/>
	<path class="st1" d="M176.4,250.5c0,0-35.6,30.4-45.5,42.9c-10,12.5-64,62.3-64,62.3v21.3c0,0,48.4,48.4,54.8,58.3
		C128,445.4,202,498,202,498v-32.7c0,0-65.5-48.4-75.4-56.9c-10-8.5-45.4-39.8-45.4-39.8c36.8-34.1,57-51.9,68.9-61.9
		c2.3-1.9,8.3-7,16.1-14.2c12.7-11.8,22.2-22.2,28.3-29.2L176.4,250.5z"/>
	<path class="st2" d="M416.1,245.2c21.1,17.9,37.5,33.3,48.6,44.2c0,0,0,0,0,0c17.6,17.6,38.8,38.4,63.7,62.3
		c0.1,8.4,0.2,16.8,0.3,25.3c-6.2,5.6-15.6,14-26.9,24.4c-19.5,17.8-32.6,29.8-36.9,34.1c0,0-17.6,15.4-74.4,59.6
		c-1.3-9-2.6-18-3.8-27c3.6-3.2,9.3-8.2,16.3-14.1c29.4-24.7,36.9-27.3,63-48.5c0,0,45.4-39.8,45.4-39.8
		c-21.2-20.7-43.9-41.7-68.1-62.8c-16.2-14.1-32.2-27.6-47.9-40.4C402.2,256.6,409.1,250.9,416.1,245.2z"/>
	<path class="st3" d="M366.4,250.5c0,0-38.6,62.7-48.1,76.9c-9.5,14.2-48.1,66.2-53.6,78.8c-5.5,12.6-47.3,73.3-47.3,73.3l21.3,11
		c0,0,30.7-55.2,40.6-65.4c9.9-10.2,44.5-67,50.8-77.2c6.3-10.2,50.4-84.3,50.4-84.3L366.4,250.5z"/>
</g>
</svg>
