<?xml version="1.0" encoding="utf-8"?>
<!-- Generator: Adobe Illustrator 24.0.3, SVG Export Plug-In . SVG Version: 6.00 Build 0)  -->
<!DOCTYPE svg PUBLIC "-//W3C//DTD SVG 1.1//EN" "http://www.w3.org/Graphics/SVG/1.1/DTD/svg11.dtd" [
	<!ENTITY ns_extend "http://ns.adobe.com/Extensibility/1.0/">
	<!ENTITY ns_ai "http://ns.adobe.com/AdobeIllustrator/10.0/">
	<!ENTITY ns_graphs "http://ns.adobe.com/Graphs/1.0/">
	<!ENTITY ns_vars "http://ns.adobe.com/Variables/1.0/">
	<!ENTITY ns_imrep "http://ns.adobe.com/ImageReplacement/1.0/">
	<!ENTITY ns_sfw "http://ns.adobe.com/SaveForWeb/1.0/">
	<!ENTITY ns_custom "http://ns.adobe.com/GenericCustomNamespace/1.0/">
	<!ENTITY ns_adobe_xpath "http://ns.adobe.com/XPath/1.0/">
]>
<svg version="1.1" id="general_1_" xmlns:x="&ns_extend;" xmlns:i="&ns_ai;" xmlns:graph="&ns_graphs;"
	 xmlns="http://www.w3.org/2000/svg" xmlns:xlink="http://www.w3.org/1999/xlink" x="0px" y="0px" viewBox="0 0 600 600"
	 style="enable-background:new 0 0 600 600;" xml:space="preserve">
<style type="text/css">
	.st0{fill:#ECD3EF;}
	.st1{fill:#4E02C6;}
	.st2{fill:#FA0018;}
</style>
<metadata>
	<sfw  xmlns="&ns_sfw;">
		<slices></slices>
		<sliceSourceBounds  bottomLeftOrigin="true" height="594.5" width="574.5" x="12.7" y="-597.2"></sliceSourceBounds>
	</sfw>
</metadata>
<g id="general">
	<path class="st0" d="M567.9,567.8c-8.1,7.8-20.2,16-120.9,22.3c-97.8,6.1-126.7,1-238.4,6c0,0-21.3,1-51.5,1.1
		C47.8,597.9,30.8,587,22.6,576.3c-6.4-8.4-6.8-22-7.4-48.8c-1.8-75.8-2.6-113.7-2.5-118c3-69.2,6.4-115,9.2-155.7
		c1.4-21.4,2.6-40.1,3.5-56.6c85.9-0.3,240-0.7,254.6,0.2c20.5,1.3,195.5-1.3,213.4,0c12.2,0.9,58,0.3,85.7-0.2
		c2,70,7.6,139.9,7.9,209.9C587.6,525.3,588.2,548,567.9,567.8z"/>
	<path class="st1" d="M579.1,197.3c-27.7,0.5-73.4,1.1-85.7,0.2c-17.9-1.3-192.9,1.3-213.4,0c-14.7-0.9-168.7-0.5-254.6-0.2
		C31.4,95.1,30.2,82,46,67.1c14.3-13.6,27.4-14.4,84.2-13.3c0.6,5.4,1.5,10.8,2.9,27.5c1.3,15.1,1.5,21,6.1,24
		c3.6,2.4,6.3,0.4,19.1,0.2c18.2-0.3,20.2,1.7,23.4-0.7c5.4-4.1,2.2-12.1,0.5-42.9c-0.2-2.8-0.3-5.1-0.4-7.1
		c10.7,0.2,22.3,0.4,35,0.5c70.3,0.8,140.6,4.5,210.8,2.6c-0.1,1.2-0.1,2.5-0.2,4c-1.7,30.8-4.9,38.8,0.5,42.9
		c0.3,0.3,0.7,0.4,1.4,0.8c6.8,3.6,13.5,2.9,20.6,2.1c20-2.1,20.3-2.1,21.3-3c2.9-2.6,3.7-9.6,5.3-23.5c0.8-7.4,0.7-8.4,1.7-17.4
		c0.4-3.1,0.7-5.5,0.9-7.6c42-1.1,65,0.8,82.1,18.8c17.7,18.6,16.8,41.7,17.4,90.6C578.6,176.3,578.8,186.8,579.1,197.3z"/>
	<path class="st0" d="M182.1,62c-0.2-2.8-0.3-5.1-0.4-7.1c-0.2-5.6-0.4-9.6-1-18.1c-2-25.8-4-29.4-7-31.5c-2.7-1.8-9.8-1.4-24-0.5
		c-13.5,0.9-14.9,1.8-15.9,2.5c-3.2,2.4-5.3,6.8-4.5,32.7c0.2,6.7,0.5,10.3,0.9,13.8c0.6,5.4,1.5,10.8,2.9,27.5
		c1.3,15.1,1.5,21,6.1,24c3.6,2.4,6.3,0.4,19.1,0.2c18.2-0.3,20.2,1.7,23.4-0.7C187.1,100.9,183.9,92.8,182.1,62z"/>
	<path class="st0" d="M475.7,7.3c-3.3-2.8-8-3.1-17.5-3.9c-12.1-0.9-18.1-1.4-22.5,1.9c-3.4,2.5-5.1,6.6-7,31.5
		c-0.8,9.9-0.8,13.8-1.1,21.2c-0.1,1.2-0.1,2.5-0.2,4c-1.7,30.8-4.9,38.8,0.5,42.9c0.3,0.3,0.7,0.4,1.4,0.8
		c6.8,3.6,13.5,2.9,20.6,2.1c20-2.1,20.3-2.1,21.3-3c2.9-2.6,3.7-9.6,5.3-23.5c0.8-7.4,0.7-8.4,1.7-17.4c0.4-3.1,0.7-5.5,0.9-7.6
		c0.6-4.6,0.9-8,1.2-16.4C481,13.9,478.6,9.8,475.7,7.3z"/>
	<path class="st2" d="M97.7,271.6c8.9-8.3,36.6-31.9,75.6-31.8c10,0,27.8,0.1,44.2,12c21.7,15.6,34.9,47.2,25.3,76.9
		c-10.1,31-42.2,51.3-76.7,47.2c12.7,1.5,32.8,5.5,53.9,17.8c15.5,9.1,46.9,27.4,51.3,58.9c4.4,31.6-20.9,57.3-26.6,63
		c-49.3,49.9-135.9,25.4-142.2,23.5c-0.1-2.9-0.2-7.2-0.2-12.5c0-7.4,0.2-11.8,0.3-16.6c0.1-5.4,0.2-13.3-0.2-23.2
		c40.7,16.5,77.2,6.8,86.1-12.3c9.8-21-14.8-52.2-16.1-53.8c-11.4-14.1-25.2-21-32.9-24.1c-1.7-13.8-3.4-27.6-5.2-41.4
		c40.3-2.7,67.1-20.4,68.5-38.7c0.9-12.1-9.6-21.4-10.5-22.2c-16.4-14.1-48.8-10.2-79,12.4c-3.1-5.4-6.2-11.5-9.1-18.3
		C101.5,282.5,99.4,276.9,97.7,271.6z"/>
	<path class="st2" d="M521.4,378.6c-0.1-12.1-0.9-44-23.6-73.7c-28-36.6-69.2-43.6-84.3-45.2c-11.5-1.2-48.7-5.1-81.2,19.5
		c-43.9,33.2-41.7,90-41.4,99.4c0.5,12.2,2,42.3,23.9,69.1c30.9,37.8,78.5,39.5,94.5,40.1c18.9,0.7,51.2,1.8,78.1-20.6
		C521.9,438.4,521.5,392.4,521.4,378.6z M472.1,380.1c-3.8,24-18.8,38.4-22.9,42.1c-5.2,4.7-19.3,17.1-41.2,18.3
		c-31,1.6-50.6-21-52.2-22.9c-14.4-17.3-15-37-14.6-44.8c0.8-18.6,9.3-31.4,12.8-36.6c3.6-5.3,23-33.9,56.7-33.9
		c25,0,41.4,15.8,43.9,18.3C477,342.8,473.3,373,472.1,380.1z"/>
</g>
</svg>
