<?xml version="1.0" encoding="utf-8"?>
<!-- Generator: Adobe Illustrator 24.0.3, SVG Export Plug-In . SVG Version: 6.00 Build 0)  -->
<!DOCTYPE svg PUBLIC "-//W3C//DTD SVG 1.1//EN" "http://www.w3.org/Graphics/SVG/1.1/DTD/svg11.dtd" [
	<!ENTITY ns_extend "http://ns.adobe.com/Extensibility/1.0/">
	<!ENTITY ns_ai "http://ns.adobe.com/AdobeIllustrator/10.0/">
	<!ENTITY ns_graphs "http://ns.adobe.com/Graphs/1.0/">
	<!ENTITY ns_vars "http://ns.adobe.com/Variables/1.0/">
	<!ENTITY ns_imrep "http://ns.adobe.com/ImageReplacement/1.0/">
	<!ENTITY ns_sfw "http://ns.adobe.com/SaveForWeb/1.0/">
	<!ENTITY ns_custom "http://ns.adobe.com/GenericCustomNamespace/1.0/">
	<!ENTITY ns_adobe_xpath "http://ns.adobe.com/XPath/1.0/">
]>
<svg version="1.1" id="general_1_" xmlns:x="&ns_extend;" xmlns:i="&ns_ai;" xmlns:graph="&ns_graphs;"
	 xmlns="http://www.w3.org/2000/svg" xmlns:xlink="http://www.w3.org/1999/xlink" x="0px" y="0px" viewBox="0 0 600 600"
	 style="enable-background:new 0 0 600 600;" xml:space="preserve">
<style type="text/css">
	.st0{fill:#FA0018;}
	.st1{fill:#ECD3EF;}
	.st2{fill:#262B2C;}
	.st3{fill:#FFFFFF;}
</style>
<metadata>
	<sfw  xmlns="&ns_sfw;">
		<slices></slices>
		<sliceSourceBounds  bottomLeftOrigin="true" height="587.8" width="348.5" x="147.3" y="-594.1"></sliceSourceBounds>
	</sfw>
</metadata>
<g id="general">
	<path class="st0" d="M409.4,458.5c-1.4-6.8-3.7-18-10.6-23.2c-11.4-8.7-32.4,1-41.6,5.1c-22,9.8-50.2,19.9-80.7,29.9
		c-23.1-18.3-45.7-37.3-69.4-54.7c-3.9-2.9-13.6-10.1-24-7.8c-6.8,1.5-11.3,6.5-16,11.6c-4.6,5.1-12.3,13.6-12.6,22.2
		c-0.4,14.3,19.9,25.6,28.6,30.6c9.1,5.3,18.9,11.4,29.3,18.3c-9.4,2.9-18.8,5.8-28,8.6c-8.7,2.6-34.1,10.2-36.9,25.4
		c-1,5.4,0.9,11.8,1.6,14.4c3,10.2,9.3,17.7,12.9,20.5c12.8,9.9,38.3-4.6,60.1-14.4c14.4-6.4,29.2-11.9,44.1-16.8
		c21.9,16,44.4,33,65.9,49.2c7.2,5.5,28.3,21.6,42.3,14.9c5-2.4,9-7.7,10.7-9.8c6.5-8.4,8.9-18,9-22.4c0.5-16.2-26.3-28.2-47-40.2
		c-5.7-3.3-11.2-6.7-16.7-10.2c19.6-5.3,39.2-10.6,58.4-16.7c4.6-1.5,16.1-5.1,20.4-14.8C412.2,472,410.8,465.3,409.4,458.5z"/>
	<path class="st1" d="M489.5,193.6c-7.4,40.6-22,69.8-51,126.4c-5.7,9.3-45.7,74.6-86.2,134.3c-6.2,9.1-17.6,25.5-37.5,33.3
		c-15.8,6.2-31.8,5-33.4,4.9c-6-0.5-13.3-1.1-18.4-4c0.8,0.2,1.5,0.4,2.4,0.5c10.4,1.4,20.2-7.2,47-43.1
		c55.6-74.2,86.2-134.3,86.2-134.3c29-56.7,43.6-85.8,51-126.4c6.3-34.8,11.4-64.8-2.9-98c-21.2-49.3-69-68.4-80.4-72.5
		c-12-4.4-23.6-6.8-34.8-7.8c5.2-0.4,9-0.1,15.5,0.5c3.7,0.3,31.2,2.9,59.1,15.8c16.8,7.7,61,27.6,80.4,72.5
		C500.9,128.8,495.9,158.8,489.5,193.6z"/>
	<path class="st2" d="M446.7,87.2c-21.2-49.3-69-68.4-80.4-72.5c-12-4.4-23.6-6.8-34.8-7.8c-51.1-4.7-91,20-96.6,23.5
		c-38,24.4-53.7,59.4-59.8,73.5c-26.7,61.8-11,122.6,3.9,180.3c6.3,24.3,4.4,9.1,34.3,95.1c26.1,75,33.8,104.7,49.6,109.3h0
		c0.8,0.2,1.5,0.4,2.4,0.5c10.4,1.4,20.2-7.2,47-43.1c55.6-74.2,86.2-134.3,86.2-134.3c29-56.7,43.6-85.8,51-126.4
		C456,150.4,461,120.4,446.7,87.2z"/>
	<path class="st3" d="M398.5,151.1c0,8.7,0.1,20-5.2,33c-10.1,24.9-31.8,36.5-41.6,41.8c-8.8,4.7-32.8,17.2-63.6,11.9
		c0,0-25.1-4.5-45.5-22.4c-7.2-6.3-10.8-11.9-12-13.8c-4.1-6.5-6.5-13.3-8.3-22c-3.4-17-7.7-38.1,1.9-62
		c7.8-19.4,20.4-30.6,25.7-35.1c5.3-4.6,21.2-18.1,45.1-22.3c30.1-5.3,67.1,5,87.4,32.9C398.3,114.8,398.4,139.6,398.5,151.1z"/>
</g>
</svg>
