<?xml version="1.0" encoding="utf-8"?>
<!-- Generator: Adobe Illustrator 24.0.3, SVG Export Plug-In . SVG Version: 6.00 Build 0)  -->
<!DOCTYPE svg PUBLIC "-//W3C//DTD SVG 1.1//EN" "http://www.w3.org/Graphics/SVG/1.1/DTD/svg11.dtd" [
	<!ENTITY ns_extend "http://ns.adobe.com/Extensibility/1.0/">
	<!ENTITY ns_ai "http://ns.adobe.com/AdobeIllustrator/10.0/">
	<!ENTITY ns_graphs "http://ns.adobe.com/Graphs/1.0/">
	<!ENTITY ns_vars "http://ns.adobe.com/Variables/1.0/">
	<!ENTITY ns_imrep "http://ns.adobe.com/ImageReplacement/1.0/">
	<!ENTITY ns_sfw "http://ns.adobe.com/SaveForWeb/1.0/">
	<!ENTITY ns_custom "http://ns.adobe.com/GenericCustomNamespace/1.0/">
	<!ENTITY ns_adobe_xpath "http://ns.adobe.com/XPath/1.0/">
]>
<svg version="1.1" id="general_1_" xmlns:x="&ns_extend;" xmlns:i="&ns_ai;" xmlns:graph="&ns_graphs;"
	 xmlns="http://www.w3.org/2000/svg" xmlns:xlink="http://www.w3.org/1999/xlink" x="0px" y="0px" viewBox="0 0 600 600"
	 style="enable-background:new 0 0 600 600;" xml:space="preserve">
<style type="text/css">
	.st0{fill:#F9F3EF;}
	.st1{fill:#007B66;}
	.st2{fill:#DB0032;}
	.st3{fill:#003163;}
</style>
<metadata>
	<sfw  xmlns="&ns_sfw;">
		<slices></slices>
		<sliceSourceBounds  bottomLeftOrigin="true" height="555" width="574.7" x="8" y="-586.2"></sliceSourceBounds>
	</sfw>
</metadata>
<g id="general">
	<path class="st0" d="M240.7,398.5c0.2,4.5-18.6,18.4-33,48.6c-3.8,7.9-8.1,18.6-11.1,26.5c-0.1,0.1-0.2,0.2-0.3,0.3
		c-13.7,1.8-34.5,6-57.2,17.5c-13.7,7-23.5,14.3-34.2,22.6c-0.3-6.9-1.6-13-4.9-16.5c-4.1-4.3-12.1-6.4-20.6-7.3
		c13.8-14.9,27.3-38.4,34.1-76.6c5.4-1.7,13.2-4.5,22.3-8.7c15.5-7.2,28-15.5,36.9-21.8h0c8.5-6.1,13.6-10.2,14.3-9.3
		c0.8,0.9-5.2,6.8-12.2,17.5c-3.3,5-6.8,11.1-9.9,18.2c-6.4,14.7-4.1,17.4-3.5,17.9c3.3,3.3,12.8-1.8,25.2-8
		c20.6-10.3,38.6-19.2,47.7-21.7c3.2-0.9,5.3-0.9,6,0C240.6,398,240.7,398.2,240.7,398.5z"/>
	<path class="st1" d="M492.2,192.9c-40.6,39.6-79.8,81-123.9,116.6c-43.4,35-104.2,88.4-171.7,164.1c3-7.9,7.3-18.6,11.1-26.5
		c15.4-32.2,35.6-45.8,32.7-49.4c-2.9-3.6-26,7.9-53.8,21.7c-12.4,6.2-21.8,11.3-25.2,8c-0.6-0.6-2.9-3.3,3.5-17.9
		c9.9-22.4,23.4-34.3,22.1-35.7c-1.5-1.7-20.8,17.1-51.2,31.2c-9.1,4.2-16.9,7-22.3,8.7c15.5-16.3,38.5-40.2,66.6-68.8
		C296.3,227,294.9,238.5,376.9,155.8c16.6-16.7,31-31.7,43.9-45c0.4,0.3,0.7,0.5,0.8,0.7c2.6,2.1,6.3,5.9,10.6,10.8
		c3.2,3.7,6.8,8,10.6,12.7c8.1,9.9,17.3,21.5,26.5,32.5c2.7,3.2,5.4,6.4,8,9.4C482.4,182.8,487.5,188.3,492.2,192.9z"/>
	<path class="st1" d="M105,514c-0.6,0.5-1.3,1-1.9,1.5c-16.4,12.6-30.5,25.7-48.9,42.9c-20.6,19.3-31.6,30.6-38.4,27.3
		c-4.1-2-5.8-8.8-6.8-13.1c0,0-2-7.8-0.3-16.1c3.7-18.4,44.7-43.5,60.8-56.8c3.3-2.7,6.7-5.8,10-9.4c8.5,0.9,16.5,3,20.6,7.3
		C103.4,501,104.7,507.1,105,514z"/>
	<path class="st0" d="M541.4,147c-16.6-22.7-54-57.3-74.3-82.2c-0.1-0.1-0.2-0.3-0.4-0.4c27.6-25.9,46.2-36.5,68.1-32.1
		c22,4.4,43.5,23.1,47.3,44.1C586.8,102.3,563.4,126.9,541.4,147z"/>
	<path class="st2" d="M477.2,176.8c-22.4,18.4-58,48.6-82.2,74.6c-30,32.2-118.9,114.4-154.4,147.1c0-0.3-0.1-0.6-0.3-0.8
		c-0.8-0.9-2.9-0.8-6,0c13.2-14.8,49.7-55.5,80.1-89.2c27.8-30.8,112-104.3,154.7-141.1C471.9,170.6,474.6,173.8,477.2,176.8z"/>
	<path class="st3" d="M541.4,147c-16.6-22.7-54-57.3-74.3-82.2c-0.1-0.1-0.2-0.3-0.4-0.4c-2.5-3.1-8.8-10.5-14.2-9.2
		c-3,0.7-4.7,3.9-5.1,4.7c0,0-1.7,3.4,1.7,17.1c0,0-8.3-5-15-5c-3.1,0-5.8,1.1-7.2,4.1c-4,8.7,5.5,13.2,7.6,14.1
		c-8.4-3.2-16.2-1.7-19,2.8c-2,3.1-1.1,7.2-1,8c1,5,4.5,8.3,6.3,9.8c0.4,0.3,0.7,0.5,0.8,0.7c2.6,2.1,6.3,5.9,10.6,10.8
		c3.2,3.7,6.8,8,10.6,12.7c8.1,9.9,17.3,21.5,26.5,32.5c2.7,3.2,5.4,6.4,8,9.4c5.2,6,10.2,11.5,14.9,16.1
		c9.9,9.7,18.1,15.4,22.6,12.9c2.1-1.2,3.7-4.4,4.4-7.2c1.8-7.7-4.1-14.6-4.4-14.9c0.4,0.2,19.5,7.9,19.5-0.9
		c0-8.9-4.4-14.9-4.4-14.9c12.2,3.7,16.8,2.2,18.7,0C551.6,163.9,548.3,156.5,541.4,147z"/>
	<path class="st2" d="M442.8,134.9c-13.5,13.6-37.4,37.3-55.6,53.3c-24.3,21.4-183.3,175-212.3,203.1c7-10.7,13.1-16.5,12.2-17.5
		c-0.8-0.8-5.8,3.3-14.3,9.3c12.1-15.5,45.7-52.7,67.9-76.7c23.5-25.4,153.2-148.1,191.5-184.3C435.4,125.9,438.9,130.2,442.8,134.9
		z"/>
</g>
</svg>
