<?xml version="1.0" encoding="utf-8"?>
<!-- Generator: Adobe Illustrator 24.0.3, SVG Export Plug-In . SVG Version: 6.00 Build 0)  -->
<!DOCTYPE svg PUBLIC "-//W3C//DTD SVG 1.1//EN" "http://www.w3.org/Graphics/SVG/1.1/DTD/svg11.dtd" [
	<!ENTITY ns_extend "http://ns.adobe.com/Extensibility/1.0/">
	<!ENTITY ns_ai "http://ns.adobe.com/AdobeIllustrator/10.0/">
	<!ENTITY ns_graphs "http://ns.adobe.com/Graphs/1.0/">
	<!ENTITY ns_vars "http://ns.adobe.com/Variables/1.0/">
	<!ENTITY ns_imrep "http://ns.adobe.com/ImageReplacement/1.0/">
	<!ENTITY ns_sfw "http://ns.adobe.com/SaveForWeb/1.0/">
	<!ENTITY ns_custom "http://ns.adobe.com/GenericCustomNamespace/1.0/">
	<!ENTITY ns_adobe_xpath "http://ns.adobe.com/XPath/1.0/">
]>
<svg version="1.1" id="general_1_" xmlns:x="&ns_extend;" xmlns:i="&ns_ai;" xmlns:graph="&ns_graphs;"
	 xmlns="http://www.w3.org/2000/svg" xmlns:xlink="http://www.w3.org/1999/xlink" x="0px" y="0px" viewBox="0 0 600 600"
	 style="enable-background:new 0 0 600 600;" xml:space="preserve">
<style type="text/css">
	.st0{fill:#FFD800;}
	.st1{fill:#009D6F;}
	.st2{fill:#8D41E5;}
</style>
<metadata>
	<sfw  xmlns="&ns_sfw;">
		<slices></slices>
		<sliceSourceBounds  bottomLeftOrigin="true" height="586.5" width="491.6" x="82.8" y="-593.2"></sliceSourceBounds>
	</sfw>
</metadata>
<g id="general">
	<path class="st0" d="M566.8,348.7c-23.1,58.9-61.6,120.4-118.6,136.1c-43.7,12.1-72.6-6.5-144.5,10.8
		c-28.5,6.9-51.1,16.4-66.1,23.5c-7.5-9.3-17.2-20.1-27.7-31.1c-2.7-2.8-5.4-5.6-8.2-8.4c-5-5-10-10-15-14.8
		c-3.3-3.2-6.6-6.2-9.8-9.2c-7.5-6.9-14.6-13.1-20.8-18.1c7.3-7.2,18.4-13.6,22.6-33.8c6.4-31.3-5.5-167.4,46-213.4
		s149-108.5,232.7-57.9S595.3,276.1,566.8,348.7z"/>
	<path class="st1" d="M237.6,519.2c-7.5-9.3-17.2-20.1-27.7-31.1c-2.7-2.8-5.4-5.6-8.2-8.4c-5-5-10-10-15-14.8
		c-3.3-3.2-6.6-6.2-9.8-9.2c-7.5-6.9-14.6-13.1-20.8-18.1c-10.9-8.8-19-13.9-21.7-12.7c-11.3,5.3-13.4,16.8-6.2,27.8
		c0,0-20.2-4.5-27.4,3c-7.2,7.4,3.7,26.8,3.9,27.3c-0.4-0.2-12.2-6.4-19.9,3.8c-7.8,10.4,9.8,22.8,9.8,22.8s-8.6,18,2.9,33
		c11.5,15.1,44.2,55,65.7,50c21.6-5,28.6-14.3,28.6-14.3s4.2,16.1,17.8,7.7c13.6-8.5-0.3-21.3-0.3-21.3s36.7,16.1,25.5-16.7
		c0,0,8.9,9.9,17.3-2.5C254.4,542.4,248.2,532.3,237.6,519.2z"/>
	<path class="st2" d="M419.6,429.7c-30,2.1-53.9-5.5-61.1-8c-24.8-8.9-68-2.4-148.6,66.5c-2.7-2.8-5.4-5.6-8.2-8.4
		c20.5-18.5,55.2-46.8,96.5-66.1c33.4-15.6,46.5-13.7,51.2-12.8c14.4,2.8,23,11.2,39.9,9.1c7-0.9,19.2-3.4,22.3-11.1
		c4.2-10.6-13.1-18.8-20-39.2c-10.4-31,15.5-53.6,4.3-66.6c-9.7-11.2-29,5.9-60.7-4.6c-23.3-7.7-31.5-24.4-42.2-19.1
		c-12.9,6.4-15.2,28.8-15.9,35.1c-3.2,28.9-23,76.6-90.3,160.5c-3.3-3.2-6.6-6.2-9.8-9.2c24.5-31.3,88.9-118.5,88.2-171.4
		c-0.4-26.5,9.1-42,21.9-48.4c14.4-7.2,25.4,16.7,58.1,26.3c37.6,11,57.4-8,70,5.1c16,16.8-16.3,48.1-1.9,88.7
		C424.6,388.2,467,426.3,419.6,429.7z"/>
	<path class="st0" d="M197.9,190.6c0,0-51.9-13.4-67-15.3s-39.7-9.8-39.7-9.8l15.1-64l104.1,69.4L197.9,190.6z"/>
	<path class="st0" d="M247.4,140.3l-36.1-33.5l-44.8-37l49.1-40.2c9.3,16.3,18.6,33.8,27.8,52.4c8,16.3,15.3,32.1,22,47.4
		C259.4,133,253.4,136.6,247.4,140.3z"/>
	<path class="st0" d="M316.5,101.5c-2.4-12.6-4.9-25.3-7.5-38c-3.4-17.2-7-34.2-10.5-51.1c19.2-1.9,38.5-3.7,57.7-5.6
		c-6.3,17.4-10,31.7-12.1,41.7c-0.9,4.3-1.3,6.8-2.8,14.1c-3.3,16.2-6.3,29.3-8.3,38.1C327.4,100.9,321.9,101.2,316.5,101.5z"/>
</g>
</svg>
