<?xml version="1.0" encoding="utf-8"?>
<!-- Generator: Adobe Illustrator 24.0.3, SVG Export Plug-In . SVG Version: 6.00 Build 0)  -->
<!DOCTYPE svg PUBLIC "-//W3C//DTD SVG 1.1//EN" "http://www.w3.org/Graphics/SVG/1.1/DTD/svg11.dtd" [
	<!ENTITY ns_extend "http://ns.adobe.com/Extensibility/1.0/">
	<!ENTITY ns_ai "http://ns.adobe.com/AdobeIllustrator/10.0/">
	<!ENTITY ns_graphs "http://ns.adobe.com/Graphs/1.0/">
	<!ENTITY ns_vars "http://ns.adobe.com/Variables/1.0/">
	<!ENTITY ns_imrep "http://ns.adobe.com/ImageReplacement/1.0/">
	<!ENTITY ns_sfw "http://ns.adobe.com/SaveForWeb/1.0/">
	<!ENTITY ns_custom "http://ns.adobe.com/GenericCustomNamespace/1.0/">
	<!ENTITY ns_adobe_xpath "http://ns.adobe.com/XPath/1.0/">
]>
<svg version="1.1" id="general" xmlns:x="&ns_extend;" xmlns:i="&ns_ai;" xmlns:graph="&ns_graphs;"
	 xmlns="http://www.w3.org/2000/svg" xmlns:xlink="http://www.w3.org/1999/xlink" x="0px" y="0px" viewBox="0 0 600 600"
	 style="enable-background:new 0 0 600 600;" xml:space="preserve">
<style type="text/css">
	.st0{fill:#00FF9D;}
	.st1{fill:#FF8FF0;}
	.st2{fill:#BB54F7;}
	.st3{fill:#FFFF76;}
</style>
<metadata>
	<sfw  xmlns="&ns_sfw;">
		<slices></slices>
		<sliceSourceBounds  bottomLeftOrigin="true" height="276" width="584.1" x="8" y="-497.1"></sliceSourceBounds>
	</sfw>
</metadata>
<g id="general_1_">
	<path class="st0" d="M432.5,445.6c0,0-238,19-291,22s-97,24-117-11s-20-122-10-155s104-51,206-61c276.7-27.1,328.2-26.9,349,7
		c7.8,12.7,11.9,42.1,20,101c3.5,25.4,4.5,40.8-5,53c-7.8,10-20,14.4-44,23c-14,5-25.9,8.1-34,10c0.7,3.5,1.9,8.8,4,15
		c7.6,22.6,19.1,34.7,14,43c-1,1.7-2.4,2.6-3,3c-5.8,3.8-16.2,2.3-54-24C458.8,465.5,446.7,456.8,432.5,445.6z"/>
	<path class="st1" d="M203.2,352.7c4,22.8-2.2,51.3-23,69c-18.9,16.1-41.5,16-52,16c-12,0-35.2-0.1-52-17c-15.9-16-16.6-37.4-17-51
		c-0.3-11.2-1-31.2,12-50c14-20.4,40.4-34.3,68-31C174.3,292.8,198.1,323.1,203.2,352.7z"/>
	<path class="st2" d="M285.1,316c0.6-14.6-6.1-27-16.5-31.3c-7.8-3.2-15.2-0.8-17.6,0c-15.5,5.1-27.7,23.7-22.9,37.8
		c2.6,7.6,9.4,11.8,11.3,12.9c5.5,3.4,10.7,3.8,27.8,5.6c0,0-33.5-1.2-39.4,26.3c-6,27.5,8.4,51.4,26.3,45.4
		c17.9-6,31.1-27.5,31.1-27.5c-5.1,12-3.6,24.6,3.6,32c5.9,6.1,13.7,6.7,17.1,7c11.7,1,25.8-4.2,32.9-16.2c8.3-14,4.8-33.7-9.4-45.6
		c0,0,40.6,21.5,45.4-14.3c0.6-4.2,6-24.2-4.7-33c-4.7-3.9-10.4-3.9-14.5-4c0,0-8.8-0.1-33.5,13.1c13.7-4.8,22.7-15.8,22.8-27.3
		c0-1.5,0-9.4-5.6-15.6c-8.9-9.9-25.8-9.1-36.5-3.3C290.3,284.8,283.2,299.9,285.1,316z"/>
	<path class="st3" d="M446.2,300.4c3.6,5.5-6.1,17.7-13.8,27.6c-13.3,17.2-23.2,30.7-25.5,33.9c-8.8,12.3-28.6,39.7-21.9,48.6
		c5.1,6.8,27.2-1.4,71.5-17.8c0,0,26-9.6,65.9-33.8c13.2-8,17.6-11.5,18.3-16.9c1.5-11.2-14.7-16.7-52.2-46.4
		c-21.6-17.1-35.9-30.9-44.6-26.3c-3.9,2.1-5.9,7.4-6.4,8.7c-2.1,5.4-2.5,13.3,1.8,18C442.3,299.2,444.7,298.1,446.2,300.4z"/>
	<path class="st1" d="M470.8,332.3c-2.4,4.9-8.3,6.9-13.1,5.6c-4.1-1.1-8-4.7-8.2-9.3c-0.3-5.8,5.6-9.8,10.1-10.8
		c1.1-0.2,4.9-1.1,8.2,1.2C471.7,321.8,473.1,327.7,470.8,332.3z"/>
	<path class="st1" d="M418,392.9c-0.9,5.2-6.1,8.3-10.2,9c-1.3,0.2-5.3,0.9-8.3-1.6c-2.6-2.2-2.9-5.5-3.1-7.6c-0.2-2-0.5-5.7,2-8.9
		c2.4-3,6.2-4.4,9.8-3.9c4.8,0.6,7.2,4.4,7.8,5.1C416.6,385.7,418.7,388.9,418,392.9z"/>
	<path class="st1" d="M487.4,357.5c-0.8,6.1-8.4,9.8-14.4,8.2c-4.5-1.2-8.6-5.5-8.3-10.1c0.3-6.2,8.6-11.1,15.1-9.1
		C484.2,348,488.1,352.7,487.4,357.5z"/>
	<path class="st1" d="M449.3,383.8c-0.9,6.1-7.1,10.6-12.7,9.4c-5.2-1.1-7.9-6.5-8.2-10.7c-0.1-1.4-0.2-6.3,3.5-9.4
		c3.7-3,8.1-2.1,8.6-2C445.7,372.3,450.3,377.7,449.3,383.8z"/>
	<path class="st1" d="M446.3,350.6c0.6,5-2.7,8.5-3.3,9.1c-3.4,3.5-9.9,5.7-14.5,2.5c-4.9-3.5-3.9-10.6-3.8-11
		c0.9-5.5,5.9-10.7,11.3-10.5c3.6,0.1,6.1,2.5,6.7,3.1C443.4,344.4,445.8,346.8,446.3,350.6z"/>
	<path class="st2" d="M180.1,369.6c0,0-1.9,18.2-11.6,24c-2.1,1.3-4.9,2.8-8.3,4.3c1.8-3.8,4.3-9.5,5.8-13.7
		c2.4-6.9-1.6-13.9-12.2-14.6c-9.3-0.6-19.2,27.8-21.5,34.7c-6.5-0.2-13.1-1.7-19.3-5.4c-20.9-12.4-24-24.3-24-24.3l-9.7,1.9
		c0,0,2.7,18.2,24.3,28.2c21.6,10,73.8,18.9,85.8-35.2H180.1z"/>
	<path class="st2" d="M93,342.7c0,0,3.3,13.6,12,16.6c8.7,3,17.6,1.1,21.5-6.2c4-7.3,4.2-11.5,4.2-11.5l-7.1,0.5
		c0.4,5.7-2.5,10.6-6.7,12.2c-5.4,2-10.6-2.2-10.8-2.4c-4.1-3.4-6-10.2-6-10.2l0,0L93,342.7z"/>
	<path class="st2" d="M180.6,338.9c0,0-1.5,13.9-9.8,18c-8.3,4.1-17.3,3.4-22.2-3.4c-4.9-6.8-5.6-10.9-5.6-10.9l7.1-0.4
		c0.3,5.7,3.8,10.2,8.3,11.3c5.6,1.3,10.2-3.5,10.4-3.8c3.6-3.9,4.6-10.9,4.6-10.9l0,0H180.6z"/>
</g>
</svg>
