<?xml version="1.0" encoding="utf-8"?>
<!-- Generator: Adobe Illustrator 24.0.3, SVG Export Plug-In . SVG Version: 6.00 Build 0)  -->
<!DOCTYPE svg PUBLIC "-//W3C//DTD SVG 1.1//EN" "http://www.w3.org/Graphics/SVG/1.1/DTD/svg11.dtd" [
	<!ENTITY ns_extend "http://ns.adobe.com/Extensibility/1.0/">
	<!ENTITY ns_ai "http://ns.adobe.com/AdobeIllustrator/10.0/">
	<!ENTITY ns_graphs "http://ns.adobe.com/Graphs/1.0/">
	<!ENTITY ns_vars "http://ns.adobe.com/Variables/1.0/">
	<!ENTITY ns_imrep "http://ns.adobe.com/ImageReplacement/1.0/">
	<!ENTITY ns_sfw "http://ns.adobe.com/SaveForWeb/1.0/">
	<!ENTITY ns_custom "http://ns.adobe.com/GenericCustomNamespace/1.0/">
	<!ENTITY ns_adobe_xpath "http://ns.adobe.com/XPath/1.0/">
]>
<svg version="1.1" id="general_1_" xmlns:x="&ns_extend;" xmlns:i="&ns_ai;" xmlns:graph="&ns_graphs;"
	 xmlns="http://www.w3.org/2000/svg" xmlns:xlink="http://www.w3.org/1999/xlink" x="0px" y="0px" viewBox="0 0 600 600"
	 style="enable-background:new 0 0 600 600;" xml:space="preserve">
<style type="text/css">
	.st0{fill:#02C961;}
	.st1{fill:#3700ED;}
	.st2{fill:#FF739E;}
</style>
<metadata>
	<sfw  xmlns="&ns_sfw;">
		<slices></slices>
		<sliceSourceBounds  bottomLeftOrigin="true" height="587.6" width="560.4" x="19.8" y="-593.8"></sliceSourceBounds>
	</sfw>
</metadata>
<g id="general">
	<path class="st0" d="M241.6,364c-3.9,0.7-7.8,1.4-11.8,2.1c-4.8-32.3-15.9-22-46.2-30.7c-16.8-4.8-24-13.7-26.9-21.6
		c-11.1,2.4-20.6,2.4-30.3,2.4c-31.3-0.1-64-8.4-63.4-14.3c0.3-3.4,5.7-6.3,14.5-6.7c25.7-1.2,11.7-1.6,21.8,3.5
		c10.2,5.1,22.4,13.6,32-2.3c9.6-15.9-24.3-3.7-59.9-18.2c-35.6-14.5-61.4-25.9-42.8-29.5c18.5-3.6,23.3-3.4,33.3,8.9
		c10,12.2,38.1,27.6,54.3,11.2c16.2-16.4-42.2-6.6-67.6-34.1C23,207.2,8.4,184,30.8,197.6c22.4,13.6,66.8,54.8,76.7,35.8
		c10-19-34.7,12.6-45.7-45c-11-57.7,0.7-81.2,19.3-44.4c18.5,36.7,44.8,76.7,53.2,89.9c8.3,13.2,27.5-27.7,2.8-46.7
		c-24.7-19-38.1-47.5-20.2-35.7c17.9,11.8,58.6,28.8,53.7,59.5c-4.9,30.7-29.1,25.2-22.9,38.7c6.1,13.4,31.2,18.4,33.7-14.3
		c2.1-27.4-16.6-70.9-11.8-73.5c0.8-0.4,2.5,0.9,5.7,3.5c6.7,5.4,15.9,13,20.6,25.6c2.6,6.9,2.6,13.1,2.5,25.4
		c-0.1,17.9-0.2,26.9-4.4,35.2c-9,17.5-27.6,21.5-25.7,28.2c1,3.4,7,4.6,10.7,4.5c10.6-0.3,17.3-12.2,19.4-16
		c6.1-10.8,7.4-23.7,8.1-30.9c0.3-3,0.7-8.7,3.5-15.8c1.6-4.1,3.8-9.7,5.7-9.6c4.5,0.4,15.2,36.2-0.8,65
		c-12.1,21.6-33.9,29.7-47.6,33.9c4.2,5.5,10.7,9.7,19.1,14.8c14.1,8.5,20-4.7,38.9,2.5C236,332.2,240.1,349.6,241.6,364z"/>
	<path class="st0" d="M562.6,167.4c-23.3,34.6-23.1,40.3-51.8,43.9c-28.7,3.6-60.5-5.6-61.4,7.6c-1,13.2-7.8,20.1,24.9,16.2
		c32.7-4,67-11.2,45.7,6.5c-21.4,17.6-69.1,30.6-96.4,4.7c-27.3-25.9-33.7-3.6-13.7,13.9c20,17.4,84.5-0.7,86.8,11.6
		c2.3,12.4-20.9,9.6-54.6,13c-33.7,3.4-52.5-16.1-63.8-43.4c-2-4.8-4.7-6.8-6.1-6.4c-3.5,1-3.6,21.1,6.1,36.7
		c6,9.6,13.9,14.5,15.8,15.7c15.9,9.6,29.4,4.6,49.2,13.5c2.7,1.2,8.7,4.1,12.1,10.3c0.5,0.9,3.7,6.7,2.3,8.9
		c-5.4,8-91.6-12.8-116.6-75.6c-2.2-5.6-3.8-11.2-5-16.5c-14.5,1.3-28.7,13-36.3,20.7c-10.7,11,17.1,9.5,28.8,28
		c11.7,18.5-11.4,32.8-30.4,52.4c-9,9.3-11,18.1-10.6,24.7c-2.8,0.7-5.7,1.4-8.6,2.2c-6.3-45.7,39.1-54.4,32.7-66.9
		c-6.8-13.4-39.9-29.3-10.1-56.2c11.9-10.8,23.4-14.3,33-14.6c-2.2-17.9,0.4-31.7,0.7-33.1c3.1-15.3,8.5-25.9,15.3-36.2
		c31.7-48.7,68.5-73.7,53.7-52.2c-14.8,21.5,0.4,23.6-24.2,40.7c-24.6,17.1-24.8,26.6-20,33.6c4.8,7,23.8-27.2,65.1-55
		c41.3-27.8,76.8-20.2,58.6-10.5c-18.2,9.7-17.2-10.4-46.2,22c-28.9,32.4-21.2,42.6-41.1,45.9c-19.9,3.3-30.8,16.2-15.8,16.8
		c15,0.7,39-38.8,89.7-58.4c50.6-19.5,77.3-27.3,68.7-12.9c-8.6,14.4-55.6,19.3-78.8,46.9c-23.2,27.5-6,30.9,27.5,9.4
		c33.4-21.5,20.8-30.4,61.8-39.1C590.4,127.6,585.9,132.8,562.6,167.4z"/>
	<path class="st1" d="M383.4,401c-1.8,7.7-8.3,12.6-19.7,16.5c0,0-86,9.2-120,18.3c-34,9.1-48.8,8.1-34,9.1
		c12.9,0.8,125.2-10.1,154.7-13c0.6,13.6,1.3,28.9,1.6,38.7c0.6,21.1,0,80.2,0,91.1s-19.9,9.7-41,16.3c-21.1,6.6-95.3,16.9-102,15.7
		c-6.6-1.2-12.1-43.4-18.7-60.9c-5-13.1-15.3-56.5-20.2-77.6c-13.5,1.5-23.5,0.3-28-6.3c-0.7-1-1.1-1.9-2.9-10.8
		c-5.4-27.1-8.1-40.7-5.8-47.4c5.4-16.1,34.8-17.5,69.5-22.6c4.4-0.6,8.7-1.3,12.9-2c4-0.7,8-1.4,11.8-2.1c4-0.8,7.8-1.5,11.6-2.3
		c2.9-0.6,5.8-1.2,8.6-1.8c5.9-1.3,11.6-2.6,17-4c2.9-0.7,5.8-1.5,8.6-2.2c48.2-12.2,75.9-22.7,86.2-8.5c4.1,5.6,5.9,15.9,7.9,27.1
		C382.8,380,385.2,393.3,383.4,401z"/>
	<path class="st0" d="M314.8,148.7c-9.7,14.5-28.3,18.1-57.3,23.4c-1.1,0.2-2.2,0.4-3.2,0.6c-0.9,12.2-6,18.8-8.7,27.2
		c-3.6,11.3,3.1,10.1,14.8,20.5c11.7,10.4,4.5,50.1-2.5,89c-3.8,21.1-0.2,38.7,3.9,50.4c-2.8,0.6-5.7,1.2-8.6,1.8
		c-17.5-69.5,4-75,1.5-109.3c-2.7-36.5-28-39.4-16-54.6c5.5-7,6.7-15.9,6.5-23.4c-8.6,1.4-14.2,1.9-19.2,0.8
		c-26-5.3-39.8-30.2-43.2-37.1c-13.6-27.3-8.3-59.2-3.4-60.1c2.6-0.5,6.9,7.4,7.9,11.6c6.1,26.3-5.8,21.2,9,36.5
		c14.8,15.4,41,30.1,27.7-1.5c-13.3-31.7-46.5-46-38.6-69.6c7.9-23.6,43.4,10.6,42.4,43.9c-1,33.4,13.2,19,20.8,9.3
		c7.6-9.7-32.4-41.1-24.2-70.4c8.2-29.4,11.9-45.8,20.6-15c8.7,30.8,28.1,67.9,19.7,83.4c-8.4,15.5,15.4,28.1,22.3,5.7
		c6.9-22.4-22.5-50.4-2.4-42.5c20.1,7.9,38.3,43.9,15.8,54.4c-20.2,9.4-41.9,10.6-43.2,17.2c-0.2,1.1,0.2,2.1,0.4,2.5
		c1.9,5.5,10.7,8.1,17.2,7.4c5.1-0.5,9.1-3.7,16.8-9.9c11.9-9.6,15.2-15.3,21.4-14.7c0.4,0,4.6,0.5,6.6,3.5
		C323.4,135.9,315.7,147.5,314.8,148.7z"/>
	<path class="st2" d="M364.5,431.9c-29.4,2.9-141.8,13.8-154.7,13c-14.8-0.9,0,0,34-9.1c34-9.1,120-18.3,120-18.3
		C364,421.8,364.2,426.7,364.5,431.9z"/>
</g>
</svg>
