<?xml version="1.0" encoding="utf-8"?>
<!-- Generator: Adobe Illustrator 24.0.3, SVG Export Plug-In . SVG Version: 6.00 Build 0)  -->
<!DOCTYPE svg PUBLIC "-//W3C//DTD SVG 1.1//EN" "http://www.w3.org/Graphics/SVG/1.1/DTD/svg11.dtd" [
	<!ENTITY ns_extend "http://ns.adobe.com/Extensibility/1.0/">
	<!ENTITY ns_ai "http://ns.adobe.com/AdobeIllustrator/10.0/">
	<!ENTITY ns_graphs "http://ns.adobe.com/Graphs/1.0/">
	<!ENTITY ns_vars "http://ns.adobe.com/Variables/1.0/">
	<!ENTITY ns_imrep "http://ns.adobe.com/ImageReplacement/1.0/">
	<!ENTITY ns_sfw "http://ns.adobe.com/SaveForWeb/1.0/">
	<!ENTITY ns_custom "http://ns.adobe.com/GenericCustomNamespace/1.0/">
	<!ENTITY ns_adobe_xpath "http://ns.adobe.com/XPath/1.0/">
]>
<svg version="1.1" id="general_1_" xmlns:x="&ns_extend;" xmlns:i="&ns_ai;" xmlns:graph="&ns_graphs;"
	 xmlns="http://www.w3.org/2000/svg" xmlns:xlink="http://www.w3.org/1999/xlink" x="0px" y="0px" viewBox="0 0 600 600"
	 style="enable-background:new 0 0 600 600;" xml:space="preserve">
<style type="text/css">
	.st0{fill:#2E1544;}
	.st1{fill:#FFD110;}
	.st2{fill:#E7AEFF;}
	.st3{fill:#02B795;}
</style>
<metadata>
	<sfw  xmlns="&ns_sfw;">
		<slices></slices>
		<sliceSourceBounds  bottomLeftOrigin="true" height="546.5" width="586.8" x="7" y="-570.6"></sliceSourceBounds>
	</sfw>
</metadata>
<g id="general">
	<path class="st0" d="M17.4,404.9c82.8,38.7,278.8,103.8,333.4,119.8c-10.4,26-18.2,37.4-33.2,43.2c-28.6,11-37.1-12.3-145.6-53.8
		C136,500.3,68.5,475,55.8,466.6c-12.7-8.4-52.8-14.8-48.5-39C8.1,422.9,11.8,415,17.4,404.9z"/>
	<path class="st0" d="M393.4,409.8c-11.2,28.8-19.7,52.4-26.7,71.8c-35.9-15.2-104.3-30.9-169-54.4C133.2,403.7,73.3,378.4,42,364.8
		c8.1-12.4,16.7-25.5,25.2-38C131.8,355.4,300.8,395.1,393.4,409.8z"/>
	<path class="st0" d="M420,343.9c-5.4,12.8-11.3,27.1-17.5,42.7c-62.7-20.2-162.2-41.5-212.3-61.2c-38.7-15.2-72.7-29.6-95.5-39.5
		c7.3-11,13.1-19.9,16-25.1c2-3.5,4.1-7.3,6.5-11.2C209.5,281,332.7,318.4,420,343.9z"/>
	<path class="st0" d="M590.8,237.6c0,25.3-7.4,82.3-9.5,90.7c-3.2,12.7-23.6,1.2-58-7.4c-36-9-66.3-13-86.8-15.1
		c-0.5,1-0.9,2.1-1.4,3.2c-51.5-12.5-200.5-52.4-239-70.1c-12.2-5.6-33.2-15-56.5-25.3c7.6-11.8,13.4-20.4,13.4-20.4
		c-12.8-2.3-30.6-5.7-51.7-10.6c-65.8-15.1-69.2-23.9-72.8-27.4c-8.4-8.4,27.4-51.7,32.7-62.3S92.7,36,98,26.6s26.4,10.6,49.6,21.1
		c70.9,32.2,114.5,34.6,118.2,59.1c1.5,10.2-6.5,11.1-10.6,34.8c-1.4,8-4.2,25.8,2.1,46.4c3.1,10.1,8.6,28.5,26.4,41.2
		c16.4,11.7,38.4,15.2,57,9.5c19.9-6.2,31.4-21.6,50.6-47.5c17.7-23.8,16.3-29.9,27.4-36.9c15.5-9.7,30.7-5.7,66.5,0
		c79.8,12.6,95,6.6,105.5,22.2C597.5,186.4,590.8,191.7,590.8,237.6z"/>
	<path class="st1" d="M435,309.1c-4.3,9.7-9.3,21.3-15,34.8c-87.3-25.5-210.5-62.8-302.9-94.2c7.1-12,15.5-25.3,22.4-35.9
		c23.3,10.3,44.3,19.7,56.5,25.3C234.5,256.7,383.5,296.6,435,309.1z"/>
	<path class="st2" d="M402.5,386.6c-2.9,7.2-5.9,14.7-8.9,22.5c-0.1,0.2-0.2,0.5-0.3,0.7c-92.6-14.7-261.6-54.4-326.2-83
		c10-14.9,19.7-29.1,27.5-40.9c22.8,9.9,56.8,24.2,95.5,39.5C240.3,345.1,339.8,366.4,402.5,386.6z"/>
	<path class="st3" d="M366.7,481.5c-6.4,17.7-11.4,31.8-15.9,43.2c-54.6-16-250.6-81.1-333.4-119.8c6.3-11.3,15-25.3,24.6-40.1
		c31.4,13.6,91.3,38.9,155.7,62.4C262.4,450.7,330.8,466.4,366.7,481.5z"/>
</g>
</svg>
