<?xml version="1.0" encoding="utf-8"?>
<!-- Generator: Adobe Illustrator 24.0.3, SVG Export Plug-In . SVG Version: 6.00 Build 0)  -->
<!DOCTYPE svg PUBLIC "-//W3C//DTD SVG 1.1//EN" "http://www.w3.org/Graphics/SVG/1.1/DTD/svg11.dtd" [
	<!ENTITY ns_extend "http://ns.adobe.com/Extensibility/1.0/">
	<!ENTITY ns_ai "http://ns.adobe.com/AdobeIllustrator/10.0/">
	<!ENTITY ns_graphs "http://ns.adobe.com/Graphs/1.0/">
	<!ENTITY ns_vars "http://ns.adobe.com/Variables/1.0/">
	<!ENTITY ns_imrep "http://ns.adobe.com/ImageReplacement/1.0/">
	<!ENTITY ns_sfw "http://ns.adobe.com/SaveForWeb/1.0/">
	<!ENTITY ns_custom "http://ns.adobe.com/GenericCustomNamespace/1.0/">
	<!ENTITY ns_adobe_xpath "http://ns.adobe.com/XPath/1.0/">
]>
<svg version="1.1" id="general_1_" xmlns:x="&ns_extend;" xmlns:i="&ns_ai;" xmlns:graph="&ns_graphs;"
	 xmlns="http://www.w3.org/2000/svg" xmlns:xlink="http://www.w3.org/1999/xlink" x="0px" y="0px" viewBox="0 0 600 600"
	 style="enable-background:new 0 0 600 600;" xml:space="preserve">
<style type="text/css">
	.st0{fill:#DB0032;}
	.st1{fill:#F9F3EF;}
	.st2{fill:#007B66;}
	.st3{fill:#003163;}
</style>
<metadata>
	<sfw  xmlns="&ns_sfw;">
		<slices></slices>
		<sliceSourceBounds  bottomLeftOrigin="true" height="451.2" width="578.8" x="15.2" y="-559"></sliceSourceBounds>
	</sfw>
</metadata>
<g id="general">
	<path class="st0" d="M350.7,333.5c-2.3-7.8-5.2-15.2-8.7-22.2c-29.2-57.6-104.9-90-141.5-68.5c-20.8,12.2-27.7,31.4-27.7,31.4
		c-6.5,18.2,0.4,33.1-10.9,45.7c-5.4,6-11.8,8.1-16.6,9.7c-22.7,7.5-36.8-6.4-61.2-5.1c0,0-20.6,0.8-38,14.2
		c-25.3,19.5-33.7,64.1-24.4,107.5c-13.5-46.8-6-97.7,21.5-118.9c17.3-13.4,38-14.2,38-14.2c24.4-1.3,38.5,12.6,61.2,5.1
		c4.8-1.6,11.3-3.7,16.6-9.7c11.3-12.6,4.4-27.5,10.9-45.7c0,0,6.9-19.2,27.7-31.4c36.6-21.5,112.3,10.9,141.5,68.5
		C344.3,310.3,348.2,321.7,350.7,333.5z"/>
	<path class="st1" d="M350.7,333.5C350.7,333.5,350.7,333.5,350.7,333.5c-2.3-7.8-5.2-15.2-8.7-22.2c-29.2-57.6-104.9-90-141.5-68.5
		c-20.8,12.2-27.7,31.4-27.7,31.4c-6.5,18.2,0.4,33.1-10.9,45.7c-5.4,6-11.8,8.1-16.6,9.7c-22.7,7.5-36.8-6.4-61.2-5.1
		c0,0-20.6,0.8-38,14.2c-25.3,19.5-33.7,64.1-24.4,107.5c5,23.6,15.3,46.9,30.8,65.6c7.4,8.9,43.8,50.4,95.3,46.9
		c9.4-0.6,31.8-2,49.3-17.9c28.2-25.6,12.9-60.9,37.2-75.4c17.5-10.4,30.6,4.7,63.6-6.3c4.1-1.4,22-7.6,34.9-19.9
		C357.7,415.5,361.8,371.2,350.7,333.5z"/>
	<path class="st2" d="M256.5,334.5c-1.9-2-7.8-8.3-16.9-13.1c-6.7-3.5-15.1-6.1-24.9-5.7c-22.8,1-41.7,18.1-47.1,36.7
		c-2.7,9.2-1.6,17-0.7,23.1c1.2,8.6,3.6,25.6,18.1,37.7c15.7,13.2,34.6,11.5,38.7,11.1c19.1-2.2,31.1-14.2,36.1-20.4
		c2.9-3.6,10.5-13.3,12-27.7c0.1-1,0.2-2,0.2-3C273,352.1,259.8,338,256.5,334.5z"/>
	<path class="st2" d="M509.4,222.3c-20.1,13.5-48.5,31.8-83.2,52.4c-19,11.3-31.5,16.6-44.6,25.7c-12.3,8.5-92.8,57.3-121.1,74.4
		c0.1-0.8,0.1-1.6,0.2-2.4c0.7-16.4-9.7-27.5-12.2-30.3c-1.5-1.6-6.1-6.5-13.3-10.2c39.5-25.3,72.8-45.8,97.6-60.7
		c36.1-21.7,60.3-33.5,100.1-58.8c17.6-11.2,32.7-21.3,44.6-29.5c3,6.3,10.1,13.2,14.3,18.4C499.1,210.5,509.4,222.3,509.4,222.3z"
		/>
	<path class="st3" d="M248.4,342.2c-1.5-1.6-6.1-6.5-13.3-10.3c-5.2-2.7-11.8-4.8-19.5-4.4c-17.9,0.8-32.6,14.2-36.9,28.7
		c-2.1,7.2-1.2,13.3-0.5,18.1c0.9,6.8,2.8,20,14.2,29.5c12.3,10.3,27.1,9,30.3,8.7c15-1.7,24.3-11.1,28.3-16
		c2.2-2.8,8.2-10.4,9.4-21.7c0.1-0.8,0.1-1.6,0.2-2.4C261.3,356.1,251,345,248.4,342.2z"/>
	<path class="st0" d="M163.3,452c0,0-0.4-0.5-22.9-31.6c-12.2-16.8-15.7-29.8-18.8-29.2c-7.1,1.3-1.3,16.6-5.2,21.6
		c-3.9,5-14.3,8.9-7.1,25.8c2.4,5.7,11.3,29.7,26.4,30.5c9.2,0.5,15.1-7.9,22.6-4.2c3.6,1.8,6.1,5.5,8.2,4.5
		c1.6-0.7,1.8-3.4,1.8-4.4C168.7,458.6,164.2,453.2,163.3,452z"/>
	<path class="st3" d="M570.2,139.6c-7.4-13.7-10.3-15.6-11.8-16.5c-9.2-5.3-23.6-3.6-30.9,4c-5.4,5.6-4.9,9.4-11.2,24.2
		c-8.2,19.3-25.6,12.7-36.5,19.9c-4.6,3-4.4,7.2-2.2,11.8c3,6.3,10.1,13.2,14.3,18.4c7.2,9.1,17.6,20.9,17.6,20.9
		c15.8,11.8,13.2,0.9,24.1-11.8c8-9.3,17.7-1.5,30.1-8.3c11.6-6.3,19.3-20.9,18.9-33.7C582.4,162.2,578.3,154.7,570.2,139.6z"/>
	<path class="st0" d="M492,160.9c-1.5,2.5-4.2,2.1-4.9,4.5c-0.7,2.4,1.6,4.2,0.5,6c-0.7,1.1-2.3,1.7-3.1,1.2
		c-1.2-0.8,0.4-3.3-0.7-6.4c-1-3-3.3-2.8-5.1-5.6c-1.9-3-2.5-8.3,0.4-11c2.6-2.4,8.3-1.5,11.2,1.9
		C492.7,154.2,493.5,158.3,492,160.9z"/>
	<path class="st0" d="M516.8,143.6c0.4,2.7-1.2,4.2-0.1,6.6c0.8,1.7,2.1,1.8,2.3,3.2c0.3,2-1.9,4.6-3.6,4.4c-1.7-0.1-1.6-2.8-4.2-5
		c-3.2-2.6-5.9-0.6-8.5-2.7c-3-2.4-4-8.6-1-11.9c2.2-2.4,6.1-2.1,8.4-1.4C513.2,137.8,516.3,140.4,516.8,143.6z"/>
	<path class="st0" d="M534.3,115.1c0.3,2.8-2.1,3.9-1.3,7c0.4,1.8,1.5,2.8,1,4.1c-0.3,0.8-1.1,1.4-1.9,1.5c-1.5,0.2-2.5-1.3-4.1-2.6
		c-3.5-2.9-5.5-1.5-7.7-3.6c-2.8-2.6-3.9-8.7-1-11.9c2.2-2.4,6.1-2.1,8.4-1.4C530.7,109.3,534,111.9,534.3,115.1z"/>
	<path class="st0" d="M525.4,231.2c-0.3-2.8,3-4.3,2.3-6.5c-0.7-2.1-4.1-2-4.4-4c-0.2-1.3,0.9-3,2.1-3.1c1.5-0.2,1.9,2.6,4.4,3.6
		c2.6,1,4.1-1.2,6.5-0.6c4.2,0.9,8.3,9.7,4.8,14.2c-2.6,3.2-7.8,2.4-8.1,2.4C529.5,236.5,525.7,234.1,525.4,231.2z"/>
	<path class="st0" d="M547.7,216.4c-0.8-2.9,1.2-3.9,0.4-7.3c-0.8-3.1-3-4.3-2.3-6c0.4-1.1,1.8-1.8,2.9-1.7c2.1,0.2,2.1,3.3,4.8,5.2
		c2.8,2,4.8,0,7.5,1.7c3.2,2,5.1,8,2.4,11.7c-1.9,2.6-5.8,2.8-8.1,2.4C551.9,221.7,548.5,219.5,547.7,216.4z"/>
	<path class="st0" d="M577.2,196.7c-0.5-2.4,1.3-3.2,0.7-5.7c-0.8-2.9-3.7-3.3-3.6-5.5c0-1.5,1.3-3,2.5-3c1.4-0.1,1.8,2,3.8,3.6
		c3.4,2.8,6.7,0.3,9.9,2.5c3.2,2.2,4.9,8.2,2.4,11.7c-1.9,2.6-5.8,2.8-8.1,2.4C581.4,202.1,577.8,199.8,577.2,196.7z"/>
</g>
</svg>
