<?xml version="1.0" encoding="utf-8"?>
<!-- Generator: Adobe Illustrator 24.0.3, SVG Export Plug-In . SVG Version: 6.00 Build 0)  -->
<!DOCTYPE svg PUBLIC "-//W3C//DTD SVG 1.1//EN" "http://www.w3.org/Graphics/SVG/1.1/DTD/svg11.dtd" [
	<!ENTITY ns_extend "http://ns.adobe.com/Extensibility/1.0/">
	<!ENTITY ns_ai "http://ns.adobe.com/AdobeIllustrator/10.0/">
	<!ENTITY ns_graphs "http://ns.adobe.com/Graphs/1.0/">
	<!ENTITY ns_vars "http://ns.adobe.com/Variables/1.0/">
	<!ENTITY ns_imrep "http://ns.adobe.com/ImageReplacement/1.0/">
	<!ENTITY ns_sfw "http://ns.adobe.com/SaveForWeb/1.0/">
	<!ENTITY ns_custom "http://ns.adobe.com/GenericCustomNamespace/1.0/">
	<!ENTITY ns_adobe_xpath "http://ns.adobe.com/XPath/1.0/">
]>
<svg version="1.1" id="general_1_" xmlns:x="&ns_extend;" xmlns:i="&ns_ai;" xmlns:graph="&ns_graphs;"
	 xmlns="http://www.w3.org/2000/svg" xmlns:xlink="http://www.w3.org/1999/xlink" x="0px" y="0px" viewBox="0 0 600 600"
	 style="enable-background:new 0 0 600 600;" xml:space="preserve">
<style type="text/css">
	.st0{fill:#FFD800;}
	.st1{fill:#8D41E5;}
	.st2{fill:#FF378C;}
	.st3{fill:#009D6F;}
</style>
<metadata>
	<sfw  xmlns="&ns_sfw;">
		<slices></slices>
		<sliceSourceBounds  bottomLeftOrigin="true" height="577.9" width="577.5" x="15.9" y="-586.8"></sliceSourceBounds>
	</sfw>
</metadata>
<g id="general">
	<path class="st0" d="M534,225.7C456.8,98.4,282.1-21.2,231.8,15.7c-5.2,3.8-12.5,11.9-15.4,22.6c-9.1,34,34.5,64.7,22.9,87.9
		c-4.1,8.1-12.8,11.2-14.6,11.8C185.8,151.1,147.9,56,82.5,55.8c-4.7,0-27.7,0-44.9,15.1c-62.5,55.2,27.1,245.6,53.6,294.9
		c19.1,35.5,43.1,68.3,43.1,68.3c22.3,30.5,44.1,54,54.8,64.4c53.5,52.4,167.8,110.4,277.6,79.7c22.4-6.2,66.1-19.1,96-59.5
		c22.5-30.3,26.4-62.1,29-83.1c7.2-58-10.4-104.3-24.7-141.9C554.5,260.9,540.7,236.8,534,225.7z M134.6,252.7
		c-31.5-4.4-49.7-36.8-59.7-54.4c-10.6-18.6-19.5-34.7-14-53.3c3.2-11.1,12.2-24.8,26.1-29c30.8-9.3,62.4,35.4,65.9,40.4
		c15.7,22.2,17.8,43.5,19.2,57.6c2.1,21.5-2.6,28-4.5,30.3C157.7,255.9,138.2,253.1,134.6,252.7z"/>
	<path class="st1" d="M285.6,351.7c1.6,5.4,0,11.9-3.3,25c-4.6,18.2-6.9,27.3-14.1,33.8c-10.7,9.7-25.3,9.3-32.5,9.1
		c-15.9-0.4-27.5-7.2-37.7-13.1c-8.4-4.9-14.4-8.4-20.1-15.1c-1.6-1.9-21.1-25.1-11.8-48.9c9-22.8,36.8-31,55.5-29.2
		c10.5,1,17.9,5.1,30.6,12C270.9,335.5,282.2,340.5,285.6,351.7z"/>
	<path class="st2" d="M383.4,453.8c6.1,16.9,11.7,32.2,4.4,47.4c-5.1,10.6-16.2,20.8-28.8,21.8c-4.4,0.4-6.8-0.6-15.2-3
		c-36.8-10.7-43.6-8.3-49.9-16.6c-4.7-6.3-1.2-8.2-8-22c-6.7-13.6-12-13.9-12.9-20.7c-2.6-19.3,17.8-38.9,37-46.6
		c5-2,27.3-11,48.5,1.4C372.6,423.6,377.3,437,383.4,453.8z"/>
	<path class="st3" d="M521.6,473.2c-2.2,6.1-8.5,20.7-24.3,30.3c-4.1,2.5-18.9,11.2-37.7,7.5c-2.2-0.4-12.9-2.6-23.4-11.4
		c-22.3-18.6-31.8-56.9-18.4-71.8c7.3-8,14.3-1.5,41.8-12.4c14.9-5.9,18.1-9.9,27.3-9.5c16.8,0.7,28.1,15.3,29.6,17.2
		C531.4,443,523.5,467.9,521.6,473.2z"/>
</g>
</svg>
