<?xml version="1.0" encoding="utf-8"?>
<!-- Generator: Adobe Illustrator 24.0.3, SVG Export Plug-In . SVG Version: 6.00 Build 0)  -->
<!DOCTYPE svg PUBLIC "-//W3C//DTD SVG 1.1//EN" "http://www.w3.org/Graphics/SVG/1.1/DTD/svg11.dtd" [
	<!ENTITY ns_extend "http://ns.adobe.com/Extensibility/1.0/">
	<!ENTITY ns_ai "http://ns.adobe.com/AdobeIllustrator/10.0/">
	<!ENTITY ns_graphs "http://ns.adobe.com/Graphs/1.0/">
	<!ENTITY ns_vars "http://ns.adobe.com/Variables/1.0/">
	<!ENTITY ns_imrep "http://ns.adobe.com/ImageReplacement/1.0/">
	<!ENTITY ns_sfw "http://ns.adobe.com/SaveForWeb/1.0/">
	<!ENTITY ns_custom "http://ns.adobe.com/GenericCustomNamespace/1.0/">
	<!ENTITY ns_adobe_xpath "http://ns.adobe.com/XPath/1.0/">
]>
<svg version="1.1" id="general_1_" xmlns:x="&ns_extend;" xmlns:i="&ns_ai;" xmlns:graph="&ns_graphs;"
	 xmlns="http://www.w3.org/2000/svg" xmlns:xlink="http://www.w3.org/1999/xlink" x="0px" y="0px" viewBox="0 0 600 600"
	 style="enable-background:new 0 0 600 600;" xml:space="preserve">
<style type="text/css">
	.st0{fill:#FF8FF0;}
	.st1{fill:#BB54F7;}
	.st2{fill:#FFFF76;}
	.st3{fill:#00FF9D;}
</style>
<metadata>
	<sfw  xmlns="&ns_sfw;">
		<slices></slices>
		<sliceSourceBounds  bottomLeftOrigin="true" height="593.3" width="460.1" x="24.9" y="-596.6"></sliceSourceBounds>
	</sfw>
</metadata>
<g id="general">
	<path class="st0" d="M390,305.9c-4.6,17.7-15.1,58.7-50.3,81.6c-58,37.7-137.1-3.2-160.1-15c-19.3-10-92.9-51.5-113.5-134.7
		c-10.4-42.1-2.6-76.1-0.7-83.7c0,0,0-0.1,0-0.1c3.4-13.6,15.5-61.9,60.1-90.4c19.5-12.5,37.5-16.3,48.1-18.4
		c3.4-0.7,60.8-11.1,115.6,15.9c13.4,6.6,26.6,15.4,38.8,27.2c27.8,26.7,37.3,55.8,49.9,94.4C389.3,217.5,402.4,257.8,390,305.9z"/>
	<path class="st1" d="M349.4,158.7c11.8-12.6-31.2-65.1-60.1-97.7C234.5,34,177.1,44.4,173.7,45.1c-5,1-11.7,2.4-19.4,4.9
		c-0.9,0.3-1.9,0.6-2.8,1c-0.5,0.2-1,0.4-1.5,0.5c-2.7,1-5.5,2.1-8.4,3.4c-0.5,0.2-1.1,0.5-1.6,0.8c-0.5,0.2-1,0.5-1.5,0.7
		c-1.3,0.7-2.7,1.3-4.1,2.1c-0.5,0.2-1,0.5-1.4,0.8c-0.8,0.4-1.6,0.9-2.4,1.3c-0.4,0.2-0.8,0.5-1.2,0.7c-1.2,0.7-2.4,1.5-3.6,2.2
		C80.9,92,68.8,140.4,65.5,153.9c8-10.3,15.9-25,15.9-25s-3.7,72,21.1,63.1c24.8-8.9,21.1-76.7,21.1-76.7
		c1.4,6.9,14.4,67.4,34.3,68.5c1.7,0.1,7.1-0.1,11.3-3.6c6.5-5.6,5.7-16,5.1-23.7c-0.5-6.5-2.3-17.5-9.4-30.2
		c7,11.9,17.8,28.5,33,46.7c31.9,38.3,75.9,74.5,99,83.4c6.3,2.5,11.1,2.9,13.6,0.7c0.8-0.7,1.4-1.6,1.7-2.8
		c4.1-16.4-15.9-43-34.7-63.6c30.9,24.8,68.8,42.6,67,20.1c-1.9-24.2-47-63.9-66.7-80.1C295.9,144.7,336.1,173,349.4,158.7z"/>
	<path class="st2" d="M307.4,387.4c-2.4-3.4-11.7-20.1-19.3-34c4.5-5.3,8.7-11,12.3-17c12.7-21.2,5.9-53.8-3.5-80
		c-23.1-8.9-67-45.2-99-83.4c-15.2-18.2-25.9-34.8-33-46.7c7.1,12.7,8.9,23.7,9.4,30.2c0.6,7.7,1.4,18.1-5.1,23.7
		c-4.2,3.6-9.6,3.7-11.3,3.6c-19.9-1-32.9-61.5-34.3-68.5c0,0,3.7,67.9-21.1,76.7c-24.8,8.9-21.1-63.1-21.1-63.1s-7.9,14.7-15.9,25
		c0,0,0,0.1,0,0.1c-1.9,7.7-9.8,41.6,0.7,83.7c20.6,83.2,94.1,124.7,113.5,134.7c8.3,4.3,24.1,12.4,43.5,19.2l0,0
		c0.1,0,0.2,0.1,0.3,0.1c1.5,0.5,3,1,4.6,1.6c25.9,8.5,57.4,14,86.6,5.5C312.2,394.8,309.4,390.2,307.4,387.4z"/>
	<path class="st0" d="M140,326.4c7.2-6.2,14.8-13.1,22.4-20.9c4.8-4.9,9.2-9.7,13.3-14.3l8,7.2l5.1-14.1c8.5-2.7,17.4-5.3,26.8-7.7
		c7.5-1.9,14.7-3.6,21.8-5.1c0.4,6,0.4,20.1-8.5,33.5c-7.8,11.8-18.3,16.7-27.4,21c-7.5,3.5-19.2,8.9-35.1,7.9
		C154.3,333.2,145.2,329.2,140,326.4z"/>
	<path class="st1" d="M97.2,225.2c-1.3,0.6-2.6,1.2-4,2c8.6,0.2,15.2,7.9,15.4,15.3c0.2,6.5-4.6,11.1-5.4,11.8
		c-0.9,0.8-4.6,4.2-9.9,4.3c-7.7,0.1-16.7-7.1-16.2-16.7c0.1-1.3,0.3-2.6,0.7-3.8c-1.6,1.7-3.1,3.4-4.2,5.3c-1.4,2.2-2.7,4.5-4,6.7
		c-1.1-3.3-2.1-6.7-3-10.2c3.2-4.3,8.2-9.3,15.9-14.6c21-14.4,40.2-10.5,40.2-10.5v6.4C122.7,221.1,104.9,221.8,97.2,225.2z"/>
	<path class="st1" d="M153.2,207.8l-5.6-3c0,0,5.7-18.7,28.3-30.4c22.6-11.7,34.1-6.4,34.1-6.4l6.3,6.4c0,0-10.5,0.1-20.2,0.7
		c-2.2,0.1-4.4,0.6-6.7,1.2c1.3,0.2,2.5,0.6,3.7,1.1c8.8,4,10.8,15.4,7.1,22.1c-2.5,4.6-7.4,6.3-8.5,6.7c-1,0.4-7.3,2.5-12.9-0.8
		c-6.3-3.7-10-13.1-6.1-20.8c-1.3,0.9-2.5,1.8-3.7,2.6C162.3,192.4,153.2,207.8,153.2,207.8z"/>
	<path class="st1" d="M185.8,258.5l-32.3,19.3c0,0-28.7-88.1-46.6-99.4c-11.2-7.1-32-0.4-45.9,5.5c0.2-3.6,0.5-6.9,0.8-9.9
		c35.4-15.7,55,2.5,60.8,10.5c6.3,8.7,34.4,83.5,34.4,83.5s7.7-5.1,10.2-7.2c2.6-2.1,14.6-8.7,14.6-8.7L185.8,258.5z"/>
	<path class="st3" d="M459.2,498c-9.6-14.8-29.8-45.5-47.7-72.7c-8.6-13.1-16.7-25.4-22.8-34.7c20.3-24.9,28.7-53.1,32.9-67.4
		c17.5-59.2,1.8-109.8-10.4-148.9c-13.4-43.2-25.4-81.7-60.9-115.2C308.6,19.6,234-13.2,156.1,12.4C86.6,35.2,44.4,94.7,30.5,149.7
		c-10.7,42.4-3.3,77.2,0,91.9C54.7,349.3,155,399.3,169.1,406.1c19.1,9.2,92.1,44.2,157.7,25.4c5,10.6,14.8,27.8,26.9,47
		c7.7,12.1,16.3,25.1,25.2,37.6c28.5,40.1,59.6,93.2,90.6,77.7C500.6,578.3,478.6,527.8,459.2,498z M339.7,387.5
		c-8,5.2-16.4,8.9-25,11.4c-29.2,8.5-60.8,2.9-86.6-5.5c-1.7-0.5-3.3-1.1-4.9-1.7c-19.4-6.8-35.2-14.9-43.5-19.2
		c-18.4-9.5-85.6-47.4-110-122.4c-1.1-3.3-2.1-6.7-3-10.2c-0.2-0.7-0.4-1.4-0.5-2.1c-5.1-20.6-5.8-39.2-5-53.8
		c0.2-3.6,0.5-6.9,0.8-9.9c1.1-10,2.8-17.1,3.5-20.1c0,0,0-0.1,0-0.1c3.4-13.6,15.5-61.9,60.1-90.4c10.3-6.6,20.1-10.7,28.7-13.5
		c7.7-2.5,14.4-3.9,19.4-4.9c3.4-0.7,60.8-11.1,115.6,15.9c13.4,6.6,26.6,15.4,38.8,27.2c27.8,26.7,37.3,55.8,49.9,94.4
		c11.4,34.9,24.4,75.2,12.1,123.3C385.4,323.7,374.9,364.6,339.7,387.5z M461.5,574.1c-8.2,5.1-25-4.2-30.9-17
		c-1.2-2.6-5.5-11.9-0.5-20.4c3.2-5.4,9.4-9.3,15.5-9.1c11.8,0.3,19.4,15.4,20.9,26.3C466.7,556,468.6,569.7,461.5,574.1z"/>
</g>
</svg>
