<?xml version="1.0" encoding="utf-8"?>
<!-- Generator: Adobe Illustrator 24.0.3, SVG Export Plug-In . SVG Version: 6.00 Build 0)  -->
<!DOCTYPE svg PUBLIC "-//W3C//DTD SVG 1.1//EN" "http://www.w3.org/Graphics/SVG/1.1/DTD/svg11.dtd" [
	<!ENTITY ns_extend "http://ns.adobe.com/Extensibility/1.0/">
	<!ENTITY ns_ai "http://ns.adobe.com/AdobeIllustrator/10.0/">
	<!ENTITY ns_graphs "http://ns.adobe.com/Graphs/1.0/">
	<!ENTITY ns_vars "http://ns.adobe.com/Variables/1.0/">
	<!ENTITY ns_imrep "http://ns.adobe.com/ImageReplacement/1.0/">
	<!ENTITY ns_sfw "http://ns.adobe.com/SaveForWeb/1.0/">
	<!ENTITY ns_custom "http://ns.adobe.com/GenericCustomNamespace/1.0/">
	<!ENTITY ns_adobe_xpath "http://ns.adobe.com/XPath/1.0/">
]>
<svg version="1.1" id="general_1_" xmlns:x="&ns_extend;" xmlns:i="&ns_ai;" xmlns:graph="&ns_graphs;"
	 xmlns="http://www.w3.org/2000/svg" xmlns:xlink="http://www.w3.org/1999/xlink" x="0px" y="0px" viewBox="0 0 600 600"
	 style="enable-background:new 0 0 600 600;" xml:space="preserve">
<style type="text/css">
	.st0{fill:#FF378C;}
	.st1{fill:#009D6F;}
	.st2{fill:#8D41E5;}
	.st3{fill:#FFD800;}
</style>
<metadata>
	<sfw  xmlns="&ns_sfw;">
		<slices></slices>
		<sliceSourceBounds  bottomLeftOrigin="true" height="412.4" width="586.8" x="7.4" y="-562.6"></sliceSourceBounds>
	</sfw>
</metadata>
<g id="general">
	<path class="st0" d="M563.6,340.6c-67.1,36-212.9,113.7-236.3,122.5c-30.6,11.5-89.9,19.1-141,37.2
		c-51.1,18.1-95.7,36.3-127.8,38.3c-15.3,1-31.2-3.6-43.7-8.6c-3.8-8.2-6.1-17.3-6.9-26.5c12,3.4,34.7,8.6,54.4,5.3
		c28.4-4.7,66.9-27.2,88.1-29.6c21.2-2.4,78.8-20.5,103.8-26.8c24.9-6.3,132-45.5,154-69.6c22-24.2,39.7-81.1,83.8-108.9
		c17.9-11.3,41.6-3.1,63.3,10.5C557.1,310,556.4,323.2,563.6,340.6z"/>
	<path class="st1" d="M594.2,416c-0.6,31.1-100.7,47.7-199.7,75c-27.5,7.6-195.5,54.7-309.7,70.3c-11.2,1.5-35.2,4.5-53.5-9.6
		c-7.1-5.5-12.7-13.1-16.7-21.7c12.5,5.1,28.5,9.6,43.7,8.6c32.1-2,76.7-20.2,127.8-38.3c51.1-18.1,110.4-25.7,141-37.2
		c23.4-8.8,169.3-86.5,236.3-122.5c0.5,1.1,1,2.3,1.5,3.4c4.4,9.4,7.8,13.1,14.1,26.9C580.2,372.9,594.5,404,594.2,416z"/>
	<path class="st0" d="M246.3,286c0.2,18.1,12,26.9,6.1,42.9c-1.6,4.3-21.1,30.8-27.5,37.4c-1.4,1.4-3.1,3.7-5.3,6.6
		c-3.3,4.3-7.6,9.9-13.3,15.7c-6.4,6.5-14.7,13.4-25.3,19.1c-6.1,3.3-13.1,6.3-20.9,8.6c-8.7,2.6-18.4,4.3-29.4,4.9
		c-1.3,0.1-2.5,0.1-3.8,0.2c-3.3,0.1-8.1,1.2-13.8,2.8c-6.4,1.8-13.8,4.3-21.4,6.9c-6,2-12.1,4.1-17.8,5.9
		C62,440.7,51.7,443.3,47,442c-4-1.1-6.1-5.4-7-10.8c7.4-5.7,15.5-10.3,24-14.6c5.1-2.6,10.4-5,15.7-7.6c5.9-2.8,11.8-5.7,17.8-8.9
		c1.8-1,4.5-2.4,7.8-4.3c4.1-2.3,9.1-5.3,14.7-9c6.3-4.1,13.4-9.1,20.7-15c5.1-4,10.2-8.5,15.4-13.4c4.8-4.6,9.6-9.5,14.3-14.8
		c3.8-4.3,7.5-8.9,11.1-13.8c3.6-4.9,7-10,10.1-15.4c1-1.8,2-3.5,2.9-5.2c3.1-5.7,5.5-11,7.7-16.1c1.6-3.8,3.1-7.5,4.6-11.1
		c0.9-2.3,1.7-4.1,1.8-4.4c4-9.8,5.5-19,9.1-28c3.9-9.7,6.5-16.4,13-19.4c6.4-3,13-1,19.6,1.1c5,1.6,13.6,4.3,20.6,9.4
		C256.4,250.5,246.1,268.8,246.3,286z"/>
	<path class="st2" d="M534.4,256c-18.1-4.6-38.5-36.9-42.5-54.7c-2.4-10.6,8-32.5,16.8-48.4c-2.4-1-4.8-1.7-7.1-2.1
		c-6.2-1.1-11.4-0.5-13.9-0.2c-11.3,1.5-19.2,6.5-25.9,12.4c-11.1,9.8-18.5,18.6-23.8,26.4c-2.9,4.3-5,7.7-6.6,10.6
		c-4.1,7.6-6.8,12.9-7.6,14.6c-6.6,13.2-25.3,20.3-36,24.3c-11.4,4.3-27.1,10.2-45.5,6.4c-13.1-2.7-13.9-7.5-28.7-10.4
		c-7.3-1.4-21-4.1-34.4,1.3c-2.9,1.2-5.7,2.7-8.3,4.5c-14.5,9.8-24.8,28.1-24.6,45.3c0.2,18.1,12,26.9,6.1,42.9
		c-1.6,4.3-21.1,30.8-27.5,37.4c-1.4,1.4-3.1,3.7-5.3,6.6c-3.3,4.3-7.6,9.9-13.3,15.7c-6.4,6.5-14.7,13.4-25.3,19.1
		c-6.1,3.3-13.1,6.3-20.9,8.6c-8.7,2.6-18.4,4.3-29.4,4.9c-1.3,0.1-2.5,0.1-3.8,0.2c-3.3,0.1-8.1,1.2-13.8,2.8
		c-6.4,1.8-13.8,4.3-21.4,6.9c-6,2-12.1,4.1-17.8,5.9C62,440.7,51.7,443.3,47,442c-4-1.1-6.1-5.4-7-10.8
		c-8.4,6.5-15.9,14.5-21.9,25.3c-4.4,7.8-7,14.6-8.5,20.9c-2,8.3-2.5,17.2-1.7,26c12,3.4,34.7,8.6,54.4,5.3
		c28.4-4.7,66.9-27.2,88.1-29.6c21.2-2.4,78.8-20.5,103.8-26.8c24.9-6.3,132-45.5,154-69.6c22-24.2,39.7-81.1,83.8-108.9
		c17.9-11.3,41.6-3.1,63.3,10.5l0-0.4c0,0-0.8-11-3.5-27.4C546.8,257.4,540.8,257.6,534.4,256z"/>
	<path class="st3" d="M132.1,433.5c-1.8,3.4-6.3,5.7-10,4.9c-3.2-0.7-5.5-3.7-9-14.2c-0.6-1.7-1.2-3.5-1.8-5.6
		c-1.7-5.7-3.9-13.3-6-22.6c0.2-1.2,0.7-3.7,2.4-6c0.9-1.2,2.6-3.5,5.8-4.2c3.2-0.7,5.7,0.8,6.5,1.2c5.2,19.8,8.3,28.1,9.8,31.8
		c0.3,0.8,0.7,1.6,1,2.4C132.6,425.8,134,429.9,132.1,433.5z"/>
	<path class="st3" d="M185.6,423.6c-0.3,1-2.2,7.5-7.2,8.8c-3.7,1-7.2-1.5-9.1-2.8c-4.5-3.2-6.5-7.1-9.2-13.3
		c-0.8-1.9-1.7-4-2.7-6.4c-3.9-9-0.3,0.3-8.4-18.1c-2.3-5.3-5.2-12-8.4-19.8c-0.2-1.1-0.5-4.7,1.7-8.3c0.6-1,2.6-4.2,6.7-5.4
		c3.3-1,6.1-0.1,7.1,0.3c8.3,20.7,15.3,31,18.6,37.7c2.4,4.7,4.5,8.4,6.4,11.5C184.9,414.3,187.1,418.2,185.6,423.6z"/>
	<path class="st3" d="M223.5,385.3c-0.1,1.3-0.5,8.2-3.9,9.8c-2.4,1.1-6.4-0.1-13.3-6.6c-7.7-7.2-19.1-20.8-36-44.9
		c-0.1-1.4-0.1-3.8,1.1-6.4c2.7-5.8,9.1-7.2,9.9-7.3c5.7,6.2,13.6,15.2,23.7,26.2c6.5,7,11.4,12.1,14.5,16.8
		C222.4,377,223.7,380.8,223.5,385.3z"/>
	<path class="st3" d="M256.5,348.1c1.9,5.9,0.3,13.9-3.9,15.8c-3.5,1.6-9.6-0.5-22.5-14.9c-9.1-10.2-21.1-24.4-34.5-42.7
		c-0.4-1-1.7-4.5-0.3-8.6c2-5.9,7.9-7.7,8.4-7.9c11.8,10.5,19.9,19.8,25.2,26.7c7.9,10.1,8.8,13.5,15.9,19.5
		C250.6,341,254.7,342.8,256.5,348.1z"/>
	<path class="st3" d="M551.8,256.5c-5,0.9-11,1.1-17.4-0.5c-18.1-4.6-38.5-36.9-42.5-54.7c-2.4-10.6,8-32.5,16.8-48.4
		c1.2,0.5,2.5,1.1,3.7,1.8c8.5,5,12.6,12.8,14.7,17.1C540.8,200.1,548.1,233.6,551.8,256.5z"/>
	<path class="st0" d="M545.3,394.8c-5.8-9.7-44.8,14.4-118,38.8c-7,2.3-24.9,8.2-25.3,17.1c-0.2,4.8,4.7,8.6,5.3,9
		c8.4,6.3,21.4,1.8,28.5-0.5c50.7-16.7,52.4-6.8,73.4-20.7C528.1,426.2,550.1,402.8,545.3,394.8z"/>
	<path class="st1" d="M346.2,229.6"/>
</g>
</svg>
