<?xml version="1.0" encoding="utf-8"?>
<!-- Generator: Adobe Illustrator 24.0.3, SVG Export Plug-In . SVG Version: 6.00 Build 0)  -->
<!DOCTYPE svg PUBLIC "-//W3C//DTD SVG 1.1//EN" "http://www.w3.org/Graphics/SVG/1.1/DTD/svg11.dtd" [
	<!ENTITY ns_extend "http://ns.adobe.com/Extensibility/1.0/">
	<!ENTITY ns_ai "http://ns.adobe.com/AdobeIllustrator/10.0/">
	<!ENTITY ns_graphs "http://ns.adobe.com/Graphs/1.0/">
	<!ENTITY ns_vars "http://ns.adobe.com/Variables/1.0/">
	<!ENTITY ns_imrep "http://ns.adobe.com/ImageReplacement/1.0/">
	<!ENTITY ns_sfw "http://ns.adobe.com/SaveForWeb/1.0/">
	<!ENTITY ns_custom "http://ns.adobe.com/GenericCustomNamespace/1.0/">
	<!ENTITY ns_adobe_xpath "http://ns.adobe.com/XPath/1.0/">
]>
<svg version="1.1" id="general_1_" xmlns:x="&ns_extend;" xmlns:i="&ns_ai;" xmlns:graph="&ns_graphs;"
	 xmlns="http://www.w3.org/2000/svg" xmlns:xlink="http://www.w3.org/1999/xlink" x="0px" y="0px" viewBox="0 0 600 600"
	 style="enable-background:new 0 0 600 600;" xml:space="preserve">
<style type="text/css">
	.st0{fill:#003163;}
	.st1{fill:#F9F3EF;}
	.st2{fill:#007B66;}
	.st3{fill:#DB0032;}
</style>
<metadata>
	<sfw  xmlns="&ns_sfw;">
		<slices></slices>
		<sliceSourceBounds  bottomLeftOrigin="true" height="484.4" width="588.9" x="4.7" y="-516.4"></sliceSourceBounds>
	</sfw>
</metadata>
<g id="general">
	<path class="st0" d="M290.3,68.5c-5.8,9.1-13.5,21.4-18.2,29.9c-17.4,5.4-19.7,17.3-18.8,25.7c-1.1-2.9-2.7-6.2-5-9.4l33.5-54.4
		C283.8,63.7,286.8,66.6,290.3,68.5z"/>
	<path class="st0" d="M346.2,98.6c-4.5,4.1-8.2,9.6-11.2,16.6c-9.3-16.9-20.8-36.9-24.1-40.3c-1.6-1.6-3.2-3.6-4.8-5.8
		c4.3-1.8,8-5.2,10.1-9.4L346.2,98.6z"/>
	<path class="st1" d="M497.1,328.2c-0.7,14-0.5,48.5-0.3,73.4c0.1,15.9,0.3,27.8,0.3,27.8s-23.7-1-84.6,5.2
		c-60.9,6.3-311.2-5.2-311.2-5.2s1.1-84.5,0-113.7c-0.3-8.1-0.4-21.3-0.5-36.1c-0.1-38.5,0.5-88.1,0.5-88.1s102.6-12.5,145.5-13.6
		c42.9-1,250.4-7.3,250.4-7.3S498.2,305.3,497.1,328.2z"/>
	<path class="st2" d="M299.4,32c-9.9-0.3-18.6,7.3-19.8,16.7c-0.5,4.1,0.4,8.1,2.3,11.5c1.9,3.5,4.9,6.4,8.4,8.3
		c2.8,1.4,5.9,2.2,9.1,2.1c2.3-0.1,4.6-0.6,6.7-1.5c4.3-1.8,8-5.2,10.1-9.4c1.2-2.4,1.9-5,2-7.9C318.5,41.2,309.8,32.3,299.4,32z"/>
	<path class="st2" d="M496.9,414.8c0-3.9-0.1-8.4-0.1-13.2c-34.1-10.8-130-42.2-164-66.1c-16.3-11.4-37.3-26.1-59.5-39.7
		c-34.8-21.4-72.7-40.2-100.1-39.5c-27.6,0.6-55.3,13.6-72.4,23.4c0,14.8,0.2,28,0.5,36.1c1.1,29.2,0,113.7,0,113.7
		s250.3,11.5,311.2,5.2c60.9-6.3,84.6-5.2,84.6-5.2S497,423.7,496.9,414.8z"/>
	<path class="st3" d="M553.9,347c0,0,27.1-1,32.3-41.7s-4.2-59.5-51.1-65.7c0,0,31.3-15.6,31.3-49s7.3-80.3-61.5-61.5
		c0,0-31.3-70.9-78.2-9.4c0,0,1-21.9-30.2-29.2c-20-4.7-37.8-3.4-50.3,8.2c-4.5,4.1-8.3,9.6-11.2,16.6c-1.7,4.1-3.1,8.7-4.3,13.8
		c0,0,5.2-36.5-42.8-33.4c-6.3,0.4-11.5,1.4-15.8,2.7c-17.4,5.4-19.7,17.3-18.8,25.7c-1.1-2.9-2.7-6.2-5-9.4
		c-5.9-8.2-16.5-15.8-35.5-14.8c-39.6,2.1-35.5,33.4-35.5,33.4c-1.2-2.3-15.1-28.7-40.7-30.2c-8.3-0.5-14.8,1.7-18.2,3.2
		c-23.6,10-28.3,38.8-28.7,41.7c0,0-11.5-8.3-36.5-5.2s-36.5,24-34.4,48s35.5,36.5,35.5,36.5s-17.7,10.4-35.5,25s-19.8,64.7,0,69.9
		s40.7,4.2,40.7,4.2s-31.3,15.6-32.3,48c-1,32.3,3.1,83.4,58.4,67.8c0,0-25,31.3-10.4,50.1s81.4,27.1,87.6-13.6
		c0,0,15.6,32.3,54.2,37.5c38.6,5.2,56.3-43.8,56.3-43.8s16.7,32.3,74.1,34.4c57.4,2.1,63.6-35.5,63.6-35.5s15.6,40.7,57.4,35.5
		c41.7-5.2,73-16.7,55.3-65.7c0,0,33.4,12.5,51.1-8.3S614.4,371,553.9,347z M412.5,434.6c-60.9,6.3-311.2-5.2-311.2-5.2
		s1.1-84.5,0-113.7c-1.1-29.2,0-124.1,0-124.1s102.6-12.5,145.5-13.6c42.9-1,250.4-7.3,250.4-7.3s0.3,37.7,0.4,76.6
		c0.1,34.6,0.1,70.1-0.4,80.9c-0.7,14-0.5,48.5-0.3,73.4c0,0.6,0,1.2,0,1.8c0,2.5,0,4.9,0.1,7.2c0,0.9,0,1.8,0,2.7c0,0.5,0,1,0,1.5
		c0.1,8.8,0.2,14.6,0.2,14.6S473.4,428.4,412.5,434.6z"/>
	<path class="st3" d="M425.1,252.4c-5,1.1-10.3,2.4-16.2,3.9c-29.5,7.7-38.1,13.1-64.7,21.9c-4.7,1.6-10.1,3.2-16,5
		c-0.6-11.4-1.2-22.8-1.8-34.2l42.8-38.6l52.2,22.9C422.7,239.7,423.9,246,425.1,252.4z"/>
	<path class="st0" d="M497.5,247.3c-8.3-0.7-19.8-1.2-33.3-0.4c-10.5,0.6-22.7,1.9-39.1,5.5c-5,1.1-10.3,2.4-16.2,3.9
		c-29.5,7.7-38.1,13.1-64.7,21.9c-4.7,1.6-10.1,3.2-16,5c-14.8,4.3-33.3,8.9-55,12.7c22.2,13.6,43.3,28.4,59.5,39.7
		c34,23.8,129.8,55.3,164,66.1c-0.2-24.8-0.4-59.4,0.3-73.4C497.6,317.4,497.6,281.9,497.5,247.3z"/>
	<path class="st0" d="M238.9,219.8c0.6,2.7-1.4,5.2-2.1,6.3c-5.5,8.1-19.4,8.2-37.5,8.3c-1.2,0-2,0-3.1,0c-19.3-0.1-29-0.3-33.4-5.2
		c-2.1-2.4-4.4-6.4-3.1-9.4c1.9-4.3,11-5.6,23.4-2.8c1.2-1.8,4.3-5.8,9.5-7.4c7.6-2.3,16.6,1.5,22.2,9.5c1.2-1.4,4.6-4.9,9.8-5.6
		C230.5,212.6,237.9,215.3,238.9,219.8z"/>
	<path class="st0" d="M331.8,201.7c0.2,2.3-1.1,4.2-1.7,5c-3.9,5.8-13,6.2-25.8,6.6c-0.9,0-2.8,0-6.7,0c-0.9,0-14-0.1-24.9-3.1
		c-1.1-0.3-3.1-0.9-4.1-2.6c-1.3-2.1-0.5-4.7-0.2-5.9c0.8-2.6,3-6.7,7.7-8.3c4.2-1.3,8.8-0.2,11.9,3c2.6-4.2,7.2-6.6,12-6.4
		c5,0.2,9.5,3.3,11.6,7.9c0.6-0.6,5-4.8,10.9-3.9C326.7,194.7,331.5,197.7,331.8,201.7z"/>
	<path class="st0" d="M483,203c0.4,2.5-1.2,4.6-1.8,5.5c-4.3,6.4-14.3,6.8-28.5,7.3c-1,0-3.1,0-7.4,0c-1,0-15.5-0.1-27.5-3.5
		c-1.2-0.3-3.4-1-4.5-2.9c-1.6-2.6-0.5-5.7-0.2-6.5c1.8-5.3,7.6-7.3,8.7-7.6c6.5-2.1,12.1,1.2,13,1.8c0.5-0.6,5.4-6.2,13.3-5.7
		c8.1,0.4,12.3,6.7,12.8,7.4c1.3-0.9,6.3-4.2,12.5-3.1C476.8,196.4,482.4,198.8,483,203z"/>
</g>
</svg>
