<?xml version="1.0" encoding="utf-8"?>
<!-- Generator: Adobe Illustrator 24.0.3, SVG Export Plug-In . SVG Version: 6.00 Build 0)  -->
<!DOCTYPE svg PUBLIC "-//W3C//DTD SVG 1.1//EN" "http://www.w3.org/Graphics/SVG/1.1/DTD/svg11.dtd" [
	<!ENTITY ns_extend "http://ns.adobe.com/Extensibility/1.0/">
	<!ENTITY ns_ai "http://ns.adobe.com/AdobeIllustrator/10.0/">
	<!ENTITY ns_graphs "http://ns.adobe.com/Graphs/1.0/">
	<!ENTITY ns_vars "http://ns.adobe.com/Variables/1.0/">
	<!ENTITY ns_imrep "http://ns.adobe.com/ImageReplacement/1.0/">
	<!ENTITY ns_sfw "http://ns.adobe.com/SaveForWeb/1.0/">
	<!ENTITY ns_custom "http://ns.adobe.com/GenericCustomNamespace/1.0/">
	<!ENTITY ns_adobe_xpath "http://ns.adobe.com/XPath/1.0/">
]>
<svg version="1.1" id="general_1_" xmlns:x="&ns_extend;" xmlns:i="&ns_ai;" xmlns:graph="&ns_graphs;"
	 xmlns="http://www.w3.org/2000/svg" xmlns:xlink="http://www.w3.org/1999/xlink" x="0px" y="0px" viewBox="0 0 600 600"
	 style="enable-background:new 0 0 600 600;" xml:space="preserve">
<style type="text/css">
	.st0{fill:#BB54F7;}
	.st1{fill:#FF8FF0;}
	.st2{fill:#00FF9D;}
</style>
<metadata>
	<sfw  xmlns="&ns_sfw;">
		<slices></slices>
		<sliceSourceBounds  bottomLeftOrigin="true" height="407.9" width="584" x="6.4" y="-485.9"></sliceSourceBounds>
	</sfw>
</metadata>
<g id="general">
	<path class="st0" d="M589.3,428.8c-17,10.2-40,21.6-62.7,25c-43.9,6.5-75.8,3.9-119.9,8.7c-42.4,4.6-96.3-6-138-19.6
		c-1.6-0.5-3.2-1-4.7-1.6c-3.8-1.3-7.4-2.6-10.6-4c-28.4-11.8-37.5-26.2-53.4-42.8l0,0c-2.5-2.7-5.2-5.4-8.2-8.1
		c-4-3.7-8.9-6.3-14.5-8.1c-27.7-8.6-73.6,3.7-123.4,8.7c-14.5,1.4-25.1,1.9-32.9,1.7c2.5-8.4,5.2-17.5,8.2-27.2
		c1.3-4.4,2.7-8.9,4.2-13.6c4.4-14.4,8.7-28.7,13.2-43.1c5-15.8,6.4-19.9,7.1-23.6c0,0,0.3-2,0.6-4.2c2.5-19.4-0.7-39.6-0.7-39.6
		c-0.1-0.3-0.1-0.6-0.2-0.9c-0.5-3.1-1-6-1.5-8.7c-1.9-10.3-3.9-18-5.6-24.2c-1.8-6.6-3.4-11.5-4.3-15.9c-0.9-4.5-1.2-8.6-0.5-13.6
		c3.2-22.4,22-36.5,40.4-50.3C123.2,93,167.7,89,181.3,88.3c3.1-0.2,77.6-3.3,125.4,41.6c14.3,13.5,17.5,22.9,18.6,27.8
		c0.6,2.6,0.9,5.1,1,7.4c0.2,7.7-2.4,14-5.6,20.7c-4.1,8.7-9.1,18.1-10.3,31.9c-0.2,2.1-0.3,4.2-0.2,6.3l0,0c0,4.2,0.5,8.2,1.3,12.3
		c2.9,14.4,10.6,28.6,21.1,48.3c4.6,8.5,18.2,32.6,36.5,50.6c61.3,60.6,193.4,47.8,211.6,72.1c4.8,6.3,7.2,13.4,7.2,13.4
		C588.4,423.4,588.8,426.1,589.3,428.8z"/>
	<path class="st1" d="M160.1,84.9c-10,7.5-1.8,23.2-1.7,61.5c0.1,24-3.1,43.7,6.8,52.6c1.9,1.7,6.8,5.3,10.8,8
		c7.3,4.9,11.1,7.3,14.7,7.2c5.2-0.2,8.9-3.9,14.4-9.4c4.9-4.9,8.2-9.9,9.6-12.6c7-12.9,3.2-30.4-0.1-49.6
		c-7.7-45.1-6.2-60.1-16.3-63.9c-4-1.5-8.9-0.8-18.5,0.6C170.7,80.8,164.3,81.7,160.1,84.9z"/>
	<path class="st1" d="M314.4,395.5c-5.9,10.1-25.6,29.2-45.6,47.4c-1.6-0.5-3.2-1-4.7-1.6c-3.8-1.3-7.4-2.6-10.6-4
		c31.4-25.8,66.3-59.3,66.3-80.2c-0.1-38-37.5-58.4-37.5-58.4c11.7-18.5-4.1-55.4-4.1-55.4l7.7-4.6l24.2-14.7
		c0,4.2,0.5,8.2,1.3,12.3l-22.6,10.7c3,8.3,4.1,41.8,4.1,41.8s17.7,18.8,28,29.8C331.3,329.6,327.7,372.8,314.4,395.5z"/>
	<path class="st2" d="M590.3,434.6c0,0-0.1,2.7-0.8,5.3c-10,40.4-118.3,43.7-192.8,45.9c0,0-110.4,3.4-168.5-34.2
		c-14.6-9.4-17.6-18.3-17.6-18.3c-0.3-0.9-1-3.5-2.9-6.5c-1.9-3.1-4.5-6-7.5-8.5c-5.1-4.2-11.5-7.5-18.3-9.5
		c-10.7-3.2-22.3-3.1-30.8,1.4c-22,11.5-7.5,44.2-31.3,61.4c-7.8,5.6-26.8,6.1-64.5,6.9c-26,0.6-39,0.8-42.7-2.6
		c-11.6-10.5-6.3-37.3,8.4-87.3c7.7,0.2,18.3-0.2,32.9-1.7c49.7-5,95.6-17.4,123.4-8.7c5.6,1.7,10.5,4.4,14.5,8.1
		c3,2.8,5.7,5.5,8.2,8.1l0,0c15.9,16.6,25,31,53.4,42.8c3.3,1.4,6.8,2.7,10.6,4c1.5,0.5,3.1,1,4.7,1.6c41.7,13.6,95.5,24.3,138,19.6
		c44-4.8,75.9-2.2,119.9-8.7c22.7-3.4,45.7-14.8,62.7-25C589.7,430.7,590,432.6,590.3,434.6z"/>
	<path class="st1" d="M200.1,394.5c-2.5-2.7-5.2-5.4-8.2-8.1c-4-3.7-8.9-6.3-14.5-8.1c-3.3-7.6-8.5-14.2-16.7-18.3
		c-35-17.7-80-44.5-64.3-78.4c-3.3-3.1-7.1-7.2-10.5-12.5c-6.9-10.6-9.4-20.9-10.4-27.5c-7.3-1.7-14.5-3.4-21.8-5
		c-0.5-3.1-1-6-1.5-8.7l33.2,6.6c0,0-1.2,35.8,26.3,40.3c0,0-19.7,14.4,2.8,38.6C133.2,333.5,192.8,334.6,200.1,394.5z"/>
	<path class="st1" d="M326.3,165.1c0.2,7.7-2.4,14-5.6,20.7c-25-20.9-70.3-53-110.9-51.2c-59.9,2.8-105,7.5-124.6,27.8
		c-12.1,12.4-28.1,29.8-38.7,41.2c-1.8-6.6-3.4-11.5-4.3-15.9C52.2,172,71,147,93.2,140c33.3-10.6,140.4-34.7,169.1-19
		C278.7,130,305.9,149.7,326.3,165.1z"/>
</g>
</svg>
