<?xml version="1.0" encoding="utf-8"?>
<!-- Generator: Adobe Illustrator 24.0.3, SVG Export Plug-In . SVG Version: 6.00 Build 0)  -->
<!DOCTYPE svg PUBLIC "-//W3C//DTD SVG 1.1//EN" "http://www.w3.org/Graphics/SVG/1.1/DTD/svg11.dtd" [
	<!ENTITY ns_extend "http://ns.adobe.com/Extensibility/1.0/">
	<!ENTITY ns_ai "http://ns.adobe.com/AdobeIllustrator/10.0/">
	<!ENTITY ns_graphs "http://ns.adobe.com/Graphs/1.0/">
	<!ENTITY ns_vars "http://ns.adobe.com/Variables/1.0/">
	<!ENTITY ns_imrep "http://ns.adobe.com/ImageReplacement/1.0/">
	<!ENTITY ns_sfw "http://ns.adobe.com/SaveForWeb/1.0/">
	<!ENTITY ns_custom "http://ns.adobe.com/GenericCustomNamespace/1.0/">
	<!ENTITY ns_adobe_xpath "http://ns.adobe.com/XPath/1.0/">
]>
<svg version="1.1" id="general_1_" xmlns:x="&ns_extend;" xmlns:i="&ns_ai;" xmlns:graph="&ns_graphs;"
	 xmlns="http://www.w3.org/2000/svg" xmlns:xlink="http://www.w3.org/1999/xlink" x="0px" y="0px" viewBox="0 0 600 600"
	 style="enable-background:new 0 0 600 600;" xml:space="preserve">
<style type="text/css">
	.st0{fill:#02C961;}
	.st1{fill:#3700ED;}
	.st2{fill:#F7B832;}
	.st3{fill:#FF739E;}
</style>
<metadata>
	<sfw  xmlns="&ns_sfw;">
		<slices></slices>
		<sliceSourceBounds  bottomLeftOrigin="true" height="592.3" width="582.3" x="8.8" y="-596.1"></sliceSourceBounds>
	</sfw>
</metadata>
<g id="general">
	<path class="st0" d="M323.9,587.4c-13.1,14.2-169.8,6.4-193.4,8.2c-14.3,1.1-14.2-35.5-12-64.4c60,28.7,140.3,29.4,205.3-1.2
		C328,552.4,331.2,579.5,323.9,587.4z"/>
	<path class="st1" d="M434.2,250.6c-1.6-29.4-5.7-48.4-19.8-62.1c-22.7-22.1-51.8-11.8-144.6-10.5c-36.5,0.5-93.4-0.2-130-1
		c-65.5-1.4-95.4-3.6-112.8,17.2C20.9,201.6,18,210,14.7,242c-5.6,54.2-8.3,81.3-2.9,116.6c4.3,27.9,15,97.1,62.2,142.3
		c12.8,12.2,27.9,22.4,44.6,30.4c60,28.7,140.3,29.4,205.3-1.2c20.6-9.7,39.6-22.5,55.9-38.6C443.9,428.4,439.2,342.6,434.2,250.6z"
		/>
	<path class="st2" d="M575.2,347.7c-11.8,17-30,32.6-131.1,77.1c-12.1,5.3-29.8,12.9-42.4,5c-1.1-0.7-11-7.1-11.1-18.5
		c-0.1-10.7,8.6-17.3,9.7-18c4.3-2,9.3-4.3,14.8-6.6c3-1.2,7.7-3.1,13.4-5.2c8.2-3,14.5-4.9,15.7-5.3c39.6-12.8,66.3-21.4,82.5-46.6
		c9.8-15.2,23.6-44,11-63.5c-14.1-21.9-53-19.6-57.3-19.3c-10.3,0.7-20.2,3.5-20.2,3.5c-10.9,3.1-38.4,13-41.9,10.8
		c-1-0.7-2-1.5-2-1.5s-1.3-1.1-2.4-2.4c-5.9-7-6.8-22.4-6.8-22.4c-0.2-2.8-0.4-7,0.1-9.3c3.5-16,64.3-32.2,117.1-10.9
		c10.7,4.3,53.2,21.5,64.2,60.9c6.1,21.8,0.5,43.2,0,45C586.5,327,583.1,336.3,575.2,347.7z"/>
	<path class="st2" d="M112.6,153.4c0,0-32.8-28.9-15.7-60.3s52.5-51.2,24.9-77.4l10.1-11.8c0,0,9.5,8.2,13.5,25.1
		c3.9,16.9-2.6,40.4-15.7,51.6c-13.1,11.2-31.5,16.4-23.6,30.8s27.5,32.8,27.5,32.8L112.6,153.4z"/>
	<path class="st2" d="M216.2,153.4c-21.6-33.1-21.2-50.5-15.7-60.3c8-14.5,27.4-14.1,34.4-34c4.4-12.4,0.9-24.6,0.5-26
		c-2.5-8.6-7.2-14.4-10-17.4l10.1-11.8c0,0,9.5,8.2,13.5,25.1c3.9,16.9-2.6,40.4-15.7,51.6c-10.4,8.9-24.1,14-25.4,22.9
		c-0.5,3.1,0.7,5.6,1.8,7.9c3.4,7.8,9.4,20.1,19.4,36.4C224.8,149.7,220.5,151.5,216.2,153.4z"/>
	<path class="st2" d="M328.9,149.5c-26.9-30.5-28.8-47-24.7-56.4c5.6-12.9,22.4-13,29.6-32.3c4.4-12,2.5-24.2,2-26.9
		c-1.4-8.2-4.4-14.3-6.7-18.2l10.1-11.8c0,0,9.5,8.2,13.5,25.1c3.2,13.6-0.5,36.9-15.7,51.6c-10.2,9.8-21.2,11.6-22.4,21.3
		c-0.4,3.3,0.5,6.2,2.9,11c3.7,7.5,10.5,18.9,23.5,31.3C336.9,146,332.9,147.7,328.9,149.5z"/>
	<path class="st3" d="M218.2,297.9c0,0-0.4-63.2-77.2-42.1s-19.2,90.2,0,115.2s77.2,80.5,77.2,80.5s80.2-63.9,114.7-102
		s-9.6-126.4-44.2-114.9C254.2,246.2,218.2,297.9,218.2,297.9z"/>
</g>
</svg>
