<?xml version="1.0" encoding="utf-8"?>
<!-- Generator: Adobe Illustrator 24.0.3, SVG Export Plug-In . SVG Version: 6.00 Build 0)  -->
<!DOCTYPE svg PUBLIC "-//W3C//DTD SVG 1.1//EN" "http://www.w3.org/Graphics/SVG/1.1/DTD/svg11.dtd" [
	<!ENTITY ns_extend "http://ns.adobe.com/Extensibility/1.0/">
	<!ENTITY ns_ai "http://ns.adobe.com/AdobeIllustrator/10.0/">
	<!ENTITY ns_graphs "http://ns.adobe.com/Graphs/1.0/">
	<!ENTITY ns_vars "http://ns.adobe.com/Variables/1.0/">
	<!ENTITY ns_imrep "http://ns.adobe.com/ImageReplacement/1.0/">
	<!ENTITY ns_sfw "http://ns.adobe.com/SaveForWeb/1.0/">
	<!ENTITY ns_custom "http://ns.adobe.com/GenericCustomNamespace/1.0/">
	<!ENTITY ns_adobe_xpath "http://ns.adobe.com/XPath/1.0/">
]>
<svg version="1.1" id="general_1_" xmlns:x="&ns_extend;" xmlns:i="&ns_ai;" xmlns:graph="&ns_graphs;"
	 xmlns="http://www.w3.org/2000/svg" xmlns:xlink="http://www.w3.org/1999/xlink" x="0px" y="0px" viewBox="0 0 600 600"
	 style="enable-background:new 0 0 600 600;" xml:space="preserve">
<style type="text/css">
	.st0{fill:#2A1D43;}
	.st1{fill:#02B795;}
	.st2{fill:#FACD37;}
	.st3{fill:#DCB8FD;}
</style>
<metadata>
	<sfw  xmlns="&ns_sfw;">
		<slices></slices>
		<sliceSourceBounds  bottomLeftOrigin="true" height="427.6" width="585.6" x="7.2" y="-490.7"></sliceSourceBounds>
	</sfw>
</metadata>
<g id="general">
	<path class="st0" d="M439.8,303.9c-17.3-38.3-30.5-67.6-51.5-98.4c0,0-32.7-47.8-43.9-84.5c-8.5,9-17.7,34.8-50.8,102.3
		c-15.2,30.9-20.6,47.4-29.4,57.8c-10.1,12-36.4,28.6-65.7,44.9c-3.1-8.1-4.6-13.3-3.5-14c0,0,0.5-0.3,1.6-1c1-0.6,2.7-1.6,5.4-3.3
		c3.5-2.1,4.1-2.6,4.4-3.5c0.8-2.3-1.2-5-3.5-8.1c-1.6-2.1-2.6-3.6-4-4.5c-6.4-4.3-16.1,4.7-33.8,14.7c-0.9,0.5-3.1,1.7-3.4,3.8
		c-0.2,1.3,0.4,2.5,2.5,5.2c3.6,4.5,5.3,6.9,6.9,7.2c4.2,0.8,6.3-5,10.2-4.7c4.9,0.3,8.2,9.8,9.1,12.7
		c-13.1,7.1-26.5,14.1-39.2,20.6c-1.8-4.3-3.7-8.7-5.5-13c-0.9-2-3-7.1-0.8-10.2c2.4-3.3,7.5-1.3,9.7-4.1c2.9-3.7-2.9-11.8-7.3-18.6
		c-4.7-7-34.4,11.7-39.9,14.1c-7.9,3.4,0.1,19.1,5.5,21.1c4.5,1.7,8.4-3.9,14.2-2.3c5.4,1.5,8.1,7.9,9.3,11c1.1,2.7,2.1,5.3,3.1,7.9
		c-16.3,8.2-30.6,15.3-40.2,20.1c-1.5-4-2.4-6.8-2.6-7.8c-0.8-5.9,3.3-6.7,7.5-7.6c4.2-0.8,0.8-10.9-4.2-18.4s-33.5,15.9-37.7,18.4
		c-4.2,2.5,6.7,17.6,9.2,19.3c4.4,3,8.1-8.8,13.4-8.4c3.2,0.2,5.6,3.8,7.5,7.9c-0.6,0.3-1.3,0.7-1.8,1c-26,14.1-39,21.2-41.6,22.3
		c-23.6,10.6-40,14.3-41.6,25.4c-0.8,5.5,2.1,12.1,3,14.2c0,0,3.9,8.9,11.2,14.2c6.8,5,19.7,1.2,37.8-8c-0.1,7.5,1.7,15.3,7,20.4
		c10.7,10.3,32.1,6.1,57.7-4.4c1.2,4.6,2.2,9.4,2.9,14.1c0.3,2.2,1.1,8.4,5.2,10.3c3,1.3,7.3,0.2,9.3-2.4c3.9-4.9-0.8-14.4-3.1-19.3
		c-1-2.2-2.2-4.7-3.5-7.4c11.5-5.2,23.5-11.4,35.6-17.8c1.1,3.3,1.7,5.2,1.7,5.2c2.4,7.5,6.9,21.5,13.4,21.7
		c2.6,0.1,4.5-2.1,4.9-2.5c5.8-6.5-0.1-21.1-4.4-31.1l-0.6-1.4c3.4-1.9,6.8-3.7,10.2-5.6c8.3-4.6,16.5-9,24.2-13.5
		c2.3,6.6,4.6,13.2,6.8,19.8c1.5,4.4,4.9,14.1,10.5,14.6c1.9,0.2,3.4-0.8,3.9-1.1c4.1-3.1-0.8-19.8-8.6-40.6
		c30.1-18.2,51.6-36.1,50.7-56.9c-0.3-7.3-3.5-18.5-10.9-25.2c3.4-1.9,6.8-3.9,10.1-5.9c1.2-0.7,4.5-2.6,9.1-3
		c5.6-0.5,10,1.8,11.9,2.5c12.2,4.4,19,13.5,47,25.9c34.5,15.4,93.2,28,120.1,16.1C460.3,352,450.2,327,439.8,303.9z M84.1,452.7
		c-3.6-3.5-5-8.5-5.2-13.7c8.8-5.1,18.4-10.9,28.8-17.2c4.3,10.1,8.6,20.3,12.2,30.6C104.1,458,91.1,459.4,84.1,452.7z M129.2,448.7
		c-4.3-9.8-9.2-20.9-13.7-31.6c11.8-7.1,24.5-14.8,38-22.6c5.3,14.5,9.6,26.8,12.7,36C153.5,437.4,140.9,443.9,129.2,448.7z
		 M181.9,422.1c-0.6,0.3-1.1,0.6-1.7,0.9c-4.9-11.8-9.6-23.6-14.3-35.5c21.7-12.2,20.3-10.1,34.3-19c0.7-0.5,1.5-0.9,2.2-1.4
		c4.2,12,8.5,23.9,12.7,35.9C205.2,409.2,193.8,415.5,181.9,422.1z M226.9,394.8c-4.5-11.3-9.5-23.1-14.2-34.1
		c9.2-5.5,18.4-10.9,27.8-16.1c5.2,5.1,7.5,13.3,7.7,18.6C248.6,374.6,240.2,384.8,226.9,394.8z"/>
	<path class="st1" d="M477.6,73.9l-27.9-10.7l-8.9,55.5c0,0-20.7-8.4-26.8,5.1c-6.1,13.5,43,36.7,45.3,8.6
		c2.3-28.1,0.9-56.5,0.9-56.5l17.4,18.8L477.6,73.9z"/>
	<path class="st2" d="M528.5,145.7c-7.4,7.6-14.7,15.3-22.1,22.9l-19.6,22.1l40.5,42.4c0,0-27.7,24.1-10.1,28.3
		c17.6,4.2,26.3-10.2,27.5-28.8c1.2-18.6-42-42.6-42-42.6c9.2-9.6,18.5-19.2,27.7-28.8c14.9,7.9,29.7,15.9,44.6,23.8
		c-2,1.9-8,7.9-8.6,17.2c-0.3,5.6,1.1,15.5,7.4,17.9c3.8,1.5,7.8-0.4,8.3-0.6c9.6-4.8,13.8-24.3,7.9-38.7
		c-5.6-13.8-19.1-19.9-33.7-26.6C545.1,149.2,535.1,146.9,528.5,145.7z"/>
	<path class="st3" d="M464.5,286.9C426.8,208,374.2,93.7,353.1,95.1c-5.5,0.4-8.3,3.3-8.3,3.3c-3.3,3.5-4.2,9.9-1.1,20.5
		c0.2,0.7,0.4,1.4,0.6,2.1c11.3,36.7,43.9,84.5,43.9,84.5c21.1,30.8,34.3,60.1,51.5,98.4c10.4,23.1,20.5,48.1,30.7,58.3
		c3.3,3.3,6.7,5.1,10,4.7c0.4,0,2.7-0.3,4.6-1.9C497.2,354.9,475.8,310.6,464.5,286.9z"/>
</g>
</svg>
