<?xml version="1.0" encoding="utf-8"?>
<!-- Generator: Adobe Illustrator 24.0.3, SVG Export Plug-In . SVG Version: 6.00 Build 0)  -->
<!DOCTYPE svg PUBLIC "-//W3C//DTD SVG 1.1//EN" "http://www.w3.org/Graphics/SVG/1.1/DTD/svg11.dtd" [
	<!ENTITY ns_extend "http://ns.adobe.com/Extensibility/1.0/">
	<!ENTITY ns_ai "http://ns.adobe.com/AdobeIllustrator/10.0/">
	<!ENTITY ns_graphs "http://ns.adobe.com/Graphs/1.0/">
	<!ENTITY ns_vars "http://ns.adobe.com/Variables/1.0/">
	<!ENTITY ns_imrep "http://ns.adobe.com/ImageReplacement/1.0/">
	<!ENTITY ns_sfw "http://ns.adobe.com/SaveForWeb/1.0/">
	<!ENTITY ns_custom "http://ns.adobe.com/GenericCustomNamespace/1.0/">
	<!ENTITY ns_adobe_xpath "http://ns.adobe.com/XPath/1.0/">
]>
<svg version="1.1" id="general_1_" xmlns:x="&ns_extend;" xmlns:i="&ns_ai;" xmlns:graph="&ns_graphs;"
	 xmlns="http://www.w3.org/2000/svg" xmlns:xlink="http://www.w3.org/1999/xlink" x="0px" y="0px" viewBox="0 0 600 600"
	 style="enable-background:new 0 0 600 600;" xml:space="preserve">
<style type="text/css">
	.st0{fill:#FFD800;}
	.st1{fill:#8D41E5;}
	.st2{fill:#009D6F;}
</style>
<metadata>
	<sfw  xmlns="&ns_sfw;">
		<slices></slices>
		<sliceSourceBounds  bottomLeftOrigin="true" height="525.1" width="571.5" x="15.6" y="-570.2"></sliceSourceBounds>
	</sfw>
</metadata>
<g id="general">
	<path class="st0" d="M497.7,128.1l-13-17.9C463,135.8,439.2,164.6,426,181c-15.3,18.9-30.2,36.4-39.5,47.1c-1.5-0.4-3-0.8-4.5-1.1
		c-8.9-1.6-14,0.1-69,26c-59,27.7-74.3,35.6-80.7,46.1c-3.6-3.6-7.7-7.1-12.3-10.1c-23-15-46,9-54,29c-1,2.5-1.7,5-2.2,7.4
		c-16.3,5.8-40.2,21.2-79.8,37.6c-9.3,3.8-17.1,6.8-23.8,9.2c16.1-31.3,45-87.6,67.9-132.2l-10.8-15.5
		c-8.2,15.8-17.5,34.3-28.4,55.5c-21.8,42.6-40.3,78-53.5,102.9c-4.9,3.1-8.5,6.7-11.5,12.1c-9.2,16.5-4.9,34.6,0,54
		c8.2,32.6,21.7,86.3,71,105c27.6,10.5,62.2,8.2,90-10c31-20.2,42.3-52.9,45-74c2.7-21.4-3.5-41.2-16-81c-0.9-2.8-6.2-19.4-16-40
		c-6.6-13.9-10-20.9-13-23c-1.8-1.2-3.6-2.1-5.6-2.5c0.1-0.9,0.3-1.7,0.6-2.5c4-11,25-12,37-6c2.4,1.2,4.3,3.1,5.9,5.3
		c0.3-1.1,0.7-2.2,1.1-3.3c1.1-2.9,2.4-5.4,4.5-7.9c-2.3,10.2-0.2,20.5,4.6,33c2.8,7.4,6.6,15.5,10.9,24.9c15.2,33,38.4,83.2,91,99
		c10.1,3,43.4,12.5,78-5c4.6-2.3,37.2-19.4,49-57c9.2-29.2,0.3-53.2-11-84c-9.5-26-22.3-60.7-43.4-79.7
		c17.4-22.1,50.2-63.5,69.4-86.3C483.6,146.2,490.6,137.3,497.7,128.1z M183.8,372.8c7.9,16.6,12.1,29.9,12.9,32.2
		c10,31.9,15.1,47.9,12.9,65.1c-2.2,17-11.3,43.2-36.2,59.5c-22.3,14.6-50.1,16.4-72.3,8c-39.6-15-50.5-58.1-57.1-84.4
		c-3.9-15.6-7.4-30.2,0-43.4c7-12.7,18-13.2,48.2-25.7c41.3-17,61.2-32.8,74.3-32.1c2.5,0.1,4.8,0.9,6.9,2.4
		c1.2,0.8,2.5,2.6,4.1,5.6C179.1,363,181.1,367.2,183.8,372.8z M430.1,325.7c9.1,24.8,16.2,44.1,8.8,67.5
		c-9.5,30.2-35.7,43.9-39.4,45.8c-27.8,14.1-54.6,6.5-62.7,4c-42.3-12.7-60.9-53.1-73.1-79.5c-6.1-13.1-10.8-23.3-12.5-32.4
		c-0.4-2.2-0.7-4.4-0.7-6.5c-0.1-4,0.5-7.8,2-11.7c4.1-10.8,12.2-15.4,66.7-41c44.2-20.8,48.3-22.2,55.4-20.9
		C404.7,256.5,419.7,297.5,430.1,325.7z"/>
	<path class="st1" d="M211,399c-0.9-2.8-6.2-19.4-16-40c-6.6-13.9-10-20.9-13-23c-0.8-0.6-1.6-1-2.5-1.4c-4.6-2.2-9.9-1.9-16.4,0.1
		c-16.3,5.1-40.5,21.2-82.1,38.3c-37.7,15.5-51.2,16.2-60,32c-9.2,16.5-4.9,34.6,0,54c8.2,32.6,21.7,86.3,71,105
		c27.6,10.5,62.2,8.2,90-10c31-20.2,42.3-52.9,45-74C229.7,458.6,223.5,438.8,211,399z M206.5,480.1c-2.2,17-11.3,43.2-36.2,59.5
		c-22.3,14.6-50.1,16.4-72.3,8c-39.6-15-50.5-58.1-57.1-84.4c-3.9-15.6-7.4-30.2,0-43.4c7-12.7,18-13.2,48.2-25.7
		c49.2-20.3,68.2-38.8,81.2-29.7c2.5,1.7,5.1,7.3,10.5,18.5c7.9,16.6,12.1,29.9,12.9,32.2C203.7,446.9,208.7,462.9,206.5,480.1z"/>
	<path class="st1" d="M445,333c-12.9-35.1-31.7-86.1-69-93c-8.9-1.6-14,0.1-69,26c-41,19.3-60.9,29-71.4,36.6
		c-6.8,5-9.6,9.1-11.6,14.4c-0.4,1.1-0.8,2.2-1.1,3.3c-4.7,16.9,3,33.6,15.1,59.7c15.2,33,38.4,83.2,91,99c10.1,3,43.4,12.5,78-5
		c4.6-2.3,37.2-19.4,49-57C465.2,387.8,456.3,363.8,445,333z M432.9,406.2c-9.5,30.2-35.7,43.9-39.4,45.8
		c-27.8,14.1-54.6,6.5-62.7,4c-42.3-12.7-60.9-53.1-73.1-79.5c-8.1-17.6-13.8-29.9-13.2-41.4c0.1-3.1,0.8-6.2,1.9-9.3
		c0.6-1.6,1.3-3.1,2.3-4.6c5.3-8.1,18.2-14.7,64.4-36.4c44.2-20.8,48.3-22.2,55.4-20.9c30,5.5,45.1,46.5,55.4,74.7
		C433.2,363.5,440.3,382.8,432.9,406.2z"/>
	<path class="st2" d="M187,198c-10,8-21-32-25-24c-1.4,2.8-15.8,30.8-33.8,66l-10.8-15.5c25.7-49.7,39.7-73,51.6-70.5
		C182.4,156.8,194.3,192.2,187,198z"/>
	<path class="st2" d="M573,110c-9-10-1-60-18-49c-12.8,8.3-35.4,38.9-57.3,67.1l-13-17.9C504.1,87.3,521.9,67.1,529,61
		c15-13,38-25,52-6S582,120,573,110z"/>
</g>
</svg>
