<?xml version="1.0" encoding="utf-8"?>
<!-- Generator: Adobe Illustrator 24.0.3, SVG Export Plug-In . SVG Version: 6.00 Build 0)  -->
<!DOCTYPE svg PUBLIC "-//W3C//DTD SVG 1.1//EN" "http://www.w3.org/Graphics/SVG/1.1/DTD/svg11.dtd" [
	<!ENTITY ns_extend "http://ns.adobe.com/Extensibility/1.0/">
	<!ENTITY ns_ai "http://ns.adobe.com/AdobeIllustrator/10.0/">
	<!ENTITY ns_graphs "http://ns.adobe.com/Graphs/1.0/">
	<!ENTITY ns_vars "http://ns.adobe.com/Variables/1.0/">
	<!ENTITY ns_imrep "http://ns.adobe.com/ImageReplacement/1.0/">
	<!ENTITY ns_sfw "http://ns.adobe.com/SaveForWeb/1.0/">
	<!ENTITY ns_custom "http://ns.adobe.com/GenericCustomNamespace/1.0/">
	<!ENTITY ns_adobe_xpath "http://ns.adobe.com/XPath/1.0/">
]>
<svg version="1.1" id="general_1_" xmlns:x="&ns_extend;" xmlns:i="&ns_ai;" xmlns:graph="&ns_graphs;"
	 xmlns="http://www.w3.org/2000/svg" xmlns:xlink="http://www.w3.org/1999/xlink" x="0px" y="0px" viewBox="0 0 600 600"
	 style="enable-background:new 0 0 600 600;" xml:space="preserve">
<style type="text/css">
	.st0{fill:#007B66;}
	.st1{fill:#DB0032;}
	.st2{fill:#F9F3EF;}
	.st3{fill:#003163;}
</style>
<metadata>
	<sfw  xmlns="&ns_sfw;">
		<slices></slices>
		<sliceSourceBounds  bottomLeftOrigin="true" height="443.7" width="572.5" x="12.5" y="-555.2"></sliceSourceBounds>
	</sfw>
</metadata>
<g id="general">
	<path class="st0" d="M119.9,469.6c24.3,11.9,58.4,29.2,102.6,54.1c0,0-206.2-53.2-209.8-74.2c-2.3-13.8,14.7-30.9,26.8-41
		c2.9,4,6.7,8,11.5,12.7C81.8,451.1,114,466.7,119.9,469.6z"/>
	<path class="st0" d="M572.1,357.3c-28.2,102.8-42.3,154.2-84.7,179.7c-34.1,20.4-68.9,19.2-121,17.3
		c-62.4-2.3-112.2-17.9-143.8-30.6c33.2,3,72.7,5.8,117.5,7.5c54.8,2,91.8,1.4,130-19.9c1.4-0.8,2.6-1.4,4.2-2.4
		c31.9-20.3,45.2-65.4,71.8-155.7c20.3-68.9,21.5-97.3,18.4-110.2c2.9,1.3,5.3,2.8,7.7,4.9C590.7,264.2,587.7,300.1,572.1,357.3z"/>
	<path class="st1" d="M219,521.3c1.2,0.8,2.3,1.6,3.4,2.3c-44.2-24.9-78.2-42.2-102.6-54.1c-5.8-2.8-38-18.5-69-48.5
		c-4.8-4.7-8.6-8.7-11.5-12.7c-2.9-4-4.9-7.9-6.3-12.5c-4.7-15.6,0.5-31.4,7.1-44.1c7.8,22.5,32,45.6,74.5,85.5
		C155.6,475.6,192.8,503.3,219,521.3z"/>
	<path class="st1" d="M546,353c-26.6,90.3-39.9,135.4-71.8,155.7c-1.6,1-2.8,1.7-4.2,2.4c-38.3,21.3-75.2,22-130,19.9
		c-44.8-1.7-84.2-4.5-117.5-7.5c4.9-0.5,9.7-1,14.5-1.5c68.7-7.1,125.7-13.8,168.7-18.8c10.8-1.2,31.3-3.6,50.5-18
		c22.4-16.8,30.7-40.9,34.7-53c45.1-137.2,55.7-186.7,55.3-206.3c5.3,1.1,9.3,3.2,12.8,6.7c1.8,1.8,4,4.4,5.4,10.1
		C567.5,255.7,566.3,284.1,546,353z"/>
	<path class="st2" d="M546.2,226.1c-0.1-9-2.6-11.6-5-13.6c-9.3-7.3-18.5-3.7-99.3,13c-20,4.1-38.1,7.7-53.9,10.8
		c-9.5,1.9-18.1,3.5-25.8,5c-0.4,0.1-0.8,0.2-1.2,0.2c-4.6,0.9-8.9,1.7-12.7,2.4c-0.7-1.2-1.4-2.4-2.1-3.6
		c-36.5-60.7-56.9-86.6-56.9-86.6c-20.7-26.3-31.3-39.5-43.3-41.7c-24.7-4.7-47.2,20-87.6,65.7C43.1,308,35.5,320.5,37.8,341.1
		c0.4,3.6,1.2,7.2,2.5,10.7c7.8,22.5,32,45.6,74.5,85.5c40.8,38.3,78,66,104.2,84.1c1.2,0.8,2.3,1.6,3.4,2.3c4.9-0.5,9.7-1,14.5-1.5
		c68.7-7.1,125.7-13.8,168.7-18.8c10.8-1.2,31.3-3.6,50.5-18c22.4-16.8,30.7-40.9,34.7-53C536,295.2,546.5,245.7,546.2,226.1z"/>
	<path class="st3" d="M361,241.5c-20.8,38.7-41.6,77.4-62.3,116.2c0,0-33.8,95.7-41.5,113.3c-4.7,10.7-13.8,34.3-20.2,51.2
		c-4.8,0.5-9.6,1-14.5,1.5c-1.1-0.8-2.2-1.5-3.4-2.3c7.2-12.5,17.7-31.5,28.2-52.6c26.4-52.9,32.6-84.2,51.2-130.9
		c9.5-23.7,24.5-57.7,47.7-97.5c0.7,1.2,1.4,2.4,2.1,3.6C352.2,243.2,356.4,242.4,361,241.5z"/>
	<path class="st0" d="M219,150.6c0,0,3.3,17.3,22.9,33s69.6,75.6,69.6,75.6l9.8-18.8l-89.2-105.9L219,150.6z"/>
	<path class="st0" d="M198.4,172.6c0,0,47.1,54.6,64.6,67.8c17.5,13.2,40.5,36.2,40.5,36.2l-6.6,7.7c0,0-54.8-37.2-64.6-50.4
		c-9.9-13.1-43.8-50.4-43.8-50.4L198.4,172.6z"/>
	<path class="st0" d="M170.9,202.9c0,0,60,74.4,75.2,81.4c15.2,7,35.6,33.3,35.6,33.3l-5.8,12.6c0,0-26-25.3-56.7-56.4
		s-57.9-64.9-57.9-64.9L170.9,202.9z"/>
	<path class="st0" d="M141.4,242.9c0,0,49.1,57.3,65.5,65.5s57.3,43.4,57.3,43.4l-7.4,19.6L131.5,255.2L141.4,242.9z"/>
	<path class="st0" d="M102.9,277.3c0,0,24.6,22.9,40.9,35.2c29.9,22.4,42.8,31.6,62.2,50.7c2.8,2.7,9.6,9.6,19.6,18.8
		c9,8.3,16.6,14.8,21.6,19c-3.1,7.9-6.2,15.7-9.3,23.6c-23.9-17.6-48.9-37.5-74.5-59.7c-27-23.4-51.2-46.6-72.8-68.8
		C94.7,289.8,98.8,283.5,102.9,277.3z"/>
	<path class="st0" d="M336.1,342.1c0,0-20,56-26.6,69.9c-6.7,14-19.5,54-19.5,54s63.4-18.7,80.7-17.4c17.3,1.3,81.3-10.9,81.3-10.9
		l12-47.7l17.3-48H336.1z M446.5,390.5l-9.3,37c0,0-49.7,9.5-63.1,8.5c-13.4-1-62.7,13.5-62.7,13.5s9.9-31.1,15.1-41.9
		c5.2-10.9,20.7-54.3,20.7-54.3H460L446.5,390.5z"/>
	<path class="st0" d="M346.6,307.1c0,0,63.5,0.9,80.5,0c17-0.9,80.5-3.5,80.5-3.5l5.7-19.3c0,0-36.1-2.7-53.2,0
		c-17.1,2.7-105.5,6.4-105.5,6.4L346.6,307.1z"/>
	<path class="st0" d="M364.2,266.6c0,0,40.1-2.3,52-5c11.9-2.7,105.6-4.9,105.6-4.9l2.7-10.3c0,0-6,3.8-18.4,3.8s-43.3-0.5-53.6-0.5
		c-10.3,0-88.3,9.5-88.3,9.5V266.6z"/>
	<path class="st3" d="M156.6,393.4c2.5,9.4-8,20.6-18.6,21.3c-4.7,0.3-11-1.4-15-6.7c-0.4-0.5-5.2-7.1-2.7-14.7
		c2.7-7.9,11.5-10.8,17.3-11C145.1,382.2,154.6,386,156.6,393.4z"/>
	<path class="st3" d="M372.1,480c-0.7,7.4-7.8,12.8-14.9,13.5c-6.9,0.6-15.5-3.2-17.1-10.5c-1.3-5.8,2.3-11.6,6.3-14.3
		c2.8-1.9,5.7-2.2,8.6-2.6c3.9-0.4,7.9-0.9,11.4,1.4C370.6,470.1,372.6,475.4,372.1,480z"/>
</g>
</svg>
