<?xml version="1.0" encoding="utf-8"?>
<!-- Generator: Adobe Illustrator 24.0.3, SVG Export Plug-In . SVG Version: 6.00 Build 0)  -->
<!DOCTYPE svg PUBLIC "-//W3C//DTD SVG 1.1//EN" "http://www.w3.org/Graphics/SVG/1.1/DTD/svg11.dtd" [
	<!ENTITY ns_extend "http://ns.adobe.com/Extensibility/1.0/">
	<!ENTITY ns_ai "http://ns.adobe.com/AdobeIllustrator/10.0/">
	<!ENTITY ns_graphs "http://ns.adobe.com/Graphs/1.0/">
	<!ENTITY ns_vars "http://ns.adobe.com/Variables/1.0/">
	<!ENTITY ns_imrep "http://ns.adobe.com/ImageReplacement/1.0/">
	<!ENTITY ns_sfw "http://ns.adobe.com/SaveForWeb/1.0/">
	<!ENTITY ns_custom "http://ns.adobe.com/GenericCustomNamespace/1.0/">
	<!ENTITY ns_adobe_xpath "http://ns.adobe.com/XPath/1.0/">
]>
<svg version="1.1" id="general_1_" xmlns:x="&ns_extend;" xmlns:i="&ns_ai;" xmlns:graph="&ns_graphs;"
	 xmlns="http://www.w3.org/2000/svg" xmlns:xlink="http://www.w3.org/1999/xlink" x="0px" y="0px" viewBox="0 0 600 600"
	 style="enable-background:new 0 0 600 600;" xml:space="preserve">
<style type="text/css">
	.st0{fill:#FF8FF0;}
	.st1{fill:#00FF9D;}
	.st2{fill:#BB54F7;}
</style>
<metadata>
	<sfw  xmlns="&ns_sfw;">
		<slices></slices>
		<sliceSourceBounds  bottomLeftOrigin="true" height="587.7" width="451.1" x="77.6" y="-593.9"></sliceSourceBounds>
	</sfw>
</metadata>
<g id="general">
	<path class="st0" d="M527.1,394.5c-2.1,39.7-3.1,59.5-7.4,70.2c-4.7,11.6-11.2,19.4-25.3,29.6c-6.8,5-15.5,10.5-26.6,17.3
		c-3.7,2.3-7.7,4.7-12,7.3c-5.6,3.4-11.7,7.1-18.4,11.2c-3.2,2-6.1,3.7-9,5.5c-12,7.4-22.8,14-48.5,29.8
		c-5.2,3.2-14.3,8.8-26.6,15.7c-4.9,2.8-9.3,5.2-10.4,5.7c-30.8,16.3-102.3-0.7-111-2.8c-8.1-1.9-16-4-23.5-6.1
		c-4.6-1.3-9.1-2.6-13.5-3.8c-2.8-0.8-4.7-1.4-10.2-3.1c-4.1-1.2-10.2-3.1-20.1-6.1c-7.3-2.2-16.7-5.1-28.9-8.8
		c-44.1-13.3-44.4-13.3-46.3-14.7c-23.7-17-4.7-100.5-4-183c0.2-20.2-0.8-35.9-2-48.7c-0.7-7.3-1.3-13.6-1.9-19.3
		c-1.9-20-2-32,8-48.5c4.8-7.9,22.7-23.2,57.7-52.3c3.7-3,7.5-6.2,11.5-9.6c6-5,11.8-9.8,17.7-14.3c11.9-9.3,24-18,38.8-27
		c18.1-11,27.2-16.5,34.6-18.6c29.3-8.4,46.7,6.4,106.1,23.3c0.9,0.3,1.8,0.5,2.8,0.8c10.4,2.9,20.1,5.6,30.2,8.2
		c12,3.1,24.6,5.9,39.5,8.5c0,0,66.9,11.8,86.4,32.9c2.2,2.4,3.9,5.1,3.9,5.1c1.4,2.2,2.6,5,3.6,8.3c1.6,5.1,2.7,11.6,3.6,19.5
		c0.3,2.6,0.5,5.3,0.8,8.1c1.8,23.1,2,56.6,2.1,103.4C528.7,340.8,528.8,363.8,527.1,394.5z"/>
	<path class="st1" d="M526.6,235c-47.4,38.3-131.7,87.5-174,97.3c-61.1,14.2-183.3-29.5-225.9-37.2c-18.5-3.4-33-3.6-45.1-4.5
		c-1.9-20-2-32,8-48.5c4.8-7.9,22.7-23.2,57.7-52.3c3.7-3,7.5-6.2,11.5-9.6c6-5,11.8-9.8,17.7-14.3c11.9-9.3,24-18,38.8-27
		c18.1-11,27.2-16.5,34.6-18.6c29.3-8.4,46.7,6.4,106.1,23.3c0.9,0.3,1.8,0.5,2.8,0.8c10.4,2.9,20.1,5.6,30.2,8.2
		c12,3.1,24.6,5.9,39.5,8.5c0,0,66.9,11.8,86.4,32.9c2.2,2.4,3.9,5.1,3.9,5.1c1.4,2.2,2.6,5,3.6,8.3c1.6,5.1,2.7,11.6,3.6,19.5
		C526.1,229.4,526.3,232.1,526.6,235z"/>
	<path class="st2" d="M472.5,322.9c-2.5-33.5-5-112.8-27.3-117.7c-7.3-1.6-42.1-6.9-85.9-13.3c29.7-25.4,75-64.2,90.2-78.5
		c23.3-21.9,38.1-83.7-15.1-104.1c-53.1-20.4-98.1,63.7-111.5,111.7c-5,17.7-8,33.2-9.9,45.8c-2.4,1.3-4.7,2.6-7.1,3.9
		C291.2,133.4,255.6,50.8,223.6,33c-41.5-23.2-91.6,24.4-72,63.5c13.1,26.2,73.6,61.4,111.9,81.6c-33-4.7-64.2-9.1-87-12.3
		c-5.9,4.6-11.7,9.3-17.7,14.3c-4,3.4-7.8,6.5-11.5,9.6c22.2,4.4,58.1,11.5,93.1,18.5c-28.4,17.2-50.8,32.4-55.7,40.3
		c-15.1,24.8-5.9,172.2-9.6,210.6c-2.2,22.5-6.9,70.2-10.5,105.8c9.9,3,16,4.9,20.1,6.1c5.5,1.7,7.4,2.3,10.2,3.1
		c4.4,1.2,8.9,2.5,13.5,3.8c4.7-55,12.1-149.1,11.3-178.3c-1.2-42.1,1.2-115.2,11.1-138.8c3.2-7.6,25.6-24.5,54.4-43.7c0,0,0,0,0,0
		c22.7,4.5,41.5,8.3,50.9,10.3c35.9,7.4,86.7,3.7,91.7,39.7c3.9,28.1,1.7,196.5,0.5,268.5c2.9-1.8,5.8-3.5,9-5.5
		c6.7-4.1,12.8-7.8,18.4-11.2c4.3-2.6,8.3-5.1,12-7.3C470.2,454.1,474.3,347.1,472.5,322.9z M386.5,41.9
		c20.3-17.7,60.3-17.2,64.3,2.4c2.8,14-53.1,70.7-85.4,101.9c-2.2-0.6-4.5-1.3-6.8-1.9c-0.9-0.3-1.9-0.5-2.8-0.8
		c-5.6,3-11.7,6.2-18.1,9.7C345.3,129.8,369.5,56.8,386.5,41.9z M193.1,88.1c-10.9-13.9-14.5-40,11.5-35.7
		c26,4.2,77.5,106.6,77.5,106.6l-2.4,6C279.7,165,204,102,193.1,88.1z"/>
</g>
</svg>
