<?xml version="1.0" encoding="utf-8"?>
<!-- Generator: Adobe Illustrator 24.0.3, SVG Export Plug-In . SVG Version: 6.00 Build 0)  -->
<!DOCTYPE svg PUBLIC "-//W3C//DTD SVG 1.1//EN" "http://www.w3.org/Graphics/SVG/1.1/DTD/svg11.dtd" [
	<!ENTITY ns_extend "http://ns.adobe.com/Extensibility/1.0/">
	<!ENTITY ns_ai "http://ns.adobe.com/AdobeIllustrator/10.0/">
	<!ENTITY ns_graphs "http://ns.adobe.com/Graphs/1.0/">
	<!ENTITY ns_vars "http://ns.adobe.com/Variables/1.0/">
	<!ENTITY ns_imrep "http://ns.adobe.com/ImageReplacement/1.0/">
	<!ENTITY ns_sfw "http://ns.adobe.com/SaveForWeb/1.0/">
	<!ENTITY ns_custom "http://ns.adobe.com/GenericCustomNamespace/1.0/">
	<!ENTITY ns_adobe_xpath "http://ns.adobe.com/XPath/1.0/">
]>
<svg version="1.1" id="general_1_" xmlns:x="&ns_extend;" xmlns:i="&ns_ai;" xmlns:graph="&ns_graphs;"
	 xmlns="http://www.w3.org/2000/svg" xmlns:xlink="http://www.w3.org/1999/xlink" x="0px" y="0px" viewBox="0 0 600 600"
	 style="enable-background:new 0 0 600 600;" xml:space="preserve">
<style type="text/css">
	.st0{fill:#FF739E;}
	.st1{fill:#3700ED;}
	.st2{fill:#02C961;}
</style>
<metadata>
	<sfw  xmlns="&ns_sfw;">
		<slices></slices>
		<sliceSourceBounds  bottomLeftOrigin="true" height="581.7" width="455" x="72.5" y="-590.9"></sliceSourceBounds>
	</sfw>
</metadata>
<g id="general">
	<path class="st0" d="M325.6,498c25.6-4.5,52.3-13.6,79-29.2c89.8-52.8,123-145.7,123-198.6c0-66.2,0-85.1-47.3-160.8
		c-13.6-21.8-39.2-54.9-84-80.4c-15.9-9.1-30.9-15.1-43.5-19.1c-7-2.3-14.5,1.7-16.5,8.8l-0.1,0.5c-1.7,6.1,1.2,12.5,6.7,15.2
		c-1.8,3.8-4.1,8.7-6.8,14.4c5,1.6,8.9,3,11.6,3.9c3.4,1.2,7.7,2.8,12.5,4.7c1.5-5.3,2.9-10.6,4.4-15.9
		c19.4,7.3,42.9,19.3,65.8,39.3c10.4,9.1,41.4,38,59.3,85.4c25,66.4,17.4,151.3-32.3,215.8c-45.6,59.1-108.6,77.7-143.8,83.9
		c-10.3,1.8-18.2,2.6-22.6,3c-7.6,0.7-15,1.1-22.2,1.2c-23.5,0.2-44.4-3-61.8-7.3c3.8-7.9,7.6-15.8,11.4-23.8
		c-9.7-2.5-18.7-5.8-26.9-9.5c-4.2,9.3-8.2,17.7-11.8,25.2c-6.7-1.4-13.5,2.7-15.2,9.6l-0.1,0.5c-1.5,6.2,1.6,12.6,7.5,15.1
		c17.2,7.3,54.2,20.4,100.1,22.1c2.1,27.6,2.2,56.1-6,58c-16.2,3.7-68.1-9.8-81,12.3c-2.5,4.3-3.1,7.6-2,10.1
		c4.8,11.9,38.6,9,75,7.1c99.2-5,147.3,2.9,151.6-13.6c1.1-4.4-1.4-8.5-2-9.4c-12.2-19.7-67.2,6.4-81.6-13.3
		c-3.3-4.5-2.2-8.3-1.3-26.4C325.3,516,325.5,506.5,325.6,498z"/>
	<path class="st1" d="M480.1,252c-5.6,66.1-43.4,107.9-56.7,122.2c-48.4,52-106.9,63.3-123,66.2c-15.8,2.8-42.4,7.3-75.7,0
		c-2.1-0.5-4.3-1-6.3-1.5c-9.7-2.5-18.7-5.8-26.9-9.5c-37.8-17-61-43.7-70.8-55.2c-4.8-5.6-9-11.2-12.8-16.7
		c38-33.1-4.6-43.7-5.8-71.9c-1.3-29.6,7.5-66.7,17.7-103c5.4-19.3-5.3-36.2-16.6-47.9c8.6-14.4,19.1-28.2,31.5-40.7
		c30.8,14.8,69.1,22.3,105.4-0.5c25.7-16.1,37.4-35.8,41.5-55.1c7.9,0.5,15.4,1.3,22.3,2.4c13.1,2.1,24.1,5.1,32.3,7.7
		c1.4,0.4,2.6,0.8,3.8,1.2c-0.2,5.5-1.3,11.8-4.4,18c-7.6,15.7-20.9,17.6-20.5,25.7c0.6,12.2,31.1,20,46,23.2
		c11.1,2.4,22.7,1.9,39-0.4c16.4-2.3,25.9-6.6,31.5-10.6c3.7,4,7.3,8.4,10.9,13c6.2,8.1,11.4,16.4,15.8,24.6
		c-16.7,8-34.9,13.4-51.5,11.5c-49.2-5.6-61.5-18.2-73.8,0.4c-12.3,18.6-0.9,16.5,12.9,37c13.7,20.5,94.5,56.9,23.4,43.8
		c-71.1-13.1-66-38.4-103.4-21.7c-37.4,16.8-43.5-10.3-55.8,21.7c-12.1,31.5,20.3,81.6,38.9,79.3c5.9-0.7,9-6.3,21.1-7.9
		c9.3-1.2,13.3,1.4,14.5,2.2c1,0.7,3.8,2.9,6.1,9.5c3.1,8.9,2.2,16.8,1.7,20.8c-3.5,28.7-6.5,29.9-4.3,35.6
		c4.3,11.3,21.2,19,34.7,16.5c14.8-2.7,14.3-15.7,32.1-25.1c22.5-12,38.2,1,47.7-9.5c11.8-13.2-11.5-34.4,0.1-61.3
		c9-20.9,34.2-32.3,42.1-35.5c5.4-2.2,10.2-2.5,17.4-4.5C465.7,255.1,472.2,253.7,480.1,252z"/>
	<path class="st2" d="M281.6,38.5c-4.1,19.3-15.8,39-41.5,55.1c-36.3,22.8-74.6,15.3-105.4,0.5c16.9-16.9,37.4-31.4,61.7-41.5
		C227.1,39.8,256.6,37.1,281.6,38.5z"/>
	<path class="st2" d="M431.5,105.8c-5.5,4-15.1,8.2-31.5,10.6c-16.3,2.3-27.9,2.8-39,0.4c-14.9-3.2-45.4-11-46-23.2
		c-0.4-8.1,12.9-10,20.5-25.7c3-6.2,4.2-12.5,4.4-18c3.2,1.1,5.8,2,7.8,2.7c3.4,1.2,7.7,2.8,12.5,4.7
		C379,64.9,406.8,78.8,431.5,105.8z"/>
	<path class="st2" d="M480.2,251.2c0,0,0,0.2,0,0.4c0,0.1,0,0.3,0,0.4c-8,1.7-14.5,3.1-18.2,4.1c-7.2,1.9-11.9,2.3-17.4,4.5
		c-7.9,3.1-33.1,14.5-42.1,35.5c-11.6,26.9,11.7,48.1-0.1,61.3c-9.5,10.6-25.2-2.4-47.7,9.5c-17.8,9.4-17.3,22.4-32.1,25.1
		c-13.4,2.5-30.4-5.2-34.7-16.5c-2.1-5.6,0.9-6.9,4.3-35.6c0.5-4,1.3-11.9-1.7-20.8c-2.3-6.6-5-8.8-6.1-9.5
		c-1.2-0.9-5.2-3.4-14.5-2.2c-12,1.6-15.2,7.2-21.1,7.9c-18.7,2.3-51-47.8-38.9-79.3c12.3-32,18.4-4.9,55.8-21.7
		c37.4-16.7,32.3,8.6,103.4,21.7c71.1,13.1-9.7-23.3-23.4-43.8c-13.7-20.5-25.2-18.4-12.9-37c12.3-18.6,24.6-6,73.8-0.4
		c16.6,1.9,34.8-3.5,51.5-11.5C483.5,190.8,481.4,236.9,480.2,251.2z"/>
	<path class="st2" d="M108,357.5c-15-21.8-22.2-41.2-25-49.5c-2.2-6.5-13.9-42.1-9.5-85.1c2.9-28,12.6-59.3,29.8-88.1
		c11.3,11.6,22,28.6,16.6,47.9c-10.2,36.3-19,73.4-17.7,103C103.4,313.8,145.9,324.4,108,357.5z"/>
	<path class="st2" d="M375.6,374.7c-2.3-0.3-9.5-0.6-23.4,10.8c-7.6,6.2-19.9,18.1-17.7,21.6c0.9,1.4,3.9,1.5,9.6-0.1
		c18.5-5.2,22.2-14.5,31.5-18.5c8.6-3.8,9.1-7.5,8.8-9.2C383.8,376.5,378.8,375.1,375.6,374.7z"/>
</g>
</svg>
