<?xml version="1.0" encoding="utf-8"?>
<!-- Generator: Adobe Illustrator 24.0.3, SVG Export Plug-In . SVG Version: 6.00 Build 0)  -->
<!DOCTYPE svg PUBLIC "-//W3C//DTD SVG 1.1//EN" "http://www.w3.org/Graphics/SVG/1.1/DTD/svg11.dtd" [
	<!ENTITY ns_extend "http://ns.adobe.com/Extensibility/1.0/">
	<!ENTITY ns_ai "http://ns.adobe.com/AdobeIllustrator/10.0/">
	<!ENTITY ns_graphs "http://ns.adobe.com/Graphs/1.0/">
	<!ENTITY ns_vars "http://ns.adobe.com/Variables/1.0/">
	<!ENTITY ns_imrep "http://ns.adobe.com/ImageReplacement/1.0/">
	<!ENTITY ns_sfw "http://ns.adobe.com/SaveForWeb/1.0/">
	<!ENTITY ns_custom "http://ns.adobe.com/GenericCustomNamespace/1.0/">
	<!ENTITY ns_adobe_xpath "http://ns.adobe.com/XPath/1.0/">
]>
<svg version="1.1" id="general_1_" xmlns:x="&ns_extend;" xmlns:i="&ns_ai;" xmlns:graph="&ns_graphs;"
	 xmlns="http://www.w3.org/2000/svg" xmlns:xlink="http://www.w3.org/1999/xlink" x="0px" y="0px" viewBox="0 0 600 600"
	 style="enable-background:new 0 0 600 600;" xml:space="preserve">
<style type="text/css">
	.st0{fill:#02B795;}
	.st1{fill:#2E1544;}
	.st2{fill:#FFD110;}
	.st3{fill:#DCB8FD;}
</style>
<metadata>
	<sfw  xmlns="&ns_sfw;">
		<slices></slices>
		<sliceSourceBounds  bottomLeftOrigin="true" height="460.7" width="585" x="6.9" y="-560.5"></sliceSourceBounds>
	</sfw>
</metadata>
<g id="general">
	<path class="st0" d="M575.8,506.9c-31.2,28.7-44.2,2.4-244.9,25.4c-1.6,0.2-3.3,0.4-5,0.6c-6.1,0.7-12.1,1.4-18.2,2
		c-51.9,5.2-104.3,7-155.8,15c-60.7,9.5-85.7,17.2-108.3,2c-27.8-18.7-27.5-56-30.4-145c-6.5-204-15-234.8,14.2-260
		c2.5-2.1,4.9-3.9,8.2-5.5c-26,24.9-17.8,60.1-11.5,257.6c2.8,89,2.6,126.3,30.4,145c22.5,15.2,47.6,7.5,108.3-2
		c51.5-8,103.9-9.9,155.8-15v-63c0-43-8.1-125-15.2-228c-3.7-54.2-5.8-93.1-6.9-117.9c1.2-0.1,2.4-0.1,3.5-0.2
		c40.2-2.2,61.3-3,61.3-3c49.6-4,195.3-14,201.3,0S591,492.9,575.8,506.9z"/>
	<path class="st1" d="M303.4,236c-3.7-54.2-5.8-93.1-6.9-117.9c-0.1-2.6-0.2-5-0.3-7.3c-32.4,1.9-74.7,4.5-126.4,8.2
		c-110.8,7.8-120.2,10.3-131.5,20c-0.9,0.8-1.8,1.6-2.7,2.4c0,0,0,0,0,0c-26,24.9-17.8,60.1-11.5,257.6c2.8,89,2.6,126.3,30.4,145
		c22.5,15.2,47.6,7.5,108.3-2c51.5-8,103.9-9.9,155.8-15v-63C318.6,421,310.5,339,303.4,236z"/>
	<path class="st1" d="M586.7,499c-31.2,28.7-44.2,2.4-244.9,25.4c-3.2-54.3-9.5-154.8-13.1-186.4c-4.1-35.3-14-174.6-17.8-228
		c40.2-2.2,61.3-3,61.3-3c49.6-4,195.3-14,201.3,0S601.9,485,586.7,499z"/>
	<path class="st2" d="M341.8,524.4c-1.6,0.2-3.3,0.4-5,0.6c-6.1,0.7-12.1,1.4-18.2,2v-63c0-43-8.1-125-15.2-228
		c-4.1-59.8-6.2-101.1-7.2-125.2c5.2-0.3,10.1-0.6,14.7-0.8c3.8,53.4,13.7,192.6,17.8,228C332.4,369.6,338.6,470.1,341.8,524.4z"/>
	<path class="st2" d="M569.2,314.1c-2.8-36.9-5.3-40.5-7.4-42.9c-11.8-13.2-43.1-10.5-105.6-5.2c-15.6,1.3-28.4,2.8-53.5,5.7
		c-20.5,2.4-30.8,3.6-32.5,4.5c-27.1,14.5-9.8,63.2-9.7,167.5c0,8.5-0.1,27.2,12.3,37.2c11,8.8,26.4,6.5,32.8,5.7
		c90.3-12.4,143.1,9.8,163.5-22.7c1.8-2.9,2.1-21.9,2.5-59.7C571.8,378.8,572,350.6,569.2,314.1z M558.5,400.8
		c-0.4,33.3-0.6,49.9-2.2,52.5c-17.9,28.5-64.4,9-143.9,19.9c-5.6,0.8-19.2,2.8-28.8-5c-10.9-8.8-10.8-25.2-10.8-32.7
		c-0.1-91.7-15.3-134.5,8.5-147.3c1.5-0.8,10.6-1.9,28.6-4c22.1-2.6,33.4-3.9,47.1-5c55-4.7,82.5-7,92.9,4.5c1.8,2,4.1,5.2,6.5,37.7
		C558.9,353.5,558.8,378.3,558.5,400.8z"/>
	<path class="st3" d="M205.3,398.5c-3-0.2-2.7-9.7-10.5-23.8c-1.6-2.9-7.7-13.8-11.8-13.1c-0.9,0.2-1.7,1-2.4,2.9
		c-3,7.7-27.3,63.1-2.5,90.8c5.3,6,11.2,8.3,19.2,12c7.6,3.5,29.5,13.5,53.3,5.8c2.7-0.9,10.3-3.5,17.6-9.3
		c31.6-25.5,22.5-87.3,12.8-89.2c-7.2-1.3-16.9,29.7-24.9,27.6c-3.5-0.9-2.9-7.3-9-21.3c-4.6-10.4-8.3-19-13.9-19.4
		c-6-0.5-11.6,8.5-16.4,16.2C209.3,390,208.2,398.7,205.3,398.5z"/>
	<path class="st3" d="M449.5,158.6c0,0,6.7-24-12.9-25c-19.6-1-24.3,17.9-20.1,28.1c4.1,10.2,12.9,14.3,12.9,14.3s-9.8-8.7-25.8,8.2
		c-16,16.8-11.9,28.1,0,31.6c11.9,3.6,24.3-5.1,32.5-17.3c0,0-8.8,14.3,5.2,27.5s40.3,5.6,36.1-26.5c0,0,15.5,11.7,33.5-1
		c18.1-12.8-3.1-34.7-36.6-26.5c12.7-3,20.7-12.7,20-21.8c-0.4-5.8-4.4-11.6-9.6-13.7C475.1,132.6,459.7,140.6,449.5,158.6z"/>
	<path class="st2" d="M246.9,249.9c-0.9,5.5-2.7,16.7-10,29.1c-2.6,4.5-10.5,16.8-25.9,26.6c-19.9,12.7-39.6,12.9-46.7,12.8
		c-8.3,0-26.1-0.3-43.9-11.6c-13.3-8.5-20.3-19.2-24.1-25.1c-4.3-6.8-11.2-17.9-12.7-33.7c-1.6-17.4,4.2-30.6,7.4-37.7
		c3.2-7.1,11.5-24.7,30.8-36.4c19.6-11.9,39.1-10.8,55.6-9.9c16.2,0.9,30.4,1.7,44,11.7c15.2,11.3,20.4,27.3,22.9,35.3
		C245.3,214.1,250.1,229.7,246.9,249.9z"/>
	<path class="st0" d="M140.5,405.9c-0.5,11.1-8.4,18.4-10.2,20c-1.7,1.5-9.5,8.4-20.7,7.6c-13-0.9-20.3-11.4-22.1-13.8
		c-1.5-2.2-4.3-6.8-5.4-13.3c-0.5-3.1-2.3-14.1,4.8-22.8c9.1-11.2,25.1-9,26.2-8.8C128,377,141.2,391,140.5,405.9z"/>
	<path class="st0" d="M101.8,465.3c-2.7,9.4-18.8,12.8-29.8,10c-2.8-0.7-8.3-2.1-11.3-7.1c-4.3-7.2,0.3-15.8,0.9-16.9
		c0.5-0.9,5.3-9.5,15.2-10.7c10.9-1.3,18.1,7.5,19.6,9.4C98.3,452.4,103.7,458.9,101.8,465.3z"/>
	<path class="st0" d="M399.7,308.5c0,0,33.7-8.7,45.3,7.1s4.5,23.1,7,43.9c2.5,20.8,14.1,4.2,38.4,0c24.3-4.2,47.5,7.7,35.9,22.1
		s-39,36.3-22.1,40.5s29.5-4.3,29.5-4.3v15.7c0,0-49.6,25-54.8,0s31.6-48.6,26.4-58.2c-5.3-9.6-46.4,24.2-65.4,6.2
		s9.5-52.8,1.1-58.8c-8.4-6-41.1,0-41.1,0V308.5z"/>
	<path class="st1" d="M111.1,249.9c0,0,3.1,22.1,35.8,28.7s63.5-1.8,75-22.7l-16.9-3.6c0,0,5.4,7-9.1,13c-14.5,6.1-39.3,9.1-49,3.7
		c-9.7-5.4-24.2-22.7-24.2-22.7L111.1,249.9z"/>
	<path class="st1" d="M140.2,209.2c0.7,2.1,1.4,3.9,0.9,5.9c-1,3.8-5.6,6.9-10.2,6.6c-5.2-0.3-9.5-4.8-9.7-9.6
		c-0.3-7.1,8.6-12.3,13.5-10.6C137.9,202.8,139.4,207.1,140.2,209.2z"/>
	<path class="st1" d="M211.6,211.2c0.3,4.3-2.7,8.3-6.7,9.5c-3.1,1-6.7,0.2-9.1-1.9c-2.7-2.4-3-5.6-3.1-6.6c-0.1-1-0.5-5.6,2.8-8.2
		c2.6-2.1,5.9-1.6,6.9-1.4C205.9,203.1,211.2,205.9,211.6,211.2z"/>
</g>
</svg>
