<?xml version="1.0" encoding="utf-8"?>
<!-- Generator: Adobe Illustrator 24.0.3, SVG Export Plug-In . SVG Version: 6.00 Build 0)  -->
<!DOCTYPE svg PUBLIC "-//W3C//DTD SVG 1.1//EN" "http://www.w3.org/Graphics/SVG/1.1/DTD/svg11.dtd" [
	<!ENTITY ns_extend "http://ns.adobe.com/Extensibility/1.0/">
	<!ENTITY ns_ai "http://ns.adobe.com/AdobeIllustrator/10.0/">
	<!ENTITY ns_graphs "http://ns.adobe.com/Graphs/1.0/">
	<!ENTITY ns_vars "http://ns.adobe.com/Variables/1.0/">
	<!ENTITY ns_imrep "http://ns.adobe.com/ImageReplacement/1.0/">
	<!ENTITY ns_sfw "http://ns.adobe.com/SaveForWeb/1.0/">
	<!ENTITY ns_custom "http://ns.adobe.com/GenericCustomNamespace/1.0/">
	<!ENTITY ns_adobe_xpath "http://ns.adobe.com/XPath/1.0/">
]>
<svg version="1.1" id="general_1_" xmlns:x="&ns_extend;" xmlns:i="&ns_ai;" xmlns:graph="&ns_graphs;"
	 xmlns="http://www.w3.org/2000/svg" xmlns:xlink="http://www.w3.org/1999/xlink" x="0px" y="0px" viewBox="0 0 600 600"
	 style="enable-background:new 0 0 600 600;" xml:space="preserve">
<style type="text/css">
	.st0{fill:#BC2B55;}
	.st1{fill:#FFB000;}
	.st2{fill:#2BB22B;}
	.st3{fill:#EE5F9D;}
	.st4{fill:#374993;}
	.st5{fill:#FFFFFF;}
</style>
<metadata>
	<sfw  xmlns="&ns_sfw;">
		<slices></slices>
		<sliceSourceBounds  bottomLeftOrigin="true" height="577.9" width="557.5" x="31.2" y="-588.9"></sliceSourceBounds>
	</sfw>
</metadata>
<g id="general">
	<g id="strawberry">
		<path class="st0" d="M568.6,557.4c-6.6,10-12.9,15.3-17.1,18.3c-17.2,12.5-36.2,13.1-46.4,13.2c-40,0.6-115-19-184.5-77.6
			c-24.2-20.4-37.6-37-44.8-58.4c-3.5-10.2-5.4-20.9-5.8-31.8c0.5,0.3,2.2,1.4,4.2,1.3c8-0.3,13.2-19.3,24.6-52.4
			c8.7-25.2,10.6-28.4,12.9-28.4c8.3,0,6.6,41.1,36.4,70.1c1.9,1.8,15.6,15.2,21.3,11.8c3.1-1.9,2.8-8-0.4-26
			c-6.5-36.8-12.4-58.2-12.4-58.2c-7.3-26.2-10.4-33-7.5-35.1c3.6-2.6,11.7,5.8,46.6,29.1c0,0,4.1,2.8,31.7,16.2
			c6.7,3.3,14.9,7.1,21.5,3.8c0.8-0.4,3.8-2,5.1-5.2c2.2-5.5-2.1-11.9-4.8-15.8c-14.3-20.7-21.4-31-30.7-39.7
			c-12-11.4-18-14.5-16.9-18.1c1.1-3.6,8-3.6,30.5-6.3c16.7-2,26.7-3.6,35.3-5.4c30.5-6.4,32-12.5,32.2-14c0.3-2.1-0.9-3.8-1.3-4.4
			l0,0c1.3,0.3,2.6,0.6,3.8,0.9c56.1,15,76.5,98.3,83.1,125.1c4.9,20.1,4.2,51.1,2.6,113.1C587.2,501,586,531.1,568.6,557.4z"/>
		<path class="st1" d="M425.9,452.4c0.1,1.3,0.9,12-3.8,14c-4.3,1.8-11.8-4.2-14.6-10.9c-4.2-10,0.7-23.5,6-24.2
			C418.6,430.6,425.2,442.2,425.9,452.4z"/>
		<path class="st1" d="M529.1,351c-0.1,0.7-0.7,3.9-3,4.9c-5.4,2.5-17.7-7.8-20.9-20.2c-0.8-3.1-1.8-7.2-0.1-8.5
			C509.5,324,531.2,339.1,529.1,351z"/>
		<path class="st1" d="M527.7,455.2c-0.4,2.9-2.3,7.6-4.9,7.8c-6.2,0.5-15.2-24-11.2-26.8c2.4-1.7,9,4.4,9.5,4.9
			C523.1,443,528.8,448.3,527.7,455.2z"/>
		<path class="st1" d="M568.9,529.9c-0.6,0.9-2.4,3.9-4.7,3.7c-3.3-0.2-5.2-7.4-6.1-11.2c-1.7-6.7-2.7-16.8,0.3-18
			c0.9-0.4,2,0.4,3.7,1.5c4,2.7,5.8,6.6,6.6,8.4C569.6,516.3,572.7,523.9,568.9,529.9z"/>
		<path class="st1" d="M575.4,402.6c-0.4,0.7-1.8,2.9-3.4,2.8c-2.5-0.2-3.8-5.5-4.5-8.3c-1.3-5-2-12.5,0.2-13.3
			c0.7-0.3,1.5,0.3,2.8,1.1c3,2,4.3,4.9,4.9,6.2C575.9,392.5,578.2,398.2,575.4,402.6z"/>
		<path class="st1" d="M310.3,438.6c-0.2,1.2-2,10.3-6.1,10.8c-4.8,0.6-12.1-10.9-10.4-20.5c0.3-1.6,1.1-6.4,4.8-8
			c3.3-1.4,6.7,0.6,7.1,0.8C311.1,425.1,311.2,433.8,310.3,438.6z"/>
		<path class="st1" d="M522.6,275.4c0.4,2.6-0.2,6.4-2.3,7.2c-3.1,1.2-9.5-4.5-10.1-10.8c-0.1-0.5-0.5-4.9,1.6-5.9
			C514.7,264.5,521.8,269.2,522.6,275.4z"/>
		<path class="st1" d="M432.4,285.2c-2.9,1.5-11.6-5.2-12.1-13.2c0-0.4-0.1-1.3,0-2.4c2.3-0.3,4.9-0.5,7.7-0.9
			c2.8,2.6,5.3,6.8,5.6,11.2C433.8,281.3,433.9,284.4,432.4,285.2z"/>
		<path class="st1" d="M398.8,535.9c0.9,2,3,6.6,1.6,7.8c-2.5,2.2-16.3-5.3-15.8-13c0.1-2,1.2-4.5,3.1-5.1
			C391.3,524.4,396.4,530.8,398.8,535.9z"/>
		<path class="st2" d="M420.3,269.6c2.3-0.3,4.9-0.5,7.7-0.9c1.2-0.1,2.5-0.3,3.8-0.4c16.7-2,26.7-3.6,35.3-5.4
			c30.5-6.4,32-12.5,32.2-14c0.3-2.1-0.9-3.8-1.3-4.4l0,0c-7.6-11.6-52.5-15.5-99.1-1.6c-16.3,4.9-42.7,14.9-69.6,35.8
			c-11.6,9.1-29.6,23.3-44.7,48.2c0,0-17.7,29.3-20,75.5c-0.6,12.3,2.1,17,5.3,19l0,0c0.5,0.3,2.2,1.4,4.2,1.3
			c8-0.3,13.2-19.3,24.6-52.4c8.7-25.2,10.6-28.4,12.9-28.4c8.3,0,6.6,41.1,36.4,70.1c1.9,1.8,15.6,15.2,21.3,11.8
			c3.1-1.9,2.8-8-0.4-26c-2.3-13.1-4.5-24.2-6.5-33.1c-1.2-5.7-2.3-10.4-3.2-14.2c-1.7-7.1-2.7-10.8-2.7-10.8
			c-7.3-26.2-10.4-33-7.5-35.1c3.6-2.6,11.7,5.8,46.6,29.1c0,0,4.1,2.8,31.7,16.2c6.7,3.3,14.9,7.1,21.5,3.8c0.8-0.4,3.8-2,5.1-5.2
			c2.2-5.5-2.1-11.9-4.8-15.8c-14.3-20.7-21.4-31-30.7-39.7c-12-11.4-18-14.5-16.9-18.1C402.3,271.6,406.9,271.1,420.3,269.6z"/>
		<path class="st1" d="M367.2,365.2c-0.7,0.6-2.6,0.3-4.8-0.7c-1.2-5.7-2.3-10.4-3.2-14.2c2.5,1.4,5.2,5.2,6.7,8.3
			C366.6,360.3,368.4,364.1,367.2,365.2z"/>
		<path class="st1" d="M492.5,549.7c0.1,0.5,1,5.6-1.6,7.3c-3.3,2.3-11.2-1.9-14.8-8.1c-2.1-3.7-3.7-9.9-1.3-11.7
			C478.4,534.5,490.9,540.7,492.5,549.7z"/>
		<path class="st1" d="M438.5,379.2c0.1,2.5-0.7,6.9-3,7.6c-3.3,1-9.3-5.7-10.6-12.9c-0.5-2.6-0.8-8.2,1.5-9.2
			C429.7,363.4,438.4,370.8,438.5,379.2z"/>
	</g>
	<g id="raspberry">
		<path class="st2" d="M353,141.1c-4.2,14.6-27.3,23.4-47,30.1c-8,2.7-17.2,5.7-27.5,8.8c-4.2-0.8-8.5-1-12.7-0.9
			c-0.6-4.4-1.9-8.6-4.1-12.2c-9-14.7-31.6-18.8-48.4-14.7c-0.5,0.1-0.9,0.2-1.4,0.4c3.8-12,3.7-24.4-1.9-33.4
			c-9-14.7-31.6-18.8-48.4-14.6c-3.3,0.8-6.7,2-10,3.6c1.9-9.8,0.9-19.4-3.6-26.7c-2.3-3.7-5.4-6.7-9.1-9.1c-2-21.2,1-42.2,2.9-55.2
			c0.3-1.9,0.8-5.1,2.9-6c9.2-3.8,35.2,43.2,42.5,39.3c2.8-1.5,1.5-10.1,7.8-25.2c0.7-1.6,1.5-3.5,2.6-3.5
			c3.4-0.1,6.6,17.2,12.7,30.8c7.6,17,29.3-17.8,56.4-27.2c27.2-9.4-6,21.3-8.7,45.3c-2.7,23.9,70.1-8.6,78.8-2.9
			c0.6,0.4,0.7,0.7,0.9,1.1c6,11.3-44.3,41-39.1,53.4c1.9,4.5,10.6,5.3,25.1,6.7c15.6,1.5,25.9-0.9,29,4.6
			C354.3,136.4,353.4,139.5,353,141.1z"/>
		<path class="st3" d="M303.8,195.3c-5.2-8.4-14.8-13.4-25.3-15.3c-4.2-0.8-8.5-1-12.7-0.9c-0.6-4.4-1.9-8.6-4.1-12.2
			c-9-14.7-31.6-18.8-48.4-14.7c-0.5,0.1-0.9,0.2-1.4,0.4c3.8-12,3.7-24.4-1.9-33.4c-9-14.7-31.6-18.8-48.4-14.6
			c-3.3,0.8-6.7,2-10,3.6c1.9-9.8,0.9-19.4-3.6-26.7c-2.3-3.7-5.4-6.7-9.1-9.1c-10.9-7.1-26.7-8.6-39.3-5.5
			c-19.5,4.8-41.5,23.1-39,47.8c0.6,5.7,2.4,10.9,5,15.5c-12.2,8.7-21.6,22.3-19.9,39c0.9,8.9,4.8,16.7,10.4,23
			c-14.4,8.3-26.5,23.3-24.6,42C33,249.9,44,262.2,57,268.5c-8.6,8.5-14.3,19.9-12.9,33.1c2.5,24.6,27.5,40.6,47.8,39
			c11.6-0.9,21.8-7.6,29.5-16.8c9.3,7.5,21.2,11.4,31.8,10.6c18.2-1.4,33.1-17.1,40-34.6c5,1.5,10.2,2.2,15,1.8
			c18.6-1.5,33.9-17.9,40.5-36c5.2,1.6,10.4,2.3,15.4,1.9C296.1,264.9,318.2,218.6,303.8,195.3z"/>
	</g>
	<g id="blueberry">
		<path class="st4" d="M192.5,411.3c-11.5-4-2.6-18.3-0.9-23.6c1.7-5.3-29,7.5-35.9,8.4c-7,0.9-7.6-18.2-13.1-29
			c-3.8-7.6-7.9,13.7-10,27.3c-5.4-0.5-11.2-0.4-17.3,0.6c0,0-3.9,0.6-7.8,1.7c-40.3,10.8-58.4,40.9-58.4,40.9
			c-17.4,29-15.2,69.9,7.7,98.3c25,31,62.6,32,70.5,32c7.4,0,49.1-1,73.6-35.8c20-28.4,14.5-59.5,13.4-65.5
			c-2.3-11.8-6.9-21.7-12.2-29.8c8.6-4.4,17.2-9.4,19.5-12.9C226.5,416.3,204,415.4,192.5,411.3z"/>
		<path class="st5" d="M121.8,420.2c1.3,3.4,0,6.8-0.5,7.8c-3,6.8-11.9,8.6-16.9,9.6c-7,1.4-22.9,3-25-2.5c-2.6-6.9,15.9-25,31-22.3
			C111.7,413.1,119.6,414.4,121.8,420.2z"/>
	</g>
</g>
</svg>
