<?xml version="1.0" encoding="utf-8"?>
<!-- Generator: Adobe Illustrator 24.0.3, SVG Export Plug-In . SVG Version: 6.00 Build 0)  -->
<!DOCTYPE svg PUBLIC "-//W3C//DTD SVG 1.1//EN" "http://www.w3.org/Graphics/SVG/1.1/DTD/svg11.dtd" [
	<!ENTITY ns_extend "http://ns.adobe.com/Extensibility/1.0/">
	<!ENTITY ns_ai "http://ns.adobe.com/AdobeIllustrator/10.0/">
	<!ENTITY ns_graphs "http://ns.adobe.com/Graphs/1.0/">
	<!ENTITY ns_vars "http://ns.adobe.com/Variables/1.0/">
	<!ENTITY ns_imrep "http://ns.adobe.com/ImageReplacement/1.0/">
	<!ENTITY ns_sfw "http://ns.adobe.com/SaveForWeb/1.0/">
	<!ENTITY ns_custom "http://ns.adobe.com/GenericCustomNamespace/1.0/">
	<!ENTITY ns_adobe_xpath "http://ns.adobe.com/XPath/1.0/">
]>
<svg version="1.1" id="general_1_" xmlns:x="&ns_extend;" xmlns:i="&ns_ai;" xmlns:graph="&ns_graphs;"
	 xmlns="http://www.w3.org/2000/svg" xmlns:xlink="http://www.w3.org/1999/xlink" x="0px" y="0px" viewBox="0 0 600 600"
	 style="enable-background:new 0 0 600 600;" xml:space="preserve">
<style type="text/css">
	.st0{fill:#EACB86;}
	.st1{fill:#AA4704;}
	.st2{fill:#E090C7;}
</style>
<metadata>
	<sfw  xmlns="&ns_sfw;">
		<slices></slices>
		<sliceSourceBounds  bottomLeftOrigin="true" height="572.4" width="574.5" x="12.8" y="-586.2"></sliceSourceBounds>
	</sfw>
</metadata>
<g id="general">
	<g id="_x34_mushroom">
		<path class="st0" d="M445,305.6c-40.1-6.4-75.6,24.1-85.8,57.2c-10.7,34.7,4.4,78.4,27.4,84.9c10,2.8,15.9-3,48-19.8
			c0.1-0.1,0.2-0.1,0.3-0.2c8.9-4.7,16.7-8.5,23.5-11.8c36.5-17.4,45.5-17.6,49.7-28.8C517.5,361.8,489.4,312.8,445,305.6z"/>
		<path class="st1" d="M490.6,586.2c-27.9-0.2-31.5-56.9-39.7-108.7c-3.4-21.3-9.7-37.7-15.9-49.6c8.9-4.7,16.7-8.5,23.5-11.8
			c0.9,2.4,1.8,4.9,2.9,7.7c12.5,33.1,36.8,87.8,55.1,117.1C534.8,570.1,518.5,586.4,490.6,586.2z"/>
	</g>
	<g id="_x33_mushroom">
		<path class="st2" d="M531,122.7c-3.6-27-81.4-56.2-107.7-28.2c-23.8,25.3-1.3,92.8,26.8,98.5c11.7,2.3,23.8-6.1,38.6-19
			c0.9-0.8,1.9-1.7,2.9-2.5c1.4-1.3,2.9-2.6,4.4-3.9l4.6-4.2c2.8-2.6,5.5-5,8-7.3C523.6,142.2,532.4,132.6,531,122.7z"/>
		<path class="st0" d="M585.7,258.4c-3.3,7.3-12.6,14.5-21.6,14.1c-13.1-0.5-21.3-17-34.8-40.5c-8.8-15.4-21.2-36.1-37.6-60.5
			c1.4-1.3,2.9-2.6,4.4-3.9l4.6-4.2c2.8-2.6,5.5-5,8-7.3C538.7,180.2,597.6,231.8,585.7,258.4z"/>
	</g>
	<g id="_x32_mushroom">
		<path class="st2" d="M281.6,380.8c-16.6-9.2-31.7-9.5-34.9-9.5c-28-0.1-46.7,17-52.9,23.4c-7.5,7.8-11.7,12.1-11.5,18.2
			c0.2,8.1,7.6,13.1,25.6,22.5c8,4.2,18.1,9.2,30.6,15.7c10,5.2,18.1,9.6,24.9,13.3c22.1,11.9,30,15.6,39.4,11.6
			c15-6.4,19-26,19.5-29C327.5,418.2,302,392.1,281.6,380.8z"/>
		<path class="st0" d="M259.8,496.8c2,28.7-24.4,53.6-59.8,51.5c-35.5-2.1-52.2-25.5-56.1-39.5c-3.8-14-4.8-34.6,23.6-48.1
			c16.3-7.7,30.8-18,40.3-25.3c8,4.2,18.1,9.2,30.6,15.7c10,5.2,18.1,9.6,24.9,13.3C260.8,473,258.9,484.2,259.8,496.8z"/>
	</g>
	<g id="_x31_mushroom">
		<path class="st1" d="M376.1,150.1C339,64.1,234.4,7.9,139.2,14.3C88.6,17.7,16.6,40.5,12.9,74.1c-0.2,2.2-0.9,10.9,9.6,26.6
			c23.2,34.7,61.3,44.3,97.1,56.4c11.3,3.8,22.4,8,33.4,12.5c18.9,7.6,37.5,16.1,56,24.8c31,14.6,61.7,29.9,93,43.7
			c48.4,21.2,65.3,29.1,77.6,20.4C401.6,243,391.9,186.8,376.1,150.1z"/>
		<path class="st0" d="M158.1,321.9c-0.4,10.7-0.4,43-22.1,63.2c-11.6,10.8-24.8,13.9-29.9,15c-28.8,6.4-64.2-5.3-78.8-31.6
			c-6.5-11.7-9.2-26.1-6.6-42.5c8.4-51.3,59.2-69.6,99.8-109.8c16.2-16.1,26.3-32.6,32.5-46.6c18.9,7.6,37.5,16.1,56,24.8
			C169.4,253.6,159.2,294.4,158.1,321.9z"/>
	</g>
</g>
</svg>
