<?xml version="1.0" encoding="utf-8"?>
<!-- Generator: Adobe Illustrator 24.0.3, SVG Export Plug-In . SVG Version: 6.00 Build 0)  -->
<!DOCTYPE svg PUBLIC "-//W3C//DTD SVG 1.1//EN" "http://www.w3.org/Graphics/SVG/1.1/DTD/svg11.dtd" [
	<!ENTITY ns_extend "http://ns.adobe.com/Extensibility/1.0/">
	<!ENTITY ns_ai "http://ns.adobe.com/AdobeIllustrator/10.0/">
	<!ENTITY ns_graphs "http://ns.adobe.com/Graphs/1.0/">
	<!ENTITY ns_vars "http://ns.adobe.com/Variables/1.0/">
	<!ENTITY ns_imrep "http://ns.adobe.com/ImageReplacement/1.0/">
	<!ENTITY ns_sfw "http://ns.adobe.com/SaveForWeb/1.0/">
	<!ENTITY ns_custom "http://ns.adobe.com/GenericCustomNamespace/1.0/">
	<!ENTITY ns_adobe_xpath "http://ns.adobe.com/XPath/1.0/">
]>
<svg version="1.1" id="general_1_" xmlns:x="&ns_extend;" xmlns:i="&ns_ai;" xmlns:graph="&ns_graphs;"
	 xmlns="http://www.w3.org/2000/svg" xmlns:xlink="http://www.w3.org/1999/xlink" x="0px" y="0px" viewBox="0 0 600 600"
	 style="enable-background:new 0 0 600 600;" xml:space="preserve">
<style type="text/css">
	.st0{fill:#FFD652;}
	.st1{fill:#FF0068;}
	.st2{fill:#32B244;}
	.st3{fill:#FFFFFF;}
	.st4{fill:#FF7300;}
</style>
<metadata>
	<sfw  xmlns="&ns_sfw;">
		<slices></slices>
		<sliceSourceBounds  bottomLeftOrigin="true" height="555.9" width="580.6" x="9.7" y="-567.3"></sliceSourceBounds>
	</sfw>
</metadata>
<g id="general">
	<g id="banana">
		<path class="st0" d="M44.3,388.2c-3.9,7.8-0.9,16.2,3.2,26.8c10.9,27.9,16.4,41.9,21.8,50.8c0,0,17.3,28.6,39.7,49.3
			c37.6,34.6,102.2,55.1,164.4,52c77.4-3.9,180.2-45.6,207.5-120.6c12.2-33.5,10.6-76.5,44-97.1c8.6-5.3,41.1-22.4,39-30.9
			c-0.2-0.6-1.1-3.7-3.1-7.1c-0.5-0.9-3.1-5.4-5.2-6.9c-5.9-4.4-20.5,4.6-40.2,18.1c-13.4,9.1-20,13.7-23.6,16.6
			c-50.8,41.6-78.8,64.5-115.1,81.8c-20.4,9.7-100.3,44.9-190.1,23.5c-47.6-11.3-78.9-18.8-96.1-44c-4.7-6.8-14.1-23.3-27.6-23.5
			C55.5,376.8,47.7,381.6,44.3,388.2z"/>
		<path d="M52.5,378.8c-4.3,0.8-7.3,1.3-9,3.8c-1.3,1.9-1.7,4.8-0.7,6.9c4,8.3,31.7,5.8,33.5-1c0.5-1.8-0.7-4.2-1.8-5.6
			c-1.1-1.4-2.7-2.3-6-3.2C65.2,378.9,59.8,377.5,52.5,378.8z"/>
	</g>
	<g id="watermelon">
		<path class="st1" d="M209.8,357.3c-8.7,5-18.1,2.6-38.9-3.8c-71.3-22.1-107.4-33.7-133.1-59.4c-15.5-15.5-28-28.1-28.1-45.7
			c-0.1-12.3,5.9-21.2,16.6-31.1c11.4-10.4,28.1-21.9,48.5-39.6c57.6-49.8,120.9-128.1,163.4-137.2c1.2-0.3,2.4-0.4,3.8,0
			c26.1,7.8-8.3,191-17.5,235.9c-3.8,18.7-1.7,39.1-2.9,55.1C220.8,343.2,218.1,352.6,209.8,357.3z"/>
		<path class="st2" d="M209.8,357.3c-1.7,1-3.4,1.6-5.2,2.1c-5.5,1.3-12,0.3-21.6-2.3c-3.6-1-7.6-2.2-12.1-3.6
			c-13.2-4.1-25.2-7.8-36.1-11.3c-4.1-1.3-8-2.6-11.9-3.9c-11.4-3.8-21.6-7.4-30.8-11.1c-4.6-1.9-9-3.7-13.1-5.6
			c-16.1-7.4-28.7-15.4-39.4-25.7c-0.6-0.6-1.2-1.1-1.8-1.7c-4.9-4.9-9.4-9.5-13.4-14c-8.7-9.9-14.6-19.6-14.7-31.7
			c-0.1-12.3,5.9-21.2,16.6-31.1c3.7,8.1,11.6,20.4,28.2,38.1c0.4,0.4,0.8,0.8,1.2,1.3c3.7,3.9,7.5,7.7,11.3,11.3
			c8.5,8.1,17.1,15.3,25.8,21.7c1.9,1.5,3.9,2.9,5.8,4.2c14.7,10.4,29.3,18.4,43,24.5c3.1,1.3,6.1,2.6,9.1,3.7
			c6.5,2.5,12.8,4.5,18.7,6.1c4.7,1.3,9.7,2.1,14.7,2.8c4.5,0.6,9.1,0.9,13.6,1.1c8.4,0.3,16.7,0,23.9-0.5
			C220.8,343.2,218.1,352.6,209.8,357.3z"/>
		<path d="M60.5,279.6c-5.2,3.7-13.1,9.9-20.9,16.2c-0.6-0.6-1.2-1.1-1.8-1.7c-4.9-4.9-9.4-9.5-13.4-14c9-4.4,19.7-11.9,30.1-24.8
			c0.4,0.4,0.8,0.8,1.2,1.3c3.7,3.9,7.5,7.7,11.3,11.3C66.4,272.5,64.5,276.8,60.5,279.6z"/>
		<path d="M92.2,327.1c-4.6-1.9-9-3.7-13.1-5.6c2-6,4.4-12.7,6.6-18.6c1.5-3.9,4.1-8.6,7.2-13.3c1.9,1.5,3.9,2.9,5.8,4.2
			c-1.9,5.6-3.4,11.1-3.8,15.9C94.4,315.9,93.3,321.9,92.2,327.1z"/>
		<path d="M150.7,322c-4.4,6-8.9,11.8-12.4,15.9c-1.2,1.4-2.4,2.8-3.5,4.2c-4.1-1.3-8-2.6-11.9-3.9c2.4-2.6,5.6-6,9.7-10.6
			c2.9-3.3,6-6.5,9-9.4C144.7,319.6,147.7,320.9,150.7,322z"/>
		<path d="M204.6,359.4c-5.5,1.3-12,0.3-21.6-2.3c-1.6-10.5-0.7-19.3,1-26.2c4.5,0.6,9.1,0.9,13.6,1.1c0,0.4,0,0.8-0.1,1.1
			C197.1,337.9,200.8,349.1,204.6,359.4z"/>
		<path d="M165.7,109.8c-4,3.5-6.7,9.7-4.9,11.7c2,2.2,9.3-1.2,13.2-5.1c2.7-2.6,2.9-4.5,2.9-5.3c0-0.2,0-3-1.8-4.2
			C172.5,105.1,167.9,107.9,165.7,109.8z"/>
		<path d="M209.4,201.1c-0.2,3.8,1,6.5,1.6,7.9c1,2.1,1.5,3.1,2.3,3.3c2.4,0.4,6-6.5,6.3-12.7c0.2-3.7-1-5.3-1.5-5.9
			c-0.2-0.2-2.1-2.3-4.2-1.9C210.8,192.3,209.6,198.3,209.4,201.1z"/>
		<path d="M101.2,220.2c-3.4,3.4-5,9-3.3,10.5c1,0.9,3.2,0.1,6.5-1.1c2.1-0.8,3.8-1.4,5.4-3.1c1-1,2.7-2.8,2.7-5.4
			c0-0.2-0.1-3-1.9-4.2C107.9,215.3,103.5,218,101.2,220.2z"/>
	</g>
	<g id="apple">
		<path class="st2" d="M431.7,209.1c-16.1-17.3-43.9-24.7-63.7-22.5c-4,0.4-10.8,1.6-17.9,3c-3.2,0.6-6.5,1.3-9.7,1.9
			c-2.8,0.5-5.5,1.1-7.9,1.6c-11.1,2.2-16.7,3.3-21.1,4.6c-18,5-32.3,9-40.9,21.2c-4.1,5.8-5.6,11.7-7.8,20.1
			c-2.8,10.7-3,19.3-3.1,23.4c-0.3,14.8,2.2,45.5,21.3,79.4c9.5,16.8,14.2,25.2,24.9,32.4c18.8,12.8,40.4,11.5,58.7,10.5
			c18.1-1,30.5-1.8,42.7-9.6c18.9-12.4,24.1-33.9,29.7-58.9C446.5,273.3,455.3,234.4,431.7,209.1z"/>
		<path d="M354.1,170c0,0-3.9,6.7-3.8,12.8c0,1.4,0,3.9-0.2,6.8c-3.2,0.6-6.5,1.3-9.7,1.9c0.9-11.8,5.2-23,5.2-23l3.3-1.1L354.1,170
			z"/>
		<path class="st3" d="M287.9,222.3c-8,7.4-11.3,18.3-11.3,18.3c-4.7,15.9-3.1,39,7,43.2c2.3,1,5.6,1.1,7.9-0.3
			c3-1.8,4.3-5.8,4.6-14.6c0.6-14.9-2.7-16.4-1.8-24.6c1.6-14.7,13.4-22.2,10.4-25.9c-1.9-2.4-8-1.1-11.2,0.1
			C290.9,219.7,289.1,221.2,287.9,222.3z"/>
	</g>
	<g id="tangerine">
		<path class="st4" d="M581.3,89c17.7,25.2,4.5,60.1,1.5,67.8c-2.7,7.1-12.2,29.4-36.2,44.7c-8.4,5.3-36.8,23.4-67.1,11.6
			c-22.6-8.8-32.9-29-36.2-37c-9.5-22.7-3.9-43.1-1.7-50.6c1.2-4.1,9.2-29.7,34-45.8C507.6,59.1,560.3,59.1,581.3,89z"/>
		<path class="st2" d="M463.5,109c0,0-5.1-4.4-10.1-25.4s32.4-72.2,32.4-72.2s2.1,1.4-0.1,22.4s-4.9,46.6-9.9,56.3
			S463.5,109,463.5,109z"/>
		<path class="st0" d="M470.2,187.1c0.1,1.3-0.4,3.2-1.6,3.5c-0.9,0.2-1.9-0.4-2.4-1.1c-1.5-1.9-0.1-5.7,1.4-5.9
			C468.6,183.5,470,185.3,470.2,187.1z"/>
		<path class="st0" d="M489.4,199.9c0.9,1.7,0.9,4.2-0.2,4.8c-1.4,0.8-4.9-1.3-4.9-3.8c0-1.3,0.8-2.9,2.2-3.1
			C488.1,197.6,489.3,199.7,489.4,199.9z"/>
		<path class="st0" d="M459.1,171.7c0,0.3-0.5,2.7-2,3.2c-1.6,0.5-4-1.3-4.1-3.3c-0.2-2.5,2.9-4.7,4.5-4.2c0.8,0.3,1.3,1.4,1.4,1.9
			C459,169.6,459.3,170.5,459.1,171.7z"/>
		<path class="st0" d="M476.2,168.3c0.1,0.9,0.2,2-0.4,2.5c-1,0.8-3.7,0-4.5-1.9c-0.4-1-0.2-2.4,0.7-3.3c0.1-0.1,1.1-1.1,2.2-0.8
			C475.8,165.3,476.1,167.6,476.2,168.3z"/>
		<path class="st0" d="M487.1,182.4c-0.1,0.9-0.1,1.9-0.7,2.2c-1.1,0.6-4.1-1.2-3.9-3.3c0.1-1.8,2.3-3.3,3.5-2.8
			C487.4,179.1,487.2,182.1,487.1,182.4z"/>
	</g>
</g>
</svg>
