<?xml version="1.0" encoding="utf-8"?>
<!-- Generator: Adobe Illustrator 24.0.3, SVG Export Plug-In . SVG Version: 6.00 Build 0)  -->
<!DOCTYPE svg PUBLIC "-//W3C//DTD SVG 1.1//EN" "http://www.w3.org/Graphics/SVG/1.1/DTD/svg11.dtd" [
	<!ENTITY ns_extend "http://ns.adobe.com/Extensibility/1.0/">
	<!ENTITY ns_ai "http://ns.adobe.com/AdobeIllustrator/10.0/">
	<!ENTITY ns_graphs "http://ns.adobe.com/Graphs/1.0/">
	<!ENTITY ns_vars "http://ns.adobe.com/Variables/1.0/">
	<!ENTITY ns_imrep "http://ns.adobe.com/ImageReplacement/1.0/">
	<!ENTITY ns_sfw "http://ns.adobe.com/SaveForWeb/1.0/">
	<!ENTITY ns_custom "http://ns.adobe.com/GenericCustomNamespace/1.0/">
	<!ENTITY ns_adobe_xpath "http://ns.adobe.com/XPath/1.0/">
]>
<svg version="1.1" id="general_1_" xmlns:x="&ns_extend;" xmlns:i="&ns_ai;" xmlns:graph="&ns_graphs;"
	 xmlns="http://www.w3.org/2000/svg" xmlns:xlink="http://www.w3.org/1999/xlink" x="0px" y="0px" viewBox="0 0 600 600"
	 style="enable-background:new 0 0 600 600;" xml:space="preserve">
<style type="text/css">
	.st0{fill:#DDD9C9;}
	.st1{fill:#067BBB;}
	.st2{fill:#820002;}
</style>
<metadata>
	<sfw  xmlns="&ns_sfw;">
		<slices></slices>
		<sliceSourceBounds  bottomLeftOrigin="true" height="576.1" width="582" x="9" y="-588.1"></sliceSourceBounds>
	</sfw>
</metadata>
<g id="general">
	<path class="st0" d="M591,359c0,0.7,0,1.3,0,2c0,0.7,0,1.4,0,2c0,1.4,0,2.8,0,4.2c-0.1,4.3-0.1,8.8-0.2,13.5c0,1.4-0.1,2.8-0.1,4.3
		c-0.1,4.2-0.2,8.4-0.3,12.8c0,0.8,0,1.7-0.1,2.5c-0.1,2.7-0.1,5.5-0.2,8.3c0,1.3-0.1,2.6-0.1,4c-0.2,5.5-0.3,11.2-0.5,16.9
		c-0.1,1.5-0.1,3.1-0.2,4.6c-0.1,1.6-0.1,3.2-0.2,4.9c-0.2,5-0.3,10-0.5,15c-0.1,2.3-0.2,4.7-0.3,7c-0.1,3.5-0.3,7-0.4,10.6
		c-0.1,3-0.2,5.9-0.3,8.9c0,0.5,0,1-0.1,1.5c-0.1,3.5-0.3,6.9-0.4,10.3c0,0,0,0.1,0,0.1c-0.1,2.2-0.2,4.4-0.3,6.6c0,0.2,0,0.3,0,0.4
		c-0.1,2.1-0.2,4.1-0.3,6.2c0,0.2,0,0.5,0,0.7c-0.1,1.5-0.1,3-0.2,4.5c0,0.8-0.1,1.6-0.1,2.4c-0.3,6.6-0.6,13-0.8,19.1
		c0,0.4,0,0.8-0.1,1.2c0,0.9-0.1,1.9-0.1,2.8v0.1c-0.1,1.9-0.2,3.8-0.3,5.6c-0.1,1.3-0.1,2.6-0.2,3.9c0,0.5-0.1,1-0.1,1.4
		c-0.1,2.2-0.2,4.3-0.3,6.3c0,0.7-0.1,1.4-0.1,2.1c0,0.5-0.1,1-0.1,1.5c-0.1,1.1-0.1,2.2-0.2,3.2c-0.2,3.5-0.3,6.6-0.4,9.5
		c0,0.6-0.1,1.2-0.1,1.8c0,1-0.1,2-0.1,2.9c0,0.4,0,0.8-0.1,1.1c0,0.3,0,0.6-0.1,1c0,0.3,0,0.5,0,0.8c-0.1,1-0.1,1.9-0.1,2.8
		c0,0.6-0.1,1.2-0.1,1.8c0,0.1,0,0.2,0,0.3c0,0.2,0,0.4,0,0.6c0,0.1,0,0.2,0,0.3c0,0.3,0,0.6,0,0.8c-0.1,1.5-0.1,2.6-0.2,3.2
		c0,0.1,0,0.1,0,0.2c0,0.2,0,0.4,0,0.4s-279.7-1-349.6,0S9,579.8,9,579.8c3.1-62.6,7.5-114.9,11.3-153.2c2.8-28.5,5.6-53,8.4-74.1
		c1.4-10.9,2.9-21,4.3-30.2C42.2,264,51,237.7,58.8,217.6c13.6-34.9,26.7-67.6,57-101c42.2-46.6,96-70.5,110.4-76.5
		c0.1-0.1,1.5-0.6,2.9-1.2c1.2-0.5,2.5-1,4-1.6c0.7-0.3,1.5-0.6,2.3-0.9c0.8-0.3,1.6-0.6,2.4-0.9c2.1-0.8,4.4-1.6,6.8-2.5
		c1.5-0.5,3-1.1,4.6-1.6c0.5-0.2,1.1-0.4,1.6-0.5c2.7-0.9,5.6-1.9,8.6-2.8c2.4-0.8,4.9-1.5,7.5-2.3c5.9-1.7,12.2-3.4,18.8-4.9
		c3-0.7,6-1.4,9.1-2c21.3-4.4,45.8-7.5,71.7-6.8c14.3,0.3,28.9,1.8,43.7,4.7c0,0,0.1,0,0.1,0c2.2,0.4,4.5,0.9,6.7,1.4
		c2.3,0.5,4.5,1.1,6.8,1.7c1.1,0.3,2.1,0.6,3.2,0.9c0.2,0,0.3,0.1,0.4,0.1c4.5,1.3,9,2.7,13.4,4.3c2.3,0.8,4.5,1.6,6.8,2.5
		c0,0,0.1,0,0.1,0c1.1,0.4,2.2,0.9,3.3,1.3c1.1,0.5,2.2,0.9,3.3,1.4c0.1,0,0.1,0,0.1,0.1c1.1,0.5,2.2,1,3.3,1.5
		c1.1,0.5,2.3,1,3.4,1.6c0.1,0,0.2,0.1,0.2,0.1c2.2,1,4.3,2.1,6.5,3.2c0.7,0.4,1.4,0.7,2.1,1.1c1.1,0.6,2.3,1.2,3.4,1.9
		c0.5,0.3,1.1,0.6,1.6,0.9c0.6,0.4,1.3,0.7,1.9,1.1c0.6,0.4,1.3,0.8,1.9,1.1c1.9,1.1,3.8,2.3,5.7,3.6c41.1,26.6,62.5,60.9,71.5,75.6
		c3.1,5.1,6.1,10.4,9,16.7c10.1,21.7,18.8,53.8,23.1,118.8c0.1,1.1,0.1,2.2,0.2,3.2c0.4,6.3,0.8,12.9,1.1,19.8
		c0.9,20.1,1.5,42.8,1.6,68.8C591,352.4,591,355.6,591,359z"/>
	<path class="st1" d="M588.1,257.6c-16.5,10.2-39.6,21.8-66.9,33.5C466,315,393.8,339.8,326.1,356.1c-7.9,1.9-15.8,3.7-23.6,5.3
		c-89.4,19-166.2,20.5-178.1-18.7c-0.2-0.6-0.3-1.2-0.5-1.8c-2.3-9.4-3.7-18.4-4.3-26.8c-6.1-85.1,69.3-119.8,103-106.2
		c37,15,55.8,63.8,55.8,63.8c0.3-6.3,3.3-47.2,37.4-71.7c3.2-2.3,10.1-7.2,19.7-10.8c6.7-2.6,14.6-4.6,23.4-4.8c1.7,0,3.4,0,5.2,0.1
		c30.8,1.7,58.8,25.4,71.9,59.7c-0.4-1.8-17.2-82.4,45.7-121.5c11.5-7.2,23.2-9.6,34.7-8.5c17.3,1.6,34,11.3,48.7,24.8
		C575.2,160.6,583.8,192.7,588.1,257.6z"/>
	<path class="st2" d="M591,349.4c-0.1-25.9-0.7-48.7-1.6-68.8c-0.3-6.9-0.7-13.5-1.1-19.8c-0.1-1.1-0.1-2.2-0.2-3.2
		c-4.3-64.9-13-97.1-23.1-118.8c-2.9-6.3-5.9-11.6-9-16.7c-8.9-14.7-30.3-49-71.5-75.6c-1.9-1.2-3.8-2.4-5.7-3.6
		c-0.6-0.4-1.3-0.8-1.9-1.1c-0.6-0.4-1.3-0.8-1.9-1.1c-0.5-0.3-1.1-0.6-1.6-0.9c-1.1-0.6-2.3-1.3-3.4-1.9c-0.7-0.4-1.4-0.8-2.1-1.1
		c-2.1-1.1-4.3-2.2-6.5-3.2c-0.1,0-0.2-0.1-0.2-0.1c-1.1-0.5-2.2-1.1-3.4-1.6c-1.1-0.5-2.2-1-3.3-1.5c0,0-0.1,0-0.1-0.1
		c-1.1-0.5-2.2-0.9-3.3-1.4c-1.1-0.5-2.2-0.9-3.3-1.3c0,0-0.1,0-0.1,0c-2.3-0.9-4.5-1.7-6.8-2.5c-4.5-1.6-9-3-13.4-4.3
		c-0.1,0-0.3-0.1-0.4-0.1c-1.1-0.3-2.1-0.6-3.2-0.9c-2.3-0.6-4.5-1.2-6.8-1.7c-2.2-0.5-4.5-1-6.7-1.4c0,0-0.1,0-0.1,0
		c-14.8-3-29.4-4.4-43.7-4.7c-25.9-0.6-50.4,2.5-71.7,6.8c-3.1,0.6-6.2,1.3-9.1,2c-6.7,1.6-13,3.2-18.8,4.9
		c-2.6,0.8-5.1,1.5-7.5,2.3c-3,0.9-5.9,1.9-8.6,2.8c-0.5,0.2-1.1,0.4-1.6,0.5c-1.6,0.5-3.1,1.1-4.6,1.6c-2.5,0.9-4.7,1.7-6.8,2.5
		c-0.8,0.3-1.7,0.6-2.4,0.9c-0.8,0.3-1.5,0.6-2.3,0.9c-1.4,0.6-2.8,1.1-4,1.6c-1.4,0.6-2.7,1.1-2.9,1.2
		c-14.4,6-68.1,29.9-110.4,76.5c-30.3,33.4-43.4,66.1-57,101C51,237.7,42.2,264,33.1,322.3c-1.4,9.2-2.9,19.3-4.3,30.2
		c-2.8,21.1-5.6,45.5-8.4,74.1c-3.8,38.3-8.2,90.6-11.3,153.2c0,0,154.2,9.3,224.2,8.2s349.6,0,349.6,0s0-0.1,0-0.4
		c0-0.1,0-0.1,0-0.2c0-0.6,0.1-1.7,0.2-3.2c0-0.3,0-0.5,0-0.8c0-0.1,0-0.2,0-0.3c0-0.2,0-0.4,0-0.6c0-0.1,0-0.2,0-0.3
		c0-0.6,0.1-1.1,0.1-1.8c0-0.9,0.1-1.8,0.1-2.8c0-0.2,0-0.5,0-0.8c0-0.3,0-0.6,0.1-1c0-0.4,0-0.7,0.1-1.1c0-0.9,0.1-1.9,0.1-2.9
		c0-0.6,0.1-1.2,0.1-1.8c0.1-2.9,0.3-6.1,0.4-9.5c0.1-1,0.1-2.1,0.2-3.2c0-0.5,0.1-1,0.1-1.5c0-0.7,0.1-1.4,0.1-2.1
		c0.1-2,0.2-4.1,0.3-6.3c0-0.5,0-1,0.1-1.4c0.1-1.3,0.1-2.6,0.2-3.9c0.1-1.8,0.2-3.7,0.3-5.6v-0.1c0-0.9,0.1-1.9,0.1-2.8
		c0-0.4,0-0.8,0.1-1.2c0.3-6.1,0.6-12.5,0.8-19.1c0-0.8,0.1-1.6,0.1-2.4c0.1-1.5,0.1-3,0.2-4.5c0-0.2,0-0.5,0-0.7
		c0.1-2,0.2-4.1,0.3-6.2c0-0.1,0-0.3,0-0.4c0.1-2.2,0.2-4.4,0.3-6.6c0,0,0-0.1,0-0.1c0.1-3.4,0.3-6.8,0.4-10.3c0-0.5,0-1,0.1-1.5
		c0.1-3,0.2-5.9,0.3-8.9c0.1-3.5,0.3-7,0.4-10.6c0.1-2.3,0.2-4.7,0.3-7c0.2-5,0.4-10,0.5-15c0.1-1.6,0.1-3.2,0.2-4.9
		c0.1-1.5,0.1-3.1,0.2-4.6c0.2-5.7,0.4-11.3,0.5-16.9c0-1.3,0.1-2.7,0.1-4c0.1-2.8,0.2-5.6,0.2-8.3c0-0.9,0-1.7,0.1-2.5
		c0.1-4.4,0.2-8.7,0.3-12.8c0-1.4,0.1-2.9,0.1-4.3c0.1-4.7,0.2-9.2,0.2-13.5c0-1.4,0-2.8,0-4.2c0-0.7,0-1.4,0-2c0-0.7,0-1.3,0-2
		C591,355.6,591,352.4,591,349.4z M390.9,41.9c13,1.9,26.3,5.1,39.4,9.8c3.4,1.2,6.8,2.6,10.3,4c9.6,4.1,19.1,9.1,28.5,15.1
		c21.2,13.7,36.6,29.6,47.4,43.3c8.2,10.3,13.8,19.4,17.2,25.1c12.6,20.8,24.4,47.7,29.3,126c-37.2,6.2-77.2,12.1-97,13
		c-22.9,1-74.9,6.7-126,12.6c0,0,0,0,0,0c7.7-37.3,14.1-69.9,15.5-84.1c0.6-5.6,1.8-13.3,3.5-22.4c5.7-30.9,16.6-78,24.8-112.4
		C386.5,60,389.1,49.6,390.9,41.9z M83.9,225.5c12.3-31.6,24.2-61.1,51.6-91.3c38.2-42.2,86.8-63.8,99.8-69.2
		c0.1-0.1,1.4-0.6,2.6-1.1c18.5-7.6,70.4-26.7,129.2-24.2c-1.4,6.5-3.4,15.4-5.7,25.9c-5.1,23.1-11.7,53.6-17.7,82
		c-2.9,13.9-5.7,27.8-8.3,41.5c-7.2,37.6-13.4,73.8-19.6,104.4c-35.9,4.2-68.9,8-87.8,10c-0.3,0-0.7,0.1-1,0.1
		c-20,2.1-62.7,6.1-107.4,10.4c-19.8,1.9-40,3.8-58.8,5.6C68.9,267.3,76.9,243.6,83.9,225.5z M261.9,560.3c-4,0-7.7,0.1-11.1,0.1
		c-3.4,0-6.5,0.1-9.2,0.1c-63.2,0.9-202.7-7.4-202.7-7.4c2.8-56.6,6.8-103.9,10.2-138.6c2.4-24.7,4.9-46.1,7.3-64.6
		c23.6-2.3,48.5-4.8,68-7.2c11.9-1.4,21.8-2.8,28.2-4c11.3-2.1,34-5.1,60.8-8.3c30.7-3.7,66.8-7.6,97.1-10.8
		c-2.3,11.9-5,26.3-7.9,41.8c-1.6,8.8-3.3,18-5.1,27.3c-8.5,45.9-17.5,95.2-22.7,118.9C270.1,529.2,265.4,547.5,261.9,560.3z
		 M562.8,447.3c-2.2,57.7-4.9,113.2-4.9,113.2s-176-0.6-271.1-0.3c3-14.1,7.3-34.4,11.2-54.1c3.9-19.8,7.4-39.2,8.9-51.6
		c0.6-5.1,2-13.1,3.9-23.2c3.7-19.3,9.3-46.4,15.4-75.1c2.7-12.8,5.5-26,8.2-39c7.4-0.8,14.2-1.5,19.9-2.1
		c5.8-0.6,10.5-1.1,14.1-1.5c16.9-1.7,86.9-12.2,152.9-22.3c14.6-2.2,29-4.5,42.7-6.6c0.8,17.6,1.2,37.5,1.3,60.1
		C565.4,369.3,564.2,408.8,562.8,447.3z"/>
	<path class="st1" d="M193.7,393c-14.5,8.2-25.8,16.3-33.9,22.7c-13.4,10.7-18.9,17.4-19.4,25.4c-0.1,1.6-0.5,7,3,10.4
		c4.2,4.1,11.4,2.8,14.2,2.2C177.3,450.2,192,399.1,193.7,393z"/>
	<path class="st1" d="M382.3,363.5c-10.1,12.8-18.7,22.8-25,29.7c-11.2,12.4-19.5,20.5-17.3,28.3c1.3,4.6,5.7,7.4,5.9,7.5
		c0,0,5.3,3.3,13.5,1.3C370.2,427.8,378.9,400.3,382.3,363.5z"/>
	<path class="st1" d="M235.1,471.5c-14.3,10.4-23.8,21-29.9,28.7c-15.2,19.4-13.1,27.1-12.4,29.3c0.3,0.8,2.1,5.7,6.9,8.3
		c0,0,5.1,2.7,12.5,0.6C222.7,535.6,231.4,508.3,235.1,471.5z"/>
	<path class="st1" d="M438.4,428.8c-12.6,11-21.9,21.3-28.5,29.2c-8.7,10.6-13.9,18.9-13.8,28.8c0.1,6.9,2.6,9.6,3.4,10.3
		c5.2,5,14.8,2.3,16.3,1.9C436.1,493.4,438.2,435,438.4,428.8z"/>
	<path class="st1" d="M548.4,463.4c-13.3,11-23.3,21.2-30,28.8c-13.9,15.5-16.5,22-15.1,27.8c1,4.1,4,8.5,8.5,10.6
		c0,0,5.7,2.6,13.9-0.3C537.7,525.9,546.2,499,548.4,463.4z"/>
	<path class="st1" d="M548.4,319.6c-12.5,11.1-21.9,21.3-28.5,29.2c-9.7,11.5-13.9,18.5-12.9,26.3c0.2,1.4,1,7.7,5.8,10.8
		c0,0,4.7,3,12.8,0.6C543,381.3,547.9,325,548.4,319.6z"/>
</g>
</svg>
