<?xml version="1.0" encoding="utf-8"?>
<!-- Generator: Adobe Illustrator 24.0.3, SVG Export Plug-In . SVG Version: 6.00 Build 0)  -->
<!DOCTYPE svg PUBLIC "-//W3C//DTD SVG 1.1//EN" "http://www.w3.org/Graphics/SVG/1.1/DTD/svg11.dtd" [
	<!ENTITY ns_extend "http://ns.adobe.com/Extensibility/1.0/">
	<!ENTITY ns_ai "http://ns.adobe.com/AdobeIllustrator/10.0/">
	<!ENTITY ns_graphs "http://ns.adobe.com/Graphs/1.0/">
	<!ENTITY ns_vars "http://ns.adobe.com/Variables/1.0/">
	<!ENTITY ns_imrep "http://ns.adobe.com/ImageReplacement/1.0/">
	<!ENTITY ns_sfw "http://ns.adobe.com/SaveForWeb/1.0/">
	<!ENTITY ns_custom "http://ns.adobe.com/GenericCustomNamespace/1.0/">
	<!ENTITY ns_adobe_xpath "http://ns.adobe.com/XPath/1.0/">
]>
<svg version="1.1" id="general_1_" xmlns:x="&ns_extend;" xmlns:i="&ns_ai;" xmlns:graph="&ns_graphs;"
	 xmlns="http://www.w3.org/2000/svg" xmlns:xlink="http://www.w3.org/1999/xlink" x="0px" y="0px" viewBox="0 0 600 600"
	 style="enable-background:new 0 0 600 600;" xml:space="preserve">
<style type="text/css">
	.st0{fill:#E5AE00;}
	.st1{fill:#FF0098;}
	.st2{fill:#004031;}
	.st3{fill:#60772F;}
	.st4{fill:#FF73C6;}
</style>
<metadata>
	<sfw  xmlns="&ns_sfw;">
		<slices></slices>
		<sliceSourceBounds  bottomLeftOrigin="true" height="444.1" width="590.9" x="4.5" y="-536.9"></sliceSourceBounds>
	</sfw>
</metadata>
<g id="general">
	<path class="st0" d="M585.5,476.8c-3.9,0.6-14.8,3.3-29.4,7.1c0.1-12.9,0.5-28,1.3-45.6c3.1-73.7-28.2-150.6-51.8-222.8
		c-23.5-72.2-94.1-87.8-177.3-87.8S187.2,179.5,159,204.6c-28.2,25.1-62.7,81.6-92.6,180.4c-22.2,73.7-27.9,119.5-29.3,138
		c-11.4,0.9-21.3,1.2-27.8,0.4c-18.6-2.3,17.5-200.2,100.1-308.5s286.4-158.6,360.9-92.1C544.8,189.3,589,304.6,591.4,386
		C593.7,467.5,601.8,474.5,585.5,476.8z"/>
	<path class="st1" d="M557.5,438.3c-0.7,17.5-1.1,32.7-1.3,45.6c-8.7,2.2-18.7,4.8-29.1,7.5c-5.3-46.5-20.1-141.4-25.6-171.1
		c-7.3-39.5-20.8-121.5-75.8-158.8c-55-37.4-177.5,8.3-227.4,46.7c-49.8,38.4-82,136-98.6,186.9c-14.3,43.6-23.9,107.2-26.4,124.4
		c-12,1.3-24.8,2.8-36.2,3.6c1.4-18.5,7.1-64.3,29.3-138c29.8-98.8,64.3-155.3,92.6-180.4c28.2-25.1,86.3-76.9,169.4-76.9
		s153.7,15.7,177.3,87.8C529.2,287.7,560.6,364.6,557.5,438.3z"/>
	<path class="st2" d="M477.2,448.8c6.1-78.2-21.3-146.3-24.4-181.8c-3-35.6-42.7-77.2-94.5-90.4c-51.8-13.2-89.4,29.5-142.2,70.1
		c-52.8,40.6-75.2,143.2-87.4,179.8c-9.6,28.8-16.7,72-19.2,89.1c-2.8,0.3-5.5,0.5-8.2,0.8c-7.8,0.7-17.6,1.8-28,3
		c2.5-17.2,12.1-80.8,26.4-124.4c16.6-50.9,48.8-148.5,98.6-186.9c49.8-38.4,172.3-84.1,227.4-46.7c55,37.4,68.5,119.4,75.8,158.8
		c5.5,29.7,20.3,124.6,25.6,171.1c-18,4.6-37.4,9.4-54.3,13.1C474,489.3,475.4,470.9,477.2,448.8z"/>
	<path class="st3" d="M477.2,448.8c-1.7,22-3.2,40.5-4.4,55.7c-26,5.6-45.9,8.6-45.5,3.7c1.2-12.8,27.9-201.4-43.1-275.9
		s-185.1,78-206,178.1c-21,100.1-21,100.1-21,100.1s-24.2,2.8-47.7,5.1c2.6-17.1,9.6-60.4,19.2-89.1
		c12.2-36.6,34.5-139.2,87.4-179.8c52.8-40.6,90.4-83.3,142.2-70.1c51.8,13.2,91.4,54.9,94.5,90.4
		C455.8,302.6,483.3,370.6,477.2,448.8z"/>
	<path class="st4" d="M392.3,356.4c0,0-3.3-45.9-39.2-40c-35.8,5.8-49.2,53.4-49.2,53.4s-7.5-31.4-36.7-26.9s-48.4,71.1-20,82.8
		c28.3,11.7,290.1,23.3,293.5-40.9c0.9-16.4-3.7-38.6-18.7-46.3c-16.8-8.6-43.2,1.4-66.4,25.4c0.2-2.4,1.4-19.1-10.9-30.5
		c-1.6-1.5-7.6-7-15.8-7.9C415.1,324,399.6,336.3,392.3,356.4z"/>
	<path class="st4" d="M223.9,481.3c-1-2.6-7.5-19.2-25-25.4c-1.4-0.5-25-8.4-38.7,7c-10.2,11.4-7.2,27-6.8,29.1
		c0,0-1.5-6.3-5.9-12.1c-8-10.5-21.6-9.5-23.4-9.4c-14.7,0.8-23.1,12.7-24.7,14.9c-8.8,12.4-10.2,31.2-1.5,41.8
		c9.5,11.5,28.5,10,37.5,9.3c152.4-11.9,199.3-6.2,207.1-32.5c4-13.3-3-31.9-14.9-36.9c-10.9-4.6-26.3,1.9-38.9,15.8
		c-0.2-1.8-1.6-15.3-13.6-23.1c-11.3-7.3-23.3-3.9-26.2-3C231,461.7,224.6,479.3,223.9,481.3z"/>
</g>
</svg>
