<?xml version="1.0" encoding="utf-8"?>
<!-- Generator: Adobe Illustrator 24.0.3, SVG Export Plug-In . SVG Version: 6.00 Build 0)  -->
<!DOCTYPE svg PUBLIC "-//W3C//DTD SVG 1.1//EN" "http://www.w3.org/Graphics/SVG/1.1/DTD/svg11.dtd" [
	<!ENTITY ns_extend "http://ns.adobe.com/Extensibility/1.0/">
	<!ENTITY ns_ai "http://ns.adobe.com/AdobeIllustrator/10.0/">
	<!ENTITY ns_graphs "http://ns.adobe.com/Graphs/1.0/">
	<!ENTITY ns_vars "http://ns.adobe.com/Variables/1.0/">
	<!ENTITY ns_imrep "http://ns.adobe.com/ImageReplacement/1.0/">
	<!ENTITY ns_sfw "http://ns.adobe.com/SaveForWeb/1.0/">
	<!ENTITY ns_custom "http://ns.adobe.com/GenericCustomNamespace/1.0/">
	<!ENTITY ns_adobe_xpath "http://ns.adobe.com/XPath/1.0/">
]>
<svg version="1.1" id="general_1_" xmlns:x="&ns_extend;" xmlns:i="&ns_ai;" xmlns:graph="&ns_graphs;"
	 xmlns="http://www.w3.org/2000/svg" xmlns:xlink="http://www.w3.org/1999/xlink" x="0px" y="0px" viewBox="0 0 600 600"
	 style="enable-background:new 0 0 600 600;" xml:space="preserve">
<style type="text/css">
	.st0{fill:#FFB000;}
	.st1{fill:#2BB22B;}
	.st2{fill:#BC2B55;}
	.st3{fill:#173D30;}
	.st4{fill:#374993;}
	.st5{fill:#FFFFFF;}
</style>
<metadata>
	<sfw  xmlns="&ns_sfw;">
		<slices></slices>
		<sliceSourceBounds  bottomLeftOrigin="true" height="575.2" width="586.6" x="6.7" y="-587.6"></sliceSourceBounds>
	</sfw>
</metadata>
<g id="general">
	<g id="carrot">
		<path class="st0" d="M581.4,236.3c-5.6,17.3-14.5,48.2-25.5,84.7c-0.8,2.6-1.6,5.3-2.4,8c-10.4,34.3-22.4,72.7-35,108.8
			c-0.8,2.2-1.6,4.5-2.3,6.7c-8.2,23-16.6,45-24.9,64.1c-0.9,2.1-1.8,4.1-2.7,6.1c-16,35.5-31.8,60-45.3,61.3
			c-1.5,0.1-2.5-0.1-2.9-0.2c-14.9-3.9-12.6-55.5-9.6-112.4c0.1-2.5,0.3-4.9,0.4-7.4c0.4-8.1,0.9-16.3,1.3-24.4
			c1-20.5,1.6-39.1,2-56c0.1-2.7,0.1-5.4,0.2-8c1-50.9,0.2-85.6,1.6-110c0.2-4.3,0.6-8.4,1-12.1c2.3-21.3,7.8-32.9,20.7-40.9
			c6.5-4,13.7-6.4,22.1-7.8c16.2-2.6,36.5-1.3,63.2,0.5c2.4,0.2,4.7,0.3,6.9,0.6c15.7,1.6,26.3,4.9,31.2,13.2
			C586.7,220.4,582.8,232.1,581.4,236.3z"/>
		<path class="st1" d="M549.9,197.8c-2.2-0.2-4.5-0.4-6.9-0.6c-26.7-1.8-47.1-3.2-63.2-0.5c-7.2-10.7-19.8-31.1-26.1-50.7
			c-9.1-28.5,12.1,2.8,24.1,12.7c12,9.9,4.1-77.2,12.4-88.9c8.3-11.7,10.9,64.1,17.6,79.5c6.7,15.4,20.5-42.7,37.3-57.9
			s18.5-7.4,12.1,12.6c-6.5,20-8.5,28-13.9,45.6c-5.4,17.6-7.6,22.4-1.7,21.7c5.8-0.7,37.8-53.1,50-49.8
			C601.5,124,564.4,177.5,549.9,197.8z"/>
		<path class="st2" d="M512.5,261c1.2,3-23.2-3.6-39.3-3.3c-12,0.2-29.2-0.1-37.1-0.2c0.2-4.3,0.6-8.4,1-12.1
			c5.3-0.3,15.4,0,32.3,3.7C497.5,255.1,511.3,258,512.5,261z"/>
		<path class="st2" d="M555.9,321c-0.8,2.6-1.6,5.3-2.4,8c-6.7-1.6-14.7-3.6-18.2-4.6c-6.4-1.9-40.5-7.4-44.7-10.5
			c-4.2-3.1,18.1-0.6,38.5,2.5C541,318.2,550.3,319.9,555.9,321z"/>
		<path class="st2" d="M487.5,384.4c-13.9,1.8-35.2-9.1-44.2-9c-3.3,0-6.4,0.1-8.9,0.1c0.1-2.7,0.1-5.4,0.2-8
			c8.9,1.2,26.3,3.8,34.7,7.8C480.8,380.7,501.4,382.6,487.5,384.4z"/>
		<path class="st2" d="M518.5,437.8c-0.8,2.2-1.6,4.5-2.3,6.7c-5.2-1.3-14.4-3.8-19.9-6.2c-7.9-3.4-25.6-4.1-12.2-5.1
			C493.2,432.5,509.2,435.7,518.5,437.8z"/>
		<path class="st2" d="M451.1,463.2c-7.3-0.5-15.6-0.1-20.4,0.2c0.1-2.5,0.3-4.9,0.4-7.4c7.8,0.8,20.8,3.4,28.1,5.4
			C469.6,464.3,462.3,464,451.1,463.2z"/>
		<path class="st2" d="M491.2,508.5c-0.9,2.1-1.8,4.1-2.7,6.1c-4.1-0.8-8.8-1.8-13.6-2.8c-13.5-3.1-21.5-12.1-6.8-6.9
			C476.4,507.7,485.1,508.4,491.2,508.5z"/>
	</g>
	<g id="broccoli">
		<path class="st3" d="M421.3,87.3c0.9-11.5-13.7-24.2-27.5-27.8c-15.9-4.2-30.6,3.6-37,7.1c-15.3,8.2-16.4,16.4-24.7,15.7
			c-9.1-0.8-12.7-9.9-29-15.9c-1.9-0.7-4-1.1-6.6-1.3c-13.2-0.9-23.5,6.7-25,7.8c-8.3,6.3-6,10.4-11.7,13.7
			c-15.1,8.8-36.9-16.9-54.3-7.8c-4.9,2.6-8.7,7.2-10.4,10.1c-6.3,10.7-7.5,16-7.7,19.4c-0.1,2.7,0.7,3.6,0,5.5
			c-1.6,4.4-6.8,5.2-11.7,8c-7,4-7.1,8.7-11.8,13.3c-10.1,9.9-22,0.9-37.2,7.8c-16.4,7.4-27.6,28.8-22.6,41.6
			c1.8,4.4,4.5,8.2,11.4,11.9c31.3,16.9,15.6,5.5,45.5,14.1c29.9,8.5,19.9,32.7,48.4,12.8c3.1-2.1,5.7-4.2,8-6.3
			c9.6-8.6,13.2-16.5,17-22.9c3.7-6.2,7.7-11,17.7-13.5c1.3-0.3,2.6-0.6,3.8-0.8c3.9-0.7,7.2-1,10.2-1c6,0.1,10.9,1.3,16.8,2.1
			c5.8,0.8,12.5,1.3,22.3-0.2c0.3,0,0.6-0.1,1-0.1c26.8-4.2,32-18.3,54.6-35.2c0.2-0.1,0.3-0.3,0.5-0.4c3.3-2.5,7-4.3,10.9-5.6
			c16.3-5.8,35-3.7,38.9-11.3c2.2-4.3-3.2-6.4-3.1-14.1C408.1,105.1,420.5,98.6,421.3,87.3z"/>
		<path class="st1" d="M390.5,323.5c-11.7,6.5-22.1,9.7-29.3,11.3c-11,2.5-18.8,2.5-20.7,2.5c-5.9-0.1-10.8-0.7-14.4-1.4
			c-1-4.3-2.4-10.6-4.2-18.2c-6.6-27.8-9.9-41.7-12.1-44.9c-11.1-15.6-25.3-5.5-58.4-25.6c-17-10.3-26.2-20.7-29-24.1
			c-1.8-2.1-3.4-4.2-4.9-6.2c9.6-8.6,13.2-16.5,17-22.9c5.5,9.5,12.3,19.8,17.5,24.2c1.4,1.2,2.8,2.2,4.2,3.2
			c2.5-3.4,5.8-8.9,7-15.6c1.3-7.2-3.4-18.5-7.1-26.1c3.9-0.7,7.2-1,10.2-1c1.1,2.4,2.3,5.2,3.8,8.4c5.3,11.5,5.8,16.4,2.1,25.1
			c-2,4.7-5.2,10-7.7,13.9c8.3,3.9,15.7,5.1,19,5.5c14.7,2.1,32.6-0.7,33.7-6.3c0.3-1.7-0.9-3.4-2.4-5.7c-2.9-4.4-6.7-6.2-9.2-7.7
			c-3.7-2.3-6.5-5.8-12.1-12.8c-4.5-5.7-8-12.3-10.4-18.2c5.8,0.8,12.5,1.3,22.3-0.2c0.6,2.3,1.2,4.7,1.8,7.1
			c3.6,16,28,28.5,29.5,12.7c1.4-15.8,15.8-21.6,22.8-38.8c2.4-6,2.5-11.6,1.5-16.3c0.2-0.1,0.3-0.3,0.5-0.4c3.3-2.5,7-4.3,10.9-5.6
			c3.1,15.5,4.9,35.5-2.5,48.5c-13.5,24-7.3,50.8,0,75.6C377.1,288.2,390.5,323.5,390.5,323.5z"/>
	</g>
	<g id="eggplant">
		<path class="st4" d="M384.1,534.9c-20.9,38.6-63,47.4-75.6,50.1c-20.5,4.3-38.8,2.6-55.8-0.8C195.4,572.5,98.9,526.7,48.3,426
			c-15.5-30.8-23.3-60.2-25.2-85.4c3.2-1.4,6.4-3.3,9.1-5.7c1.8-1.6,7.9-7.3,10.3-16.5c3.4-13.1-2.5-26.1,2.5-28.9
			c0.2-0.1,0.2-0.2,0.3-0.1c3.2,0.1,3.5,46.9,22.3,53.5c19.3,6.9,3-16.4,6.5-35c3.5-18.6,0.9-35.7,9-33.6c8.1,2.1,27,56.8,40.9,51.5
			s-7.2-24.1-8.5-40.6c-1.3-16.5,1.9-13.6,8.8-9.6c6.9,4,13.2,42.4,32.5,37.3c2.2-0.6,4.3-1.3,6.3-2c8.2,12.6,19,25.3,35.3,36.3
			c38.9,26.4,53.7,5.7,114.9,38.3c30.3,16.1,62.7,34,75.9,71C391.1,462.1,403.5,499,384.1,534.9z"/>
		<path class="st1" d="M174.3,296.7c-12.2,1.1-38.3-67.1-84.6-56.5c-8.6,2-14.2,1-17.7-1.9c-13.7-11.2,1.4-52.4-5.2-54.6
			c-0.9-0.3-1.1,0.4-7.4,2c-5.1,1.3-6.4,1.2-7.4,1.6c-7.6,3,6.3,35.2-2.3,61.6c-7.3,22.4-22.9,16.7-28.8,39.7
			c-4.2,16.6,2.9,35.2-10.6,47.1c-3,2.6-3.9,4.8-3.3,6.4c0.8,2.3,8.5,1.8,16.3-1.6c3.2-1.4,6.4-3.3,9.1-5.7
			c1.8-1.6,7.9-7.3,10.3-16.5c3.4-13.1-2.5-26.1,2.5-28.9c0.2-0.1,0.2-0.2,0.3-0.1c3.2,0.1,3.5,46.9,22.3,53.5
			c19.3,6.9,3-16.4,6.5-35c3.5-18.6,0.9-35.7,9-33.6c8.1,2.1,27,56.8,40.9,51.5s-7.2-24.1-8.5-40.6c-1.3-16.5,1.9-13.6,8.8-9.6
			c6.9,4,13.2,42.4,32.5,37.3c2.2-0.6,4.3-1.3,6.3-2C178.1,305,185.1,295.7,174.3,296.7z"/>
		<path class="st5" d="M270.1,407.4c9.9-10.5,39.9,2.3,54.8,10.8c23.8,13.6,37.6,32.8,39.9,46.9c0.4,2.7,1.5,9.6-2.5,15
			c-2.3,3-6.6,6.2-10.4,5.2c-2.8-0.7-4.3-3.5-4.8-4.4c-4.7-8.4-22.3-34.7-33.9-44.8c-19-16.7-44.5-10.2-46.1-21
			C266.6,411.3,269.4,408.1,270.1,407.4z"/>
	</g>
	<g id="tomato">
		<path class="st2" d="M150.1,61.8c-3.9-14.2-14.5-21.9-17.3-23.8c-17.9-12.4-40-7.6-50.3-4.2c-3.1,1-5.2,1.9-5.7,2.2
			C66.6,40.6,58,47.8,51.5,56.2c-12.2,15.6-17.4,35-13.7,48.7c3.1,11.4,10.6,18.5,10.6,18.5c1.1,1,6.5,5.9,16.3,8.8
			c26.4,7.6,52.4-8.9,56.2-11.4c6.8-4.4,18.7-12.4,25.4-27.9C148.8,87.4,153.9,75.8,150.1,61.8z"/>
		<path class="st1" d="M82.5,33.8c-3.1,1-5.2,1.9-5.7,2.2C66.6,40.6,58,47.8,51.5,56.2C41,48.7,31.6,41.3,32.6,39.6
			c0.2-0.4,1-0.4,2.4-0.3c7.8,0.5,12.2,5.8,14.8,4.2c0.4-0.2,1-0.8,1.3-1.6c0.4-1.2-0.1-2.3-0.3-2.6c-1.4-3.3-6.1-21.1-1.6-24.2
			c0.2-0.1,0.4-0.3,0.9-0.4c4.7-0.7,10.9,19.7,15.5,17.8c4.9-2,9.4-23.2,12.2-19.7C79.3,14.8,81.1,25.1,82.5,33.8z"/>
	</g>
</g>
</svg>
