<?xml version="1.0" encoding="utf-8"?>
<!-- Generator: Adobe Illustrator 24.0.3, SVG Export Plug-In . SVG Version: 6.00 Build 0)  -->
<!DOCTYPE svg PUBLIC "-//W3C//DTD SVG 1.1//EN" "http://www.w3.org/Graphics/SVG/1.1/DTD/svg11.dtd" [
	<!ENTITY ns_extend "http://ns.adobe.com/Extensibility/1.0/">
	<!ENTITY ns_ai "http://ns.adobe.com/AdobeIllustrator/10.0/">
	<!ENTITY ns_graphs "http://ns.adobe.com/Graphs/1.0/">
	<!ENTITY ns_vars "http://ns.adobe.com/Variables/1.0/">
	<!ENTITY ns_imrep "http://ns.adobe.com/ImageReplacement/1.0/">
	<!ENTITY ns_sfw "http://ns.adobe.com/SaveForWeb/1.0/">
	<!ENTITY ns_custom "http://ns.adobe.com/GenericCustomNamespace/1.0/">
	<!ENTITY ns_adobe_xpath "http://ns.adobe.com/XPath/1.0/">
]>
<svg version="1.1" id="general_1_" xmlns:x="&ns_extend;" xmlns:i="&ns_ai;" xmlns:graph="&ns_graphs;"
	 xmlns="http://www.w3.org/2000/svg" xmlns:xlink="http://www.w3.org/1999/xlink" x="0px" y="0px" viewBox="0 0 600 600"
	 style="enable-background:new 0 0 600 600;" xml:space="preserve">
<style type="text/css">
	.st0{fill:#791F14;}
	.st1{fill:#EE5F9D;}
	.st2{fill:#820002;}
	.st3{fill:#DDD9C9;}
	.st4{fill:#067BBB;}
</style>
<metadata>
	<sfw  xmlns="&ns_sfw;">
		<slices></slices>
		<sliceSourceBounds  bottomLeftOrigin="true" height="541.1" width="586.3" x="6.8" y="-570.6"></sliceSourceBounds>
	</sfw>
</metadata>
<g id="general">
	<path class="st0" d="M298,446.2c-0.1,7.9,0,15.6,0.2,22.9c0.4,13.5,1.5,25.9,3.2,36.8c1.3,8.4,3,15.9,5.1,22
		c0.4,1.2,0.8,2.3,1.3,3.4c-34.2,13.3-96.7,28.4-150.5-8.9c-42.9-29.8-56.1-76-60.1-99.4c2.2-0.4,4.5-1,6.9-1.6
		c5.5-1.5,11.6-3.6,18.1-6.3c13.1-5.4,27.9-12.9,43.3-21.9c4.9-2.8,9.8-5.8,14.8-8.9c15.6-9.8,31.5-20.7,46.6-32
		c1.2-0.9,2.4-1.8,3.7-2.8c2.1-1.6,5-3.8,8.6-6.6c7.3-5.6,17.4-13.6,28.9-23.2c4.1-3.4,8.5-7.1,12.9-10.9
		c12.5-10.7,25.9-22.8,39.1-35.7c-4.5,19.8-8.1,39-10.8,55.6c-0.9,5.5-1.7,10.7-2.4,15.5c-2.2,14.7-3.6,26.1-4.3,32
		c-0.5,4.3-1,8.6-1.4,12.9c-0.6,6.2-1.2,12.5-1.6,18.7C298.7,420.9,298.2,433.8,298,446.2z"/>
	<path class="st0" d="M490,118.9c-0.3,1.5-0.2,3,0.1,4.4c-4.5-1-8.7-2.1-13.6-0.6c-5,1.6-8.5,5.9-15.8,12.6
		c-0.3,0.3-0.6,0.5-0.8,0.8c4.6,6.9,8.4,14.8,11,23.8c3,10.8,3.7,21,3,30.3c-7.4-12.1-16.8-24.7-28.6-36.5c-1.4-1.4-2.9-2.9-4.4-4.3
		c-7.7-7.2-16.3-14-26.1-20.2c-12.3-7.8-24.7-13.7-37-18.1c-2-0.7-4-1.4-6-2c-18.3-5.8-36.3-8.2-52.7-8.7c9-4.7,19.7-8.6,32.1-10.6
		c4-0.6,10.5-1.4,18.6-1.3c-0.4-2-0.8-3.9-1.3-5.8c-4.2-16-3.3-20.7-18.4-25.9c-2.2-0.8-4.3-1.3-6.4-1.7c4.9-3.6,8.2-9,7.1-14.2
		c6.5,1.5,13.1,3.8,16.2,6.9c7.5,7.5,11.3,30.2,10.8,38.7c0,0.7-0.1,1.5-0.1,2.5c5.2,0.5,10.8,1.4,16.7,2.9
		c4.9,1.2,37.6,10.2,59.6,36.5c6.3-8.3,18-19.9,26.5-21.8c4.3-1,11,0.6,17.3,2.8C493.9,111.5,490.8,114.9,490,118.9z"/>
	<path class="st1" d="M309.4,328.8c-0.9,5.5-1.7,10.7-2.4,15.5c-8-3.6-15.8-7.6-21.4-11.6c-5.3-3.8-11.4-8.4-17.5-12.9
		c4.1-3.4,8.5-7.1,12.9-10.9c7.7,6.1,14.8,11.7,19.5,15C303.2,325.7,306.2,327.3,309.4,328.8z"/>
	<path class="st1" d="M301.3,389.2c-0.6,6.2-1.2,12.5-1.6,18.7c-7.5-7.1-15.2-13.6-21.6-17.5c-11.6-7-34.8-25.1-51.1-38.2
		c1.2-0.9,2.4-1.8,3.7-2.8c2.1-1.6,5-3.8,8.6-6.6c9.1,6.8,20.1,14.9,33.1,23.7C283.4,374.1,293,381.8,301.3,389.2z"/>
	<path class="st1" d="M298.2,469.1c-13.8-11.6-29.8-24.6-39.3-30.2c-14.3-8.6-67.4-33.5-93.4-45.6c4.9-2.8,9.8-5.8,14.8-8.9
		c27.9,9.4,68.5,25.3,89.8,40.3c10.1,7.1,19.5,14.6,27.8,21.6C297.9,454,298,461.7,298.2,469.1z"/>
	<path class="st1" d="M306.6,527.9c-14.4-5.8-85.6-35.1-124.1-58.7c-34.9-21.4-67.4-41.2-78.3-47.8c5.5-1.5,11.6-3.6,18.1-6.3
		c25,12.2,84.3,41.2,108.9,54.6c20.9,11.4,51.7,26.9,70.3,36.1C302.8,514.3,304.5,521.7,306.6,527.9z"/>
	<path class="st0" d="M245.7,111c-4.2,1.3-7,2.4-8.2,2.9c-1.4,0.5-2.7,1.1-4.1,1.7c-1.6-7.9-3.5-15.5-5.4-19
		c-4.8-8.7-21.4-17.4-33.3-26.2c-11.9-8.7-26.9-14.3-26.9-14.3l7.1-14.3c0,0,32.5,12.7,56.3,38C240.4,89.8,244.3,101,245.7,111z"/>
	<path class="st2" d="M136.8,199.3c-3.2,4.5-6.4,9.4-9.6,14.5c-3.2-2.8-6.8-5.8-10.7-8.9c-9.6-7.6-14.7-11.6-22-14.9
		c-6.8-3.1-20-7.6-39.4-5.2c1.9-5.8,3.9-11.6,5.8-17.5c12,0.6,38.4,3.5,64,22C129.3,192.6,133.3,196,136.8,199.3z"/>
	<path class="st0" d="M81.6,313.1c-1.3,4.1-2.5,8.2-3.7,12.4c-4.3-1.5-10.1-3.1-16.4-3.8c-21.1-2.2-38.5,6.9-46.8,12.1
		c-2.7-3.7-5.3-7.3-8-11c8-4.4,21.5-10.5,39.3-12.4C62.7,308.8,75.7,311.6,81.6,313.1z"/>
	<path class="st0" d="M593.2,286.6l-8.9,13.2c0,0-12.2-10.4-25.6-16.5c-13.4-6.1-29.2-16.3-39.1-16.2c-3.8,0-10.8,1.9-18,4.2
		c-0.3-6-0.9-10.6-1.3-13.3c9-3.2,20-4.8,32.2-1.8C566.2,264.4,593.2,286.6,593.2,286.6z"/>
	<path class="st0" d="M539.5,447.4c-4.1,4.5-8.2,9.1-12.4,13.6c-7.4-18.1-17.8-27.4-23.8-31.9c-6.4-4.7-12.4-7.2-23.7-11.9
		c-4.9-2-9.6-3.8-14-5.3c2.9-5.2,5.6-10.4,8-15.4c4.9,1.5,10,3.4,15.3,5.8C517.6,415.6,533.1,437.2,539.5,447.4z"/>
	<path class="st3" d="M501.5,271.2c-0.3-6-0.9-10.6-1.3-13.3c-0.3-2-0.5-3.1-0.5-3.1c-1.8-8.3-8-35.2-25.8-64.5
		c-12.8-21.1-31.6-43.4-59.1-61c-32.6-20.9-66.4-27.9-95.7-28.7c-32.9-0.9-60.1,6.1-73.4,10.5c-4.2,1.3-7,2.4-8.2,2.9
		c-1.4,0.5-2.7,1.1-4.1,1.7C207,126.7,190,141.2,176,153.2c0,0-17.7,15.3-39.2,46.1c-3.2,4.5-6.4,9.4-9.6,14.5
		c-15.9,25.2-32.7,58.2-45.5,99.3c-1.3,4.1-2.5,8.2-3.7,12.4c-0.2,0.7-0.4,1.4-0.6,2.2c-6.6,24.1-7.4,51.8-7.4,51.8
		c-0.7,23.3-1,35,4.2,40.2c4.4,4.5,12.5,5.3,23.2,3.3c32-6.1,86.7-38,133.4-73.5c12-9.2,52.2-39.7,89.6-76.3
		c-10.6,46.2-15.8,89.4-17.5,103.1c-7.2,60-6.8,125.5,5.1,155c3.5,8.6,8,14.2,13.5,15.6c7.1,1.8,17-4.4,36.8-16.8
		c0,0,5.4-3.4,13.2-9.2c5.2-3.8,11.4-8.7,17.9-14.4c3.2-2.8,6.5-5.8,9.8-9c0,0,0,0,0.1-0.1c29.9-29.2,51.3-58.2,66.5-85.5
		c2.9-5.2,5.6-10.4,8-15.4C500.6,341.2,502.7,294.6,501.5,271.2z"/>
	<path class="st0" d="M416.8,569c0.5-9.7,0-29.4-12.3-46.7c-5.3-7.5-11.7-12.9-15.2-15.8c3.2-2.8,6.5-5.8,9.8-9c0,0,0,0,0.1-0.1
		c0.9,0.8,1.7,1.7,2.6,2.5c4,4.1,13.3,14.3,20.2,30.2c7.1,16.4,8.4,31.2,8.5,40.3C425.9,570.1,421.4,569.5,416.8,569z"/>
	<path class="st4" d="M191.3,282.1c10.5,12.9-3.3,40.5-15.9,55.6c-15.5,18.7-46.2,38.7-61.7,28.2c-13.9-9.4-11.4-40.3,0-60
		c15.6-26.9,46.4-30,49-30.2C170.7,275,184.6,273.8,191.3,282.1z"/>
	<path class="st4" d="M374.6,372.1c-16.6-0.6-30.3,27.1-34.7,46.2c-5.5,23.7-3,60.2,14.8,66.2c15.8,5.4,39-15.2,47.8-36.2
		c12-28.7-4.1-55.1-5.5-57.3C392.8,384.3,385.3,372.5,374.6,372.1z"/>
	<path class="st1" d="M350.8,41L350.8,41c-1.5-7.6-11.6-13.2-20.1-11.1c-10.5,2.5-16.5,16.2-12.2,23.8c3.5,6.1,12.7,6,13.2,6
		c4.1-0.1,8.4-1.8,11.9-4.4C348.6,51.6,351.9,46.3,350.8,41z"/>
	<path class="st1" d="M510.1,107.7c-4.1-1-8.5-0.2-12.2,1.7c-4,2.1-7.1,5.5-7.9,9.4c-0.3,1.5-0.2,3,0.1,4.4
		c1.7,7.4,10.7,13.9,18.9,14.2c0.5,0,9.7,0.1,13.2-6C526.6,124,520.6,110.3,510.1,107.7z"/>
</g>
</svg>
