<?xml version="1.0" encoding="utf-8"?>
<!-- Generator: Adobe Illustrator 24.0.3, SVG Export Plug-In . SVG Version: 6.00 Build 0)  -->
<!DOCTYPE svg PUBLIC "-//W3C//DTD SVG 1.1//EN" "http://www.w3.org/Graphics/SVG/1.1/DTD/svg11.dtd" [
	<!ENTITY ns_extend "http://ns.adobe.com/Extensibility/1.0/">
	<!ENTITY ns_ai "http://ns.adobe.com/AdobeIllustrator/10.0/">
	<!ENTITY ns_graphs "http://ns.adobe.com/Graphs/1.0/">
	<!ENTITY ns_vars "http://ns.adobe.com/Variables/1.0/">
	<!ENTITY ns_imrep "http://ns.adobe.com/ImageReplacement/1.0/">
	<!ENTITY ns_sfw "http://ns.adobe.com/SaveForWeb/1.0/">
	<!ENTITY ns_custom "http://ns.adobe.com/GenericCustomNamespace/1.0/">
	<!ENTITY ns_adobe_xpath "http://ns.adobe.com/XPath/1.0/">
]>
<svg version="1.1" id="general_1_" xmlns:x="&ns_extend;" xmlns:i="&ns_ai;" xmlns:graph="&ns_graphs;"
	 xmlns="http://www.w3.org/2000/svg" xmlns:xlink="http://www.w3.org/1999/xlink" x="0px" y="0px" viewBox="0 0 600 600"
	 style="enable-background:new 0 0 600 600;" xml:space="preserve">
<style type="text/css">
	.st0{fill:#E5AE00;}
	.st1{fill:#FF0098;}
	.st2{fill:#DFAC2C;}
	.st3{fill:#FF73C6;}
	.st4{fill:#004031;}
</style>
<metadata>
	<sfw  xmlns="&ns_sfw;">
		<slices></slices>
		<sliceSourceBounds  bottomLeftOrigin="true" height="527.4" width="579.2" x="10.4" y="-563.7"></sliceSourceBounds>
	</sfw>
</metadata>
<g id="general">
	<path class="st0" d="M262.8,249.8c-1.7-3.2,198.2-93.2,186.9-147.9c-0.2-0.9-1.5-10.5-9.3-14.4c-13.4-6.7-43.7,14.2-140.4,77.2
		c-127.4,83-285.2,204.4-289.3,271.1S35,593.5,170.6,554.2c135.5-39.4,398.5-247.7,392.5-270c-6.1-22.3-54.6,15-115.3,40.9
		c-60.7,25.9,22.3-72.3,74.8-96c52.6-23.7,105.2-77,28.3-57.4S383,263.4,324.3,268.7c-1.6,0.1-10.3,1-11-1.2
		c-2.9-9.5,149-57.4,144.6-75.4c-0.1-0.3-0.4-1.3-1.8-2.4C431.8,171.2,264.4,252.8,262.8,249.8z"/>
	<path class="st1" d="M211.6,432c1.7,5.7,8.1,29.3-1.5,56.2c-13.4,37.4-47.3,52.1-55,55.5c-7.6,3.3-18.8,8-33.8,8
		c-35.1,0.1-59-25.4-64.5-31.3c-22.2-23.7-40.1-65.5-24.4-100.6c6.9-15.5,18.1-24.5,25.9-30.7c7.5-6,36-28.8,74.7-24
		C170.1,369.6,201.3,397.6,211.6,432z"/>
	<path class="st2" d="M92.9,520.4c0.1,1.5-0.6,3.2-1.9,4.2c-2.9,2.2-8.9,0.5-11.4-3.4c-2.4-3.7-2-9.4,0.5-10.7
		c1.8-1,4.6,0.6,5.6,1.1c1.4,0.8,2.2,1.6,3.7,3.4C91.7,517.4,92.9,518.7,92.9,520.4z"/>
	<path class="st2" d="M87.9,487.6c-0.4,2.6-5.2,4.8-8.8,3.8c-6.3-1.6-9-12.7-6.1-15.4c1-1,2.6-0.8,3.3-0.7c1.8,0.2,3.1,1.2,7.5,6.2
		C87.9,486.3,88,486.9,87.9,487.6z"/>
	<path class="st2" d="M132.1,501.7c-0.5,2.4-4.5,3.8-7.6,3.1c-2.5-0.6-3.9-2.4-4.2-2.9c-2.3-3.1-2.4-7.9-0.7-8.9
		c1.2-0.7,2.1,1.3,7.5,3.4c1.8,0.7,3.3,1,4.3,2.6C131.6,499.2,132.4,500.4,132.1,501.7z"/>
	<path class="st2" d="M164.9,519.9c0.2,1.9-1.1,3.6-2.6,4.5c-2.4,1.5-5.5,0.5-7.2-1.1c-1.5-1.4-1.8-3.3-2.1-4.7
		c-0.3-1.6-0.6-3.9,0.6-4.9c1.5-1.2,4.5,0.3,6.2,1.2C162.3,516.3,164.7,517.6,164.9,519.9z"/>
	<path class="st2" d="M132.1,535.3c-0.6,2.7-4.8,4.4-8.1,3.6c-4.1-1-6.9-5.9-5.7-8.2c0.6-1.1,1.9-1.3,3.5-1.7
		c0.8-0.2,5.8-1.2,8.7,2.1C130.9,531.5,132.5,533.3,132.1,535.3z"/>
	<path class="st3" d="M97.9,105.4c18.6-18.6,0.8-66.5,10.6-69c0.6-0.2,1.1-0.1,1.8,0.1c13.6,2.7,1.8,47.7,22.6,65.7
		c18.5,16.1,55.5,4.7,57.7,15c0.1,0.5,0.2,0.8,0.1,1.3c-1.2,6.4-25.4,0.7-43.4,13.6c-4.4,3.1-7,6.3-8.5,8.2
		c-23.5,29-3.9,80.2-16.3,84.6c-1.1,0.4-2.1,0.3-2.4,0.2c-13.9-2.3,1.3-63.1-25.8-82.1c-8.7-6.1-31-14.3-45.8-13.6
		c-2.2,0.1-11.2,0.7-12.6-2.8c-0.6-1.5,0.4-3.3,0.8-3.9C42.2,113.2,82,121.2,97.9,105.4z"/>
	<path class="st4" d="M483.7,439c12.7-12.7,1.9-43.7,8.8-45.3c0.4-0.1,0.7,0,1.2,0c9.8,1.7,3.6,30.8,18.1,43.1
		c12.4,10.6,35.3,4.8,36.7,12c0.1,0.4,0.1,0.6,0.1,0.9c-0.8,4.3-17.3,0.5-29.6,9.3c-3,2.1-4.8,4.3-5.8,5.6
		c-16,19.7-2.7,54.7-11.1,57.7c-0.3,0.1-0.9,0.3-1.6,0.1c-6.7-1.1-2-24.2-13.5-45.5c-3.7-6.9-7.5-13.8-15.3-17.4
		c-12-5.5-27.1,0.1-28.6-4.2c-0.1-0.2-0.4-1.1,0.5-2.7C447.4,446.1,473.1,449.6,483.7,439z"/>
</g>
</svg>
