<?xml version="1.0" encoding="utf-8"?>
<!-- Generator: Adobe Illustrator 24.0.3, SVG Export Plug-In . SVG Version: 6.00 Build 0)  -->
<!DOCTYPE svg PUBLIC "-//W3C//DTD SVG 1.1//EN" "http://www.w3.org/Graphics/SVG/1.1/DTD/svg11.dtd" [
	<!ENTITY ns_extend "http://ns.adobe.com/Extensibility/1.0/">
	<!ENTITY ns_ai "http://ns.adobe.com/AdobeIllustrator/10.0/">
	<!ENTITY ns_graphs "http://ns.adobe.com/Graphs/1.0/">
	<!ENTITY ns_vars "http://ns.adobe.com/Variables/1.0/">
	<!ENTITY ns_imrep "http://ns.adobe.com/ImageReplacement/1.0/">
	<!ENTITY ns_sfw "http://ns.adobe.com/SaveForWeb/1.0/">
	<!ENTITY ns_custom "http://ns.adobe.com/GenericCustomNamespace/1.0/">
	<!ENTITY ns_adobe_xpath "http://ns.adobe.com/XPath/1.0/">
]>
<svg version="1.1" id="general_1_" xmlns:x="&ns_extend;" xmlns:i="&ns_ai;" xmlns:graph="&ns_graphs;"
	 xmlns="http://www.w3.org/2000/svg" xmlns:xlink="http://www.w3.org/1999/xlink" x="0px" y="0px" viewBox="0 0 600 600"
	 style="enable-background:new 0 0 600 600;" xml:space="preserve">
<style type="text/css">
	.st0{fill:#BC2B55;}
	.st1{fill:#FFB000;}
	.st2{fill:#374993;}
	.st3{fill:#EE5F9D;}
</style>
<metadata>
	<sfw  xmlns="&ns_sfw;">
		<slices></slices>
		<sliceSourceBounds  bottomLeftOrigin="true" height="541.8" width="582.2" x="7.9" y="-573.5"></sliceSourceBounds>
	</sfw>
</metadata>
<g id="general">
	<path class="st0" d="M583.6,222.1c-33.8-9.3-66.5,8.2-106.1-15.2c-39.6-23.3,54.8-106.1,45.5-116.6c-9.3-10.5-73.5,57.1-139.9,45.5
		c-66.5-11.7-28-86.3-40.8-102.6c-12.8-16.3-59.5,107.3-99.1,102.6c-39.6-4.7-50.1-60.6-73.5-72.3c-1.7-0.8-2.9-1-4.2-0.7
		c-17.3,4.6,19,105.4-17.7,134.4c-22,17.4-83.1,19.2-93.5,19.1c-3.4,0-14.6-0.4-20.1,6.7c-0.4,0.6-3.1,4-2.9,7.8
		c0.3,10.3,20.6,14.3,49.1,29c36.9,19,41.4,32.1,42.6,37.9c0.8,3.8,1.2,7.8,0,12.8c-9.4,39.1-76.6,83.1-71.1,94.4
		c0.7,1.5,3,3.2,15.2,2.3c49.3-3.4,72.7-35.9,97.3-27.1c11.2,4,16.7,14.5,17,15c13.3,26.1-21,64.1-13.4,104.1
		c0.6,3.1,1.3,5.4,3.1,6.2c12.2,5.4,41.8-72.1,81.4-70.4c10,0.4,17.5,5.8,19.5,7.4c13.7,10.3,18.2,29.5,25.4,62.2
		c3.2,14.6,5.2,27.3,13.4,29.8c4,1.3,7.9-0.5,9-1c13.1-6.1,10.1-27.9,18.4-56.2c6.5-22,11.1-37.8,22.8-42.1
		c22.7-8.3,68.6,29.2,80.8,54.8c1.6,3.3,6.8,15.1,13,14.7c3.3-0.2,5.7-3.7,6.5-5c11.9-18.2-14.6-86.6,7-108.8
		c38.5-39.6,110.8,1.2,106.1-24.5c-4.7-25.7-70-44.3-67.6-73.5S617.4,231.4,583.6,222.1z M471.5,291c-1.3,40.4-22.4,67.6-28.4,75
		c-29.7,37.2-86.1,49-89.2,49.7c-67.1,13.6-119.6-18-128.9-23.8c-11.9-7.4-31-19.7-46.5-43.3c-2.7-4.1-38-60-14-120.8
		c3.4-8.7,12-27.4,30.2-44.4c44.7-41.7,110.1-35.4,125.2-33.9c12.9,1.2,101.8,11.1,137.4,79.7C472.2,257.9,471.7,285.2,471.5,291z"
		/>
	<path class="st1" d="M471.5,291c-1.3,40.4-22.4,67.6-28.4,75c-29.7,37.2-86.1,49-89.2,49.7c-67.1,13.6-119.6-18-128.9-23.8
		c-11.9-7.4-31-19.7-46.5-43.3c-2.7-4.1-38-60-14-120.8c3.4-8.7,12-27.4,30.2-44.4c44.7-41.7,110.1-35.4,125.2-33.9
		c12.9,1.2,101.8,11.1,137.4,79.7C472.2,257.9,471.7,285.2,471.5,291z"/>
	<path class="st2" d="M208.2,233.9c0,0,1.4,17.5,29.3,30.7c27.9,13.3,64.6-34.2,64.6-34.2l-8.7-3.5c0,0-16.8,23.1-25.9,26.5
		c-9.1,3.5-30.7,7.9-40.5-6.5c-9.8-14.4-9.8-14.4-9.8-14.4L208.2,233.9z"/>
	<path class="st2" d="M413.2,233.9c-0.9,2.7-8.2,23.7-29.3,30.7c-14.4,4.8-26.8,0.4-31.8-1.4c-22.1-8.2-31.1-28.5-32.9-32.8
		c2.2-0.9,4.4-1.8,6.6-2.6c1.1,2.9,8.4,21.1,27.8,28.1c3.5,1.2,21.3,7.6,36.5-3c9.7-6.7,13-16.7,14-20.4L413.2,233.9z"/>
	<path class="st3" d="M193.4,290.6c0,0,51.2,66.3,120.4,56.4c69.3-9.8,99.3-63.3,99.3-63.3l6.1,3.3c0,0-14,28-31.7,40.6
		c-17.7,12.5-48.1,28.8-68.3,30.2c-20.2,1.5-70.4-5.2-94-28c-23.6-22.9-37.6-36.1-37.6-36.1L193.4,290.6z"/>
	<path class="st0" d="M334.9,280.8c-0.5,10.6-16.7,17.8-29,18.3c-11.1,0.5-26.8-4.2-28.4-13.5c-1.6-9.3,11.8-18.6,21.1-22
		c3.3-1.2,13.7-4.9,23.9,0.6C327.4,266.8,335.3,273.1,334.9,280.8z"/>
	<path class="st2" d="M99.8,139c0,0,8.4-15.6,22.2-16.8c4.1-0.4,12.3-3.3,19.8,1.1c4.2,2.5,6.3,6,7.8,8.6c1,1.7,7.7,13.5,3.1,20.8
		c-3,4.8-9.5,5.7-12.1,6.1c-22.8,3.6-127.8,19.8-131.4,4.8S9.7,139,26.5,136s24.6,12.3,24.6,12.3s3-18.9,16.2-27
		C80.6,113.2,99.8,121.6,99.8,139z"/>
	<path class="st2" d="M514.9,537.7c1.7-2.4,13.3-18.5,33.6-20c3.2-0.2,15.7-1,27.1,7.3c2.5,1.9,8.3,6.2,11.6,14.2
		c3.5,8.6,4,21.3-2.8,28.3c-5.7,5.9-14.5,5.8-17.8,5.8c-116.1-0.8-171.2,6-180.5-21c-2.7-7.9-1.7-19.2,4-27
		c8.6-11.7,25.3-12.3,27.9-12.4c2.7,0,7.6-0.1,13,2.5c4.9,2.3,7.7,5.6,8.4,6.3c6.4,7.5,7.4,18.4,7.4,18.4l0,0
		c2.7-16.2,13.4-29.4,27.8-33.5c14.1-4,33.8,0.1,39.9,13.5C517.3,526.9,516,533.8,514.9,537.7z"/>
</g>
</svg>
