<?xml version="1.0" encoding="utf-8"?>
<!-- Generator: Adobe Illustrator 24.0.3, SVG Export Plug-In . SVG Version: 6.00 Build 0)  -->
<!DOCTYPE svg PUBLIC "-//W3C//DTD SVG 1.1//EN" "http://www.w3.org/Graphics/SVG/1.1/DTD/svg11.dtd" [
	<!ENTITY ns_extend "http://ns.adobe.com/Extensibility/1.0/">
	<!ENTITY ns_ai "http://ns.adobe.com/AdobeIllustrator/10.0/">
	<!ENTITY ns_graphs "http://ns.adobe.com/Graphs/1.0/">
	<!ENTITY ns_vars "http://ns.adobe.com/Variables/1.0/">
	<!ENTITY ns_imrep "http://ns.adobe.com/ImageReplacement/1.0/">
	<!ENTITY ns_sfw "http://ns.adobe.com/SaveForWeb/1.0/">
	<!ENTITY ns_custom "http://ns.adobe.com/GenericCustomNamespace/1.0/">
	<!ENTITY ns_adobe_xpath "http://ns.adobe.com/XPath/1.0/">
]>
<svg version="1.1" id="general_1_" xmlns:x="&ns_extend;" xmlns:i="&ns_ai;" xmlns:graph="&ns_graphs;"
	 xmlns="http://www.w3.org/2000/svg" xmlns:xlink="http://www.w3.org/1999/xlink" x="0px" y="0px" viewBox="0 0 600 600"
	 style="enable-background:new 0 0 600 600;" xml:space="preserve">
<style type="text/css">
	.st0{fill:#067BBB;}
	.st1{fill:#820002;}
	.st2{fill:#00614D;}
	.st3{fill:#EE5F9D;}
	.st4{fill:#DDD9C9;}
</style>
<metadata>
	<sfw  xmlns="&ns_sfw;">
		<slices></slices>
		<sliceSourceBounds  bottomLeftOrigin="true" height="546.7" width="587.6" x="4.8" y="-576.3"></sliceSourceBounds>
	</sfw>
</metadata>
<g id="general">
	<path class="st0" d="M567,419.7c-3.8,10.9-8.6,21.3-14.3,31.1c-56.4,96.4-203.1,140.7-348.9,120.8c-74.3-10.2-120.8-55.2-150-107.1
		c-34-60.3-44.5-129.9-48.1-164.8C-1,234.7,32,152.2,60.7,128c28.6-24.2,90.3-45.1,90.3-45.1s3.3-3.3,0-18.7
		c-3.3-15.4,0-34.1,0-34.1s138.7-1.1,147.5,0c8.8,1.1,137.6,0,137.6,0l-7.7,52.8c0,0,60.5,33,115.6,74.9
		C598.9,199.5,607.7,301.9,567,419.7z"/>
	<path class="st1" d="M552.7,450.8c-56.4,96.4-203.1,140.7-348.9,120.8c-74.3-10.2-120.8-55.2-150-107.1c17.8-4.4,42.3-8.7,55.2-3.2
		c21.7,9.3,25.8,39.3,25.8,39.3s21.7-21.7,32-30c10.3-8.3,75.4-12.4,82.6,9.3c7.2,21.7,10.3,26.9,10.3,26.9s7.2-26.9,21.7-36.2
		c14.5-9.3,32,12.4,32,12.4s8.3-16.5,32-24.8c23.8-8.3,39.3,24.8,39.3,24.8s10.3-15.5,37.2-25.8c26.9-10.3,45.5,32,45.5,32
		s3.1-19.6,21.7-34.1C500,446.6,529.9,448.1,552.7,450.8z"/>
	<path class="st2" d="M362,489.2c0,0-31-46.5-16.5-93c14.5-46.5,55.8-59.9,6.2-120.9c0,0,57.9,11.4,54.8,43.4
		c-3.1,32-30,57.9-38.2,88.8S352.7,412.8,362,489.2z"/>
	<path class="st2" d="M179.1,489.2c0,0-26.9-39.3-22.7-82.6c4.1-43.4,32-75.4,22.7-115.7s-55.8-51.7-10.3-105.4
		c0,0-13.4,23.8,6.2,41.3s47.5,48.6,39.3,76.4s-20.7,44.4-25.8,75.4S165.7,451,179.1,489.2z"/>
	<path class="st3" d="M462.1,318.3c0,0-4.3,5.5-12.9,13.2c-0.3,0.2-0.6,0.5-0.8,0.7c-2,1.7-4.1,3.6-6.5,5.4
		c-0.6,0.5-1.2,0.9-1.8,1.4c-21.4,16.4-58.4,36.7-111.8,38.1c-90.4,2.4-94.8-26.6-94.8-26.6s-31.8,10.3-50.4,22.3
		c-18.6,12-91.1,22.9-72.8-4c18.2-26.8,66.9-35.9,66.9-35.9s-94.9-15.5-74.1-37.1c20.6-21.4,67.4-1.4,68.4-1
		c-0.9-0.9-48-48.6-47.1-67.1c0.9-18.7,42.5-0.8,71.2,30.1c28.7,30.9,41.4,66.1,41.4,66.1s42.3-31.3,85.3-48c-5.5-3-8.9-6.1-9.5-7.9
		c-0.7-2-0.3-3.8-0.3-3.8s0.4-1.8,2.1-3.2c2.4-2.2,9.4-1.4,17.4,2.3c0,0-7.1-8.4-6.3-15.5c0.9-7.1,20,5.1,20,5.1s-3.5-14.4,4.9-21.6
		c0.4-0.3,0.8-0.5,1.3-0.6c2.8-0.7,6.7,1.6,20.5,23.1c4.2,6.5,6.3,10.1,7.3,12.7C425.8,273.7,462.1,318.3,462.1,318.3z"/>
	<path class="st4" d="M374.1,325.2c0,0-43.1-39.4-45.7-28.6c-2.7,10.7,8.6,20.4,8.6,20.4s-22.7,1.3-19.2,7.6s14.2,8.9,14.2,8.9
		c-8.7,1.7-14.8,5.1-15.5,8.3c-0.5,2.2,0.2,3.8,0.2,3.8c0,0,0.7,1.7,2.5,2.9c3.8,2.6,26,2.5,46.5-14.9
		C369.5,330.3,372.4,327.2,374.1,325.2z"/>
	<path d="M417.5,315.4c-0.8,5.5-6,9.4-11.5,9.2c-5.3-0.2-10-4.3-10.6-9.3c-0.8-6.6,5.5-13.1,12.3-12.3
		C413.5,303.6,418.4,309.2,417.5,315.4z"/>
	<path class="st4" d="M407.2,307.2c1,2.2-2,6.6-5.2,6.3c-1.7-0.2-3.5-1.7-3.6-3.5c-0.2-2.3,2.3-4,4.4-4.4
		C404.4,305.4,406.6,305.8,407.2,307.2z"/>
	<path class="st2" d="M230.8,527.4c0,0-25.8-76.4,0-116.7s73.3-40.3,58.9-81.6s-40.3-38.2-25.8-69.2s33.1-38.2,33.1-38.2
		s-22.7,30-18.6,47.5s35.1,20.7,34.1,68.2c-1,47.5-32,44.4-51.7,79.5S226.6,448.9,230.8,527.4z"/>
	<path class="st2" d="M445.7,506.8c0,0-11.4-81.6,22.7-102.3c34.1-20.7,51.7-28.9,39.3-66.1c-12.4-37.2-48.6-68.2-17.6-163.2
		c0,0-1,32,3.1,58.9s49.6,60.9,35.1,117.8c-14.5,56.8-39.3,56.8-53.7,83.7C460.1,462.4,445.7,506.8,445.7,506.8z"/>
	<path class="st2" d="M94.4,482.6c0,0-14.5-20.7-11.4-48.6c3.1-27.9,34.1-51.7,5.2-100.2c0,0,24.8,1,28.9,25.8
		C121.3,384.4,80,426.8,94.4,482.6z"/>
	<path d="M448.4,332.2c-2,1.7-4.1,3.6-6.5,5.4c-6.9-1.8-12-5-12-5l4-3.8c0,0,1.7,2,10.5,3.3C445.5,332.3,446.9,332.3,448.4,332.2z"
		/>
</g>
</svg>
