<?xml version="1.0" encoding="utf-8"?>
<!-- Generator: Adobe Illustrator 24.0.3, SVG Export Plug-In . SVG Version: 6.00 Build 0)  -->
<!DOCTYPE svg PUBLIC "-//W3C//DTD SVG 1.1//EN" "http://www.w3.org/Graphics/SVG/1.1/DTD/svg11.dtd" [
	<!ENTITY ns_extend "http://ns.adobe.com/Extensibility/1.0/">
	<!ENTITY ns_ai "http://ns.adobe.com/AdobeIllustrator/10.0/">
	<!ENTITY ns_graphs "http://ns.adobe.com/Graphs/1.0/">
	<!ENTITY ns_vars "http://ns.adobe.com/Variables/1.0/">
	<!ENTITY ns_imrep "http://ns.adobe.com/ImageReplacement/1.0/">
	<!ENTITY ns_sfw "http://ns.adobe.com/SaveForWeb/1.0/">
	<!ENTITY ns_custom "http://ns.adobe.com/GenericCustomNamespace/1.0/">
	<!ENTITY ns_adobe_xpath "http://ns.adobe.com/XPath/1.0/">
]>
<svg version="1.1" id="general_1_" xmlns:x="&ns_extend;" xmlns:i="&ns_ai;" xmlns:graph="&ns_graphs;"
	 xmlns="http://www.w3.org/2000/svg" xmlns:xlink="http://www.w3.org/1999/xlink" x="0px" y="0px" viewBox="0 0 600 600"
	 style="enable-background:new 0 0 600 600;" xml:space="preserve">
<style type="text/css">
	.st0{fill:#FF73C6;}
	.st1{fill:#FF0098;}
	.st2{fill:#E5AE00;}
	.st3{fill:#004031;}
</style>
<metadata>
	<sfw  xmlns="&ns_sfw;">
		<slices></slices>
		<sliceSourceBounds  bottomLeftOrigin="true" height="574.2" width="564.1" x="25.2" y="-592.7"></sliceSourceBounds>
	</sfw>
</metadata>
<g id="general">
	<path class="st0" d="M191,424.7c-0.3,0.2-0.6,0.4-0.9,0.6c-31.3,20.8-92.1,33-110.3,23.5c-18.2-9.6-12.2-28.7-4.3-66.9
		c7.8-38.2,25.2-63.4,53-87.7c27.8-24.3,86-28.7,86-28.7c-8-1-15.6-2.7-22.8-5.1c-17.7,2-68.2,9.8-94.9,33.1
		c-32.7,28.6-53.2,58.3-62.4,103.3s-16.4,67.5,5.1,78.8s93.1-3.1,129.9-27.6c6.4-4.3,12.5-8.7,18.4-13.3
		c15.1-11.9,28.4-25.3,39.6-40.5C216.6,405.6,204.4,415.7,191,424.7z"/>
	<path class="st0" d="M75.1,156.5c-14.3-46-35.8-109.4,8.2-121.7S203,69.6,232.6,119.7c23.8,40.3,30.5,60.1,32.2,66.3
		c-4.1-9.2-10.6-22.1-20.9-39.5c-25.2-42.6-89.5-82.5-126.8-72.1c-37.4,10.4-19.1,64.3-6.9,103.4c9.6,30.9,34.5,63.5,72,79.2
		C125.5,243.6,88.2,198.8,75.1,156.5z"/>
	<path class="st0" d="M398.3,427.6c-8.1-42.1-32.4-82-40.4-94.3c-3.8-3.1-7.1-6-9.8-8.6c0,0,28.2,40.3,36.5,83.4
		c1.4,7.4,7.6,42.8-7.5,82.3c-8,20.9-15,39.4-29.9,43.6c-28.2,8.1-65.1-40.9-86-81.6c-8.5-16.6-9.8-40.1-8.6-61.1
		c1.5-25.6,6.6-47.4,6.8-48.3c-3.3,8.5-7.2,16.4-11.7,23.8c-2,11.2-4.3,27.1-5.1,44.3c-1.1,23.9,0.7,50,10.3,68.7
		c24.6,48,68.1,105.7,101.3,96.1c17.5-5,25.8-26.7,35.2-51.4C407.3,478,400,436.3,398.3,427.6z"/>
	<path class="st0" d="M271.7,204.8c0,0-0.8-5.1-6.2-17.3c2.5-22.2,10.9-65.7,43.9-104.5C342.2,44.2,404.8,4,435.1,23.6
		C466,43.5,454.9,121,427,170.9c-11.6,20.7-25.8,36.1-38.3,47c7-7.7,14.1-16.9,20.2-27.9c23.7-42.3,33.1-108.2,6.9-125.1
		C390.1,48.3,337,82.4,309,115.3C280.6,148.7,273.7,186.1,271.7,204.8z"/>
	<path class="st0" d="M589.3,334.9c-3,28.6-69.5,50.7-123.2,46.5c-27-2.1-50.1-10.8-68.7-21.1c-9.3-5.2-17.5-10.7-24.5-16.1
		c3.4,2.3,7.1,4.5,11,6.6c15.8,8.8,35.4,16.1,58.3,17.9c45.6,3.6,102.1-15.2,104.7-39.5c0.9-8.6-5.4-15.5-18.2-28.8
		c-13.1-13.7-39-40.9-84.1-54.9c-32.2-10-60.7-9.1-79.1-6.8c3.9-2.9,8.4-6.5,13.2-10.8c21.8-2.4,54.1-2.9,90.4,8.3
		c53.1,16.4,83.6,48.4,99,64.6C582.9,316.7,590.4,324.7,589.3,334.9z"/>
	<path class="st1" d="M528.6,300.4c-13.1-13.7-39-40.9-84.1-54.9c-32.2-10-60.7-9.1-79.1-6.8c3.9-2.9,8.4-6.5,13.2-10.8
		c3.3-3,6.7-6.4,10.1-10.1c7-7.7,14.1-16.9,20.2-27.9c23.7-42.3,33.1-108.2,6.9-125.1C390.1,48.3,337,82.4,309,115.3
		c-28.4,33.4-35.3,70.8-37.3,89.5c0,0-0.8-5.1-6.2-17.3c-0.2-0.5-0.4-0.9-0.6-1.4c-4.1-9.2-10.6-22.1-20.9-39.5
		c-25.2-42.6-89.5-82.5-126.8-72.1c-37.4,10.4-19.1,64.3-6.9,103.4c9.6,30.9,34.5,63.5,72,79.2c3.1,1.3,6.2,2.5,9.4,3.5
		c7.2,2.3,14.8,4.1,22.8,5.1c0,0-58.2,4.3-86,28.7c-27.8,24.3-45.2,49.5-53,87.7c-7.8,38.2-13.9,57.3,4.3,66.9
		c18.2,9.6,79-2.6,110.3-23.5c0.3-0.2,0.6-0.4,0.9-0.6c13.5-9.1,25.6-19.1,36.2-30.5c7.8-8.4,14.7-17.5,20.7-27.5
		c4.4-7.4,8.3-15.4,11.7-23.8c-0.2,0.9-5.4,22.7-6.8,48.3c-1.2,21,0.1,44.5,8.6,61.1c20.9,40.8,57.8,89.7,86,81.6
		c14.9-4.3,21.9-22.7,29.9-43.6c15.1-39.5,8.9-74.9,7.5-82.3c-8.3-43-36.5-83.4-36.5-83.4c2.7,2.6,6,5.5,9.8,8.6
		c4.3,3.5,9.2,7.2,14.8,10.9c0,0,0,0,0.1,0.1c3.4,2.3,7.1,4.5,11,6.6c15.8,8.8,35.4,16.1,58.3,17.9c45.6,3.6,102.1-15.2,104.7-39.5
		C547.7,320.7,541.3,313.8,528.6,300.4z"/>
	<path class="st2" d="M368.9,177.1c-4.4,2.6-3.4,11-3.3,11.8c0.3,2.1,1,4.7,2.2,7.1c-5.4,8.7-15,22.4-25.5,30.6
		c-5.3,4.1-11.5,8.1-17.5,11.8c-2.8-2.4-6.7-5.7-11.7-8.8c7.3-9.3,18.3-23.8,20.8-30.7c2.8-7.8,7.7-28.6,10.1-39.2
		c2.3,0.1,4.4-0.3,5.9-1.4c3.5-2.5,3.4-7.9,3.3-9.1c-0.1-4.9-2.9-11.3-7.8-12.5c-6.7-1.6-15.3,6.9-14,14c0.4,2.1,1.6,3.9,3.3,5.3
		c-3,12.9-8.9,37.7-12.2,43.5c-3.1,5.3-13.1,17.5-19.3,24.9c-1.9-0.8-3.9-1.5-6-2c0.3-3.7,0.9-7.2,2.4-9.5c2.2-3.5,5.1-9,7.4-13.5
		c7.7-0.8,13.9-9.3,12.5-15.1c-1.6-6.4-12.2-8-16.2-8.1c-4.5-0.2-6.4,1.2-6.8,1.5c-4.3,3.2-3.4,9.8-3.3,10.3c0.3,2.1,1.2,4.2,2.5,6
		c-2.4,4-5.2,9.3-6.5,13.6c-0.9,3.2-1.8,8.3-2.5,13.3c-0.7,0-1.3,0-2,0c-2.7,0-5.3,0.3-7.9,0.8c-1.6-3.2-3.5-6.7-5.5-10.2
		c-3.2-5.5-8.5-14.7-16.1-24.1c-5.7-7-15-16.7-29.1-26.1c0.5-1.1,0.9-2.3,0.9-3.6c-0.1-5.6-6.1-10.4-12.1-10.6
		c-7.1-0.2-13.1,6.3-13.1,12.7c0,3.6,1.9,8.2,5.9,9.9c3.7,1.6,7.3-0.1,9.7-1.2c0.4-0.2,0.9-0.4,1.6-0.8c8,6.1,17.9,15.1,27.1,27.6
		c8.3,11.2,13.6,22.2,17.1,31.2c-3.1,1.6-6,3.5-8.8,5.7c-4.9-11-12-25.3-16.5-27c-4.5-1.8-12.5-6.4-18.1-9.8
		c0.1-0.8,0.2-1.3,0.2-1.5c0.1-0.9,0.5-9.2-4.6-11.8c-3.6-1.9-7.8,0.1-9.6,1c-5.1,2.4-13.1,9.3-10.6,16.7c2,5.9,9.9,9.5,16.3,7.3
		c1.2-0.4,2.2-1,3.1-1.7c5.1,2.5,11.5,6.1,15.5,10.2c4.2,4.3,10.4,15.8,15.1,25.2c-10.6,11.8-17.6,27.4-18,42.4
		c-0.1,4.1-0.6,19.6,10.2,32.4c15.5,18.4,41.5,16.3,47.3,15.8c29.4-2.5,57.6-25.1,60.5-49.1c1.1-9-1.5-17.5-1.8-18.4
		c-1.9-6.2-4.9-11.1-8.1-15.1c18.9-14.8,31.5-31.9,39.7-46c0.7,0.2,1.3,0.4,2.1,0.4c6.8,0.5,12.9-6,13.2-11.8
		C390.7,181.7,375,173.4,368.9,177.1z"/>
	<path class="st3" d="M242.8,411c0.8-17.2,3.1-33.1,5.1-44.3c-5.9,10-12.9,19.1-20.7,27.5c-11.2,15.2-24.5,28.5-39.6,40.5
		c-2.9,9.1-5.2,17.8-6.7,26.1c-4.5,25.4-5.4,51.5-4.9,73.7c-9-14-18.3-25.2-33.2-32.3c-4.3-2-30.7-14-54.4-1.6
		c-3.3,1.7-13.4,7.2-20,19.3c-1.1,2-8.1,15.3-5.2,27.7c6.2,26.3,53.8,36.8,83.4,37c12.3,0.1,23.3-1.5,32.7-3.8
		c0.9,7.5,1.6,11.9,1.6,11.9h46.2c0,0-17.2-78.7-11.8-113.1C217.5,465.5,229.5,438.3,242.8,411z"/>
</g>
</svg>
