<?xml version="1.0" encoding="utf-8"?>
<!-- Generator: Adobe Illustrator 24.0.3, SVG Export Plug-In . SVG Version: 6.00 Build 0)  -->
<!DOCTYPE svg PUBLIC "-//W3C//DTD SVG 1.1//EN" "http://www.w3.org/Graphics/SVG/1.1/DTD/svg11.dtd" [
	<!ENTITY ns_extend "http://ns.adobe.com/Extensibility/1.0/">
	<!ENTITY ns_ai "http://ns.adobe.com/AdobeIllustrator/10.0/">
	<!ENTITY ns_graphs "http://ns.adobe.com/Graphs/1.0/">
	<!ENTITY ns_vars "http://ns.adobe.com/Variables/1.0/">
	<!ENTITY ns_imrep "http://ns.adobe.com/ImageReplacement/1.0/">
	<!ENTITY ns_sfw "http://ns.adobe.com/SaveForWeb/1.0/">
	<!ENTITY ns_custom "http://ns.adobe.com/GenericCustomNamespace/1.0/">
	<!ENTITY ns_adobe_xpath "http://ns.adobe.com/XPath/1.0/">
]>
<svg version="1.1" id="general_1_" xmlns:x="&ns_extend;" xmlns:i="&ns_ai;" xmlns:graph="&ns_graphs;"
	 xmlns="http://www.w3.org/2000/svg" xmlns:xlink="http://www.w3.org/1999/xlink" x="0px" y="0px" viewBox="0 0 600 600"
	 style="enable-background:new 0 0 600 600;" xml:space="preserve">
<style type="text/css">
	.st0{fill:#2BB22B;}
	.st1{fill:#FFB000;}
	.st2{fill:#374993;}
	.st3{fill:#BC2B55;}
</style>
<metadata>
	<sfw  xmlns="&ns_sfw;">
		<slices></slices>
		<sliceSourceBounds  bottomLeftOrigin="true" height="420.9" width="591.1" x="4.4" y="-540.5"></sliceSourceBounds>
	</sfw>
</metadata>
<g id="general">
	<path class="st0" d="M99.9,335.9c5.8,1.3,12.7,7.8,19.5,14.4c-3.7,2.6-7.5,5.7-11.6,9.2C99.4,345.5,94.2,334.6,99.9,335.9z"/>
	<path class="st0" d="M182.7,325c-10,2.7-18.5,5-26,7.3c3.7-19,6.8-39.6,12-42.5C174.2,286.8,178,307.7,182.7,325z"/>
	<path class="st0" d="M247.7,280.4c5.5,7.7,7.1,21.4,8.4,31c-11.8,1.2-22.8,2.5-32.5,4c1.4-3.1,2.6-6.1,3.3-8.8
		c3.5-13.2,11.7-28.7,17.7-28.4C246.1,278.3,247.1,279.6,247.7,280.4z"/>
	<path class="st0" d="M416.6,305.7c-24.1-0.5-52.4-0.2-81,0.8c-21.9,0.8-43.9,2-64.1,3.6c11.2-13.5,26.1-34,31.2-38.7
		c0.4-0.4,1.2-1,2.1-1c3.4,0,3.7,8.6,9.6,18.4c3.7,6.1,5.5,9.2,8.4,9.5c12.7,1.5,23.8-40.3,44.3-42.4
		C385.7,254,401.9,287.5,416.6,305.7z"/>
	<path class="st0" d="M463.6,308.2c-5.7-0.6-12.7-1.2-20.5-1.6c4.3-9.7,6.5-22.6,11.3-22.3C459.2,284.5,459.6,297.5,463.6,308.2z"/>
	<path class="st0" d="M525.1,341.4c-8.6-9.5-18.8-17.8-30.2-23.9c19-9.7,39.9-31.4,46.1-26.8C544.8,293.7,542.4,306.8,525.1,341.4z"
		/>
	<path class="st1" d="M554.7,404.7c-23.7-1.5-35.6,39.4-72.6,40.5c-30.2,0.9-17-7.5-33-33.9c-16-26.4-77.3-15.1-102.8,7.5
		c-25.5,22.6-86.7,20.7-94.3-6.6s-45.3-25.5-77.3-15.1c-32.1,10.4-33.9,27.3-66,21.7c-24.2-4.3-21-16-38.6-20.3
		c5.6-7,12.4-14.8,20.7-23c6.3-6.3,11.9-11.5,17.1-16c4.1-3.5,7.9-6.5,11.6-9.2c0.6-0.4,1.2-0.9,1.8-1.3
		c11.9-8.3,22.4-12.7,35.4-16.7c7.6-2.3,16-4.5,26-7.3c4.5-1.2,9.4-2.6,14.7-4.1c6.9-2,15.8-3.8,26.2-5.4c9.7-1.5,20.7-2.8,32.5-4
		c5-0.5,10.1-0.9,15.4-1.4c20.2-1.6,42.2-2.8,64.1-3.6c28.6-1,56.9-1.2,81-0.8c9.6,0.2,18.6,0.5,26.5,0.9c7.8,0.4,14.7,0.9,20.5,1.6
		c1.2,0.1,2.3,0.3,3.4,0.4c9.9,1.3,19.2,4.5,27.8,9c11.4,6,21.6,14.4,30.2,23.9C543.6,361.8,554.7,387.1,554.7,404.7z"/>
	<path class="st2" d="M587.7,434.9c-3.3-6.3-15.1-29-33-30.2c-23.7-1.5-35.6,39.4-72.6,40.5c-30.2,0.9-17-7.5-33-33.9
		c-16-26.4-77.3-15.1-102.8,7.5c-25.5,22.6-86.7,20.7-94.3-6.6s-45.3-25.5-77.3-15.1c-32.1,10.4-33.9,27.3-66,21.7
		c-24.2-4.3-21-16-38.6-20.3c-5.7-1.4-13.7-2-25.5-1.3C-3.5,400,5,500,5,500c40.2,2.8,80.5,5.7,120.7,8.5
		C345,525.1,432.4,530,462.3,530.1c5.2,0,26.8,0,55.6,2.8c22.3,2.2,40.5,5.2,52.8,7.5C573.2,537,611.8,481.3,587.7,434.9z"/>
	<path class="st1" d="M213.1,162.1c-0.7,3.3-2.6,12.2-10.3,19.8c-11.2,11-25.9,10.5-28.3,10.3c-15.4-0.8-30.4-11.1-35.5-26.5
		c-1-3.1-4.6-15.3,1.8-27.4c7.9-15,25.9-19.8,39.1-18.4c11.4,1.2,26.2,7.6,31.9,21.1C215.6,150.1,213.8,158.9,213.1,162.1z"/>
	<path class="st2" d="M410,318.4h-7.1c0,0-8.2-42.6-9-50c-0.4-3.9-2.5-17.5-4.3-29.3c2.5-0.5,5-0.9,7.5-1.4
		c2.7,15.8,6.4,36.6,7.4,40.6C406.2,284.8,410,318.4,410,318.4z"/>
	<path class="st3" d="M470.5,185.2c-2.1-1.3-4.3-2.6-6.5-3.8c-11.6-6.6-24.4-12.9-37.6-17.6c-1.8-0.6-3.6-1.2-5.4-1.8c0,0,0,0,0,0
		c-8.4-2.6-16.9-4.6-25.4-5.5c-5.7-0.6-11-0.6-16-0.2c-2.3,0.2-4.5,0.5-6.7,1c-14.4,2.9-26,10.3-35.8,21c-3.1,3.4-6,7-8.8,11
		c-13.4,18.9-23.6,44-34.3,70.4c0,0,10.1-2.5,26.4-6.2c1.7-0.4,3.4-0.8,5.1-1.2c10.8-2.4,23.8-5.2,38.2-8.1c2.1-0.4,4.2-0.8,6.3-1.3
		c5-1,10-2,15.2-3c1.5-0.3,2.9-0.6,4.5-0.8c2.5-0.5,5-0.9,7.5-1.4c5.2-1,10.6-2,16.1-3c2.3-0.4,4.7-0.9,7.1-1.3
		c13.1-2.4,26.6-4.9,39-7.1c2.1-0.4,4.2-0.8,6.3-1.1c27.3-4.9,48.3-8.7,48.3-8.7S496,200.6,470.5,185.2z"/>
	<path class="st1" d="M337,178.2c-1.5,11.4-4,29.3-6.6,38.2c-2.3,8.1-4,24.1-5.1,35.9c-1.8,0.4-3.5,0.8-5.1,1.2
		c1.2-8.7,2.6-20,3.8-30.1c1.2-10.4,2.9-23.6,4.2-34.1C331,185.2,333.9,181.6,337,178.2z"/>
	<path class="st1" d="M379.5,156.3c-3.3,19.2-5,34.3-5.8,45.4c-0.5,6.2-1.2,17.8-3.1,34.4c-0.3,2.4-0.5,4.6-0.8,6.8
		c-2.1,0.4-4.2,0.8-6.3,1.3c1.2-10.1,2.6-22.8,3.8-34.4c1.7-17,4.2-40.3,5.5-52.5C375,156.8,377.3,156.5,379.5,156.3z"/>
	<path class="st1" d="M426.3,163.8c-2.7,15.7-3.7,28.3-4.1,38c-0.2,6-0.3,16.9-2,31.7c-2.4,0.4-4.7,0.9-7.1,1.3
		c0.9-8,1.8-16.8,2.7-24.9c1.5-15,3.6-34.9,5-47.8C422.7,162.5,424.5,163.1,426.3,163.8z"/>
	<path class="st1" d="M470.5,185.2c-1.4,11.1-2.8,22.2-4.1,33.3c-0.3,2.2-0.5,4.4-0.8,6.6c-2.1,0.4-4.2,0.8-6.3,1.1
		c0-0.4,0.1-0.8,0.1-1.1c1.4-13.5,3.2-31,4.6-43.8C466.2,182.6,468.4,183.9,470.5,185.2z"/>
</g>
</svg>
