<?xml version="1.0" encoding="utf-8"?>
<!-- Generator: Adobe Illustrator 24.0.3, SVG Export Plug-In . SVG Version: 6.00 Build 0)  -->
<!DOCTYPE svg PUBLIC "-//W3C//DTD SVG 1.1//EN" "http://www.w3.org/Graphics/SVG/1.1/DTD/svg11.dtd" [
	<!ENTITY ns_extend "http://ns.adobe.com/Extensibility/1.0/">
	<!ENTITY ns_ai "http://ns.adobe.com/AdobeIllustrator/10.0/">
	<!ENTITY ns_graphs "http://ns.adobe.com/Graphs/1.0/">
	<!ENTITY ns_vars "http://ns.adobe.com/Variables/1.0/">
	<!ENTITY ns_imrep "http://ns.adobe.com/ImageReplacement/1.0/">
	<!ENTITY ns_sfw "http://ns.adobe.com/SaveForWeb/1.0/">
	<!ENTITY ns_custom "http://ns.adobe.com/GenericCustomNamespace/1.0/">
	<!ENTITY ns_adobe_xpath "http://ns.adobe.com/XPath/1.0/">
]>
<svg version="1.1" id="general_1_" xmlns:x="&ns_extend;" xmlns:i="&ns_ai;" xmlns:graph="&ns_graphs;"
	 xmlns="http://www.w3.org/2000/svg" xmlns:xlink="http://www.w3.org/1999/xlink" x="0px" y="0px" viewBox="0 0 600 600"
	 style="enable-background:new 0 0 600 600;" xml:space="preserve">
<style type="text/css">
	.st0{fill:#51A8A3;}
	.st1{fill:#E090C7;}
	.st2{fill:#EACB86;}
</style>
<metadata>
	<sfw  xmlns="&ns_sfw;">
		<slices></slices>
		<sliceSourceBounds  bottomLeftOrigin="true" height="584" width="569.5" x="15.3" y="-592"></sliceSourceBounds>
	</sfw>
</metadata>
<g id="general">
	<path class="st0" d="M145.3,175.2c-15.4,12.9-42.6,24.8-70.4,26.9c-25.8,2-56-4.2-59.3,5.4c-0.5,1.5-0.4,3.2,0.6,5.3
		c8.2,18.4,57,10.7,89.1,28.5C155,268.9,163.1,358,167,401.7c2.8,30.7,2.9,78.2,11.9,79.1c1.3,0.1,2.4-0.7,2.9-1.1
		c10.7-8.6,16-181.4,44.5-217c6.8-8.5,17-23.1,36-34.1c35.3-20.5,78.3-16.9,79.1-27.5c0.1-0.8-0.1-1.8-1.2-3.5
		c-11.5-17.1-55.1-4.7-80-18.7c-47.7-26.8-59.6-168.9-62.3-170.2c-1.7-0.8-2.7-0.8-3.9-0.6C171.5,11.2,200.4,128.9,145.3,175.2z"/>
	<path class="st1" d="M460.7,174.8c-18.7-16.1-51.1-5-68.2-25.5c-1.7-2-2.7-3.8-2.5-5.7c1.2-12,46.4-2.4,70.1-24.3
		c31-28.7,11.6-99,25.6-101.2c1-0.2,1.8,0.1,3.2,0.6c22.6,8.5,0.1,74.6,28.7,97.2c16,12.6,46.4,10.3,64.7,26.2
		c1.1,0.9,2.6,2.4,2.5,4.2c-0.5,9.4-42.6,1.9-66.2,21.9c-33,28-18.9,100.4-28.5,100.8c-0.2,0-0.6,0-1.3-0.4
		C472.4,260,486.6,197.2,460.7,174.8z"/>
	<path class="st2" d="M371.9,379.3c33-26.4,8.7-103.4,32.9-109.7c1.3-0.3,2.5-0.6,4-0.3c19,4.5-9.1,92.1,25.7,121.5
		c28.5,24,90.5,1.8,93,14.1c0.2,0.7,0,1.3-0.2,2.1c-3.8,16.5-47.7,15.4-72.9,31.4c-53.4,34-36.4,153.6-52.1,153.6
		c-0.3,0-0.6-0.1-1.2-0.3c-26.4-8-1.1-104.6-45.8-147.4c-28.8-27.5-81.3-27.6-80-42c0-0.5,0.2-1.5,1.2-3.2
		C288.9,378.2,344.3,401.5,371.9,379.3z"/>
</g>
</svg>
