<?xml version="1.0" encoding="utf-8"?>
<!-- Generator: Adobe Illustrator 24.0.3, SVG Export Plug-In . SVG Version: 6.00 Build 0)  -->
<!DOCTYPE svg PUBLIC "-//W3C//DTD SVG 1.1//EN" "http://www.w3.org/Graphics/SVG/1.1/DTD/svg11.dtd" [
	<!ENTITY ns_extend "http://ns.adobe.com/Extensibility/1.0/">
	<!ENTITY ns_ai "http://ns.adobe.com/AdobeIllustrator/10.0/">
	<!ENTITY ns_graphs "http://ns.adobe.com/Graphs/1.0/">
	<!ENTITY ns_vars "http://ns.adobe.com/Variables/1.0/">
	<!ENTITY ns_imrep "http://ns.adobe.com/ImageReplacement/1.0/">
	<!ENTITY ns_sfw "http://ns.adobe.com/SaveForWeb/1.0/">
	<!ENTITY ns_custom "http://ns.adobe.com/GenericCustomNamespace/1.0/">
	<!ENTITY ns_adobe_xpath "http://ns.adobe.com/XPath/1.0/">
]>
<svg version="1.1" id="general_1_" xmlns:x="&ns_extend;" xmlns:i="&ns_ai;" xmlns:graph="&ns_graphs;"
	 xmlns="http://www.w3.org/2000/svg" xmlns:xlink="http://www.w3.org/1999/xlink" x="0px" y="0px" viewBox="0 0 600 600"
	 style="enable-background:new 0 0 600 600;" xml:space="preserve">
<style type="text/css">
	.st0{fill:#007A96;}
	.st1{fill:#FFFFFF;}
</style>
<metadata>
	<sfw  xmlns="&ns_sfw;">
		<slices></slices>
		<sliceSourceBounds  bottomLeftOrigin="true" height="591.7" width="562.9" x="18.5" y="-595.8"></sliceSourceBounds>
	</sfw>
</metadata>
<g id="general">
	<path class="st0" d="M296.4,272.1c-14.8,7.1-36.5,17.7-62.7,30.7c-86.5,43.1-107.2,56.1-115.5,61.4c-48.3,31.1-72.8,47.3-87.2,78.6
		c-4.7,10.2-21.6,46.8-6.1,86c17.4,43.9,62.5,57.9,73.7,61.4c7.1,2.2,51.6,15.3,95.8-8.6c26.4-14.2,40.1-34.8,45.5-43
		c17.1-26.3,20.4-51.8,22.1-63.9C268.6,426.9,280.6,359.2,296.4,272.1z"/>
	<path class="st0" d="M280.2,4.2c-15,8.9-38,21.7-67.2,34.4c-50.5,21.9-65.8,20.3-108.6,41.4c-37.6,18.6-68,34.2-80.5,67.2
		c-8,21.2-4.9,40.1-3.9,46.1c5.4,30.9,27.3,59.6,57.1,70.6c15,5.5,27.2,4.8,46,3.6c19.2-1.2,48.3-2.9,71.9-21.1
		c15.3-11.7,21.8-26.5,34.4-55.5c12.4-28.7,18.8-52.2,31-102.4C265.9,65.5,272.7,37,280.2,4.2z"/>
	<path class="st0" d="M581.5,18.1c-45.1,37.8-83.5,63.2-111,79.8c-1.1,0.7-50.5,28.6-85.2,70.9c-9.2,11.2-14.5,20.1-18.3,33.6
		c-7.9,27.7,0.8,51.5,3.3,57.6c2.8,7.1,14.9,34.6,45.5,48.5c37.5,17,73.2,0,78.3-2.6c38.8-19.5,52-61.8,63.4-98.2
		c3.7-11.7,7.5-26.7,14.3-86C576.7,78.4,579.7,42.7,581.5,18.1z"/>
	<path class="st1" d="M111.9,99.5C97.8,91,69.9,112.2,56,128.7c-11.4,13.7-15,26.4-16,29.6c-1.4,4.5-2.2,9.5-2.6,16.2
		c-1,19.5-1.9,26.3,15.6,43.9c17.5,17.5,44.8,0,40-19.5c-4.9-19.5-19.5-49.3-5.8-62.7c11.7-11.5,30.6-12.5,31.7-24.3
		C119.4,107,116,101.9,111.9,99.5z"/>
	<path class="st1" d="M108.9,403.3c-23.5-1.3-43,26.9-49.5,36.2c-8,11.5-11.1,21.3-12.6,25.7c0,0-2.8,9.1-3.3,18.1
		c-0.8,13.4,3.7,45.7,23.3,51c11.9,3.2,23.2-5,26.1-7.3c9.3-7.4,14.3-19.3,13.7-30c-0.8-12.5-7.8-13.9-9.2-29.1
		c-0.5-6-1.4-15.8,4.3-23.9c6.2-8.7,13.8-6.6,19.8-16.3c0.7-1.1,6.7-11.1,2.6-18C120.5,403.7,111.3,403.4,108.9,403.3z"/>
	<path class="st1" d="M418.4,169.2c-10.7,0.6-17.9,14.6-24,26.4c-2.9,5.7-6.4,12.7-8.2,22.8c-0.8,4.5-1.9,13.9,0.4,25.4
		c2,9.7,3.8,19.1,12,25.3c1.5,1.2,7.1,5.1,14.8,5.1c0.8,0,14.1-0.2,17.7-8.5c2.1-4.8,0-9.8-1.7-13.7c-4.3-10-11.7-10.3-15-18.2
		c-2.6-6.2-0.8-12.3,1-18.5c4.2-14.2,13-18.3,15.4-32.6c0.4-2.5,0.7-5.7-1.1-8.5C427.4,170.3,422.1,169,418.4,169.2z"/>
</g>
</svg>
