<?xml version="1.0" encoding="utf-8"?>
<!-- Generator: Adobe Illustrator 24.0.3, SVG Export Plug-In . SVG Version: 6.00 Build 0)  -->
<!DOCTYPE svg PUBLIC "-//W3C//DTD SVG 1.1//EN" "http://www.w3.org/Graphics/SVG/1.1/DTD/svg11.dtd" [
	<!ENTITY ns_extend "http://ns.adobe.com/Extensibility/1.0/">
	<!ENTITY ns_ai "http://ns.adobe.com/AdobeIllustrator/10.0/">
	<!ENTITY ns_graphs "http://ns.adobe.com/Graphs/1.0/">
	<!ENTITY ns_vars "http://ns.adobe.com/Variables/1.0/">
	<!ENTITY ns_imrep "http://ns.adobe.com/ImageReplacement/1.0/">
	<!ENTITY ns_sfw "http://ns.adobe.com/SaveForWeb/1.0/">
	<!ENTITY ns_custom "http://ns.adobe.com/GenericCustomNamespace/1.0/">
	<!ENTITY ns_adobe_xpath "http://ns.adobe.com/XPath/1.0/">
]>
<svg version="1.1" id="general_1_" xmlns:x="&ns_extend;" xmlns:i="&ns_ai;" xmlns:graph="&ns_graphs;"
	 xmlns="http://www.w3.org/2000/svg" xmlns:xlink="http://www.w3.org/1999/xlink" x="0px" y="0px" viewBox="0 0 600 600"
	 style="enable-background:new 0 0 600 600;" xml:space="preserve">
<style type="text/css">
	.st0{fill:#E5AE00;}
	.st1{fill:#004031;}
	.st2{fill:#60772F;}
</style>
<metadata>
	<sfw  xmlns="&ns_sfw;">
		<slices></slices>
		<sliceSourceBounds  bottomLeftOrigin="true" height="578" width="563.3" x="29.6" y="-588.1"></sliceSourceBounds>
	</sfw>
</metadata>
<g id="general">
	<path class="st0" d="M559.4,518.4c-29.4-15.7-11.5-22-79.7-67.1c-13.4-8.9-25.1-14.2-35.5-16.8c-21.9-5.6-38,0.7-51.5,11.3
		c-12.9,10-23.5,23.8-34.6,34.9c-28.3,28.3-22,12.6-56.6,5.2c-34.6-7.3-54.5-11.5-92.3,17.8c-13.9,10.8-21,22.3-22.6,24.8
		c-6.6,10.3-20.5,32-14.1,45.5c8,16.9,44.8,14.9,84.9,12.6c46.1-2.6,58.8-10.2,102.8-10.5c10.6-0.1,24.7,1,52.4,3.1
		c66.7,5.2,116.9,11.3,161.5-5.2c6.8-2.5,16-6.8,18.2-14.4C596.2,546.3,579.8,529.3,559.4,518.4z"/>
	<path class="st1" d="M449.9,413.4c-0.7,3.3-1.5,6.5-2.4,9.8c-1,3.7-2.1,7.5-3.3,11.2c-21.9-5.6-38,0.7-51.5,11.3
		c1.5-7.2,3.3-16.3,5.1-26.3c0.8-4.3,1.5-8.8,2.3-13.4c0.7-4.4,1.4-8.9,2.1-13.4c3-20.6,4.3-28.9,3.8-42.6c-0.1-3.4-0.3-7-0.7-11.3
		c-0.7-8.4-1.7-19.2-3.2-34.2c-0.9-8.9-1.7-17.1-2.6-24.9c-0.9-8.1-1.9-15.6-2.9-22.6c-2.9-19.2-6.6-34.5-12.6-47
		c-1.2-2.6-2.6-5.1-4-7.5c-1.3-2.1-2.6-4.1-4.1-6c-10.6-13.9-17.1-22-27-28.2c-1.3-0.8-2.6-1.6-4-2.3c-0.9-2.5-1.8-5-2.9-7.4
		c-4.6-10.7-11.1-20.9-20.2-29.9c-10.8-10.7-20.4-14.8-19-18.4c2-5.4,24.8-0.4,47.6,3.8c7.5,3.4,14.4,7.4,20.9,11.8
		c2.6,1.8,5.1,3.6,7.6,5.5c5,3.8,9.9,8,14.8,12.6c9.5,8.7,17.5,20.3,24.2,33.5c1,2,2,4,2.9,6.1c8.7,19,14.9,40.9,19,62.1
		c0.4,2.2,0.9,4.5,1.4,7v0c0.9,4.4,2,9.2,3.1,14.3c4.5,20,9.9,45.3,11.3,74.3c0.1,2.5,0.2,5,0.3,7.6v0
		C456.5,368.9,455,390.6,449.9,413.4z"/>
	<path class="st2" d="M371,81.9c-39.3-24.6-63.8,2.2-108.1-14.6c-39.8-15.1-41.4-44.9-87.9-54.7c-15.9-3.3-35.4-4-37.3,1.6
		c-4,11.9,72.9,44.4,69.2,54.5c-3.4,9.3-67.1-20.6-132.8,4.8c-22.9,8.9-46.5,24.6-44.3,31.8c2,6.5,24.8,5.2,57.9,3.4
		c47.6-2.6,79.7-9.5,84.1,1c0.5,1.2,0.7,2.3,0.5,3c-3.1,9-57.2-2.7-83.8,40.5c-29,47.1-48,67-38,96c10,29,72.4-53.4,99.6-65.2
		c27.2-11.8,44.4-47.1,44.4-24.4c0,22.6,0.9,48,14.5,77c11.9,25.4,26.6,48.7,34.3,46.2c1.5-0.5,2.3-1.8,2.8-2.7
		c9.7-16.9,2.5-56.5,3.8-94.2c0.3-9.4,1.3-22.3,9-26.1c4.2-2.1,9.7-0.9,12.9-0.3c0.4,0.1,8.3,1.8,15.1,7.3
		c12.5,10.2,17.6,30.4,19.4,37c10,36.2,34.7,68.3,42.7,66.1c4.6-1.3,4.7-13.9,4.7-27.9c0-22.9,0.1-50.7-8.7-76.1
		c-4.7-13.5-11.9-26.3-23-37.3c-10.8-10.7-20.4-14.8-19-18.4c2-5.4,24.8-0.4,47.6,3.8c22,4.1,44,7.5,47.4,0.2
		C401.2,107.2,386.3,91.5,371,81.9z"/>
	<path class="st0" d="M456,348.8L456,348.8l-29.1,20.2l-2.9-23.8l-5.7-7.6L406,349.9c-0.1-3.4-0.3-7-0.7-11.3l23.5-12.5l9.5,25.7
		l10.5-5.7l6.9-4.9C455.9,343.8,456,346.3,456,348.8z"/>
	<path class="st0" d="M444.4,267l-8.8-7.5l-5.5,36.3l-16.5-31.4l-14,15.1c-0.9-8.1-1.9-15.6-2.9-22.6l12.5-11.6l14.9,31.4l4.2-31.4
		l13.1,7.3v0C442.2,257.1,443.3,261.9,444.4,267z"/>
	<path class="st0" d="M420.9,183.6l-7.4,15.6l-22.2-9.8l-7.2,20.5c-1.2-2.6-2.6-5.1-4-7.5l1.8-26l31.7,9.8l4.4-8.8
		C419,179.5,420,181.6,420.9,183.6z"/>
	<path class="st0" d="M378.9,131.4l-7.8,25.7L349.7,142l-0.8,26.3c-1.3-0.8-2.6-1.6-4-2.3c-0.9-2.5-1.8-5-2.9-7.4l1.7-26.9
		l23.3,11.7l4.3-17.4C373.9,127.7,376.4,129.5,378.9,131.4z"/>
	<path class="st0" d="M449.9,413.4c-0.7,3.3-1.5,6.5-2.4,9.8l-6.6,1.6L422.8,405l-25,14.4c0.8-4.3,1.5-8.8,2.3-13.4l26.3-8.6
		l16.3,19.2L449.9,413.4z"/>
</g>
</svg>
